G04 #@! TF.GenerationSoftware,KiCad,Pcbnew,7.0.9-7.0.9~ubuntu22.04.1*
G04 #@! TF.CreationDate,2023-12-12T21:19:09-05:00*
G04 #@! TF.ProjectId,tt03-tester,74743033-2d74-4657-9374-65722e6b6963,rev?*
G04 #@! TF.SameCoordinates,PX41cdb40PY623a7c0*
G04 #@! TF.FileFunction,Soldermask,Top*
G04 #@! TF.FilePolarity,Negative*
%FSLAX46Y46*%
G04 Gerber Fmt 4.6, Leading zero omitted, Abs format (unit mm)*
G04 Created by KiCad (PCBNEW 7.0.9-7.0.9~ubuntu22.04.1) date 2023-12-12 21:19:09*
%MOMM*%
%LPD*%
G01*
G04 APERTURE LIST*
G04 Aperture macros list*
%AMRoundRect*
0 Rectangle with rounded corners*
0 $1 Rounding radius*
0 $2 $3 $4 $5 $6 $7 $8 $9 X,Y pos of 4 corners*
0 Add a 4 corners polygon primitive as box body*
4,1,4,$2,$3,$4,$5,$6,$7,$8,$9,$2,$3,0*
0 Add four circle primitives for the rounded corners*
1,1,$1+$1,$2,$3*
1,1,$1+$1,$4,$5*
1,1,$1+$1,$6,$7*
1,1,$1+$1,$8,$9*
0 Add four rect primitives between the rounded corners*
20,1,$1+$1,$2,$3,$4,$5,0*
20,1,$1+$1,$4,$5,$6,$7,0*
20,1,$1+$1,$6,$7,$8,$9,0*
20,1,$1+$1,$8,$9,$2,$3,0*%
G04 Aperture macros list end*
%ADD10RoundRect,0.102000X0.700000X-0.750000X0.700000X0.750000X-0.700000X0.750000X-0.700000X-0.750000X0*%
%ADD11RoundRect,0.200000X-0.275000X0.200000X-0.275000X-0.200000X0.275000X-0.200000X0.275000X0.200000X0*%
%ADD12RoundRect,0.225000X0.250000X-0.225000X0.250000X0.225000X-0.250000X0.225000X-0.250000X-0.225000X0*%
%ADD13RoundRect,0.200000X0.275000X-0.200000X0.275000X0.200000X-0.275000X0.200000X-0.275000X-0.200000X0*%
%ADD14RoundRect,0.150000X0.650000X0.150000X-0.650000X0.150000X-0.650000X-0.150000X0.650000X-0.150000X0*%
%ADD15RoundRect,0.237500X0.237500X-0.287500X0.237500X0.287500X-0.237500X0.287500X-0.237500X-0.287500X0*%
%ADD16O,1.800000X1.800000*%
%ADD17O,1.500000X1.500000*%
%ADD18O,1.700000X1.700000*%
%ADD19R,1.700000X3.500000*%
%ADD20R,1.700000X1.700000*%
%ADD21R,3.500000X1.700000*%
%ADD22C,6.400000*%
G04 APERTURE END LIST*
D10*
G04 #@! TO.C,SW1*
X57100000Y11950000D03*
X57100000Y18450000D03*
G04 #@! TD*
D11*
G04 #@! TO.C,R10*
X55000000Y22125000D03*
X55000000Y20475000D03*
G04 #@! TD*
G04 #@! TO.C,R9*
X53400000Y20525000D03*
X53400000Y18875000D03*
G04 #@! TD*
D12*
G04 #@! TO.C,C2*
X56700000Y20525000D03*
X56700000Y22075000D03*
G04 #@! TD*
D13*
G04 #@! TO.C,R2*
X28917500Y72905000D03*
X28917500Y74555000D03*
G04 #@! TD*
D14*
G04 #@! TO.C,U1*
X24600000Y73095000D03*
X24600000Y74365000D03*
X24600000Y75635000D03*
X24600000Y76905000D03*
X17400000Y76905000D03*
X17400000Y75635000D03*
X17400000Y74365000D03*
X17400000Y73095000D03*
G04 #@! TD*
D15*
G04 #@! TO.C,D1*
X54020000Y37125000D03*
X54020000Y38875000D03*
G04 #@! TD*
D13*
G04 #@! TO.C,R8*
X59000000Y33175000D03*
X59000000Y34825000D03*
G04 #@! TD*
G04 #@! TO.C,R6*
X53980000Y33175000D03*
X53980000Y34825000D03*
G04 #@! TD*
G04 #@! TO.C,R1*
X26917500Y70905000D03*
X26917500Y72555000D03*
G04 #@! TD*
D11*
G04 #@! TO.C,R5*
X62000000Y15000000D03*
X62000000Y13350000D03*
G04 #@! TD*
D16*
G04 #@! TO.C,U2*
X11000000Y53275000D03*
D17*
X14030000Y53575000D03*
X14030000Y58425000D03*
D16*
X11000000Y58725000D03*
D18*
X10870000Y47110000D03*
D19*
X10870000Y46210000D03*
D18*
X13410000Y47110000D03*
D19*
X13410000Y46210000D03*
D20*
X15950000Y47110000D03*
D19*
X15950000Y46210000D03*
D18*
X18490000Y47110000D03*
D19*
X18490000Y46210000D03*
D18*
X21030000Y47110000D03*
D19*
X21030000Y46210000D03*
D18*
X23570000Y47110000D03*
D19*
X23570000Y46210000D03*
D18*
X26110000Y47110000D03*
D19*
X26110000Y46210000D03*
D20*
X28650000Y47110000D03*
D19*
X28650000Y46210000D03*
D18*
X31190000Y47110000D03*
D19*
X31190000Y46210000D03*
D18*
X33730000Y47110000D03*
D19*
X33730000Y46210000D03*
D18*
X36270000Y47110000D03*
D19*
X36270000Y46210000D03*
D18*
X38810000Y47110000D03*
D19*
X38810000Y46210000D03*
D20*
X41350000Y47110000D03*
D19*
X41350000Y46210000D03*
D18*
X43890000Y47110000D03*
D19*
X43890000Y46210000D03*
D18*
X46430000Y47110000D03*
D19*
X46430000Y46210000D03*
D18*
X48970000Y47110000D03*
D19*
X48970000Y46210000D03*
D18*
X51510000Y47110000D03*
D19*
X51510000Y46210000D03*
D20*
X54050000Y47110000D03*
D19*
X54050000Y46210000D03*
D18*
X56590000Y47110000D03*
D19*
X56590000Y46210000D03*
D18*
X59130000Y47110000D03*
D19*
X59130000Y46210000D03*
D18*
X59130000Y64890000D03*
D19*
X59130000Y65790000D03*
D18*
X56590000Y64890000D03*
D19*
X56590000Y65790000D03*
D20*
X54050000Y64890000D03*
D19*
X54050000Y65790000D03*
D18*
X51510000Y64890000D03*
D19*
X51510000Y65790000D03*
D18*
X48970000Y64890000D03*
D19*
X48970000Y65790000D03*
D18*
X46430000Y64890000D03*
D19*
X46430000Y65790000D03*
D18*
X43890000Y64890000D03*
D19*
X43890000Y65790000D03*
D20*
X41350000Y64890000D03*
D19*
X41350000Y65790000D03*
D18*
X38810000Y64890000D03*
D19*
X38810000Y65790000D03*
D18*
X36270000Y64890000D03*
D19*
X36270000Y65790000D03*
D18*
X33730000Y64890000D03*
D19*
X33730000Y65790000D03*
D18*
X31190000Y64890000D03*
D19*
X31190000Y65790000D03*
D20*
X28650000Y64890000D03*
D19*
X28650000Y65790000D03*
D18*
X26110000Y64890000D03*
D19*
X26110000Y65790000D03*
D18*
X23570000Y64890000D03*
D19*
X23570000Y65790000D03*
D18*
X21030000Y64890000D03*
D19*
X21030000Y65790000D03*
D18*
X18490000Y64890000D03*
D19*
X18490000Y65790000D03*
D20*
X15950000Y64890000D03*
D19*
X15950000Y65790000D03*
D18*
X13410000Y64890000D03*
D19*
X13410000Y65790000D03*
D18*
X10870000Y64890000D03*
D19*
X10870000Y65790000D03*
D18*
X58900000Y53460000D03*
D21*
X59800000Y53460000D03*
D20*
X58900000Y56000000D03*
D21*
X59800000Y56000000D03*
D18*
X58900000Y58540000D03*
D21*
X59800000Y58540000D03*
G04 #@! TD*
D13*
G04 #@! TO.C,R7*
X56490000Y33175000D03*
X56490000Y34825000D03*
G04 #@! TD*
D12*
G04 #@! TO.C,C1*
X14917500Y70955000D03*
X14917500Y72505000D03*
G04 #@! TD*
D13*
G04 #@! TO.C,R3*
X12917500Y72905000D03*
X12917500Y74555000D03*
G04 #@! TD*
D20*
G04 #@! TO.C,J2*
X65750000Y69260000D03*
D18*
X65750000Y66720000D03*
X65750000Y64180000D03*
X65750000Y61640000D03*
X65750000Y59100000D03*
X65750000Y56560000D03*
X65750000Y54020000D03*
X65750000Y51480000D03*
X65750000Y48940000D03*
X65750000Y46400000D03*
X65750000Y43860000D03*
X65750000Y41320000D03*
X65750000Y38780000D03*
X65750000Y36240000D03*
X65750000Y33700000D03*
X65750000Y31160000D03*
X65750000Y28620000D03*
X65750000Y26080000D03*
X65750000Y23540000D03*
X65750000Y21000000D03*
X65750000Y18460000D03*
X65750000Y15920000D03*
X65750000Y13380000D03*
X65750000Y10840000D03*
G04 #@! TD*
D15*
G04 #@! TO.C,D2*
X56610000Y37125000D03*
X56610000Y38875000D03*
G04 #@! TD*
D22*
G04 #@! TO.C,MT2*
X62750000Y4750000D03*
G04 #@! TD*
G04 #@! TO.C,MT1*
X62750000Y78250000D03*
G04 #@! TD*
D15*
G04 #@! TO.C,D3*
X59200000Y37125000D03*
X59200000Y38875000D03*
G04 #@! TD*
D11*
G04 #@! TO.C,R4*
X7000000Y65825000D03*
X7000000Y64175000D03*
G04 #@! TD*
M02*
