G04 #@! TF.GenerationSoftware,KiCad,Pcbnew,7.0.9-7.0.9~ubuntu22.04.1*
G04 #@! TF.CreationDate,2023-12-12T21:19:08-05:00*
G04 #@! TF.ProjectId,tt03-tester,74743033-2d74-4657-9374-65722e6b6963,rev?*
G04 #@! TF.SameCoordinates,PX41cdb40PY623a7c0*
G04 #@! TF.FileFunction,Legend,Top*
G04 #@! TF.FilePolarity,Positive*
%FSLAX46Y46*%
G04 Gerber Fmt 4.6, Leading zero omitted, Abs format (unit mm)*
G04 Created by KiCad (PCBNEW 7.0.9-7.0.9~ubuntu22.04.1) date 2023-12-12 21:19:08*
%MOMM*%
%LPD*%
G01*
G04 APERTURE LIST*
%ADD10C,0.250000*%
%ADD11C,0.300000*%
%ADD12C,0.150000*%
%ADD13C,0.375000*%
%ADD14C,0.200000*%
%ADD15C,0.120000*%
G04 APERTURE END LIST*
D10*
X41178758Y42659858D02*
X41535901Y41859858D01*
X41535901Y41859858D02*
X41893044Y42659858D01*
X43250187Y41859858D02*
X42393044Y41859858D01*
X42821615Y41859858D02*
X42821615Y43059858D01*
X42821615Y43059858D02*
X42678758Y42888429D01*
X42678758Y42888429D02*
X42535901Y42774143D01*
X42535901Y42774143D02*
X42393044Y42717000D01*
X43893043Y41974143D02*
X43964472Y41917000D01*
X43964472Y41917000D02*
X43893043Y41859858D01*
X43893043Y41859858D02*
X43821615Y41917000D01*
X43821615Y41917000D02*
X43893043Y41974143D01*
X43893043Y41974143D02*
X43893043Y41859858D01*
X44893044Y43059858D02*
X45035901Y43059858D01*
X45035901Y43059858D02*
X45178758Y43002715D01*
X45178758Y43002715D02*
X45250187Y42945572D01*
X45250187Y42945572D02*
X45321615Y42831286D01*
X45321615Y42831286D02*
X45393044Y42602715D01*
X45393044Y42602715D02*
X45393044Y42317000D01*
X45393044Y42317000D02*
X45321615Y42088429D01*
X45321615Y42088429D02*
X45250187Y41974143D01*
X45250187Y41974143D02*
X45178758Y41917000D01*
X45178758Y41917000D02*
X45035901Y41859858D01*
X45035901Y41859858D02*
X44893044Y41859858D01*
X44893044Y41859858D02*
X44750187Y41917000D01*
X44750187Y41917000D02*
X44678758Y41974143D01*
X44678758Y41974143D02*
X44607329Y42088429D01*
X44607329Y42088429D02*
X44535901Y42317000D01*
X44535901Y42317000D02*
X44535901Y42602715D01*
X44535901Y42602715D02*
X44607329Y42831286D01*
X44607329Y42831286D02*
X44678758Y42945572D01*
X44678758Y42945572D02*
X44750187Y43002715D01*
X44750187Y43002715D02*
X44893044Y43059858D01*
X5250187Y39202715D02*
X5178758Y39259858D01*
X5178758Y39259858D02*
X5035901Y39431286D01*
X5035901Y39431286D02*
X4964473Y39545572D01*
X4964473Y39545572D02*
X4893044Y39717000D01*
X4893044Y39717000D02*
X4821615Y40002715D01*
X4821615Y40002715D02*
X4821615Y40231286D01*
X4821615Y40231286D02*
X4893044Y40517000D01*
X4893044Y40517000D02*
X4964473Y40688429D01*
X4964473Y40688429D02*
X5035901Y40802715D01*
X5035901Y40802715D02*
X5178758Y40974143D01*
X5178758Y40974143D02*
X5250187Y41031286D01*
X6678758Y39774143D02*
X6607330Y39717000D01*
X6607330Y39717000D02*
X6393044Y39659858D01*
X6393044Y39659858D02*
X6250187Y39659858D01*
X6250187Y39659858D02*
X6035901Y39717000D01*
X6035901Y39717000D02*
X5893044Y39831286D01*
X5893044Y39831286D02*
X5821615Y39945572D01*
X5821615Y39945572D02*
X5750187Y40174143D01*
X5750187Y40174143D02*
X5750187Y40345572D01*
X5750187Y40345572D02*
X5821615Y40574143D01*
X5821615Y40574143D02*
X5893044Y40688429D01*
X5893044Y40688429D02*
X6035901Y40802715D01*
X6035901Y40802715D02*
X6250187Y40859858D01*
X6250187Y40859858D02*
X6393044Y40859858D01*
X6393044Y40859858D02*
X6607330Y40802715D01*
X6607330Y40802715D02*
X6678758Y40745572D01*
X7178758Y39202715D02*
X7250187Y39259858D01*
X7250187Y39259858D02*
X7393044Y39431286D01*
X7393044Y39431286D02*
X7464473Y39545572D01*
X7464473Y39545572D02*
X7535901Y39717000D01*
X7535901Y39717000D02*
X7607330Y40002715D01*
X7607330Y40002715D02*
X7607330Y40231286D01*
X7607330Y40231286D02*
X7535901Y40517000D01*
X7535901Y40517000D02*
X7464473Y40688429D01*
X7464473Y40688429D02*
X7393044Y40802715D01*
X7393044Y40802715D02*
X7250187Y40974143D01*
X7250187Y40974143D02*
X7178758Y41031286D01*
X9393044Y40745572D02*
X9464472Y40802715D01*
X9464472Y40802715D02*
X9607330Y40859858D01*
X9607330Y40859858D02*
X9964472Y40859858D01*
X9964472Y40859858D02*
X10107330Y40802715D01*
X10107330Y40802715D02*
X10178758Y40745572D01*
X10178758Y40745572D02*
X10250187Y40631286D01*
X10250187Y40631286D02*
X10250187Y40517000D01*
X10250187Y40517000D02*
X10178758Y40345572D01*
X10178758Y40345572D02*
X9321615Y39659858D01*
X9321615Y39659858D02*
X10250187Y39659858D01*
X11178758Y40859858D02*
X11321615Y40859858D01*
X11321615Y40859858D02*
X11464472Y40802715D01*
X11464472Y40802715D02*
X11535901Y40745572D01*
X11535901Y40745572D02*
X11607329Y40631286D01*
X11607329Y40631286D02*
X11678758Y40402715D01*
X11678758Y40402715D02*
X11678758Y40117000D01*
X11678758Y40117000D02*
X11607329Y39888429D01*
X11607329Y39888429D02*
X11535901Y39774143D01*
X11535901Y39774143D02*
X11464472Y39717000D01*
X11464472Y39717000D02*
X11321615Y39659858D01*
X11321615Y39659858D02*
X11178758Y39659858D01*
X11178758Y39659858D02*
X11035901Y39717000D01*
X11035901Y39717000D02*
X10964472Y39774143D01*
X10964472Y39774143D02*
X10893043Y39888429D01*
X10893043Y39888429D02*
X10821615Y40117000D01*
X10821615Y40117000D02*
X10821615Y40402715D01*
X10821615Y40402715D02*
X10893043Y40631286D01*
X10893043Y40631286D02*
X10964472Y40745572D01*
X10964472Y40745572D02*
X11035901Y40802715D01*
X11035901Y40802715D02*
X11178758Y40859858D01*
X12250186Y40745572D02*
X12321614Y40802715D01*
X12321614Y40802715D02*
X12464472Y40859858D01*
X12464472Y40859858D02*
X12821614Y40859858D01*
X12821614Y40859858D02*
X12964472Y40802715D01*
X12964472Y40802715D02*
X13035900Y40745572D01*
X13035900Y40745572D02*
X13107329Y40631286D01*
X13107329Y40631286D02*
X13107329Y40517000D01*
X13107329Y40517000D02*
X13035900Y40345572D01*
X13035900Y40345572D02*
X12178757Y39659858D01*
X12178757Y39659858D02*
X13107329Y39659858D01*
X13607328Y40859858D02*
X14535900Y40859858D01*
X14535900Y40859858D02*
X14035900Y40402715D01*
X14035900Y40402715D02*
X14250185Y40402715D01*
X14250185Y40402715D02*
X14393043Y40345572D01*
X14393043Y40345572D02*
X14464471Y40288429D01*
X14464471Y40288429D02*
X14535900Y40174143D01*
X14535900Y40174143D02*
X14535900Y39888429D01*
X14535900Y39888429D02*
X14464471Y39774143D01*
X14464471Y39774143D02*
X14393043Y39717000D01*
X14393043Y39717000D02*
X14250185Y39659858D01*
X14250185Y39659858D02*
X13821614Y39659858D01*
X13821614Y39659858D02*
X13678757Y39717000D01*
X13678757Y39717000D02*
X13607328Y39774143D01*
X16321613Y39659858D02*
X16321613Y40859858D01*
X16321613Y40859858D02*
X16893042Y40859858D01*
X16893042Y40859858D02*
X17035899Y40802715D01*
X17035899Y40802715D02*
X17107328Y40745572D01*
X17107328Y40745572D02*
X17178756Y40631286D01*
X17178756Y40631286D02*
X17178756Y40459858D01*
X17178756Y40459858D02*
X17107328Y40345572D01*
X17107328Y40345572D02*
X17035899Y40288429D01*
X17035899Y40288429D02*
X16893042Y40231286D01*
X16893042Y40231286D02*
X16321613Y40231286D01*
X18464471Y39659858D02*
X18464471Y40288429D01*
X18464471Y40288429D02*
X18393042Y40402715D01*
X18393042Y40402715D02*
X18250185Y40459858D01*
X18250185Y40459858D02*
X17964471Y40459858D01*
X17964471Y40459858D02*
X17821613Y40402715D01*
X18464471Y39717000D02*
X18321613Y39659858D01*
X18321613Y39659858D02*
X17964471Y39659858D01*
X17964471Y39659858D02*
X17821613Y39717000D01*
X17821613Y39717000D02*
X17750185Y39831286D01*
X17750185Y39831286D02*
X17750185Y39945572D01*
X17750185Y39945572D02*
X17821613Y40059858D01*
X17821613Y40059858D02*
X17964471Y40117000D01*
X17964471Y40117000D02*
X18321613Y40117000D01*
X18321613Y40117000D02*
X18464471Y40174143D01*
X18964471Y40459858D02*
X19535899Y40459858D01*
X19178756Y40859858D02*
X19178756Y39831286D01*
X19178756Y39831286D02*
X19250185Y39717000D01*
X19250185Y39717000D02*
X19393042Y39659858D01*
X19393042Y39659858D02*
X19535899Y39659858D01*
X21178756Y39659858D02*
X21178756Y40859858D01*
X21178756Y40859858D02*
X21535899Y40859858D01*
X21535899Y40859858D02*
X21750185Y40802715D01*
X21750185Y40802715D02*
X21893042Y40688429D01*
X21893042Y40688429D02*
X21964471Y40574143D01*
X21964471Y40574143D02*
X22035899Y40345572D01*
X22035899Y40345572D02*
X22035899Y40174143D01*
X22035899Y40174143D02*
X21964471Y39945572D01*
X21964471Y39945572D02*
X21893042Y39831286D01*
X21893042Y39831286D02*
X21750185Y39717000D01*
X21750185Y39717000D02*
X21535899Y39659858D01*
X21535899Y39659858D02*
X21178756Y39659858D01*
X23250185Y39717000D02*
X23107328Y39659858D01*
X23107328Y39659858D02*
X22821614Y39659858D01*
X22821614Y39659858D02*
X22678756Y39717000D01*
X22678756Y39717000D02*
X22607328Y39831286D01*
X22607328Y39831286D02*
X22607328Y40288429D01*
X22607328Y40288429D02*
X22678756Y40402715D01*
X22678756Y40402715D02*
X22821614Y40459858D01*
X22821614Y40459858D02*
X23107328Y40459858D01*
X23107328Y40459858D02*
X23250185Y40402715D01*
X23250185Y40402715D02*
X23321614Y40288429D01*
X23321614Y40288429D02*
X23321614Y40174143D01*
X23321614Y40174143D02*
X22607328Y40059858D01*
X24535899Y39717000D02*
X24393042Y39659858D01*
X24393042Y39659858D02*
X24107328Y39659858D01*
X24107328Y39659858D02*
X23964470Y39717000D01*
X23964470Y39717000D02*
X23893042Y39831286D01*
X23893042Y39831286D02*
X23893042Y40288429D01*
X23893042Y40288429D02*
X23964470Y40402715D01*
X23964470Y40402715D02*
X24107328Y40459858D01*
X24107328Y40459858D02*
X24393042Y40459858D01*
X24393042Y40459858D02*
X24535899Y40402715D01*
X24535899Y40402715D02*
X24607328Y40288429D01*
X24607328Y40288429D02*
X24607328Y40174143D01*
X24607328Y40174143D02*
X23893042Y40059858D01*
X25893042Y40459858D02*
X25893042Y39488429D01*
X25893042Y39488429D02*
X25821613Y39374143D01*
X25821613Y39374143D02*
X25750184Y39317000D01*
X25750184Y39317000D02*
X25607327Y39259858D01*
X25607327Y39259858D02*
X25393042Y39259858D01*
X25393042Y39259858D02*
X25250184Y39317000D01*
X25893042Y39717000D02*
X25750184Y39659858D01*
X25750184Y39659858D02*
X25464470Y39659858D01*
X25464470Y39659858D02*
X25321613Y39717000D01*
X25321613Y39717000D02*
X25250184Y39774143D01*
X25250184Y39774143D02*
X25178756Y39888429D01*
X25178756Y39888429D02*
X25178756Y40231286D01*
X25178756Y40231286D02*
X25250184Y40345572D01*
X25250184Y40345572D02*
X25321613Y40402715D01*
X25321613Y40402715D02*
X25464470Y40459858D01*
X25464470Y40459858D02*
X25750184Y40459858D01*
X25750184Y40459858D02*
X25893042Y40402715D01*
X27250185Y39659858D02*
X27250185Y40288429D01*
X27250185Y40288429D02*
X27178756Y40402715D01*
X27178756Y40402715D02*
X27035899Y40459858D01*
X27035899Y40459858D02*
X26750185Y40459858D01*
X26750185Y40459858D02*
X26607327Y40402715D01*
X27250185Y39717000D02*
X27107327Y39659858D01*
X27107327Y39659858D02*
X26750185Y39659858D01*
X26750185Y39659858D02*
X26607327Y39717000D01*
X26607327Y39717000D02*
X26535899Y39831286D01*
X26535899Y39831286D02*
X26535899Y39945572D01*
X26535899Y39945572D02*
X26607327Y40059858D01*
X26607327Y40059858D02*
X26750185Y40117000D01*
X26750185Y40117000D02*
X27107327Y40117000D01*
X27107327Y40117000D02*
X27250185Y40174143D01*
X27964470Y40459858D02*
X27964470Y39659858D01*
X27964470Y40345572D02*
X28035899Y40402715D01*
X28035899Y40402715D02*
X28178756Y40459858D01*
X28178756Y40459858D02*
X28393042Y40459858D01*
X28393042Y40459858D02*
X28535899Y40402715D01*
X28535899Y40402715D02*
X28607328Y40288429D01*
X28607328Y40288429D02*
X28607328Y39659858D01*
X29393042Y39717000D02*
X29393042Y39659858D01*
X29393042Y39659858D02*
X29321613Y39545572D01*
X29321613Y39545572D02*
X29250185Y39488429D01*
X31178756Y40459858D02*
X31178756Y39259858D01*
X31178756Y40402715D02*
X31321614Y40459858D01*
X31321614Y40459858D02*
X31607328Y40459858D01*
X31607328Y40459858D02*
X31750185Y40402715D01*
X31750185Y40402715D02*
X31821614Y40345572D01*
X31821614Y40345572D02*
X31893042Y40231286D01*
X31893042Y40231286D02*
X31893042Y39888429D01*
X31893042Y39888429D02*
X31821614Y39774143D01*
X31821614Y39774143D02*
X31750185Y39717000D01*
X31750185Y39717000D02*
X31607328Y39659858D01*
X31607328Y39659858D02*
X31321614Y39659858D01*
X31321614Y39659858D02*
X31178756Y39717000D01*
X32464471Y39717000D02*
X32607328Y39659858D01*
X32607328Y39659858D02*
X32893042Y39659858D01*
X32893042Y39659858D02*
X33035899Y39717000D01*
X33035899Y39717000D02*
X33107328Y39831286D01*
X33107328Y39831286D02*
X33107328Y39888429D01*
X33107328Y39888429D02*
X33035899Y40002715D01*
X33035899Y40002715D02*
X32893042Y40059858D01*
X32893042Y40059858D02*
X32678757Y40059858D01*
X32678757Y40059858D02*
X32535899Y40117000D01*
X32535899Y40117000D02*
X32464471Y40231286D01*
X32464471Y40231286D02*
X32464471Y40288429D01*
X32464471Y40288429D02*
X32535899Y40402715D01*
X32535899Y40402715D02*
X32678757Y40459858D01*
X32678757Y40459858D02*
X32893042Y40459858D01*
X32893042Y40459858D02*
X33035899Y40402715D01*
X33607328Y40459858D02*
X33964471Y39659858D01*
X34321614Y40459858D02*
X33964471Y39659858D01*
X33964471Y39659858D02*
X33821614Y39374143D01*
X33821614Y39374143D02*
X33750185Y39317000D01*
X33750185Y39317000D02*
X33607328Y39259858D01*
X35535900Y39717000D02*
X35393042Y39659858D01*
X35393042Y39659858D02*
X35107328Y39659858D01*
X35107328Y39659858D02*
X34964471Y39717000D01*
X34964471Y39717000D02*
X34893042Y39774143D01*
X34893042Y39774143D02*
X34821614Y39888429D01*
X34821614Y39888429D02*
X34821614Y40231286D01*
X34821614Y40231286D02*
X34893042Y40345572D01*
X34893042Y40345572D02*
X34964471Y40402715D01*
X34964471Y40402715D02*
X35107328Y40459858D01*
X35107328Y40459858D02*
X35393042Y40459858D01*
X35393042Y40459858D02*
X35535900Y40402715D01*
X36178756Y39659858D02*
X36178756Y40859858D01*
X36821614Y39659858D02*
X36821614Y40288429D01*
X36821614Y40288429D02*
X36750185Y40402715D01*
X36750185Y40402715D02*
X36607328Y40459858D01*
X36607328Y40459858D02*
X36393042Y40459858D01*
X36393042Y40459858D02*
X36250185Y40402715D01*
X36250185Y40402715D02*
X36178756Y40345572D01*
X37750185Y39659858D02*
X37607328Y39717000D01*
X37607328Y39717000D02*
X37535899Y39774143D01*
X37535899Y39774143D02*
X37464471Y39888429D01*
X37464471Y39888429D02*
X37464471Y40231286D01*
X37464471Y40231286D02*
X37535899Y40345572D01*
X37535899Y40345572D02*
X37607328Y40402715D01*
X37607328Y40402715D02*
X37750185Y40459858D01*
X37750185Y40459858D02*
X37964471Y40459858D01*
X37964471Y40459858D02*
X38107328Y40402715D01*
X38107328Y40402715D02*
X38178757Y40345572D01*
X38178757Y40345572D02*
X38250185Y40231286D01*
X38250185Y40231286D02*
X38250185Y39888429D01*
X38250185Y39888429D02*
X38178757Y39774143D01*
X38178757Y39774143D02*
X38107328Y39717000D01*
X38107328Y39717000D02*
X37964471Y39659858D01*
X37964471Y39659858D02*
X37750185Y39659858D01*
X39535900Y40459858D02*
X39535900Y39488429D01*
X39535900Y39488429D02*
X39464471Y39374143D01*
X39464471Y39374143D02*
X39393042Y39317000D01*
X39393042Y39317000D02*
X39250185Y39259858D01*
X39250185Y39259858D02*
X39035900Y39259858D01*
X39035900Y39259858D02*
X38893042Y39317000D01*
X39535900Y39717000D02*
X39393042Y39659858D01*
X39393042Y39659858D02*
X39107328Y39659858D01*
X39107328Y39659858D02*
X38964471Y39717000D01*
X38964471Y39717000D02*
X38893042Y39774143D01*
X38893042Y39774143D02*
X38821614Y39888429D01*
X38821614Y39888429D02*
X38821614Y40231286D01*
X38821614Y40231286D02*
X38893042Y40345572D01*
X38893042Y40345572D02*
X38964471Y40402715D01*
X38964471Y40402715D02*
X39107328Y40459858D01*
X39107328Y40459858D02*
X39393042Y40459858D01*
X39393042Y40459858D02*
X39535900Y40402715D01*
X40821614Y39717000D02*
X40678757Y39659858D01*
X40678757Y39659858D02*
X40393043Y39659858D01*
X40393043Y39659858D02*
X40250185Y39717000D01*
X40250185Y39717000D02*
X40178757Y39831286D01*
X40178757Y39831286D02*
X40178757Y40288429D01*
X40178757Y40288429D02*
X40250185Y40402715D01*
X40250185Y40402715D02*
X40393043Y40459858D01*
X40393043Y40459858D02*
X40678757Y40459858D01*
X40678757Y40459858D02*
X40821614Y40402715D01*
X40821614Y40402715D02*
X40893043Y40288429D01*
X40893043Y40288429D02*
X40893043Y40174143D01*
X40893043Y40174143D02*
X40178757Y40059858D01*
X41535899Y40459858D02*
X41535899Y39659858D01*
X41535899Y40345572D02*
X41607328Y40402715D01*
X41607328Y40402715D02*
X41750185Y40459858D01*
X41750185Y40459858D02*
X41964471Y40459858D01*
X41964471Y40459858D02*
X42107328Y40402715D01*
X42107328Y40402715D02*
X42178757Y40288429D01*
X42178757Y40288429D02*
X42178757Y39659858D01*
X42893042Y39659858D02*
X42893042Y40459858D01*
X42893042Y40859858D02*
X42821614Y40802715D01*
X42821614Y40802715D02*
X42893042Y40745572D01*
X42893042Y40745572D02*
X42964471Y40802715D01*
X42964471Y40802715D02*
X42893042Y40859858D01*
X42893042Y40859858D02*
X42893042Y40745572D01*
X44250186Y39717000D02*
X44107328Y39659858D01*
X44107328Y39659858D02*
X43821614Y39659858D01*
X43821614Y39659858D02*
X43678757Y39717000D01*
X43678757Y39717000D02*
X43607328Y39774143D01*
X43607328Y39774143D02*
X43535900Y39888429D01*
X43535900Y39888429D02*
X43535900Y40231286D01*
X43535900Y40231286D02*
X43607328Y40345572D01*
X43607328Y40345572D02*
X43678757Y40402715D01*
X43678757Y40402715D02*
X43821614Y40459858D01*
X43821614Y40459858D02*
X44107328Y40459858D01*
X44107328Y40459858D02*
X44250186Y40402715D01*
X44893042Y39774143D02*
X44964471Y39717000D01*
X44964471Y39717000D02*
X44893042Y39659858D01*
X44893042Y39659858D02*
X44821614Y39717000D01*
X44821614Y39717000D02*
X44893042Y39774143D01*
X44893042Y39774143D02*
X44893042Y39659858D01*
X46250186Y39717000D02*
X46107328Y39659858D01*
X46107328Y39659858D02*
X45821614Y39659858D01*
X45821614Y39659858D02*
X45678757Y39717000D01*
X45678757Y39717000D02*
X45607328Y39774143D01*
X45607328Y39774143D02*
X45535900Y39888429D01*
X45535900Y39888429D02*
X45535900Y40231286D01*
X45535900Y40231286D02*
X45607328Y40345572D01*
X45607328Y40345572D02*
X45678757Y40402715D01*
X45678757Y40402715D02*
X45821614Y40459858D01*
X45821614Y40459858D02*
X46107328Y40459858D01*
X46107328Y40459858D02*
X46250186Y40402715D01*
X47107328Y39659858D02*
X46964471Y39717000D01*
X46964471Y39717000D02*
X46893042Y39774143D01*
X46893042Y39774143D02*
X46821614Y39888429D01*
X46821614Y39888429D02*
X46821614Y40231286D01*
X46821614Y40231286D02*
X46893042Y40345572D01*
X46893042Y40345572D02*
X46964471Y40402715D01*
X46964471Y40402715D02*
X47107328Y40459858D01*
X47107328Y40459858D02*
X47321614Y40459858D01*
X47321614Y40459858D02*
X47464471Y40402715D01*
X47464471Y40402715D02*
X47535900Y40345572D01*
X47535900Y40345572D02*
X47607328Y40231286D01*
X47607328Y40231286D02*
X47607328Y39888429D01*
X47607328Y39888429D02*
X47535900Y39774143D01*
X47535900Y39774143D02*
X47464471Y39717000D01*
X47464471Y39717000D02*
X47321614Y39659858D01*
X47321614Y39659858D02*
X47107328Y39659858D01*
X48250185Y39659858D02*
X48250185Y40459858D01*
X48250185Y40345572D02*
X48321614Y40402715D01*
X48321614Y40402715D02*
X48464471Y40459858D01*
X48464471Y40459858D02*
X48678757Y40459858D01*
X48678757Y40459858D02*
X48821614Y40402715D01*
X48821614Y40402715D02*
X48893043Y40288429D01*
X48893043Y40288429D02*
X48893043Y39659858D01*
X48893043Y40288429D02*
X48964471Y40402715D01*
X48964471Y40402715D02*
X49107328Y40459858D01*
X49107328Y40459858D02*
X49321614Y40459858D01*
X49321614Y40459858D02*
X49464471Y40402715D01*
X49464471Y40402715D02*
X49535900Y40288429D01*
X49535900Y40288429D02*
X49535900Y39659858D01*
D11*
X4387844Y43860362D02*
X5530701Y43860362D01*
X4959272Y41860362D02*
X4959272Y43860362D01*
X5911654Y43860362D02*
X7054511Y43860362D01*
X6483082Y41860362D02*
X6483082Y43860362D01*
X10292607Y41860362D02*
X9149750Y41860362D01*
X9721178Y41860362D02*
X9721178Y43860362D01*
X9721178Y43860362D02*
X9530702Y43574648D01*
X9530702Y43574648D02*
X9340226Y43384172D01*
X9340226Y43384172D02*
X9149750Y43288934D01*
X11054512Y43669886D02*
X11149750Y43765124D01*
X11149750Y43765124D02*
X11340226Y43860362D01*
X11340226Y43860362D02*
X11816417Y43860362D01*
X11816417Y43860362D02*
X12006893Y43765124D01*
X12006893Y43765124D02*
X12102131Y43669886D01*
X12102131Y43669886D02*
X12197369Y43479410D01*
X12197369Y43479410D02*
X12197369Y43288934D01*
X12197369Y43288934D02*
X12102131Y43003220D01*
X12102131Y43003220D02*
X10959274Y41860362D01*
X10959274Y41860362D02*
X12197369Y41860362D01*
X12864036Y43860362D02*
X14102131Y43860362D01*
X14102131Y43860362D02*
X13435464Y43098458D01*
X13435464Y43098458D02*
X13721179Y43098458D01*
X13721179Y43098458D02*
X13911655Y43003220D01*
X13911655Y43003220D02*
X14006893Y42907981D01*
X14006893Y42907981D02*
X14102131Y42717505D01*
X14102131Y42717505D02*
X14102131Y42241315D01*
X14102131Y42241315D02*
X14006893Y42050839D01*
X14006893Y42050839D02*
X13911655Y41955600D01*
X13911655Y41955600D02*
X13721179Y41860362D01*
X13721179Y41860362D02*
X13149750Y41860362D01*
X13149750Y41860362D02*
X12959274Y41955600D01*
X12959274Y41955600D02*
X12864036Y42050839D01*
X16483084Y41860362D02*
X16483084Y43860362D01*
X16483084Y43860362D02*
X17244989Y43860362D01*
X17244989Y43860362D02*
X17435465Y43765124D01*
X17435465Y43765124D02*
X17530703Y43669886D01*
X17530703Y43669886D02*
X17625941Y43479410D01*
X17625941Y43479410D02*
X17625941Y43193696D01*
X17625941Y43193696D02*
X17530703Y43003220D01*
X17530703Y43003220D02*
X17435465Y42907981D01*
X17435465Y42907981D02*
X17244989Y42812743D01*
X17244989Y42812743D02*
X16483084Y42812743D01*
X18483084Y41860362D02*
X18483084Y43193696D01*
X18483084Y42812743D02*
X18578322Y43003220D01*
X18578322Y43003220D02*
X18673560Y43098458D01*
X18673560Y43098458D02*
X18864036Y43193696D01*
X18864036Y43193696D02*
X19054513Y43193696D01*
X20006893Y41860362D02*
X19816417Y41955600D01*
X19816417Y41955600D02*
X19721179Y42050839D01*
X19721179Y42050839D02*
X19625941Y42241315D01*
X19625941Y42241315D02*
X19625941Y42812743D01*
X19625941Y42812743D02*
X19721179Y43003220D01*
X19721179Y43003220D02*
X19816417Y43098458D01*
X19816417Y43098458D02*
X20006893Y43193696D01*
X20006893Y43193696D02*
X20292608Y43193696D01*
X20292608Y43193696D02*
X20483084Y43098458D01*
X20483084Y43098458D02*
X20578322Y43003220D01*
X20578322Y43003220D02*
X20673560Y42812743D01*
X20673560Y42812743D02*
X20673560Y42241315D01*
X20673560Y42241315D02*
X20578322Y42050839D01*
X20578322Y42050839D02*
X20483084Y41955600D01*
X20483084Y41955600D02*
X20292608Y41860362D01*
X20292608Y41860362D02*
X20006893Y41860362D01*
X22387846Y43193696D02*
X22387846Y41574648D01*
X22387846Y41574648D02*
X22292608Y41384172D01*
X22292608Y41384172D02*
X22197370Y41288934D01*
X22197370Y41288934D02*
X22006893Y41193696D01*
X22006893Y41193696D02*
X21721179Y41193696D01*
X21721179Y41193696D02*
X21530703Y41288934D01*
X22387846Y41955600D02*
X22197370Y41860362D01*
X22197370Y41860362D02*
X21816417Y41860362D01*
X21816417Y41860362D02*
X21625941Y41955600D01*
X21625941Y41955600D02*
X21530703Y42050839D01*
X21530703Y42050839D02*
X21435465Y42241315D01*
X21435465Y42241315D02*
X21435465Y42812743D01*
X21435465Y42812743D02*
X21530703Y43003220D01*
X21530703Y43003220D02*
X21625941Y43098458D01*
X21625941Y43098458D02*
X21816417Y43193696D01*
X21816417Y43193696D02*
X22197370Y43193696D01*
X22197370Y43193696D02*
X22387846Y43098458D01*
X23340227Y41860362D02*
X23340227Y43193696D01*
X23340227Y42812743D02*
X23435465Y43003220D01*
X23435465Y43003220D02*
X23530703Y43098458D01*
X23530703Y43098458D02*
X23721179Y43193696D01*
X23721179Y43193696D02*
X23911656Y43193696D01*
X25435465Y41860362D02*
X25435465Y42907981D01*
X25435465Y42907981D02*
X25340227Y43098458D01*
X25340227Y43098458D02*
X25149751Y43193696D01*
X25149751Y43193696D02*
X24768798Y43193696D01*
X24768798Y43193696D02*
X24578322Y43098458D01*
X25435465Y41955600D02*
X25244989Y41860362D01*
X25244989Y41860362D02*
X24768798Y41860362D01*
X24768798Y41860362D02*
X24578322Y41955600D01*
X24578322Y41955600D02*
X24483084Y42146077D01*
X24483084Y42146077D02*
X24483084Y42336553D01*
X24483084Y42336553D02*
X24578322Y42527029D01*
X24578322Y42527029D02*
X24768798Y42622267D01*
X24768798Y42622267D02*
X25244989Y42622267D01*
X25244989Y42622267D02*
X25435465Y42717505D01*
X26387846Y41860362D02*
X26387846Y43193696D01*
X26387846Y43003220D02*
X26483084Y43098458D01*
X26483084Y43098458D02*
X26673560Y43193696D01*
X26673560Y43193696D02*
X26959275Y43193696D01*
X26959275Y43193696D02*
X27149751Y43098458D01*
X27149751Y43098458D02*
X27244989Y42907981D01*
X27244989Y42907981D02*
X27244989Y41860362D01*
X27244989Y42907981D02*
X27340227Y43098458D01*
X27340227Y43098458D02*
X27530703Y43193696D01*
X27530703Y43193696D02*
X27816417Y43193696D01*
X27816417Y43193696D02*
X28006894Y43098458D01*
X28006894Y43098458D02*
X28102132Y42907981D01*
X28102132Y42907981D02*
X28102132Y41860362D01*
X30578323Y42622267D02*
X32102133Y42622267D01*
X31340228Y41860362D02*
X31340228Y43384172D01*
X34292609Y43860362D02*
X35435466Y43860362D01*
X34864037Y41860362D02*
X34864037Y43860362D01*
X36864038Y41955600D02*
X36673562Y41860362D01*
X36673562Y41860362D02*
X36292609Y41860362D01*
X36292609Y41860362D02*
X36102133Y41955600D01*
X36102133Y41955600D02*
X36006895Y42146077D01*
X36006895Y42146077D02*
X36006895Y42907981D01*
X36006895Y42907981D02*
X36102133Y43098458D01*
X36102133Y43098458D02*
X36292609Y43193696D01*
X36292609Y43193696D02*
X36673562Y43193696D01*
X36673562Y43193696D02*
X36864038Y43098458D01*
X36864038Y43098458D02*
X36959276Y42907981D01*
X36959276Y42907981D02*
X36959276Y42717505D01*
X36959276Y42717505D02*
X36006895Y42527029D01*
X37721181Y41955600D02*
X37911657Y41860362D01*
X37911657Y41860362D02*
X38292609Y41860362D01*
X38292609Y41860362D02*
X38483086Y41955600D01*
X38483086Y41955600D02*
X38578324Y42146077D01*
X38578324Y42146077D02*
X38578324Y42241315D01*
X38578324Y42241315D02*
X38483086Y42431791D01*
X38483086Y42431791D02*
X38292609Y42527029D01*
X38292609Y42527029D02*
X38006895Y42527029D01*
X38006895Y42527029D02*
X37816419Y42622267D01*
X37816419Y42622267D02*
X37721181Y42812743D01*
X37721181Y42812743D02*
X37721181Y42907981D01*
X37721181Y42907981D02*
X37816419Y43098458D01*
X37816419Y43098458D02*
X38006895Y43193696D01*
X38006895Y43193696D02*
X38292609Y43193696D01*
X38292609Y43193696D02*
X38483086Y43098458D01*
X39149753Y43193696D02*
X39911657Y43193696D01*
X39435467Y43860362D02*
X39435467Y42146077D01*
X39435467Y42146077D02*
X39530705Y41955600D01*
X39530705Y41955600D02*
X39721181Y41860362D01*
X39721181Y41860362D02*
X39911657Y41860362D01*
D12*
X39984398Y71817943D02*
X39984398Y72717943D01*
X39984398Y72717943D02*
X40441541Y72717943D01*
X40441541Y72717943D02*
X40555826Y72675086D01*
X40555826Y72675086D02*
X40612969Y72632229D01*
X40612969Y72632229D02*
X40670112Y72546515D01*
X40670112Y72546515D02*
X40670112Y72417943D01*
X40670112Y72417943D02*
X40612969Y72332229D01*
X40612969Y72332229D02*
X40555826Y72289372D01*
X40555826Y72289372D02*
X40441541Y72246515D01*
X40441541Y72246515D02*
X39984398Y72246515D01*
X41412969Y72717943D02*
X41641541Y72717943D01*
X41641541Y72717943D02*
X41755826Y72675086D01*
X41755826Y72675086D02*
X41870112Y72589372D01*
X41870112Y72589372D02*
X41927255Y72417943D01*
X41927255Y72417943D02*
X41927255Y72117943D01*
X41927255Y72117943D02*
X41870112Y71946515D01*
X41870112Y71946515D02*
X41755826Y71860800D01*
X41755826Y71860800D02*
X41641541Y71817943D01*
X41641541Y71817943D02*
X41412969Y71817943D01*
X41412969Y71817943D02*
X41298684Y71860800D01*
X41298684Y71860800D02*
X41184398Y71946515D01*
X41184398Y71946515D02*
X41127255Y72117943D01*
X41127255Y72117943D02*
X41127255Y72417943D01*
X41127255Y72417943D02*
X41184398Y72589372D01*
X41184398Y72589372D02*
X41298684Y72675086D01*
X41298684Y72675086D02*
X41412969Y72717943D01*
X42327255Y72717943D02*
X42612969Y71817943D01*
X42612969Y71817943D02*
X42841541Y72460800D01*
X42841541Y72460800D02*
X43070112Y71817943D01*
X43070112Y71817943D02*
X43355827Y72717943D01*
X43812970Y72289372D02*
X44212970Y72289372D01*
X44384398Y71817943D02*
X43812970Y71817943D01*
X43812970Y71817943D02*
X43812970Y72717943D01*
X43812970Y72717943D02*
X44384398Y72717943D01*
X45584398Y71817943D02*
X45184398Y72246515D01*
X44898684Y71817943D02*
X44898684Y72717943D01*
X44898684Y72717943D02*
X45355827Y72717943D01*
X45355827Y72717943D02*
X45470112Y72675086D01*
X45470112Y72675086D02*
X45527255Y72632229D01*
X45527255Y72632229D02*
X45584398Y72546515D01*
X45584398Y72546515D02*
X45584398Y72417943D01*
X45584398Y72417943D02*
X45527255Y72332229D01*
X45527255Y72332229D02*
X45470112Y72289372D01*
X45470112Y72289372D02*
X45355827Y72246515D01*
X45355827Y72246515D02*
X44898684Y72246515D01*
X47641541Y72675086D02*
X47527256Y72717943D01*
X47527256Y72717943D02*
X47355827Y72717943D01*
X47355827Y72717943D02*
X47184398Y72675086D01*
X47184398Y72675086D02*
X47070113Y72589372D01*
X47070113Y72589372D02*
X47012970Y72503658D01*
X47012970Y72503658D02*
X46955827Y72332229D01*
X46955827Y72332229D02*
X46955827Y72203658D01*
X46955827Y72203658D02*
X47012970Y72032229D01*
X47012970Y72032229D02*
X47070113Y71946515D01*
X47070113Y71946515D02*
X47184398Y71860800D01*
X47184398Y71860800D02*
X47355827Y71817943D01*
X47355827Y71817943D02*
X47470113Y71817943D01*
X47470113Y71817943D02*
X47641541Y71860800D01*
X47641541Y71860800D02*
X47698684Y71903658D01*
X47698684Y71903658D02*
X47698684Y72203658D01*
X47698684Y72203658D02*
X47470113Y72203658D01*
X48441541Y72717943D02*
X48670113Y72717943D01*
X48670113Y72717943D02*
X48784398Y72675086D01*
X48784398Y72675086D02*
X48898684Y72589372D01*
X48898684Y72589372D02*
X48955827Y72417943D01*
X48955827Y72417943D02*
X48955827Y72117943D01*
X48955827Y72117943D02*
X48898684Y71946515D01*
X48898684Y71946515D02*
X48784398Y71860800D01*
X48784398Y71860800D02*
X48670113Y71817943D01*
X48670113Y71817943D02*
X48441541Y71817943D01*
X48441541Y71817943D02*
X48327256Y71860800D01*
X48327256Y71860800D02*
X48212970Y71946515D01*
X48212970Y71946515D02*
X48155827Y72117943D01*
X48155827Y72117943D02*
X48155827Y72417943D01*
X48155827Y72417943D02*
X48212970Y72589372D01*
X48212970Y72589372D02*
X48327256Y72675086D01*
X48327256Y72675086D02*
X48441541Y72717943D01*
X49698684Y72717943D02*
X49927256Y72717943D01*
X49927256Y72717943D02*
X50041541Y72675086D01*
X50041541Y72675086D02*
X50155827Y72589372D01*
X50155827Y72589372D02*
X50212970Y72417943D01*
X50212970Y72417943D02*
X50212970Y72117943D01*
X50212970Y72117943D02*
X50155827Y71946515D01*
X50155827Y71946515D02*
X50041541Y71860800D01*
X50041541Y71860800D02*
X49927256Y71817943D01*
X49927256Y71817943D02*
X49698684Y71817943D01*
X49698684Y71817943D02*
X49584399Y71860800D01*
X49584399Y71860800D02*
X49470113Y71946515D01*
X49470113Y71946515D02*
X49412970Y72117943D01*
X49412970Y72117943D02*
X49412970Y72417943D01*
X49412970Y72417943D02*
X49470113Y72589372D01*
X49470113Y72589372D02*
X49584399Y72675086D01*
X49584399Y72675086D02*
X49698684Y72717943D01*
X50727256Y71817943D02*
X50727256Y72717943D01*
X50727256Y72717943D02*
X51012970Y72717943D01*
X51012970Y72717943D02*
X51184399Y72675086D01*
X51184399Y72675086D02*
X51298684Y72589372D01*
X51298684Y72589372D02*
X51355827Y72503658D01*
X51355827Y72503658D02*
X51412970Y72332229D01*
X51412970Y72332229D02*
X51412970Y72203658D01*
X51412970Y72203658D02*
X51355827Y72032229D01*
X51355827Y72032229D02*
X51298684Y71946515D01*
X51298684Y71946515D02*
X51184399Y71860800D01*
X51184399Y71860800D02*
X51012970Y71817943D01*
X51012970Y71817943D02*
X50727256Y71817943D01*
X52500000Y34000000D02*
X52500000Y23800000D01*
X15600000Y60400000D02*
X15600000Y51600000D01*
X51100000Y34000000D02*
X52500000Y34000000D01*
X15600000Y51600000D02*
X9500000Y51600000D01*
X9500000Y60400000D02*
X15600000Y60400000D01*
X52500000Y23800000D02*
X51000000Y23800000D01*
D13*
G36*
X57491353Y39701286D02*
G01*
X55760388Y39701286D01*
X55760388Y40082079D01*
X55974674Y40082079D01*
X55978196Y40072014D01*
X55978196Y40061349D01*
X55991844Y40033009D01*
X56002234Y40003316D01*
X56009775Y39995775D01*
X56014402Y39986168D01*
X56038992Y39966558D01*
X56061239Y39944311D01*
X56071304Y39940789D01*
X56079642Y39934140D01*
X56110311Y39927140D01*
X56140002Y39916751D01*
X56150598Y39917945D01*
X56160995Y39915572D01*
X57089567Y39915572D01*
X57170920Y39934140D01*
X57236160Y39986168D01*
X57272366Y40061349D01*
X57272366Y40144795D01*
X57236160Y40219976D01*
X57170920Y40272004D01*
X57089567Y40290572D01*
X56613661Y40290572D01*
X57150720Y40827632D01*
X57151477Y40828838D01*
X57152675Y40829615D01*
X57173654Y40864132D01*
X57195116Y40898287D01*
X57195275Y40899704D01*
X57196016Y40900922D01*
X57267445Y41115206D01*
X57270370Y41145160D01*
X57277067Y41174500D01*
X57277067Y41317358D01*
X57276749Y41318749D01*
X57277046Y41320143D01*
X57267483Y41359346D01*
X57258499Y41398711D01*
X57257609Y41399826D01*
X57257272Y41401211D01*
X57185843Y41544068D01*
X57166731Y41567317D01*
X57150720Y41592798D01*
X57079293Y41664226D01*
X57053805Y41680241D01*
X57030562Y41699348D01*
X56887705Y41770777D01*
X56886319Y41771115D01*
X56885205Y41772004D01*
X56845864Y41780984D01*
X56806636Y41790552D01*
X56805240Y41790256D01*
X56803852Y41790572D01*
X56446710Y41790572D01*
X56445319Y41790255D01*
X56443926Y41790551D01*
X56404730Y41780991D01*
X56365357Y41772004D01*
X56364242Y41771115D01*
X56362857Y41770777D01*
X56219999Y41699348D01*
X56196750Y41680237D01*
X56171269Y41664225D01*
X56099841Y41592798D01*
X56055446Y41522143D01*
X56046103Y41439222D01*
X56073663Y41360459D01*
X56132668Y41301454D01*
X56211431Y41273894D01*
X56294352Y41283237D01*
X56365007Y41327632D01*
X56414919Y41377546D01*
X56490972Y41415572D01*
X56759589Y41415572D01*
X56835641Y41377546D01*
X56864040Y41349148D01*
X56902067Y41273095D01*
X56902067Y41204928D01*
X56854257Y41061500D01*
X56028412Y40235655D01*
X56022736Y40226623D01*
X56014402Y40219976D01*
X56000755Y40191640D01*
X55984017Y40165000D01*
X55982822Y40154403D01*
X55978196Y40144795D01*
X55978196Y40113338D01*
X55974674Y40082079D01*
X55760388Y40082079D01*
X55760388Y42004858D01*
X57491353Y42004858D01*
X57491353Y39701286D01*
G37*
D12*
G36*
X63419654Y62135523D02*
G01*
X63478208Y62055013D01*
X63512030Y61868993D01*
X63512030Y61515847D01*
X63478208Y61329827D01*
X63419655Y61249317D01*
X63373260Y61217420D01*
X63267467Y61217420D01*
X63221070Y61249317D01*
X63162518Y61329827D01*
X63128696Y61515849D01*
X63128696Y61868991D01*
X63162518Y62055013D01*
X63221072Y62135525D01*
X63267467Y62167420D01*
X63373259Y62167420D01*
X63419654Y62135523D01*
G37*
G36*
X64181558Y62135525D02*
G01*
X64205870Y62102096D01*
X64238185Y62013230D01*
X64273934Y61816612D01*
X64273934Y61568228D01*
X64238185Y61371610D01*
X64205870Y61282744D01*
X64181559Y61249316D01*
X64135164Y61217420D01*
X64105562Y61217420D01*
X64059165Y61249318D01*
X64034853Y61282746D01*
X64002540Y61371611D01*
X63966791Y61568230D01*
X63966791Y61816610D01*
X64002540Y62013229D01*
X64034853Y62102094D01*
X64059166Y62135525D01*
X64105562Y62167420D01*
X64135165Y62167420D01*
X64181558Y62135525D01*
G37*
G36*
X64581077Y60910277D02*
G01*
X62478697Y60910277D01*
X62478697Y61142420D01*
X62635840Y61142420D01*
X62653387Y61094211D01*
X62697816Y61068559D01*
X62748340Y61077468D01*
X62781317Y61116768D01*
X62785840Y61142420D01*
X62785840Y61509086D01*
X62978696Y61509086D01*
X62979851Y61505912D01*
X62979906Y61495669D01*
X63018002Y61286146D01*
X63019978Y61282765D01*
X63019707Y61278855D01*
X63031137Y61255449D01*
X63107327Y61150687D01*
X63107863Y61150326D01*
X63125493Y61132996D01*
X63201684Y61080617D01*
X63211081Y61078186D01*
X63218521Y61071943D01*
X63244173Y61067420D01*
X63396554Y61067420D01*
X63405676Y61070741D01*
X63415343Y61069811D01*
X63439043Y61080617D01*
X63515234Y61132997D01*
X63515612Y61133528D01*
X63533399Y61150687D01*
X63609590Y61255449D01*
X63610671Y61259215D01*
X63613686Y61261717D01*
X63622725Y61286146D01*
X63660820Y61495670D01*
X63660251Y61498999D01*
X63662030Y61509086D01*
X63662030Y61561467D01*
X63816791Y61561467D01*
X63817946Y61558293D01*
X63818001Y61548050D01*
X63856097Y61338527D01*
X63857749Y61335699D01*
X63859402Y61326312D01*
X63897497Y61221551D01*
X63899422Y61219256D01*
X63907327Y61203068D01*
X63945422Y61150687D01*
X63945958Y61150326D01*
X63963588Y61132996D01*
X64039779Y61080617D01*
X64049176Y61078186D01*
X64056616Y61071943D01*
X64082268Y61067420D01*
X64158458Y61067420D01*
X64167580Y61070741D01*
X64177246Y61069811D01*
X64200947Y61080616D01*
X64277138Y61132996D01*
X64277514Y61133524D01*
X64295304Y61150687D01*
X64333399Y61203068D01*
X64334225Y61205946D01*
X64343229Y61221550D01*
X64381323Y61326312D01*
X64381322Y61329590D01*
X64384629Y61338527D01*
X64422724Y61548051D01*
X64422155Y61551380D01*
X64423934Y61561467D01*
X64423934Y61823372D01*
X64422778Y61826547D01*
X64422724Y61836788D01*
X64384629Y62046312D01*
X64382975Y62049142D01*
X64381323Y62058527D01*
X64343229Y62163289D01*
X64341301Y62165587D01*
X64333399Y62181771D01*
X64295304Y62234152D01*
X64294770Y62234512D01*
X64277139Y62251842D01*
X64200947Y62304223D01*
X64191549Y62306655D01*
X64184110Y62312897D01*
X64158458Y62317420D01*
X64082268Y62317420D01*
X64073145Y62314100D01*
X64063479Y62315029D01*
X64039779Y62304223D01*
X63963588Y62251842D01*
X63963214Y62251318D01*
X63945422Y62234152D01*
X63907327Y62181771D01*
X63906500Y62178894D01*
X63897497Y62163288D01*
X63859402Y62058527D01*
X63859403Y62055248D01*
X63856097Y62046312D01*
X63818001Y61836789D01*
X63818569Y61833461D01*
X63816791Y61823372D01*
X63816791Y61561467D01*
X63662030Y61561467D01*
X63662030Y61875753D01*
X63660874Y61878928D01*
X63660820Y61889169D01*
X63622725Y62098693D01*
X63620748Y62102075D01*
X63621020Y62105984D01*
X63609590Y62129390D01*
X63533399Y62234152D01*
X63532862Y62234514D01*
X63515234Y62251842D01*
X63439044Y62304223D01*
X63429644Y62306656D01*
X63422206Y62312897D01*
X63396554Y62317420D01*
X63244173Y62317420D01*
X63235050Y62314100D01*
X63225384Y62315029D01*
X63201684Y62304223D01*
X63125493Y62251842D01*
X63125117Y62251315D01*
X63107327Y62234152D01*
X63031137Y62129390D01*
X63030055Y62125626D01*
X63027041Y62123123D01*
X63018002Y62098693D01*
X62979906Y61889170D01*
X62980474Y61885842D01*
X62978696Y61875753D01*
X62978696Y61509086D01*
X62785840Y61509086D01*
X62785840Y62242420D01*
X62768293Y62290629D01*
X62723864Y62316281D01*
X62673340Y62307372D01*
X62640363Y62268072D01*
X62635840Y62242420D01*
X62635840Y61142420D01*
X62478697Y61142420D01*
X62478697Y62474563D01*
X64581077Y62474563D01*
X64581077Y60910277D01*
G37*
G36*
X63309355Y59530043D02*
G01*
X63367775Y59449715D01*
X63400090Y59360850D01*
X63435840Y59164230D01*
X63435840Y59020610D01*
X63400090Y58823990D01*
X63367775Y58735125D01*
X63309355Y58654797D01*
X63227804Y58617420D01*
X63128697Y58617420D01*
X63128697Y59567420D01*
X63227804Y59567420D01*
X63309355Y59530043D01*
G37*
G36*
X64181559Y59535523D02*
G01*
X64240113Y59455013D01*
X64273935Y59268993D01*
X64273935Y58915847D01*
X64240113Y58729827D01*
X64181560Y58649317D01*
X64135165Y58617420D01*
X64029372Y58617420D01*
X63982975Y58649317D01*
X63924423Y58729827D01*
X63890601Y58915849D01*
X63890601Y59268991D01*
X63924423Y59455013D01*
X63982977Y59535525D01*
X64029372Y59567420D01*
X64135164Y59567420D01*
X64181559Y59535523D01*
G37*
G36*
X64581078Y58310277D02*
G01*
X62021553Y58310277D01*
X62021553Y59328134D01*
X62178696Y59328134D01*
X62178703Y59328114D01*
X62183212Y59302503D01*
X62221308Y59197741D01*
X62223231Y59195447D01*
X62231137Y59179259D01*
X62269232Y59126878D01*
X62269768Y59126517D01*
X62287397Y59109188D01*
X62363587Y59056807D01*
X62366648Y59056015D01*
X62381696Y59047684D01*
X62524403Y58998628D01*
X62581558Y58959334D01*
X62605870Y58925905D01*
X62635839Y58843492D01*
X62635839Y58765157D01*
X62605870Y58682744D01*
X62581559Y58649316D01*
X62535164Y58617420D01*
X62384351Y58617420D01*
X62284945Y58662980D01*
X62233808Y58667115D01*
X62191978Y58637414D01*
X62179026Y58587772D01*
X62201013Y58541419D01*
X62222447Y58526620D01*
X62336734Y58474240D01*
X62339897Y58473985D01*
X62342330Y58471943D01*
X62367982Y58467420D01*
X62558458Y58467420D01*
X62567580Y58470741D01*
X62577246Y58469811D01*
X62600947Y58480616D01*
X62677138Y58532996D01*
X62677514Y58533524D01*
X62686735Y58542420D01*
X62978697Y58542420D01*
X62985360Y58524112D01*
X62988745Y58504920D01*
X62993929Y58500570D01*
X62996244Y58494211D01*
X63013117Y58484469D01*
X63028045Y58471943D01*
X63037787Y58470226D01*
X63040673Y58468559D01*
X63043955Y58469138D01*
X63053697Y58467420D01*
X63244173Y58467420D01*
X63247156Y58468506D01*
X63250218Y58467664D01*
X63275422Y58474240D01*
X63389708Y58526620D01*
X63394218Y58531072D01*
X63400369Y58532602D01*
X63419114Y58550687D01*
X63495305Y58655450D01*
X63496131Y58658329D01*
X63505134Y58673931D01*
X63543228Y58778693D01*
X63543227Y58781970D01*
X63546534Y58790907D01*
X63568022Y58909086D01*
X63740601Y58909086D01*
X63741756Y58905912D01*
X63741811Y58895669D01*
X63779907Y58686146D01*
X63781883Y58682765D01*
X63781612Y58678855D01*
X63793042Y58655449D01*
X63869232Y58550687D01*
X63869768Y58550326D01*
X63887398Y58532996D01*
X63963589Y58480617D01*
X63972986Y58478186D01*
X63980426Y58471943D01*
X64006078Y58467420D01*
X64158459Y58467420D01*
X64167581Y58470741D01*
X64177248Y58469811D01*
X64200948Y58480617D01*
X64277139Y58532997D01*
X64277517Y58533528D01*
X64295304Y58550687D01*
X64371495Y58655449D01*
X64372576Y58659215D01*
X64375591Y58661717D01*
X64384630Y58686146D01*
X64422725Y58895670D01*
X64422156Y58898999D01*
X64423935Y58909086D01*
X64423935Y59275753D01*
X64422779Y59278928D01*
X64422725Y59289169D01*
X64384630Y59498693D01*
X64382653Y59502075D01*
X64382925Y59505984D01*
X64371495Y59529390D01*
X64295304Y59634152D01*
X64294767Y59634514D01*
X64277139Y59651842D01*
X64200949Y59704223D01*
X64191549Y59706656D01*
X64184111Y59712897D01*
X64158459Y59717420D01*
X64006078Y59717420D01*
X63996955Y59714100D01*
X63987289Y59715029D01*
X63963589Y59704223D01*
X63887398Y59651842D01*
X63887022Y59651315D01*
X63869232Y59634152D01*
X63793042Y59529390D01*
X63791960Y59525626D01*
X63788946Y59523123D01*
X63779907Y59498693D01*
X63741811Y59289170D01*
X63742379Y59285842D01*
X63740601Y59275753D01*
X63740601Y58909086D01*
X63568022Y58909086D01*
X63584630Y59000431D01*
X63584061Y59003760D01*
X63585840Y59013848D01*
X63585840Y59170991D01*
X63584684Y59174166D01*
X63584630Y59184408D01*
X63546534Y59393932D01*
X63544880Y59396762D01*
X63543228Y59406146D01*
X63505134Y59510908D01*
X63503207Y59513206D01*
X63495305Y59529389D01*
X63419114Y59634152D01*
X63413858Y59637693D01*
X63411143Y59643419D01*
X63389708Y59658219D01*
X63275422Y59710600D01*
X63272257Y59710856D01*
X63269825Y59712897D01*
X63244173Y59717420D01*
X63053697Y59717420D01*
X63035388Y59710757D01*
X63016197Y59707372D01*
X63011846Y59702188D01*
X63005488Y59699873D01*
X62995745Y59683000D01*
X62983220Y59668072D01*
X62981502Y59658330D01*
X62979836Y59655444D01*
X62980414Y59652162D01*
X62978697Y59642420D01*
X62978697Y58542420D01*
X62686735Y58542420D01*
X62695304Y58550687D01*
X62733399Y58603068D01*
X62734225Y58605946D01*
X62743229Y58621550D01*
X62781314Y58726290D01*
X62781316Y58726291D01*
X62781316Y58726295D01*
X62781323Y58726312D01*
X62781322Y58726331D01*
X62785839Y58751943D01*
X62785839Y58856705D01*
X62785831Y58856726D01*
X62781323Y58882336D01*
X62743229Y58987098D01*
X62741301Y58989396D01*
X62733399Y59005580D01*
X62695304Y59057961D01*
X62694770Y59058321D01*
X62677139Y59075651D01*
X62600947Y59128032D01*
X62597889Y59128824D01*
X62582839Y59137155D01*
X62440136Y59186210D01*
X62382976Y59225507D01*
X62358663Y59258938D01*
X62328696Y59341347D01*
X62328696Y59419684D01*
X62358663Y59502093D01*
X62382976Y59535524D01*
X62429372Y59567420D01*
X62580185Y59567420D01*
X62679589Y59521859D01*
X62730726Y59517724D01*
X62772557Y59547425D01*
X62785509Y59597066D01*
X62763523Y59643419D01*
X62742088Y59658219D01*
X62627803Y59710600D01*
X62624638Y59710856D01*
X62622206Y59712897D01*
X62596554Y59717420D01*
X62406077Y59717420D01*
X62396952Y59714099D01*
X62387288Y59715028D01*
X62363587Y59704223D01*
X62287397Y59651842D01*
X62287020Y59651315D01*
X62269232Y59634152D01*
X62231137Y59581771D01*
X62230309Y59578892D01*
X62221308Y59563289D01*
X62183220Y59458550D01*
X62183219Y59458548D01*
X62183218Y59458545D01*
X62183212Y59458527D01*
X62183212Y59458509D01*
X62178696Y59432896D01*
X62178696Y59328134D01*
X62021553Y59328134D01*
X62021553Y59874563D01*
X64581078Y59874563D01*
X64581078Y58310277D01*
G37*
G36*
X61342602Y20907590D02*
G01*
X61373009Y20877183D01*
X61407267Y20808667D01*
X61407267Y20558363D01*
X61373008Y20489847D01*
X61342601Y20459439D01*
X61274086Y20425181D01*
X61166639Y20425181D01*
X61098123Y20459439D01*
X61067716Y20489847D01*
X61033458Y20558363D01*
X61033458Y20808667D01*
X61067716Y20877183D01*
X61098123Y20907590D01*
X61166639Y20941848D01*
X61274086Y20941848D01*
X61342602Y20907590D01*
G37*
G36*
X64175176Y20132324D02*
G01*
X60740601Y20132324D01*
X60740601Y20540658D01*
X60883458Y20540658D01*
X60884991Y20536445D01*
X60883950Y20532084D01*
X60891376Y20507117D01*
X60938995Y20411879D01*
X60940183Y20410754D01*
X60953043Y20392388D01*
X61000662Y20344768D01*
X61002143Y20344078D01*
X61020155Y20330718D01*
X61115393Y20283099D01*
X61119846Y20282587D01*
X61123282Y20279704D01*
X61148934Y20275181D01*
X61291791Y20275181D01*
X61296004Y20276715D01*
X61300365Y20275673D01*
X61325332Y20283099D01*
X61420570Y20330718D01*
X61421694Y20331906D01*
X61440063Y20344768D01*
X61487681Y20392387D01*
X61488371Y20393869D01*
X61501730Y20411879D01*
X61542310Y20493039D01*
X61835839Y20493039D01*
X61837372Y20488827D01*
X61836330Y20484465D01*
X61843757Y20459498D01*
X61891376Y20364259D01*
X61899529Y20356540D01*
X61903996Y20346235D01*
X61924917Y20330718D01*
X62020155Y20283099D01*
X62024608Y20282587D01*
X62028044Y20279704D01*
X62053696Y20275181D01*
X62196553Y20275181D01*
X62200766Y20276715D01*
X62205127Y20275673D01*
X62230094Y20283099D01*
X62279783Y20307944D01*
X62281957Y20301972D01*
X62326386Y20276320D01*
X62376910Y20285229D01*
X62409887Y20324529D01*
X62414410Y20350181D01*
X62414410Y21016848D01*
X62409670Y21029872D01*
X62598883Y21029872D01*
X62607792Y20979348D01*
X62647092Y20946371D01*
X62672744Y20941848D01*
X62740601Y20941848D01*
X62740601Y20493039D01*
X62742134Y20488827D01*
X62741092Y20484465D01*
X62748519Y20459498D01*
X62796138Y20364259D01*
X62804291Y20356540D01*
X62808758Y20346235D01*
X62829679Y20330718D01*
X62924917Y20283099D01*
X62929370Y20282587D01*
X62932806Y20279704D01*
X62958458Y20275181D01*
X63053696Y20275181D01*
X63101905Y20292728D01*
X63127557Y20337157D01*
X63118648Y20387681D01*
X63079348Y20420658D01*
X63053696Y20425181D01*
X62976163Y20425181D01*
X62919121Y20453702D01*
X62890601Y20510744D01*
X62890601Y20941848D01*
X63053696Y20941848D01*
X63101905Y20959395D01*
X63127557Y21003824D01*
X63118648Y21054348D01*
X63079348Y21087325D01*
X63053696Y21091848D01*
X62890601Y21091848D01*
X62890601Y21350181D01*
X62885861Y21363205D01*
X63217931Y21363205D01*
X63226840Y21312681D01*
X63266140Y21279704D01*
X63291792Y21275181D01*
X63844717Y21275181D01*
X63460951Y20379725D01*
X63458089Y20328502D01*
X63488821Y20287422D01*
X63538769Y20275709D01*
X63584561Y20298841D01*
X63598823Y20320637D01*
X64027394Y21320637D01*
X64027888Y21329483D01*
X64032319Y21337157D01*
X64029279Y21354392D01*
X64030256Y21371860D01*
X64024948Y21378954D01*
X64023410Y21387681D01*
X64010004Y21398930D01*
X63999524Y21412939D01*
X63990898Y21414962D01*
X63984110Y21420658D01*
X63958458Y21425181D01*
X63291792Y21425181D01*
X63243583Y21407634D01*
X63217931Y21363205D01*
X62885861Y21363205D01*
X62873054Y21398390D01*
X62828625Y21424042D01*
X62778101Y21415133D01*
X62745124Y21375833D01*
X62740601Y21350181D01*
X62740601Y21091848D01*
X62672744Y21091848D01*
X62624535Y21074301D01*
X62598883Y21029872D01*
X62409670Y21029872D01*
X62396863Y21065057D01*
X62352434Y21090709D01*
X62301910Y21081800D01*
X62268933Y21042500D01*
X62264410Y21016848D01*
X62264410Y20476486D01*
X62247363Y20459439D01*
X62178848Y20425181D01*
X62071401Y20425181D01*
X62014359Y20453702D01*
X61985839Y20510744D01*
X61985839Y21016848D01*
X61968292Y21065057D01*
X61923863Y21090709D01*
X61873339Y21081800D01*
X61840362Y21042500D01*
X61835839Y21016848D01*
X61835839Y20493039D01*
X61542310Y20493039D01*
X61549349Y20507117D01*
X61549861Y20511571D01*
X61552744Y20515006D01*
X61557267Y20540658D01*
X61557267Y20826372D01*
X61555733Y20830586D01*
X61556775Y20834947D01*
X61549349Y20859913D01*
X61501730Y20955151D01*
X61500540Y20956277D01*
X61487681Y20974643D01*
X61440062Y21022262D01*
X61438580Y21022953D01*
X61420570Y21036311D01*
X61325332Y21083930D01*
X61320878Y21084443D01*
X61317443Y21087325D01*
X61291791Y21091848D01*
X61148934Y21091848D01*
X61144720Y21090315D01*
X61140359Y21091356D01*
X61115393Y21083930D01*
X61020155Y21036311D01*
X61019029Y21035122D01*
X61000663Y21022262D01*
X60953044Y20974643D01*
X60952353Y20973162D01*
X60938995Y20955151D01*
X60891376Y20859913D01*
X60890863Y20855460D01*
X60887981Y20852024D01*
X60883458Y20826372D01*
X60883458Y20540658D01*
X60740601Y20540658D01*
X60740601Y21568038D01*
X64175176Y21568038D01*
X64175176Y20132324D01*
G37*
G36*
X61342602Y36147590D02*
G01*
X61373009Y36117183D01*
X61407267Y36048667D01*
X61407267Y35798363D01*
X61373008Y35729847D01*
X61342601Y35699439D01*
X61274086Y35665181D01*
X61166639Y35665181D01*
X61098123Y35699439D01*
X61067716Y35729847D01*
X61033458Y35798363D01*
X61033458Y36048667D01*
X61067716Y36117183D01*
X61098123Y36147590D01*
X61166639Y36181848D01*
X61274086Y36181848D01*
X61342602Y36147590D01*
G37*
G36*
X64127557Y35372324D02*
G01*
X60740601Y35372324D01*
X60740601Y35780658D01*
X60883458Y35780658D01*
X60884991Y35776445D01*
X60883950Y35772084D01*
X60891376Y35747117D01*
X60938995Y35651879D01*
X60940183Y35650754D01*
X60953043Y35632388D01*
X61000662Y35584768D01*
X61002143Y35584078D01*
X61020155Y35570718D01*
X61115393Y35523099D01*
X61119846Y35522587D01*
X61123282Y35519704D01*
X61148934Y35515181D01*
X61291791Y35515181D01*
X61296004Y35516715D01*
X61300365Y35515673D01*
X61325332Y35523099D01*
X61420570Y35570718D01*
X61421694Y35571906D01*
X61440063Y35584768D01*
X61487681Y35632387D01*
X61488371Y35633869D01*
X61501730Y35651879D01*
X61542310Y35733039D01*
X61835839Y35733039D01*
X61837372Y35728827D01*
X61836330Y35724465D01*
X61843757Y35699498D01*
X61891376Y35604259D01*
X61899529Y35596540D01*
X61903996Y35586235D01*
X61924917Y35570718D01*
X62020155Y35523099D01*
X62024608Y35522587D01*
X62028044Y35519704D01*
X62053696Y35515181D01*
X62196553Y35515181D01*
X62200766Y35516715D01*
X62205127Y35515673D01*
X62230094Y35523099D01*
X62279783Y35547944D01*
X62281957Y35541972D01*
X62326386Y35516320D01*
X62376910Y35525229D01*
X62409887Y35564529D01*
X62414410Y35590181D01*
X62414410Y36256848D01*
X62409670Y36269872D01*
X62598883Y36269872D01*
X62607792Y36219348D01*
X62647092Y36186371D01*
X62672744Y36181848D01*
X62740601Y36181848D01*
X62740601Y35733039D01*
X62742134Y35728827D01*
X62741092Y35724465D01*
X62748519Y35699498D01*
X62796138Y35604259D01*
X62804291Y35596540D01*
X62808758Y35586235D01*
X62829679Y35570718D01*
X62924917Y35523099D01*
X62929370Y35522587D01*
X62932806Y35519704D01*
X62958458Y35515181D01*
X63053696Y35515181D01*
X63101905Y35532728D01*
X63127557Y35577157D01*
X63122964Y35603205D01*
X63265550Y35603205D01*
X63274459Y35552681D01*
X63313759Y35519704D01*
X63339411Y35515181D01*
X63910839Y35515181D01*
X63959048Y35532728D01*
X63984700Y35577157D01*
X63975791Y35627681D01*
X63936491Y35660658D01*
X63910839Y35665181D01*
X63700125Y35665181D01*
X63700125Y36590181D01*
X63698649Y36594235D01*
X63699670Y36598424D01*
X63690022Y36617937D01*
X63682578Y36638390D01*
X63678843Y36640546D01*
X63676932Y36644413D01*
X63656997Y36653160D01*
X63638149Y36664042D01*
X63633901Y36663294D01*
X63629952Y36665026D01*
X63609057Y36658913D01*
X63587625Y36655133D01*
X63584853Y36651831D01*
X63580714Y36650619D01*
X63562721Y36631784D01*
X63471601Y36495104D01*
X63390222Y36413725D01*
X63305870Y36371549D01*
X63270598Y36334295D01*
X63267523Y36283084D01*
X63298087Y36241879D01*
X63347985Y36229959D01*
X63372952Y36237385D01*
X63468190Y36285004D01*
X63469315Y36286194D01*
X63487682Y36299053D01*
X63550125Y36361496D01*
X63550125Y35665181D01*
X63339411Y35665181D01*
X63291202Y35647634D01*
X63265550Y35603205D01*
X63122964Y35603205D01*
X63118648Y35627681D01*
X63079348Y35660658D01*
X63053696Y35665181D01*
X62976163Y35665181D01*
X62919121Y35693702D01*
X62890601Y35750744D01*
X62890601Y36181848D01*
X63053696Y36181848D01*
X63101905Y36199395D01*
X63127557Y36243824D01*
X63118648Y36294348D01*
X63079348Y36327325D01*
X63053696Y36331848D01*
X62890601Y36331848D01*
X62890601Y36590181D01*
X62873054Y36638390D01*
X62828625Y36664042D01*
X62778101Y36655133D01*
X62745124Y36615833D01*
X62740601Y36590181D01*
X62740601Y36331848D01*
X62672744Y36331848D01*
X62624535Y36314301D01*
X62598883Y36269872D01*
X62409670Y36269872D01*
X62396863Y36305057D01*
X62352434Y36330709D01*
X62301910Y36321800D01*
X62268933Y36282500D01*
X62264410Y36256848D01*
X62264410Y35716486D01*
X62247363Y35699439D01*
X62178848Y35665181D01*
X62071401Y35665181D01*
X62014359Y35693702D01*
X61985839Y35750744D01*
X61985839Y36256848D01*
X61968292Y36305057D01*
X61923863Y36330709D01*
X61873339Y36321800D01*
X61840362Y36282500D01*
X61835839Y36256848D01*
X61835839Y35733039D01*
X61542310Y35733039D01*
X61549349Y35747117D01*
X61549861Y35751571D01*
X61552744Y35755006D01*
X61557267Y35780658D01*
X61557267Y36066372D01*
X61555733Y36070586D01*
X61556775Y36074947D01*
X61549349Y36099913D01*
X61501730Y36195151D01*
X61500540Y36196277D01*
X61487681Y36214643D01*
X61440062Y36262262D01*
X61438580Y36262953D01*
X61420570Y36276311D01*
X61325332Y36323930D01*
X61320878Y36324443D01*
X61317443Y36327325D01*
X61291791Y36331848D01*
X61148934Y36331848D01*
X61144720Y36330315D01*
X61140359Y36331356D01*
X61115393Y36323930D01*
X61020155Y36276311D01*
X61019029Y36275122D01*
X61000663Y36262262D01*
X60953044Y36214643D01*
X60952353Y36213162D01*
X60938995Y36195151D01*
X60891376Y36099913D01*
X60890863Y36095460D01*
X60887981Y36092024D01*
X60883458Y36066372D01*
X60883458Y35780658D01*
X60740601Y35780658D01*
X60740601Y36807883D01*
X64127557Y36807883D01*
X64127557Y35372324D01*
G37*
D13*
G36*
X54886652Y39701286D02*
G01*
X53234740Y39701286D01*
X53234740Y41213503D01*
X53449026Y41213503D01*
X53450265Y41130067D01*
X53487583Y41055431D01*
X53553589Y41004379D01*
X53635209Y40987020D01*
X53716277Y41006795D01*
X53859134Y41078224D01*
X53873495Y41090030D01*
X53873495Y40290572D01*
X53632424Y40290572D01*
X53551071Y40272004D01*
X53485831Y40219976D01*
X53449625Y40144795D01*
X53449625Y40061349D01*
X53485831Y39986168D01*
X53551071Y39934140D01*
X53632424Y39915572D01*
X54489567Y39915572D01*
X54570920Y39934140D01*
X54636160Y39986168D01*
X54672366Y40061349D01*
X54672366Y40144795D01*
X54636160Y40219976D01*
X54570920Y40272004D01*
X54489567Y40290572D01*
X54248495Y40290572D01*
X54248495Y41603072D01*
X54242046Y41631327D01*
X54239580Y41660199D01*
X54232863Y41671558D01*
X54229927Y41684425D01*
X54211859Y41707081D01*
X54197109Y41732027D01*
X54186125Y41739350D01*
X54177899Y41749665D01*
X54151794Y41762237D01*
X54127678Y41778314D01*
X54114607Y41780146D01*
X54102718Y41785871D01*
X54073740Y41785871D01*
X54045040Y41789892D01*
X54032469Y41785871D01*
X54019272Y41785871D01*
X53993166Y41773299D01*
X53965562Y41764469D01*
X53955979Y41755391D01*
X53944091Y41749665D01*
X53926025Y41727012D01*
X53904986Y41707079D01*
X53772426Y41508240D01*
X53664212Y41400026D01*
X53548571Y41342205D01*
X53484111Y41289215D01*
X53449026Y41213503D01*
X53234740Y41213503D01*
X53234740Y42004178D01*
X54886652Y42004178D01*
X54886652Y39701286D01*
G37*
D12*
G36*
X61342602Y25987590D02*
G01*
X61373009Y25957183D01*
X61407267Y25888667D01*
X61407267Y25638363D01*
X61373008Y25569847D01*
X61342601Y25539439D01*
X61274086Y25505181D01*
X61166639Y25505181D01*
X61098123Y25539439D01*
X61067716Y25569847D01*
X61033458Y25638363D01*
X61033458Y25888667D01*
X61067716Y25957183D01*
X61098123Y25987590D01*
X61166639Y26021848D01*
X61274086Y26021848D01*
X61342602Y25987590D01*
G37*
G36*
X64128696Y25212324D02*
G01*
X60740601Y25212324D01*
X60740601Y25620658D01*
X60883458Y25620658D01*
X60884991Y25616445D01*
X60883950Y25612084D01*
X60891376Y25587117D01*
X60938995Y25491879D01*
X60940183Y25490754D01*
X60953043Y25472388D01*
X61000662Y25424768D01*
X61002143Y25424078D01*
X61020155Y25410718D01*
X61115393Y25363099D01*
X61119846Y25362587D01*
X61123282Y25359704D01*
X61148934Y25355181D01*
X61291791Y25355181D01*
X61296004Y25356715D01*
X61300365Y25355673D01*
X61325332Y25363099D01*
X61420570Y25410718D01*
X61421694Y25411906D01*
X61440063Y25424768D01*
X61487681Y25472387D01*
X61488371Y25473869D01*
X61501730Y25491879D01*
X61542310Y25573039D01*
X61835839Y25573039D01*
X61837372Y25568827D01*
X61836330Y25564465D01*
X61843757Y25539498D01*
X61891376Y25444259D01*
X61899529Y25436540D01*
X61903996Y25426235D01*
X61924917Y25410718D01*
X62020155Y25363099D01*
X62024608Y25362587D01*
X62028044Y25359704D01*
X62053696Y25355181D01*
X62196553Y25355181D01*
X62200766Y25356715D01*
X62205127Y25355673D01*
X62230094Y25363099D01*
X62279783Y25387944D01*
X62281957Y25381972D01*
X62326386Y25356320D01*
X62376910Y25365229D01*
X62409887Y25404529D01*
X62414410Y25430181D01*
X62414410Y26096848D01*
X62409670Y26109872D01*
X62598883Y26109872D01*
X62607792Y26059348D01*
X62647092Y26026371D01*
X62672744Y26021848D01*
X62740601Y26021848D01*
X62740601Y25573039D01*
X62742134Y25568827D01*
X62741092Y25564465D01*
X62748519Y25539498D01*
X62796138Y25444259D01*
X62804291Y25436540D01*
X62808758Y25426235D01*
X62829679Y25410718D01*
X62924917Y25363099D01*
X62929370Y25362587D01*
X62932806Y25359704D01*
X62958458Y25355181D01*
X63053696Y25355181D01*
X63101905Y25372728D01*
X63127557Y25417157D01*
X63118648Y25467681D01*
X63079348Y25500658D01*
X63053696Y25505181D01*
X62976163Y25505181D01*
X62919121Y25533702D01*
X62890601Y25590744D01*
X62890601Y25960527D01*
X63264697Y25960527D01*
X63271223Y25936168D01*
X63277446Y25911738D01*
X63277846Y25911451D01*
X63277974Y25910973D01*
X63298608Y25896525D01*
X63319102Y25881792D01*
X63319595Y25881830D01*
X63320000Y25881546D01*
X63345103Y25883743D01*
X63370262Y25885630D01*
X63370615Y25885976D01*
X63371107Y25886018D01*
X63392444Y25900958D01*
X63431457Y25939971D01*
X63499973Y25974229D01*
X63702658Y25974229D01*
X63771174Y25939971D01*
X63801581Y25909564D01*
X63835839Y25841048D01*
X63835839Y25638363D01*
X63801580Y25569847D01*
X63771173Y25539439D01*
X63702658Y25505181D01*
X63499973Y25505181D01*
X63431457Y25539439D01*
X63392445Y25578452D01*
X63345948Y25600134D01*
X63296393Y25586857D01*
X63266967Y25544832D01*
X63271437Y25493725D01*
X63286377Y25472388D01*
X63333996Y25424768D01*
X63335477Y25424078D01*
X63353489Y25410718D01*
X63448727Y25363099D01*
X63453180Y25362587D01*
X63456616Y25359704D01*
X63482268Y25355181D01*
X63720363Y25355181D01*
X63724576Y25356715D01*
X63728937Y25355673D01*
X63753904Y25363099D01*
X63849142Y25410718D01*
X63850266Y25411906D01*
X63868635Y25424768D01*
X63916253Y25472387D01*
X63916943Y25473869D01*
X63930302Y25491879D01*
X63977921Y25587117D01*
X63978433Y25591571D01*
X63981316Y25595006D01*
X63985839Y25620658D01*
X63985839Y25858753D01*
X63984305Y25862967D01*
X63985347Y25867328D01*
X63977921Y25892294D01*
X63930302Y25987532D01*
X63929112Y25988658D01*
X63916253Y26007024D01*
X63868634Y26054643D01*
X63867152Y26055334D01*
X63849142Y26068692D01*
X63753904Y26116311D01*
X63749450Y26116824D01*
X63746015Y26119706D01*
X63720363Y26124229D01*
X63482268Y26124229D01*
X63478054Y26122696D01*
X63473693Y26123737D01*
X63448727Y26116311D01*
X63430085Y26106991D01*
X63454904Y26355181D01*
X63863220Y26355181D01*
X63911429Y26372728D01*
X63937081Y26417157D01*
X63928172Y26467681D01*
X63888872Y26500658D01*
X63863220Y26505181D01*
X63387030Y26505181D01*
X63372062Y26499734D01*
X63356179Y26498542D01*
X63348672Y26491220D01*
X63338821Y26487634D01*
X63330857Y26473841D01*
X63319455Y26462718D01*
X63314723Y26445898D01*
X63313169Y26443205D01*
X63313476Y26441463D01*
X63312402Y26437644D01*
X63264783Y25961454D01*
X63264905Y25960974D01*
X63264697Y25960527D01*
X62890601Y25960527D01*
X62890601Y26021848D01*
X63053696Y26021848D01*
X63101905Y26039395D01*
X63127557Y26083824D01*
X63118648Y26134348D01*
X63079348Y26167325D01*
X63053696Y26171848D01*
X62890601Y26171848D01*
X62890601Y26430181D01*
X62873054Y26478390D01*
X62828625Y26504042D01*
X62778101Y26495133D01*
X62745124Y26455833D01*
X62740601Y26430181D01*
X62740601Y26171848D01*
X62672744Y26171848D01*
X62624535Y26154301D01*
X62598883Y26109872D01*
X62409670Y26109872D01*
X62396863Y26145057D01*
X62352434Y26170709D01*
X62301910Y26161800D01*
X62268933Y26122500D01*
X62264410Y26096848D01*
X62264410Y25556486D01*
X62247363Y25539439D01*
X62178848Y25505181D01*
X62071401Y25505181D01*
X62014359Y25533702D01*
X61985839Y25590744D01*
X61985839Y26096848D01*
X61968292Y26145057D01*
X61923863Y26170709D01*
X61873339Y26161800D01*
X61840362Y26122500D01*
X61835839Y26096848D01*
X61835839Y25573039D01*
X61542310Y25573039D01*
X61549349Y25587117D01*
X61549861Y25591571D01*
X61552744Y25595006D01*
X61557267Y25620658D01*
X61557267Y25906372D01*
X61555733Y25910586D01*
X61556775Y25914947D01*
X61549349Y25939913D01*
X61501730Y26035151D01*
X61500540Y26036277D01*
X61487681Y26054643D01*
X61440062Y26102262D01*
X61438580Y26102953D01*
X61420570Y26116311D01*
X61325332Y26163930D01*
X61320878Y26164443D01*
X61317443Y26167325D01*
X61291791Y26171848D01*
X61148934Y26171848D01*
X61144720Y26170315D01*
X61140359Y26171356D01*
X61115393Y26163930D01*
X61020155Y26116311D01*
X61019029Y26115122D01*
X61000663Y26102262D01*
X60953044Y26054643D01*
X60952353Y26053162D01*
X60938995Y26035151D01*
X60891376Y25939913D01*
X60890863Y25935460D01*
X60887981Y25932024D01*
X60883458Y25906372D01*
X60883458Y25620658D01*
X60740601Y25620658D01*
X60740601Y26648038D01*
X64128696Y26648038D01*
X64128696Y25212324D01*
G37*
G36*
X61342602Y31067590D02*
G01*
X61373009Y31037183D01*
X61407267Y30968667D01*
X61407267Y30718363D01*
X61373008Y30649847D01*
X61342601Y30619439D01*
X61274086Y30585181D01*
X61166639Y30585181D01*
X61098123Y30619439D01*
X61067716Y30649847D01*
X61033458Y30718363D01*
X61033458Y30968667D01*
X61067716Y31037183D01*
X61098123Y31067590D01*
X61166639Y31101848D01*
X61274086Y31101848D01*
X61342602Y31067590D01*
G37*
G36*
X64128696Y30292324D02*
G01*
X60740601Y30292324D01*
X60740601Y30700658D01*
X60883458Y30700658D01*
X60884991Y30696445D01*
X60883950Y30692084D01*
X60891376Y30667117D01*
X60938995Y30571879D01*
X60940183Y30570754D01*
X60953043Y30552388D01*
X61000662Y30504768D01*
X61002143Y30504078D01*
X61020155Y30490718D01*
X61115393Y30443099D01*
X61119846Y30442587D01*
X61123282Y30439704D01*
X61148934Y30435181D01*
X61291791Y30435181D01*
X61296004Y30436715D01*
X61300365Y30435673D01*
X61325332Y30443099D01*
X61420570Y30490718D01*
X61421694Y30491906D01*
X61440063Y30504768D01*
X61487681Y30552387D01*
X61488371Y30553869D01*
X61501730Y30571879D01*
X61542310Y30653039D01*
X61835839Y30653039D01*
X61837372Y30648827D01*
X61836330Y30644465D01*
X61843757Y30619498D01*
X61891376Y30524259D01*
X61899529Y30516540D01*
X61903996Y30506235D01*
X61924917Y30490718D01*
X62020155Y30443099D01*
X62024608Y30442587D01*
X62028044Y30439704D01*
X62053696Y30435181D01*
X62196553Y30435181D01*
X62200766Y30436715D01*
X62205127Y30435673D01*
X62230094Y30443099D01*
X62279783Y30467944D01*
X62281957Y30461972D01*
X62326386Y30436320D01*
X62376910Y30445229D01*
X62409887Y30484529D01*
X62414410Y30510181D01*
X62414410Y31176848D01*
X62409670Y31189872D01*
X62598883Y31189872D01*
X62607792Y31139348D01*
X62647092Y31106371D01*
X62672744Y31101848D01*
X62740601Y31101848D01*
X62740601Y30653039D01*
X62742134Y30648827D01*
X62741092Y30644465D01*
X62748519Y30619498D01*
X62796138Y30524259D01*
X62804291Y30516540D01*
X62808758Y30506235D01*
X62829679Y30490718D01*
X62924917Y30443099D01*
X62929370Y30442587D01*
X62932806Y30439704D01*
X62958458Y30435181D01*
X63053696Y30435181D01*
X63101905Y30452728D01*
X63127557Y30497157D01*
X63118648Y30547681D01*
X63079348Y30580658D01*
X63053696Y30585181D01*
X62976163Y30585181D01*
X62919121Y30613702D01*
X62890601Y30670744D01*
X62890601Y31101848D01*
X63053696Y31101848D01*
X63101905Y31119395D01*
X63127557Y31163824D01*
X63118648Y31214348D01*
X63079348Y31247325D01*
X63053696Y31251848D01*
X62890601Y31251848D01*
X62890601Y31510181D01*
X62885861Y31523205D01*
X63217931Y31523205D01*
X63226840Y31472681D01*
X63266140Y31439704D01*
X63291792Y31435181D01*
X63745557Y31435181D01*
X63521063Y31178617D01*
X63513756Y31159766D01*
X63503645Y31142253D01*
X63504684Y31136360D01*
X63502522Y31130781D01*
X63509042Y31111642D01*
X63512554Y31091729D01*
X63517137Y31087884D01*
X63519067Y31082219D01*
X63536365Y31071749D01*
X63551854Y31058752D01*
X63560297Y31057264D01*
X63562956Y31055654D01*
X63566397Y31056188D01*
X63577506Y31054229D01*
X63702658Y31054229D01*
X63771174Y31019971D01*
X63801581Y30989564D01*
X63835839Y30921048D01*
X63835839Y30718363D01*
X63801580Y30649847D01*
X63771173Y30619439D01*
X63702658Y30585181D01*
X63452354Y30585181D01*
X63383838Y30619439D01*
X63344826Y30658452D01*
X63298329Y30680134D01*
X63248774Y30666857D01*
X63219348Y30624832D01*
X63223818Y30573725D01*
X63238758Y30552388D01*
X63286377Y30504768D01*
X63287858Y30504078D01*
X63305870Y30490718D01*
X63401108Y30443099D01*
X63405561Y30442587D01*
X63408997Y30439704D01*
X63434649Y30435181D01*
X63720363Y30435181D01*
X63724576Y30436715D01*
X63728937Y30435673D01*
X63753904Y30443099D01*
X63849142Y30490718D01*
X63850266Y30491906D01*
X63868635Y30504768D01*
X63916253Y30552387D01*
X63916943Y30553869D01*
X63930302Y30571879D01*
X63977921Y30667117D01*
X63978433Y30671571D01*
X63981316Y30675006D01*
X63985839Y30700658D01*
X63985839Y30938753D01*
X63984305Y30942967D01*
X63985347Y30947328D01*
X63977921Y30972294D01*
X63930302Y31067532D01*
X63929112Y31068658D01*
X63916253Y31087024D01*
X63868634Y31134643D01*
X63867152Y31135334D01*
X63849142Y31148692D01*
X63753904Y31196311D01*
X63749450Y31196824D01*
X63746015Y31199706D01*
X63739791Y31200804D01*
X63967282Y31460793D01*
X63974588Y31479645D01*
X63984700Y31497157D01*
X63983660Y31503051D01*
X63985823Y31508629D01*
X63979302Y31527769D01*
X63975791Y31547681D01*
X63971207Y31551527D01*
X63969278Y31557191D01*
X63951979Y31567662D01*
X63936491Y31580658D01*
X63928047Y31582147D01*
X63925389Y31583756D01*
X63921947Y31583223D01*
X63910839Y31585181D01*
X63291792Y31585181D01*
X63243583Y31567634D01*
X63217931Y31523205D01*
X62885861Y31523205D01*
X62873054Y31558390D01*
X62828625Y31584042D01*
X62778101Y31575133D01*
X62745124Y31535833D01*
X62740601Y31510181D01*
X62740601Y31251848D01*
X62672744Y31251848D01*
X62624535Y31234301D01*
X62598883Y31189872D01*
X62409670Y31189872D01*
X62396863Y31225057D01*
X62352434Y31250709D01*
X62301910Y31241800D01*
X62268933Y31202500D01*
X62264410Y31176848D01*
X62264410Y30636486D01*
X62247363Y30619439D01*
X62178848Y30585181D01*
X62071401Y30585181D01*
X62014359Y30613702D01*
X61985839Y30670744D01*
X61985839Y31176848D01*
X61968292Y31225057D01*
X61923863Y31250709D01*
X61873339Y31241800D01*
X61840362Y31202500D01*
X61835839Y31176848D01*
X61835839Y30653039D01*
X61542310Y30653039D01*
X61549349Y30667117D01*
X61549861Y30671571D01*
X61552744Y30675006D01*
X61557267Y30700658D01*
X61557267Y30986372D01*
X61555733Y30990586D01*
X61556775Y30994947D01*
X61549349Y31019913D01*
X61501730Y31115151D01*
X61500540Y31116277D01*
X61487681Y31134643D01*
X61440062Y31182262D01*
X61438580Y31182953D01*
X61420570Y31196311D01*
X61325332Y31243930D01*
X61320878Y31244443D01*
X61317443Y31247325D01*
X61291791Y31251848D01*
X61148934Y31251848D01*
X61144720Y31250315D01*
X61140359Y31251356D01*
X61115393Y31243930D01*
X61020155Y31196311D01*
X61019029Y31195122D01*
X61000663Y31182262D01*
X60953044Y31134643D01*
X60952353Y31133162D01*
X60938995Y31115151D01*
X60891376Y31019913D01*
X60890863Y31015460D01*
X60887981Y31012024D01*
X60883458Y30986372D01*
X60883458Y30700658D01*
X60740601Y30700658D01*
X60740601Y31728038D01*
X64128696Y31728038D01*
X64128696Y30292324D01*
G37*
G36*
X61342602Y28527590D02*
G01*
X61373009Y28497183D01*
X61407267Y28428667D01*
X61407267Y28178363D01*
X61373008Y28109847D01*
X61342601Y28079439D01*
X61274086Y28045181D01*
X61166639Y28045181D01*
X61098123Y28079439D01*
X61067716Y28109847D01*
X61033458Y28178363D01*
X61033458Y28428667D01*
X61067716Y28497183D01*
X61098123Y28527590D01*
X61166639Y28561848D01*
X61274086Y28561848D01*
X61342602Y28527590D01*
G37*
G36*
X64175176Y27752324D02*
G01*
X60740601Y27752324D01*
X60740601Y28160658D01*
X60883458Y28160658D01*
X60884991Y28156445D01*
X60883950Y28152084D01*
X60891376Y28127117D01*
X60938995Y28031879D01*
X60940183Y28030754D01*
X60953043Y28012388D01*
X61000662Y27964768D01*
X61002143Y27964078D01*
X61020155Y27950718D01*
X61115393Y27903099D01*
X61119846Y27902587D01*
X61123282Y27899704D01*
X61148934Y27895181D01*
X61291791Y27895181D01*
X61296004Y27896715D01*
X61300365Y27895673D01*
X61325332Y27903099D01*
X61420570Y27950718D01*
X61421694Y27951906D01*
X61440063Y27964768D01*
X61487681Y28012387D01*
X61488371Y28013869D01*
X61501730Y28031879D01*
X61542310Y28113039D01*
X61835839Y28113039D01*
X61837372Y28108827D01*
X61836330Y28104465D01*
X61843757Y28079498D01*
X61891376Y27984259D01*
X61899529Y27976540D01*
X61903996Y27966235D01*
X61924917Y27950718D01*
X62020155Y27903099D01*
X62024608Y27902587D01*
X62028044Y27899704D01*
X62053696Y27895181D01*
X62196553Y27895181D01*
X62200766Y27896715D01*
X62205127Y27895673D01*
X62230094Y27903099D01*
X62279783Y27927944D01*
X62281957Y27921972D01*
X62326386Y27896320D01*
X62376910Y27905229D01*
X62409887Y27944529D01*
X62414410Y27970181D01*
X62414410Y28636848D01*
X62409670Y28649872D01*
X62598883Y28649872D01*
X62607792Y28599348D01*
X62647092Y28566371D01*
X62672744Y28561848D01*
X62740601Y28561848D01*
X62740601Y28113039D01*
X62742134Y28108827D01*
X62741092Y28104465D01*
X62748519Y28079498D01*
X62796138Y27984259D01*
X62804291Y27976540D01*
X62808758Y27966235D01*
X62829679Y27950718D01*
X62924917Y27903099D01*
X62929370Y27902587D01*
X62932806Y27899704D01*
X62958458Y27895181D01*
X63053696Y27895181D01*
X63101905Y27912728D01*
X63127557Y27957157D01*
X63118648Y28007681D01*
X63079348Y28040658D01*
X63053696Y28045181D01*
X62976163Y28045181D01*
X62919121Y28073702D01*
X62890601Y28130744D01*
X62890601Y28316539D01*
X63265550Y28316539D01*
X63269102Y28296393D01*
X63269661Y28275948D01*
X63273463Y28271660D01*
X63274459Y28266015D01*
X63290126Y28252869D01*
X63303698Y28237563D01*
X63309368Y28236723D01*
X63313759Y28233038D01*
X63339411Y28228515D01*
X63740601Y28228515D01*
X63740601Y27970181D01*
X63758148Y27921972D01*
X63802577Y27896320D01*
X63853101Y27905229D01*
X63886078Y27944529D01*
X63890601Y27970181D01*
X63890601Y28228515D01*
X63958458Y28228515D01*
X64006667Y28246062D01*
X64032319Y28290491D01*
X64023410Y28341015D01*
X63984110Y28373992D01*
X63958458Y28378515D01*
X63890601Y28378515D01*
X63890601Y28636848D01*
X63873054Y28685057D01*
X63828625Y28710709D01*
X63778101Y28701800D01*
X63745124Y28662500D01*
X63740601Y28636848D01*
X63740601Y28378515D01*
X63443468Y28378515D01*
X63648657Y28994082D01*
X63647256Y29045366D01*
X63613218Y29083752D01*
X63562470Y29091277D01*
X63518757Y29064422D01*
X63506355Y29041517D01*
X63268260Y28327232D01*
X63268416Y28321504D01*
X63265550Y28316539D01*
X62890601Y28316539D01*
X62890601Y28561848D01*
X63053696Y28561848D01*
X63101905Y28579395D01*
X63127557Y28623824D01*
X63118648Y28674348D01*
X63079348Y28707325D01*
X63053696Y28711848D01*
X62890601Y28711848D01*
X62890601Y28970181D01*
X62873054Y29018390D01*
X62828625Y29044042D01*
X62778101Y29035133D01*
X62745124Y28995833D01*
X62740601Y28970181D01*
X62740601Y28711848D01*
X62672744Y28711848D01*
X62624535Y28694301D01*
X62598883Y28649872D01*
X62409670Y28649872D01*
X62396863Y28685057D01*
X62352434Y28710709D01*
X62301910Y28701800D01*
X62268933Y28662500D01*
X62264410Y28636848D01*
X62264410Y28096486D01*
X62247363Y28079439D01*
X62178848Y28045181D01*
X62071401Y28045181D01*
X62014359Y28073702D01*
X61985839Y28130744D01*
X61985839Y28636848D01*
X61968292Y28685057D01*
X61923863Y28710709D01*
X61873339Y28701800D01*
X61840362Y28662500D01*
X61835839Y28636848D01*
X61835839Y28113039D01*
X61542310Y28113039D01*
X61549349Y28127117D01*
X61549861Y28131571D01*
X61552744Y28135006D01*
X61557267Y28160658D01*
X61557267Y28446372D01*
X61555733Y28450586D01*
X61556775Y28454947D01*
X61549349Y28479913D01*
X61501730Y28575151D01*
X61500540Y28576277D01*
X61487681Y28594643D01*
X61440062Y28642262D01*
X61438580Y28642953D01*
X61420570Y28656311D01*
X61325332Y28703930D01*
X61320878Y28704443D01*
X61317443Y28707325D01*
X61291791Y28711848D01*
X61148934Y28711848D01*
X61144720Y28710315D01*
X61140359Y28711356D01*
X61115393Y28703930D01*
X61020155Y28656311D01*
X61019029Y28655122D01*
X61000663Y28642262D01*
X60953044Y28594643D01*
X60952353Y28593162D01*
X60938995Y28575151D01*
X60891376Y28479913D01*
X60890863Y28475460D01*
X60887981Y28472024D01*
X60883458Y28446372D01*
X60883458Y28160658D01*
X60740601Y28160658D01*
X60740601Y29234134D01*
X64175176Y29234134D01*
X64175176Y27752324D01*
G37*
D10*
X13357761Y57297432D02*
X11738714Y57297432D01*
X11738714Y57297432D02*
X11548238Y57249813D01*
X11548238Y57249813D02*
X11453000Y57202194D01*
X11453000Y57202194D02*
X11357761Y57106956D01*
X11357761Y57106956D02*
X11357761Y56916480D01*
X11357761Y56916480D02*
X11453000Y56821242D01*
X11453000Y56821242D02*
X11548238Y56773623D01*
X11548238Y56773623D02*
X11738714Y56726004D01*
X11738714Y56726004D02*
X13357761Y56726004D01*
X11453000Y56297432D02*
X11357761Y56154575D01*
X11357761Y56154575D02*
X11357761Y55916480D01*
X11357761Y55916480D02*
X11453000Y55821242D01*
X11453000Y55821242D02*
X11548238Y55773623D01*
X11548238Y55773623D02*
X11738714Y55726004D01*
X11738714Y55726004D02*
X11929190Y55726004D01*
X11929190Y55726004D02*
X12119666Y55773623D01*
X12119666Y55773623D02*
X12214904Y55821242D01*
X12214904Y55821242D02*
X12310142Y55916480D01*
X12310142Y55916480D02*
X12405380Y56106956D01*
X12405380Y56106956D02*
X12500619Y56202194D01*
X12500619Y56202194D02*
X12595857Y56249813D01*
X12595857Y56249813D02*
X12786333Y56297432D01*
X12786333Y56297432D02*
X12976809Y56297432D01*
X12976809Y56297432D02*
X13167285Y56249813D01*
X13167285Y56249813D02*
X13262523Y56202194D01*
X13262523Y56202194D02*
X13357761Y56106956D01*
X13357761Y56106956D02*
X13357761Y55868861D01*
X13357761Y55868861D02*
X13262523Y55726004D01*
X12405380Y54964099D02*
X12310142Y54821242D01*
X12310142Y54821242D02*
X12214904Y54773623D01*
X12214904Y54773623D02*
X12024428Y54726004D01*
X12024428Y54726004D02*
X11738714Y54726004D01*
X11738714Y54726004D02*
X11548238Y54773623D01*
X11548238Y54773623D02*
X11453000Y54821242D01*
X11453000Y54821242D02*
X11357761Y54916480D01*
X11357761Y54916480D02*
X11357761Y55297432D01*
X11357761Y55297432D02*
X13357761Y55297432D01*
X13357761Y55297432D02*
X13357761Y54964099D01*
X13357761Y54964099D02*
X13262523Y54868861D01*
X13262523Y54868861D02*
X13167285Y54821242D01*
X13167285Y54821242D02*
X12976809Y54773623D01*
X12976809Y54773623D02*
X12786333Y54773623D01*
X12786333Y54773623D02*
X12595857Y54821242D01*
X12595857Y54821242D02*
X12500619Y54868861D01*
X12500619Y54868861D02*
X12405380Y54964099D01*
X12405380Y54964099D02*
X12405380Y55297432D01*
D12*
X52117942Y31829888D02*
X52117942Y31029888D01*
X52117942Y31029888D02*
X51217942Y31544174D01*
X51560800Y30572745D02*
X51560800Y29658459D01*
X51260800Y29144174D02*
X51217942Y28972745D01*
X51217942Y28972745D02*
X51217942Y28687031D01*
X51217942Y28687031D02*
X51260800Y28572745D01*
X51260800Y28572745D02*
X51303657Y28515603D01*
X51303657Y28515603D02*
X51389371Y28458460D01*
X51389371Y28458460D02*
X51475085Y28458460D01*
X51475085Y28458460D02*
X51560800Y28515603D01*
X51560800Y28515603D02*
X51603657Y28572745D01*
X51603657Y28572745D02*
X51646514Y28687031D01*
X51646514Y28687031D02*
X51689371Y28915603D01*
X51689371Y28915603D02*
X51732228Y29029888D01*
X51732228Y29029888D02*
X51775085Y29087031D01*
X51775085Y29087031D02*
X51860800Y29144174D01*
X51860800Y29144174D02*
X51946514Y29144174D01*
X51946514Y29144174D02*
X52032228Y29087031D01*
X52032228Y29087031D02*
X52075085Y29029888D01*
X52075085Y29029888D02*
X52117942Y28915603D01*
X52117942Y28915603D02*
X52117942Y28629888D01*
X52117942Y28629888D02*
X52075085Y28458460D01*
X51689371Y27944174D02*
X51689371Y27544174D01*
X51217942Y27372746D02*
X51217942Y27944174D01*
X51217942Y27944174D02*
X52117942Y27944174D01*
X52117942Y27944174D02*
X52117942Y27372746D01*
X52075085Y26229889D02*
X52117942Y26344174D01*
X52117942Y26344174D02*
X52117942Y26515603D01*
X52117942Y26515603D02*
X52075085Y26687032D01*
X52075085Y26687032D02*
X51989371Y26801317D01*
X51989371Y26801317D02*
X51903657Y26858460D01*
X51903657Y26858460D02*
X51732228Y26915603D01*
X51732228Y26915603D02*
X51603657Y26915603D01*
X51603657Y26915603D02*
X51432228Y26858460D01*
X51432228Y26858460D02*
X51346514Y26801317D01*
X51346514Y26801317D02*
X51260800Y26687032D01*
X51260800Y26687032D02*
X51217942Y26515603D01*
X51217942Y26515603D02*
X51217942Y26401317D01*
X51217942Y26401317D02*
X51260800Y26229889D01*
X51260800Y26229889D02*
X51303657Y26172746D01*
X51303657Y26172746D02*
X51603657Y26172746D01*
X51603657Y26172746D02*
X51603657Y26401317D01*
D11*
X28125939Y60082743D02*
X27125939Y61511315D01*
X26411653Y60082743D02*
X26411653Y63082743D01*
X26411653Y63082743D02*
X27554510Y63082743D01*
X27554510Y63082743D02*
X27840225Y62939886D01*
X27840225Y62939886D02*
X27983082Y62797029D01*
X27983082Y62797029D02*
X28125939Y62511315D01*
X28125939Y62511315D02*
X28125939Y62082743D01*
X28125939Y62082743D02*
X27983082Y61797029D01*
X27983082Y61797029D02*
X27840225Y61654172D01*
X27840225Y61654172D02*
X27554510Y61511315D01*
X27554510Y61511315D02*
X26411653Y61511315D01*
X29411653Y60082743D02*
X29411653Y63082743D01*
X29411653Y63082743D02*
X30554510Y63082743D01*
X30554510Y63082743D02*
X30840225Y62939886D01*
X30840225Y62939886D02*
X30983082Y62797029D01*
X30983082Y62797029D02*
X31125939Y62511315D01*
X31125939Y62511315D02*
X31125939Y62082743D01*
X31125939Y62082743D02*
X30983082Y61797029D01*
X30983082Y61797029D02*
X30840225Y61654172D01*
X30840225Y61654172D02*
X30554510Y61511315D01*
X30554510Y61511315D02*
X29411653Y61511315D01*
X32411653Y60082743D02*
X32411653Y63082743D01*
X36125938Y60082743D02*
X36125938Y63082743D01*
X36125938Y63082743D02*
X37268795Y63082743D01*
X37268795Y63082743D02*
X37554510Y62939886D01*
X37554510Y62939886D02*
X37697367Y62797029D01*
X37697367Y62797029D02*
X37840224Y62511315D01*
X37840224Y62511315D02*
X37840224Y62082743D01*
X37840224Y62082743D02*
X37697367Y61797029D01*
X37697367Y61797029D02*
X37554510Y61654172D01*
X37554510Y61654172D02*
X37268795Y61511315D01*
X37268795Y61511315D02*
X36125938Y61511315D01*
X39125938Y60082743D02*
X39125938Y62082743D01*
X39125938Y63082743D02*
X38983081Y62939886D01*
X38983081Y62939886D02*
X39125938Y62797029D01*
X39125938Y62797029D02*
X39268795Y62939886D01*
X39268795Y62939886D02*
X39125938Y63082743D01*
X39125938Y63082743D02*
X39125938Y62797029D01*
X41840224Y60225600D02*
X41554509Y60082743D01*
X41554509Y60082743D02*
X40983081Y60082743D01*
X40983081Y60082743D02*
X40697366Y60225600D01*
X40697366Y60225600D02*
X40554509Y60368458D01*
X40554509Y60368458D02*
X40411652Y60654172D01*
X40411652Y60654172D02*
X40411652Y61511315D01*
X40411652Y61511315D02*
X40554509Y61797029D01*
X40554509Y61797029D02*
X40697366Y61939886D01*
X40697366Y61939886D02*
X40983081Y62082743D01*
X40983081Y62082743D02*
X41554509Y62082743D01*
X41554509Y62082743D02*
X41840224Y61939886D01*
X43554510Y60082743D02*
X43268795Y60225600D01*
X43268795Y60225600D02*
X43125938Y60368458D01*
X43125938Y60368458D02*
X42983081Y60654172D01*
X42983081Y60654172D02*
X42983081Y61511315D01*
X42983081Y61511315D02*
X43125938Y61797029D01*
X43125938Y61797029D02*
X43268795Y61939886D01*
X43268795Y61939886D02*
X43554510Y62082743D01*
X43554510Y62082743D02*
X43983081Y62082743D01*
X43983081Y62082743D02*
X44268795Y61939886D01*
X44268795Y61939886D02*
X44411653Y61797029D01*
X44411653Y61797029D02*
X44554510Y61511315D01*
X44554510Y61511315D02*
X44554510Y60654172D01*
X44554510Y60654172D02*
X44411653Y60368458D01*
X44411653Y60368458D02*
X44268795Y60225600D01*
X44268795Y60225600D02*
X43983081Y60082743D01*
X43983081Y60082743D02*
X43554510Y60082743D01*
D12*
G36*
X63679849Y11317010D02*
G01*
X63753962Y11242897D01*
X63792455Y11165910D01*
X63835839Y10992376D01*
X63835839Y10867987D01*
X63792455Y10694453D01*
X63753961Y10617466D01*
X63679849Y10543353D01*
X63565336Y10505181D01*
X63414411Y10505181D01*
X63414411Y11355181D01*
X63565336Y11355181D01*
X63679849Y11317010D01*
G37*
G36*
X64128696Y10212324D02*
G01*
X61026316Y10212324D01*
X61026316Y10858753D01*
X61169173Y10858753D01*
X61170358Y10855496D01*
X61171412Y10840563D01*
X61219031Y10650087D01*
X61221019Y10647143D01*
X61224710Y10634736D01*
X61272329Y10539498D01*
X61273515Y10538375D01*
X61286378Y10520006D01*
X61381616Y10424767D01*
X61385680Y10422872D01*
X61388027Y10419052D01*
X61410932Y10406649D01*
X61553788Y10359030D01*
X61555423Y10359075D01*
X61577506Y10355181D01*
X61672744Y10355181D01*
X61674282Y10355742D01*
X61696461Y10359030D01*
X61839318Y10406649D01*
X61842829Y10409437D01*
X61847298Y10409827D01*
X61868635Y10424768D01*
X61874048Y10430181D01*
X62216792Y10430181D01*
X62234339Y10381972D01*
X62278768Y10356320D01*
X62329292Y10365229D01*
X62362269Y10404529D01*
X62366792Y10430181D01*
X62366792Y11147765D01*
X62798102Y10392970D01*
X62803395Y10388489D01*
X62805767Y10381972D01*
X62822504Y10372309D01*
X62837255Y10359819D01*
X62844189Y10359789D01*
X62850196Y10356320D01*
X62869229Y10359677D01*
X62888557Y10359590D01*
X62893890Y10364025D01*
X62900720Y10365229D01*
X62913144Y10380036D01*
X62928004Y10392392D01*
X62929238Y10399216D01*
X62933697Y10404529D01*
X62938220Y10430181D01*
X63264411Y10430181D01*
X63271074Y10411873D01*
X63274459Y10392681D01*
X63279643Y10388331D01*
X63281958Y10381972D01*
X63298831Y10372230D01*
X63313759Y10359704D01*
X63323501Y10357987D01*
X63326387Y10356320D01*
X63329669Y10356899D01*
X63339411Y10355181D01*
X63577506Y10355181D01*
X63579044Y10355742D01*
X63601223Y10359030D01*
X63744080Y10406649D01*
X63747592Y10409437D01*
X63752059Y10409827D01*
X63773396Y10424767D01*
X63868635Y10520007D01*
X63869326Y10521490D01*
X63882683Y10539498D01*
X63930302Y10634736D01*
X63930708Y10638265D01*
X63935981Y10650087D01*
X63983600Y10840563D01*
X63983239Y10844012D01*
X63985839Y10858753D01*
X63985839Y11001610D01*
X63984653Y11004868D01*
X63983600Y11019800D01*
X63935981Y11210276D01*
X63933992Y11213221D01*
X63930302Y11225627D01*
X63882683Y11320865D01*
X63881496Y11321989D01*
X63868634Y11340357D01*
X63773396Y11435595D01*
X63769332Y11437490D01*
X63766985Y11441311D01*
X63744080Y11453713D01*
X63601223Y11501332D01*
X63599588Y11501288D01*
X63577506Y11505181D01*
X63339411Y11505181D01*
X63321102Y11498518D01*
X63301911Y11495133D01*
X63297560Y11489949D01*
X63291202Y11487634D01*
X63281459Y11470761D01*
X63268934Y11455833D01*
X63267216Y11446091D01*
X63265550Y11443205D01*
X63266128Y11439923D01*
X63264411Y11430181D01*
X63264411Y10430181D01*
X62938220Y10430181D01*
X62938220Y11430181D01*
X62920673Y11478390D01*
X62876244Y11504042D01*
X62825720Y11495133D01*
X62792743Y11455833D01*
X62788220Y11430181D01*
X62788220Y10712598D01*
X62356910Y11467391D01*
X62351617Y11471873D01*
X62349245Y11478390D01*
X62332505Y11488055D01*
X62317757Y11500543D01*
X62310822Y11500574D01*
X62304816Y11504042D01*
X62285782Y11500686D01*
X62266455Y11500772D01*
X62261121Y11496338D01*
X62254292Y11495133D01*
X62241867Y11480327D01*
X62227008Y11467970D01*
X62225773Y11461147D01*
X62221315Y11455833D01*
X62216792Y11430181D01*
X62216792Y10430181D01*
X61874048Y10430181D01*
X61916253Y10472387D01*
X61923171Y10487225D01*
X61933697Y10499768D01*
X61936540Y10515896D01*
X61937934Y10518884D01*
X61937411Y10520835D01*
X61938220Y10525420D01*
X61938220Y10858753D01*
X61931556Y10877062D01*
X61928172Y10896253D01*
X61922987Y10900604D01*
X61920673Y10906962D01*
X61903799Y10916705D01*
X61888872Y10929230D01*
X61879129Y10930948D01*
X61876244Y10932614D01*
X61872961Y10932036D01*
X61863220Y10933753D01*
X61672744Y10933753D01*
X61624535Y10916206D01*
X61598883Y10871777D01*
X61607792Y10821253D01*
X61647092Y10788276D01*
X61672744Y10783753D01*
X61788220Y10783753D01*
X61788220Y10556486D01*
X61775087Y10543353D01*
X61660574Y10505181D01*
X61589676Y10505181D01*
X61475163Y10543352D01*
X61401050Y10617466D01*
X61362556Y10694453D01*
X61319173Y10867987D01*
X61319173Y10992376D01*
X61362556Y11165910D01*
X61401050Y11242897D01*
X61475163Y11317010D01*
X61589676Y11355181D01*
X61702658Y11355181D01*
X61782060Y11315480D01*
X61833026Y11309615D01*
X61875839Y11337881D01*
X61890466Y11387056D01*
X61870063Y11434127D01*
X61849142Y11449644D01*
X61753904Y11497263D01*
X61749450Y11497776D01*
X61746015Y11500658D01*
X61720363Y11505181D01*
X61577506Y11505181D01*
X61575968Y11504622D01*
X61553788Y11501332D01*
X61410932Y11453713D01*
X61407421Y11450927D01*
X61402953Y11450536D01*
X61381616Y11435595D01*
X61286378Y11340357D01*
X61285687Y11338876D01*
X61272329Y11320865D01*
X61224710Y11225627D01*
X61224303Y11222099D01*
X61219031Y11210276D01*
X61171412Y11019800D01*
X61171772Y11016352D01*
X61169173Y11001610D01*
X61169173Y10858753D01*
X61026316Y10858753D01*
X61026316Y11648038D01*
X64128696Y11648038D01*
X64128696Y10212324D01*
G37*
G36*
X63771174Y16392352D02*
G01*
X63801581Y16361945D01*
X63835839Y16293429D01*
X63835839Y16138363D01*
X63801580Y16069847D01*
X63771173Y16039439D01*
X63702658Y16005181D01*
X63547592Y16005181D01*
X63479076Y16039439D01*
X63448669Y16069847D01*
X63414411Y16138363D01*
X63414411Y16293429D01*
X63448669Y16361945D01*
X63479076Y16392352D01*
X63547592Y16426610D01*
X63702658Y16426610D01*
X63771174Y16392352D01*
G37*
G36*
X63771174Y16820923D02*
G01*
X63801581Y16790516D01*
X63835839Y16722000D01*
X63835839Y16709791D01*
X63801581Y16641275D01*
X63771174Y16610868D01*
X63702658Y16576610D01*
X63547592Y16576610D01*
X63479076Y16610868D01*
X63448669Y16641275D01*
X63414411Y16709791D01*
X63414411Y16722000D01*
X63448669Y16790516D01*
X63479076Y16820923D01*
X63547592Y16855181D01*
X63702658Y16855181D01*
X63771174Y16820923D01*
G37*
G36*
X64128696Y15712324D02*
G01*
X61313169Y15712324D01*
X61313169Y15943205D01*
X61456026Y15943205D01*
X61464935Y15892681D01*
X61504235Y15859704D01*
X61529887Y15855181D01*
X62101315Y15855181D01*
X62149524Y15872728D01*
X62175176Y15917157D01*
X62166267Y15967681D01*
X62126967Y16000658D01*
X62101315Y16005181D01*
X61890601Y16005181D01*
X61890601Y16930181D01*
X61889855Y16932230D01*
X62312058Y16932230D01*
X62315879Y16906464D01*
X62649212Y15906464D01*
X62650554Y15904773D01*
X62650613Y15902614D01*
X62666362Y15884853D01*
X62681103Y15866278D01*
X62683216Y15865846D01*
X62684650Y15864229D01*
X62708120Y15860749D01*
X62731364Y15855992D01*
X62733263Y15857021D01*
X62735399Y15856704D01*
X62755612Y15869123D01*
X62776478Y15880421D01*
X62777271Y15882429D01*
X62779111Y15883559D01*
X62791514Y15906464D01*
X62862912Y16120658D01*
X63264411Y16120658D01*
X63265944Y16116445D01*
X63264903Y16112084D01*
X63272329Y16087117D01*
X63319948Y15991879D01*
X63321136Y15990754D01*
X63333996Y15972388D01*
X63381615Y15924768D01*
X63383096Y15924078D01*
X63401108Y15910718D01*
X63496346Y15863099D01*
X63500799Y15862587D01*
X63504235Y15859704D01*
X63529887Y15855181D01*
X63720363Y15855181D01*
X63724576Y15856715D01*
X63728937Y15855673D01*
X63753904Y15863099D01*
X63849142Y15910718D01*
X63850266Y15911906D01*
X63868635Y15924768D01*
X63916253Y15972387D01*
X63916943Y15973869D01*
X63930302Y15991879D01*
X63977921Y16087117D01*
X63978433Y16091571D01*
X63981316Y16095006D01*
X63985839Y16120658D01*
X63985839Y16311134D01*
X63984305Y16315348D01*
X63985347Y16319709D01*
X63977921Y16344675D01*
X63930302Y16439913D01*
X63929112Y16441039D01*
X63916253Y16459405D01*
X63874048Y16501610D01*
X63916253Y16543815D01*
X63916944Y16545297D01*
X63930302Y16563307D01*
X63977921Y16658545D01*
X63978433Y16662999D01*
X63981316Y16666434D01*
X63985839Y16692086D01*
X63985839Y16739705D01*
X63984305Y16743919D01*
X63985347Y16748280D01*
X63977921Y16773246D01*
X63930302Y16868484D01*
X63929112Y16869610D01*
X63916253Y16887976D01*
X63868634Y16935595D01*
X63867152Y16936286D01*
X63849142Y16949644D01*
X63753904Y16997263D01*
X63749450Y16997776D01*
X63746015Y17000658D01*
X63720363Y17005181D01*
X63529887Y17005181D01*
X63525673Y17003648D01*
X63521312Y17004689D01*
X63496346Y16997263D01*
X63401108Y16949644D01*
X63399982Y16948455D01*
X63381616Y16935595D01*
X63333997Y16887976D01*
X63333306Y16886495D01*
X63319948Y16868484D01*
X63272329Y16773246D01*
X63271816Y16768793D01*
X63268934Y16765357D01*
X63264411Y16739705D01*
X63264411Y16692086D01*
X63265944Y16687873D01*
X63264903Y16683512D01*
X63272329Y16658545D01*
X63319948Y16563307D01*
X63321137Y16562182D01*
X63333997Y16543815D01*
X63376202Y16501610D01*
X63333997Y16459405D01*
X63333306Y16457924D01*
X63319948Y16439913D01*
X63272329Y16344675D01*
X63271816Y16340222D01*
X63268934Y16336786D01*
X63264411Y16311134D01*
X63264411Y16120658D01*
X62862912Y16120658D01*
X63124847Y16906464D01*
X63123446Y16957747D01*
X63089408Y16996133D01*
X63038660Y17003658D01*
X62994947Y16976803D01*
X62982545Y16953898D01*
X62720363Y16167352D01*
X62458181Y16953898D01*
X62426290Y16994084D01*
X62376029Y17004370D01*
X62330915Y16979941D01*
X62312058Y16932230D01*
X61889855Y16932230D01*
X61889125Y16934235D01*
X61890146Y16938424D01*
X61880498Y16957937D01*
X61873054Y16978390D01*
X61869319Y16980546D01*
X61867408Y16984413D01*
X61847473Y16993160D01*
X61828625Y17004042D01*
X61824377Y17003294D01*
X61820428Y17005026D01*
X61799533Y16998913D01*
X61778101Y16995133D01*
X61775329Y16991831D01*
X61771190Y16990619D01*
X61753197Y16971784D01*
X61662077Y16835104D01*
X61580698Y16753725D01*
X61496346Y16711549D01*
X61461074Y16674295D01*
X61457999Y16623084D01*
X61488563Y16581879D01*
X61538461Y16569959D01*
X61563428Y16577385D01*
X61658666Y16625004D01*
X61659791Y16626194D01*
X61678158Y16639053D01*
X61740601Y16701496D01*
X61740601Y16005181D01*
X61529887Y16005181D01*
X61481678Y15987634D01*
X61456026Y15943205D01*
X61313169Y15943205D01*
X61313169Y17148038D01*
X64128696Y17148038D01*
X64128696Y15712324D01*
G37*
G36*
X63766498Y56830043D02*
G01*
X63824918Y56749715D01*
X63857233Y56660850D01*
X63892983Y56464230D01*
X63892983Y56320610D01*
X63857233Y56123990D01*
X63824918Y56035125D01*
X63766498Y55954797D01*
X63684947Y55917420D01*
X63585840Y55917420D01*
X63585840Y56867420D01*
X63684947Y56867420D01*
X63766498Y56830043D01*
G37*
G36*
X64542983Y55610277D02*
G01*
X62478696Y55610277D01*
X62478696Y56628134D01*
X62635839Y56628134D01*
X62635846Y56628114D01*
X62640355Y56602503D01*
X62678451Y56497741D01*
X62680374Y56495447D01*
X62688280Y56479259D01*
X62726375Y56426878D01*
X62726911Y56426517D01*
X62744540Y56409188D01*
X62820730Y56356807D01*
X62823791Y56356015D01*
X62838839Y56347684D01*
X62981546Y56298628D01*
X63038701Y56259334D01*
X63063013Y56225905D01*
X63092982Y56143492D01*
X63092982Y56065157D01*
X63063013Y55982744D01*
X63038702Y55949316D01*
X62992307Y55917420D01*
X62841494Y55917420D01*
X62742088Y55962980D01*
X62690951Y55967115D01*
X62649121Y55937414D01*
X62636169Y55887772D01*
X62658156Y55841419D01*
X62679590Y55826620D01*
X62793877Y55774240D01*
X62797040Y55773985D01*
X62799473Y55771943D01*
X62825125Y55767420D01*
X63015601Y55767420D01*
X63024723Y55770741D01*
X63034389Y55769811D01*
X63058090Y55780616D01*
X63134281Y55832996D01*
X63134657Y55833524D01*
X63143878Y55842420D01*
X63435840Y55842420D01*
X63442503Y55824112D01*
X63445888Y55804920D01*
X63451072Y55800570D01*
X63453387Y55794211D01*
X63470260Y55784469D01*
X63485188Y55771943D01*
X63494930Y55770226D01*
X63497816Y55768559D01*
X63501098Y55769138D01*
X63510840Y55767420D01*
X63701316Y55767420D01*
X63704299Y55768506D01*
X63707361Y55767664D01*
X63732565Y55774240D01*
X63846851Y55826620D01*
X63851361Y55831072D01*
X63857512Y55832602D01*
X63867688Y55842420D01*
X64235840Y55842420D01*
X64253387Y55794211D01*
X64297816Y55768559D01*
X64348340Y55777468D01*
X64381317Y55816768D01*
X64385840Y55842420D01*
X64385840Y56942420D01*
X64368293Y56990629D01*
X64323864Y57016281D01*
X64273340Y57007372D01*
X64240363Y56968072D01*
X64235840Y56942420D01*
X64235840Y55842420D01*
X63867688Y55842420D01*
X63876257Y55850687D01*
X63952448Y55955450D01*
X63953274Y55958329D01*
X63962277Y55973931D01*
X64000371Y56078693D01*
X64000370Y56081970D01*
X64003677Y56090907D01*
X64041773Y56300431D01*
X64041204Y56303760D01*
X64042983Y56313848D01*
X64042983Y56470991D01*
X64041827Y56474166D01*
X64041773Y56484408D01*
X64003677Y56693932D01*
X64002023Y56696762D01*
X64000371Y56706146D01*
X63962277Y56810908D01*
X63960350Y56813206D01*
X63952448Y56829389D01*
X63876257Y56934152D01*
X63871001Y56937693D01*
X63868286Y56943419D01*
X63846851Y56958219D01*
X63732565Y57010600D01*
X63729400Y57010856D01*
X63726968Y57012897D01*
X63701316Y57017420D01*
X63510840Y57017420D01*
X63492531Y57010757D01*
X63473340Y57007372D01*
X63468989Y57002188D01*
X63462631Y56999873D01*
X63452888Y56983000D01*
X63440363Y56968072D01*
X63438645Y56958330D01*
X63436979Y56955444D01*
X63437557Y56952162D01*
X63435840Y56942420D01*
X63435840Y55842420D01*
X63143878Y55842420D01*
X63152447Y55850687D01*
X63190542Y55903068D01*
X63191368Y55905946D01*
X63200372Y55921550D01*
X63238457Y56026290D01*
X63238459Y56026291D01*
X63238459Y56026295D01*
X63238466Y56026312D01*
X63238465Y56026331D01*
X63242982Y56051943D01*
X63242982Y56156705D01*
X63242974Y56156726D01*
X63238466Y56182336D01*
X63200372Y56287098D01*
X63198444Y56289396D01*
X63190542Y56305580D01*
X63152447Y56357961D01*
X63151913Y56358321D01*
X63134282Y56375651D01*
X63058090Y56428032D01*
X63055032Y56428824D01*
X63039982Y56437155D01*
X62897279Y56486210D01*
X62840119Y56525507D01*
X62815806Y56558938D01*
X62785839Y56641347D01*
X62785839Y56719684D01*
X62815806Y56802093D01*
X62840119Y56835524D01*
X62886515Y56867420D01*
X63037328Y56867420D01*
X63136732Y56821859D01*
X63187869Y56817724D01*
X63229700Y56847425D01*
X63242652Y56897066D01*
X63220666Y56943419D01*
X63199231Y56958219D01*
X63084946Y57010600D01*
X63081781Y57010856D01*
X63079349Y57012897D01*
X63053697Y57017420D01*
X62863220Y57017420D01*
X62854095Y57014099D01*
X62844431Y57015028D01*
X62820730Y57004223D01*
X62744540Y56951842D01*
X62744163Y56951315D01*
X62726375Y56934152D01*
X62688280Y56881771D01*
X62687452Y56878892D01*
X62678451Y56863289D01*
X62640363Y56758550D01*
X62640362Y56758548D01*
X62640361Y56758545D01*
X62640355Y56758527D01*
X62640355Y56758509D01*
X62635839Y56732896D01*
X62635839Y56628134D01*
X62478696Y56628134D01*
X62478696Y57174563D01*
X64542983Y57174563D01*
X64542983Y55610277D01*
G37*
G36*
X64581077Y53310277D02*
G01*
X62173934Y53310277D01*
X62173934Y53542420D01*
X62331077Y53542420D01*
X62348624Y53494211D01*
X62393053Y53468559D01*
X62443577Y53477468D01*
X62476554Y53516768D01*
X62481077Y53542420D01*
X62481077Y54146603D01*
X62497261Y54168857D01*
X62543657Y54200753D01*
X62611355Y54200753D01*
X62648560Y54175175D01*
X62673934Y54105397D01*
X62673934Y53542420D01*
X62691481Y53494211D01*
X62735910Y53468559D01*
X62786434Y53477468D01*
X62819411Y53516768D01*
X62823934Y53542420D01*
X62823934Y54013848D01*
X63016791Y54013848D01*
X63017946Y54010674D01*
X63018001Y54000431D01*
X63056097Y53790908D01*
X63057749Y53788080D01*
X63059402Y53778693D01*
X63097497Y53673932D01*
X63099422Y53671637D01*
X63107327Y53655449D01*
X63183517Y53550687D01*
X63188772Y53547146D01*
X63191489Y53541419D01*
X63212923Y53526620D01*
X63327210Y53474240D01*
X63330373Y53473985D01*
X63332806Y53471943D01*
X63358458Y53467420D01*
X63434649Y53467420D01*
X63437632Y53468506D01*
X63440694Y53467664D01*
X63465898Y53474240D01*
X63580183Y53526620D01*
X63584692Y53531071D01*
X63590843Y53532601D01*
X63609589Y53550687D01*
X63647685Y53603067D01*
X63661849Y53652376D01*
X63641006Y53699254D01*
X63594906Y53721766D01*
X63545121Y53709379D01*
X63526375Y53691294D01*
X63499831Y53654798D01*
X63418280Y53617420D01*
X63374827Y53617420D01*
X63293275Y53654797D01*
X63234853Y53735127D01*
X63202540Y53823992D01*
X63166791Y54020611D01*
X63166791Y54164229D01*
X63196592Y54328134D01*
X63816791Y54328134D01*
X63816798Y54328114D01*
X63821307Y54302503D01*
X63859403Y54197741D01*
X63861326Y54195447D01*
X63869232Y54179259D01*
X63907327Y54126878D01*
X63907863Y54126517D01*
X63925492Y54109188D01*
X64001682Y54056807D01*
X64004743Y54056015D01*
X64019791Y54047684D01*
X64162498Y53998628D01*
X64219653Y53959334D01*
X64243965Y53925905D01*
X64273934Y53843492D01*
X64273934Y53765157D01*
X64243965Y53682744D01*
X64219654Y53649316D01*
X64173259Y53617420D01*
X64022446Y53617420D01*
X63923040Y53662980D01*
X63871903Y53667115D01*
X63830073Y53637414D01*
X63817121Y53587772D01*
X63839108Y53541419D01*
X63860542Y53526620D01*
X63974829Y53474240D01*
X63977992Y53473985D01*
X63980425Y53471943D01*
X64006077Y53467420D01*
X64196553Y53467420D01*
X64205675Y53470741D01*
X64215341Y53469811D01*
X64239042Y53480616D01*
X64315233Y53532996D01*
X64315609Y53533524D01*
X64333399Y53550687D01*
X64371494Y53603068D01*
X64372320Y53605946D01*
X64381324Y53621550D01*
X64419409Y53726290D01*
X64419411Y53726291D01*
X64419411Y53726295D01*
X64419418Y53726312D01*
X64419417Y53726331D01*
X64423934Y53751943D01*
X64423934Y53856705D01*
X64423926Y53856726D01*
X64419418Y53882336D01*
X64381324Y53987098D01*
X64379396Y53989396D01*
X64371494Y54005580D01*
X64333399Y54057961D01*
X64332865Y54058321D01*
X64315234Y54075651D01*
X64239042Y54128032D01*
X64235984Y54128824D01*
X64220934Y54137155D01*
X64078231Y54186210D01*
X64021071Y54225507D01*
X63996758Y54258938D01*
X63966791Y54341347D01*
X63966791Y54419684D01*
X63996758Y54502093D01*
X64021071Y54535524D01*
X64067467Y54567420D01*
X64218280Y54567420D01*
X64317684Y54521859D01*
X64368821Y54517724D01*
X64410652Y54547425D01*
X64423604Y54597066D01*
X64401618Y54643419D01*
X64380183Y54658219D01*
X64265898Y54710600D01*
X64262733Y54710856D01*
X64260301Y54712897D01*
X64234649Y54717420D01*
X64044172Y54717420D01*
X64035047Y54714099D01*
X64025383Y54715028D01*
X64001682Y54704223D01*
X63925492Y54651842D01*
X63925115Y54651315D01*
X63907327Y54634152D01*
X63869232Y54581771D01*
X63868404Y54578892D01*
X63859403Y54563289D01*
X63821315Y54458550D01*
X63821314Y54458548D01*
X63821313Y54458545D01*
X63821307Y54458527D01*
X63821307Y54458509D01*
X63816791Y54432896D01*
X63816791Y54328134D01*
X63196592Y54328134D01*
X63202540Y54360848D01*
X63234853Y54449713D01*
X63293275Y54530043D01*
X63374827Y54567420D01*
X63418280Y54567420D01*
X63499831Y54530042D01*
X63526375Y54493545D01*
X63568921Y54464878D01*
X63619940Y54470264D01*
X63655561Y54507186D01*
X63659115Y54558366D01*
X63647685Y54581772D01*
X63609589Y54634152D01*
X63604334Y54637693D01*
X63601618Y54643419D01*
X63580183Y54658219D01*
X63465898Y54710600D01*
X63462733Y54710856D01*
X63460301Y54712897D01*
X63434649Y54717420D01*
X63358458Y54717420D01*
X63355474Y54716335D01*
X63352413Y54717176D01*
X63327209Y54710600D01*
X63212923Y54658219D01*
X63208412Y54653768D01*
X63202263Y54652237D01*
X63183517Y54634152D01*
X63107327Y54529390D01*
X63106500Y54526513D01*
X63097497Y54510907D01*
X63059402Y54406146D01*
X63059403Y54402867D01*
X63056097Y54393931D01*
X63018001Y54184408D01*
X63018569Y54181080D01*
X63016791Y54170991D01*
X63016791Y54013848D01*
X62823934Y54013848D01*
X62823934Y54118610D01*
X62823926Y54118631D01*
X62819418Y54144241D01*
X62781324Y54249003D01*
X62774670Y54256937D01*
X62771905Y54266916D01*
X62753329Y54285175D01*
X62677137Y54337556D01*
X62667739Y54339988D01*
X62660300Y54346230D01*
X62634648Y54350753D01*
X62520362Y54350753D01*
X62511237Y54347432D01*
X62501573Y54348361D01*
X62477872Y54337556D01*
X62460578Y54325667D01*
X62419101Y54349614D01*
X62368577Y54340705D01*
X62335600Y54301405D01*
X62331077Y54275753D01*
X62331077Y53542420D01*
X62173934Y53542420D01*
X62173934Y54874563D01*
X64581077Y54874563D01*
X64581077Y53310277D01*
G37*
G36*
X61342602Y38687590D02*
G01*
X61373009Y38657183D01*
X61407267Y38588667D01*
X61407267Y38338363D01*
X61373008Y38269847D01*
X61342601Y38239439D01*
X61274086Y38205181D01*
X61166639Y38205181D01*
X61098123Y38239439D01*
X61067716Y38269847D01*
X61033458Y38338363D01*
X61033458Y38588667D01*
X61067716Y38657183D01*
X61098123Y38687590D01*
X61166639Y38721848D01*
X61274086Y38721848D01*
X61342602Y38687590D01*
G37*
G36*
X63723555Y39020923D02*
G01*
X63753962Y38990516D01*
X63792455Y38913529D01*
X63835839Y38739995D01*
X63835839Y38520368D01*
X63792455Y38346834D01*
X63753961Y38269847D01*
X63723554Y38239439D01*
X63655039Y38205181D01*
X63595211Y38205181D01*
X63526695Y38239439D01*
X63496288Y38269847D01*
X63457794Y38346834D01*
X63414411Y38520368D01*
X63414411Y38739995D01*
X63457794Y38913529D01*
X63496288Y38990516D01*
X63526695Y39020923D01*
X63595211Y39055181D01*
X63655039Y39055181D01*
X63723555Y39020923D01*
G37*
G36*
X64128696Y37912324D02*
G01*
X60740601Y37912324D01*
X60740601Y38320658D01*
X60883458Y38320658D01*
X60884991Y38316445D01*
X60883950Y38312084D01*
X60891376Y38287117D01*
X60938995Y38191879D01*
X60940183Y38190754D01*
X60953043Y38172388D01*
X61000662Y38124768D01*
X61002143Y38124078D01*
X61020155Y38110718D01*
X61115393Y38063099D01*
X61119846Y38062587D01*
X61123282Y38059704D01*
X61148934Y38055181D01*
X61291791Y38055181D01*
X61296004Y38056715D01*
X61300365Y38055673D01*
X61325332Y38063099D01*
X61420570Y38110718D01*
X61421694Y38111906D01*
X61440063Y38124768D01*
X61487681Y38172387D01*
X61488371Y38173869D01*
X61501730Y38191879D01*
X61542310Y38273039D01*
X61835839Y38273039D01*
X61837372Y38268827D01*
X61836330Y38264465D01*
X61843757Y38239498D01*
X61891376Y38144259D01*
X61899529Y38136540D01*
X61903996Y38126235D01*
X61924917Y38110718D01*
X62020155Y38063099D01*
X62024608Y38062587D01*
X62028044Y38059704D01*
X62053696Y38055181D01*
X62196553Y38055181D01*
X62200766Y38056715D01*
X62205127Y38055673D01*
X62230094Y38063099D01*
X62279783Y38087944D01*
X62281957Y38081972D01*
X62326386Y38056320D01*
X62376910Y38065229D01*
X62409887Y38104529D01*
X62414410Y38130181D01*
X62414410Y38796848D01*
X62409670Y38809872D01*
X62598883Y38809872D01*
X62607792Y38759348D01*
X62647092Y38726371D01*
X62672744Y38721848D01*
X62740601Y38721848D01*
X62740601Y38273039D01*
X62742134Y38268827D01*
X62741092Y38264465D01*
X62748519Y38239498D01*
X62796138Y38144259D01*
X62804291Y38136540D01*
X62808758Y38126235D01*
X62829679Y38110718D01*
X62924917Y38063099D01*
X62929370Y38062587D01*
X62932806Y38059704D01*
X62958458Y38055181D01*
X63053696Y38055181D01*
X63101905Y38072728D01*
X63127557Y38117157D01*
X63118648Y38167681D01*
X63079348Y38200658D01*
X63053696Y38205181D01*
X62976163Y38205181D01*
X62919121Y38233702D01*
X62890601Y38290744D01*
X62890601Y38511134D01*
X63264411Y38511134D01*
X63265596Y38507877D01*
X63266650Y38492944D01*
X63314269Y38302468D01*
X63316257Y38299524D01*
X63319948Y38287117D01*
X63367567Y38191879D01*
X63368755Y38190754D01*
X63381615Y38172388D01*
X63429234Y38124768D01*
X63430715Y38124078D01*
X63448727Y38110718D01*
X63543965Y38063099D01*
X63548418Y38062587D01*
X63551854Y38059704D01*
X63577506Y38055181D01*
X63672744Y38055181D01*
X63676957Y38056715D01*
X63681318Y38055673D01*
X63706285Y38063099D01*
X63801523Y38110718D01*
X63802647Y38111906D01*
X63821016Y38124768D01*
X63868634Y38172387D01*
X63869324Y38173869D01*
X63882683Y38191879D01*
X63930302Y38287117D01*
X63930708Y38290646D01*
X63935981Y38302468D01*
X63983600Y38492944D01*
X63983239Y38496393D01*
X63985839Y38511134D01*
X63985839Y38749229D01*
X63984653Y38752487D01*
X63983600Y38767419D01*
X63935981Y38957895D01*
X63933992Y38960840D01*
X63930302Y38973246D01*
X63882683Y39068484D01*
X63881493Y39069610D01*
X63868634Y39087976D01*
X63821015Y39135595D01*
X63819533Y39136286D01*
X63801523Y39149644D01*
X63706285Y39197263D01*
X63701831Y39197776D01*
X63698396Y39200658D01*
X63672744Y39205181D01*
X63577506Y39205181D01*
X63573292Y39203648D01*
X63568931Y39204689D01*
X63543965Y39197263D01*
X63448727Y39149644D01*
X63447601Y39148455D01*
X63429235Y39135595D01*
X63381616Y39087976D01*
X63380925Y39086495D01*
X63367567Y39068484D01*
X63319948Y38973246D01*
X63319541Y38969718D01*
X63314269Y38957895D01*
X63266650Y38767419D01*
X63267010Y38763971D01*
X63264411Y38749229D01*
X63264411Y38511134D01*
X62890601Y38511134D01*
X62890601Y38721848D01*
X63053696Y38721848D01*
X63101905Y38739395D01*
X63127557Y38783824D01*
X63118648Y38834348D01*
X63079348Y38867325D01*
X63053696Y38871848D01*
X62890601Y38871848D01*
X62890601Y39130181D01*
X62873054Y39178390D01*
X62828625Y39204042D01*
X62778101Y39195133D01*
X62745124Y39155833D01*
X62740601Y39130181D01*
X62740601Y38871848D01*
X62672744Y38871848D01*
X62624535Y38854301D01*
X62598883Y38809872D01*
X62409670Y38809872D01*
X62396863Y38845057D01*
X62352434Y38870709D01*
X62301910Y38861800D01*
X62268933Y38822500D01*
X62264410Y38796848D01*
X62264410Y38256486D01*
X62247363Y38239439D01*
X62178848Y38205181D01*
X62071401Y38205181D01*
X62014359Y38233702D01*
X61985839Y38290744D01*
X61985839Y38796848D01*
X61968292Y38845057D01*
X61923863Y38870709D01*
X61873339Y38861800D01*
X61840362Y38822500D01*
X61835839Y38796848D01*
X61835839Y38273039D01*
X61542310Y38273039D01*
X61549349Y38287117D01*
X61549861Y38291571D01*
X61552744Y38295006D01*
X61557267Y38320658D01*
X61557267Y38606372D01*
X61555733Y38610586D01*
X61556775Y38614947D01*
X61549349Y38639913D01*
X61501730Y38735151D01*
X61500540Y38736277D01*
X61487681Y38754643D01*
X61440062Y38802262D01*
X61438580Y38802953D01*
X61420570Y38816311D01*
X61325332Y38863930D01*
X61320878Y38864443D01*
X61317443Y38867325D01*
X61291791Y38871848D01*
X61148934Y38871848D01*
X61144720Y38870315D01*
X61140359Y38871356D01*
X61115393Y38863930D01*
X61020155Y38816311D01*
X61019029Y38815122D01*
X61000663Y38802262D01*
X60953044Y38754643D01*
X60952353Y38753162D01*
X60938995Y38735151D01*
X60891376Y38639913D01*
X60890863Y38635460D01*
X60887981Y38632024D01*
X60883458Y38606372D01*
X60883458Y38320658D01*
X60740601Y38320658D01*
X60740601Y39348038D01*
X64128696Y39348038D01*
X64128696Y37912324D01*
G37*
G36*
X61342602Y33607590D02*
G01*
X61373009Y33577183D01*
X61407267Y33508667D01*
X61407267Y33258363D01*
X61373008Y33189847D01*
X61342601Y33159439D01*
X61274086Y33125181D01*
X61166639Y33125181D01*
X61098123Y33159439D01*
X61067716Y33189847D01*
X61033458Y33258363D01*
X61033458Y33508667D01*
X61067716Y33577183D01*
X61098123Y33607590D01*
X61166639Y33641848D01*
X61274086Y33641848D01*
X61342602Y33607590D01*
G37*
G36*
X64128696Y32832324D02*
G01*
X60740601Y32832324D01*
X60740601Y33240658D01*
X60883458Y33240658D01*
X60884991Y33236445D01*
X60883950Y33232084D01*
X60891376Y33207117D01*
X60938995Y33111879D01*
X60940183Y33110754D01*
X60953043Y33092388D01*
X61000662Y33044768D01*
X61002143Y33044078D01*
X61020155Y33030718D01*
X61115393Y32983099D01*
X61119846Y32982587D01*
X61123282Y32979704D01*
X61148934Y32975181D01*
X61291791Y32975181D01*
X61296004Y32976715D01*
X61300365Y32975673D01*
X61325332Y32983099D01*
X61420570Y33030718D01*
X61421694Y33031906D01*
X61440063Y33044768D01*
X61487681Y33092387D01*
X61488371Y33093869D01*
X61501730Y33111879D01*
X61542310Y33193039D01*
X61835839Y33193039D01*
X61837372Y33188827D01*
X61836330Y33184465D01*
X61843757Y33159498D01*
X61891376Y33064259D01*
X61899529Y33056540D01*
X61903996Y33046235D01*
X61924917Y33030718D01*
X62020155Y32983099D01*
X62024608Y32982587D01*
X62028044Y32979704D01*
X62053696Y32975181D01*
X62196553Y32975181D01*
X62200766Y32976715D01*
X62205127Y32975673D01*
X62230094Y32983099D01*
X62279783Y33007944D01*
X62281957Y33001972D01*
X62326386Y32976320D01*
X62376910Y32985229D01*
X62409887Y33024529D01*
X62414410Y33050181D01*
X62414410Y33716848D01*
X62409670Y33729872D01*
X62598883Y33729872D01*
X62607792Y33679348D01*
X62647092Y33646371D01*
X62672744Y33641848D01*
X62740601Y33641848D01*
X62740601Y33193039D01*
X62742134Y33188827D01*
X62741092Y33184465D01*
X62748519Y33159498D01*
X62796138Y33064259D01*
X62804291Y33056540D01*
X62808758Y33046235D01*
X62829679Y33030718D01*
X62924917Y32983099D01*
X62929370Y32982587D01*
X62932806Y32979704D01*
X62958458Y32975181D01*
X63053696Y32975181D01*
X63101905Y32992728D01*
X63127557Y33037157D01*
X63124108Y33056717D01*
X63217078Y33056717D01*
X63222919Y33034915D01*
X63226840Y33012681D01*
X63229467Y33010477D01*
X63230355Y33007163D01*
X63248846Y32994215D01*
X63266140Y32979704D01*
X63270724Y32978896D01*
X63272381Y32977736D01*
X63275669Y32978024D01*
X63291792Y32975181D01*
X63910839Y32975181D01*
X63959048Y32992728D01*
X63984700Y33037157D01*
X63975791Y33087681D01*
X63936491Y33120658D01*
X63910839Y33125181D01*
X63472858Y33125181D01*
X63916253Y33568577D01*
X63918148Y33572642D01*
X63921968Y33574988D01*
X63934371Y33597893D01*
X63981990Y33740749D01*
X63981945Y33742385D01*
X63985839Y33764467D01*
X63985839Y33859705D01*
X63984305Y33863919D01*
X63985347Y33868280D01*
X63977921Y33893246D01*
X63930302Y33988484D01*
X63929112Y33989610D01*
X63916253Y34007976D01*
X63868634Y34055595D01*
X63867152Y34056286D01*
X63849142Y34069644D01*
X63753904Y34117263D01*
X63749450Y34117776D01*
X63746015Y34120658D01*
X63720363Y34125181D01*
X63482268Y34125181D01*
X63478054Y34123648D01*
X63473693Y34124689D01*
X63448727Y34117263D01*
X63353489Y34069644D01*
X63352363Y34068455D01*
X63333997Y34055595D01*
X63286378Y34007976D01*
X63264697Y33961479D01*
X63277974Y33911925D01*
X63320000Y33882498D01*
X63371107Y33886970D01*
X63392444Y33901910D01*
X63431457Y33940923D01*
X63499973Y33975181D01*
X63702658Y33975181D01*
X63771174Y33940923D01*
X63801581Y33910516D01*
X63835839Y33842000D01*
X63835839Y33776637D01*
X63797667Y33662124D01*
X63238759Y33103214D01*
X63229221Y33082761D01*
X63217931Y33063205D01*
X63218527Y33059825D01*
X63217078Y33056717D01*
X63124108Y33056717D01*
X63118648Y33087681D01*
X63079348Y33120658D01*
X63053696Y33125181D01*
X62976163Y33125181D01*
X62919121Y33153702D01*
X62890601Y33210744D01*
X62890601Y33641848D01*
X63053696Y33641848D01*
X63101905Y33659395D01*
X63127557Y33703824D01*
X63118648Y33754348D01*
X63079348Y33787325D01*
X63053696Y33791848D01*
X62890601Y33791848D01*
X62890601Y34050181D01*
X62873054Y34098390D01*
X62828625Y34124042D01*
X62778101Y34115133D01*
X62745124Y34075833D01*
X62740601Y34050181D01*
X62740601Y33791848D01*
X62672744Y33791848D01*
X62624535Y33774301D01*
X62598883Y33729872D01*
X62409670Y33729872D01*
X62396863Y33765057D01*
X62352434Y33790709D01*
X62301910Y33781800D01*
X62268933Y33742500D01*
X62264410Y33716848D01*
X62264410Y33176486D01*
X62247363Y33159439D01*
X62178848Y33125181D01*
X62071401Y33125181D01*
X62014359Y33153702D01*
X61985839Y33210744D01*
X61985839Y33716848D01*
X61968292Y33765057D01*
X61923863Y33790709D01*
X61873339Y33781800D01*
X61840362Y33742500D01*
X61835839Y33716848D01*
X61835839Y33193039D01*
X61542310Y33193039D01*
X61549349Y33207117D01*
X61549861Y33211571D01*
X61552744Y33215006D01*
X61557267Y33240658D01*
X61557267Y33526372D01*
X61555733Y33530586D01*
X61556775Y33534947D01*
X61549349Y33559913D01*
X61501730Y33655151D01*
X61500540Y33656277D01*
X61487681Y33674643D01*
X61440062Y33722262D01*
X61438580Y33722953D01*
X61420570Y33736311D01*
X61325332Y33783930D01*
X61320878Y33784443D01*
X61317443Y33787325D01*
X61291791Y33791848D01*
X61148934Y33791848D01*
X61144720Y33790315D01*
X61140359Y33791356D01*
X61115393Y33783930D01*
X61020155Y33736311D01*
X61019029Y33735122D01*
X61000663Y33722262D01*
X60953044Y33674643D01*
X60952353Y33673162D01*
X60938995Y33655151D01*
X60891376Y33559913D01*
X60890863Y33555460D01*
X60887981Y33552024D01*
X60883458Y33526372D01*
X60883458Y33240658D01*
X60740601Y33240658D01*
X60740601Y34268038D01*
X64128696Y34268038D01*
X64128696Y32832324D01*
G37*
G36*
X63679849Y18817010D02*
G01*
X63753962Y18742897D01*
X63792455Y18665910D01*
X63835839Y18492376D01*
X63835839Y18367987D01*
X63792455Y18194453D01*
X63753961Y18117466D01*
X63679849Y18043353D01*
X63565336Y18005181D01*
X63414411Y18005181D01*
X63414411Y18855181D01*
X63565336Y18855181D01*
X63679849Y18817010D01*
G37*
G36*
X64128696Y17712324D02*
G01*
X61026316Y17712324D01*
X61026316Y18358753D01*
X61169173Y18358753D01*
X61170358Y18355496D01*
X61171412Y18340563D01*
X61219031Y18150087D01*
X61221019Y18147143D01*
X61224710Y18134736D01*
X61272329Y18039498D01*
X61273515Y18038375D01*
X61286378Y18020006D01*
X61381616Y17924767D01*
X61385680Y17922872D01*
X61388027Y17919052D01*
X61410932Y17906649D01*
X61553788Y17859030D01*
X61555423Y17859075D01*
X61577506Y17855181D01*
X61672744Y17855181D01*
X61674282Y17855742D01*
X61696461Y17859030D01*
X61839318Y17906649D01*
X61842829Y17909437D01*
X61847298Y17909827D01*
X61868635Y17924768D01*
X61874048Y17930181D01*
X62216792Y17930181D01*
X62234339Y17881972D01*
X62278768Y17856320D01*
X62329292Y17865229D01*
X62362269Y17904529D01*
X62366792Y17930181D01*
X62366792Y18647765D01*
X62798102Y17892970D01*
X62803395Y17888489D01*
X62805767Y17881972D01*
X62822504Y17872309D01*
X62837255Y17859819D01*
X62844189Y17859789D01*
X62850196Y17856320D01*
X62869229Y17859677D01*
X62888557Y17859590D01*
X62893890Y17864025D01*
X62900720Y17865229D01*
X62913144Y17880036D01*
X62928004Y17892392D01*
X62929238Y17899216D01*
X62933697Y17904529D01*
X62938220Y17930181D01*
X63264411Y17930181D01*
X63271074Y17911873D01*
X63274459Y17892681D01*
X63279643Y17888331D01*
X63281958Y17881972D01*
X63298831Y17872230D01*
X63313759Y17859704D01*
X63323501Y17857987D01*
X63326387Y17856320D01*
X63329669Y17856899D01*
X63339411Y17855181D01*
X63577506Y17855181D01*
X63579044Y17855742D01*
X63601223Y17859030D01*
X63744080Y17906649D01*
X63747592Y17909437D01*
X63752059Y17909827D01*
X63773396Y17924767D01*
X63868635Y18020007D01*
X63869326Y18021490D01*
X63882683Y18039498D01*
X63930302Y18134736D01*
X63930708Y18138265D01*
X63935981Y18150087D01*
X63983600Y18340563D01*
X63983239Y18344012D01*
X63985839Y18358753D01*
X63985839Y18501610D01*
X63984653Y18504868D01*
X63983600Y18519800D01*
X63935981Y18710276D01*
X63933992Y18713221D01*
X63930302Y18725627D01*
X63882683Y18820865D01*
X63881496Y18821989D01*
X63868634Y18840357D01*
X63773396Y18935595D01*
X63769332Y18937490D01*
X63766985Y18941311D01*
X63744080Y18953713D01*
X63601223Y19001332D01*
X63599588Y19001288D01*
X63577506Y19005181D01*
X63339411Y19005181D01*
X63321102Y18998518D01*
X63301911Y18995133D01*
X63297560Y18989949D01*
X63291202Y18987634D01*
X63281459Y18970761D01*
X63268934Y18955833D01*
X63267216Y18946091D01*
X63265550Y18943205D01*
X63266128Y18939923D01*
X63264411Y18930181D01*
X63264411Y17930181D01*
X62938220Y17930181D01*
X62938220Y18930181D01*
X62920673Y18978390D01*
X62876244Y19004042D01*
X62825720Y18995133D01*
X62792743Y18955833D01*
X62788220Y18930181D01*
X62788220Y18212598D01*
X62356910Y18967391D01*
X62351617Y18971873D01*
X62349245Y18978390D01*
X62332505Y18988055D01*
X62317757Y19000543D01*
X62310822Y19000574D01*
X62304816Y19004042D01*
X62285782Y19000686D01*
X62266455Y19000772D01*
X62261121Y18996338D01*
X62254292Y18995133D01*
X62241867Y18980327D01*
X62227008Y18967970D01*
X62225773Y18961147D01*
X62221315Y18955833D01*
X62216792Y18930181D01*
X62216792Y17930181D01*
X61874048Y17930181D01*
X61916253Y17972387D01*
X61923171Y17987225D01*
X61933697Y17999768D01*
X61936540Y18015896D01*
X61937934Y18018884D01*
X61937411Y18020835D01*
X61938220Y18025420D01*
X61938220Y18358753D01*
X61931556Y18377062D01*
X61928172Y18396253D01*
X61922987Y18400604D01*
X61920673Y18406962D01*
X61903799Y18416705D01*
X61888872Y18429230D01*
X61879129Y18430948D01*
X61876244Y18432614D01*
X61872961Y18432036D01*
X61863220Y18433753D01*
X61672744Y18433753D01*
X61624535Y18416206D01*
X61598883Y18371777D01*
X61607792Y18321253D01*
X61647092Y18288276D01*
X61672744Y18283753D01*
X61788220Y18283753D01*
X61788220Y18056486D01*
X61775087Y18043353D01*
X61660574Y18005181D01*
X61589676Y18005181D01*
X61475163Y18043352D01*
X61401050Y18117466D01*
X61362556Y18194453D01*
X61319173Y18367987D01*
X61319173Y18492376D01*
X61362556Y18665910D01*
X61401050Y18742897D01*
X61475163Y18817010D01*
X61589676Y18855181D01*
X61702658Y18855181D01*
X61782060Y18815480D01*
X61833026Y18809615D01*
X61875839Y18837881D01*
X61890466Y18887056D01*
X61870063Y18934127D01*
X61849142Y18949644D01*
X61753904Y18997263D01*
X61749450Y18997776D01*
X61746015Y19000658D01*
X61720363Y19005181D01*
X61577506Y19005181D01*
X61575968Y19004622D01*
X61553788Y19001332D01*
X61410932Y18953713D01*
X61407421Y18950927D01*
X61402953Y18950536D01*
X61381616Y18935595D01*
X61286378Y18840357D01*
X61285687Y18838876D01*
X61272329Y18820865D01*
X61224710Y18725627D01*
X61224303Y18722099D01*
X61219031Y18710276D01*
X61171412Y18519800D01*
X61171772Y18516352D01*
X61169173Y18501610D01*
X61169173Y18358753D01*
X61026316Y18358753D01*
X61026316Y19148038D01*
X64128696Y19148038D01*
X64128696Y17712324D01*
G37*
G36*
X63679849Y41917010D02*
G01*
X63753962Y41842897D01*
X63792455Y41765910D01*
X63835839Y41592376D01*
X63835839Y41467987D01*
X63792455Y41294453D01*
X63753961Y41217466D01*
X63679849Y41143353D01*
X63565336Y41105181D01*
X63414411Y41105181D01*
X63414411Y41955181D01*
X63565336Y41955181D01*
X63679849Y41917010D01*
G37*
G36*
X64128696Y40812324D02*
G01*
X61026316Y40812324D01*
X61026316Y41458753D01*
X61169173Y41458753D01*
X61170358Y41455496D01*
X61171412Y41440563D01*
X61219031Y41250087D01*
X61221019Y41247143D01*
X61224710Y41234736D01*
X61272329Y41139498D01*
X61273515Y41138375D01*
X61286378Y41120006D01*
X61381616Y41024767D01*
X61385680Y41022872D01*
X61388027Y41019052D01*
X61410932Y41006649D01*
X61553788Y40959030D01*
X61555423Y40959075D01*
X61577506Y40955181D01*
X61672744Y40955181D01*
X61674282Y40955742D01*
X61696461Y40959030D01*
X61839318Y41006649D01*
X61842829Y41009437D01*
X61847298Y41009827D01*
X61868635Y41024768D01*
X61874048Y41030181D01*
X62216792Y41030181D01*
X62234339Y40981972D01*
X62278768Y40956320D01*
X62329292Y40965229D01*
X62362269Y41004529D01*
X62366792Y41030181D01*
X62366792Y41747765D01*
X62798102Y40992970D01*
X62803395Y40988489D01*
X62805767Y40981972D01*
X62822504Y40972309D01*
X62837255Y40959819D01*
X62844189Y40959789D01*
X62850196Y40956320D01*
X62869229Y40959677D01*
X62888557Y40959590D01*
X62893890Y40964025D01*
X62900720Y40965229D01*
X62913144Y40980036D01*
X62928004Y40992392D01*
X62929238Y40999216D01*
X62933697Y41004529D01*
X62938220Y41030181D01*
X63264411Y41030181D01*
X63271074Y41011873D01*
X63274459Y40992681D01*
X63279643Y40988331D01*
X63281958Y40981972D01*
X63298831Y40972230D01*
X63313759Y40959704D01*
X63323501Y40957987D01*
X63326387Y40956320D01*
X63329669Y40956899D01*
X63339411Y40955181D01*
X63577506Y40955181D01*
X63579044Y40955742D01*
X63601223Y40959030D01*
X63744080Y41006649D01*
X63747592Y41009437D01*
X63752059Y41009827D01*
X63773396Y41024767D01*
X63868635Y41120007D01*
X63869326Y41121490D01*
X63882683Y41139498D01*
X63930302Y41234736D01*
X63930708Y41238265D01*
X63935981Y41250087D01*
X63983600Y41440563D01*
X63983239Y41444012D01*
X63985839Y41458753D01*
X63985839Y41601610D01*
X63984653Y41604868D01*
X63983600Y41619800D01*
X63935981Y41810276D01*
X63933992Y41813221D01*
X63930302Y41825627D01*
X63882683Y41920865D01*
X63881496Y41921989D01*
X63868634Y41940357D01*
X63773396Y42035595D01*
X63769332Y42037490D01*
X63766985Y42041311D01*
X63744080Y42053713D01*
X63601223Y42101332D01*
X63599588Y42101288D01*
X63577506Y42105181D01*
X63339411Y42105181D01*
X63321102Y42098518D01*
X63301911Y42095133D01*
X63297560Y42089949D01*
X63291202Y42087634D01*
X63281459Y42070761D01*
X63268934Y42055833D01*
X63267216Y42046091D01*
X63265550Y42043205D01*
X63266128Y42039923D01*
X63264411Y42030181D01*
X63264411Y41030181D01*
X62938220Y41030181D01*
X62938220Y42030181D01*
X62920673Y42078390D01*
X62876244Y42104042D01*
X62825720Y42095133D01*
X62792743Y42055833D01*
X62788220Y42030181D01*
X62788220Y41312598D01*
X62356910Y42067391D01*
X62351617Y42071873D01*
X62349245Y42078390D01*
X62332505Y42088055D01*
X62317757Y42100543D01*
X62310822Y42100574D01*
X62304816Y42104042D01*
X62285782Y42100686D01*
X62266455Y42100772D01*
X62261121Y42096338D01*
X62254292Y42095133D01*
X62241867Y42080327D01*
X62227008Y42067970D01*
X62225773Y42061147D01*
X62221315Y42055833D01*
X62216792Y42030181D01*
X62216792Y41030181D01*
X61874048Y41030181D01*
X61916253Y41072387D01*
X61923171Y41087225D01*
X61933697Y41099768D01*
X61936540Y41115896D01*
X61937934Y41118884D01*
X61937411Y41120835D01*
X61938220Y41125420D01*
X61938220Y41458753D01*
X61931556Y41477062D01*
X61928172Y41496253D01*
X61922987Y41500604D01*
X61920673Y41506962D01*
X61903799Y41516705D01*
X61888872Y41529230D01*
X61879129Y41530948D01*
X61876244Y41532614D01*
X61872961Y41532036D01*
X61863220Y41533753D01*
X61672744Y41533753D01*
X61624535Y41516206D01*
X61598883Y41471777D01*
X61607792Y41421253D01*
X61647092Y41388276D01*
X61672744Y41383753D01*
X61788220Y41383753D01*
X61788220Y41156486D01*
X61775087Y41143353D01*
X61660574Y41105181D01*
X61589676Y41105181D01*
X61475163Y41143352D01*
X61401050Y41217466D01*
X61362556Y41294453D01*
X61319173Y41467987D01*
X61319173Y41592376D01*
X61362556Y41765910D01*
X61401050Y41842897D01*
X61475163Y41917010D01*
X61589676Y41955181D01*
X61702658Y41955181D01*
X61782060Y41915480D01*
X61833026Y41909615D01*
X61875839Y41937881D01*
X61890466Y41987056D01*
X61870063Y42034127D01*
X61849142Y42049644D01*
X61753904Y42097263D01*
X61749450Y42097776D01*
X61746015Y42100658D01*
X61720363Y42105181D01*
X61577506Y42105181D01*
X61575968Y42104622D01*
X61553788Y42101332D01*
X61410932Y42053713D01*
X61407421Y42050927D01*
X61402953Y42050536D01*
X61381616Y42035595D01*
X61286378Y41940357D01*
X61285687Y41938876D01*
X61272329Y41920865D01*
X61224710Y41825627D01*
X61224303Y41822099D01*
X61219031Y41810276D01*
X61171412Y41619800D01*
X61171772Y41616352D01*
X61169173Y41601610D01*
X61169173Y41458753D01*
X61026316Y41458753D01*
X61026316Y42248038D01*
X64128696Y42248038D01*
X64128696Y40812324D01*
G37*
D13*
G36*
X59991353Y39701286D02*
G01*
X58260388Y39701286D01*
X58260388Y40266922D01*
X58474674Y40266922D01*
X58484017Y40184001D01*
X58528412Y40113346D01*
X58599842Y40041917D01*
X58625324Y40025906D01*
X58648572Y40006795D01*
X58791429Y39935367D01*
X58792812Y39935030D01*
X58793928Y39934140D01*
X58833276Y39925160D01*
X58872497Y39915592D01*
X58873892Y39915889D01*
X58875281Y39915572D01*
X59303852Y39915572D01*
X59305239Y39915889D01*
X59306635Y39915592D01*
X59345879Y39925165D01*
X59385205Y39934140D01*
X59386318Y39935029D01*
X59387704Y39935366D01*
X59530562Y40006795D01*
X59553809Y40025906D01*
X59579293Y40041918D01*
X59650721Y40113347D01*
X59666732Y40138830D01*
X59685843Y40162076D01*
X59757272Y40304933D01*
X59757609Y40306319D01*
X59758499Y40307433D01*
X59767483Y40346799D01*
X59777046Y40386001D01*
X59776749Y40387396D01*
X59777067Y40388786D01*
X59777067Y40745929D01*
X59776749Y40747320D01*
X59777046Y40748714D01*
X59767483Y40787917D01*
X59758499Y40827282D01*
X59757609Y40828397D01*
X59757272Y40829782D01*
X59685843Y40972639D01*
X59666732Y40995886D01*
X59650721Y41021368D01*
X59579293Y41092797D01*
X59553809Y41108810D01*
X59530562Y41127920D01*
X59455703Y41165350D01*
X59730675Y41479602D01*
X59732747Y41483447D01*
X59736160Y41486168D01*
X59752452Y41519999D01*
X59770272Y41553054D01*
X59770471Y41557415D01*
X59772366Y41561349D01*
X59772366Y41598917D01*
X59774078Y41636412D01*
X59772366Y41640426D01*
X59772366Y41644795D01*
X59756065Y41678643D01*
X59741340Y41713167D01*
X59738054Y41716042D01*
X59736160Y41719976D01*
X59706797Y41743393D01*
X59678541Y41768117D01*
X59674333Y41769282D01*
X59670920Y41772004D01*
X59634298Y41780363D01*
X59598120Y41790376D01*
X59593825Y41789601D01*
X59589567Y41790572D01*
X58660995Y41790572D01*
X58579642Y41772004D01*
X58514402Y41719976D01*
X58478196Y41644795D01*
X58478196Y41561349D01*
X58514402Y41486168D01*
X58579642Y41434140D01*
X58660995Y41415572D01*
X59176361Y41415572D01*
X58948459Y41155113D01*
X58946386Y41151269D01*
X58942974Y41148547D01*
X58926686Y41114726D01*
X58908861Y41081661D01*
X58908661Y41077299D01*
X58906768Y41073366D01*
X58906768Y41035809D01*
X58905056Y40998302D01*
X58906768Y40994289D01*
X58906768Y40989920D01*
X58923059Y40956091D01*
X58937793Y40921547D01*
X58941080Y40918671D01*
X58942974Y40914739D01*
X58972325Y40891332D01*
X59000593Y40866598D01*
X59004800Y40865434D01*
X59008214Y40862711D01*
X59044835Y40854353D01*
X59081014Y40844339D01*
X59085308Y40845115D01*
X59089567Y40844143D01*
X59259589Y40844143D01*
X59335642Y40806117D01*
X59364039Y40777720D01*
X59402067Y40701666D01*
X59402067Y40433050D01*
X59364039Y40356996D01*
X59335642Y40328599D01*
X59259589Y40290572D01*
X58919543Y40290572D01*
X58843492Y40328597D01*
X58793578Y40378512D01*
X58722923Y40422907D01*
X58640002Y40432250D01*
X58561239Y40404690D01*
X58502234Y40345685D01*
X58474674Y40266922D01*
X58260388Y40266922D01*
X58260388Y42004858D01*
X59991353Y42004858D01*
X59991353Y39701286D01*
G37*
D12*
G36*
X61342602Y23447590D02*
G01*
X61373009Y23417183D01*
X61407267Y23348667D01*
X61407267Y23098363D01*
X61373008Y23029847D01*
X61342601Y22999439D01*
X61274086Y22965181D01*
X61166639Y22965181D01*
X61098123Y22999439D01*
X61067716Y23029847D01*
X61033458Y23098363D01*
X61033458Y23348667D01*
X61067716Y23417183D01*
X61098123Y23447590D01*
X61166639Y23481848D01*
X61274086Y23481848D01*
X61342602Y23447590D01*
G37*
G36*
X63771174Y23399971D02*
G01*
X63801581Y23369564D01*
X63835839Y23301048D01*
X63835839Y23098363D01*
X63801580Y23029847D01*
X63771173Y22999439D01*
X63702658Y22965181D01*
X63547592Y22965181D01*
X63479076Y22999439D01*
X63448669Y23029847D01*
X63414411Y23098363D01*
X63414411Y23301048D01*
X63448669Y23369564D01*
X63479076Y23399971D01*
X63547592Y23434229D01*
X63702658Y23434229D01*
X63771174Y23399971D01*
G37*
G36*
X64128696Y22672324D02*
G01*
X60740601Y22672324D01*
X60740601Y23080658D01*
X60883458Y23080658D01*
X60884991Y23076445D01*
X60883950Y23072084D01*
X60891376Y23047117D01*
X60938995Y22951879D01*
X60940183Y22950754D01*
X60953043Y22932388D01*
X61000662Y22884768D01*
X61002143Y22884078D01*
X61020155Y22870718D01*
X61115393Y22823099D01*
X61119846Y22822587D01*
X61123282Y22819704D01*
X61148934Y22815181D01*
X61291791Y22815181D01*
X61296004Y22816715D01*
X61300365Y22815673D01*
X61325332Y22823099D01*
X61420570Y22870718D01*
X61421694Y22871906D01*
X61440063Y22884768D01*
X61487681Y22932387D01*
X61488371Y22933869D01*
X61501730Y22951879D01*
X61542310Y23033039D01*
X61835839Y23033039D01*
X61837372Y23028827D01*
X61836330Y23024465D01*
X61843757Y22999498D01*
X61891376Y22904259D01*
X61899529Y22896540D01*
X61903996Y22886235D01*
X61924917Y22870718D01*
X62020155Y22823099D01*
X62024608Y22822587D01*
X62028044Y22819704D01*
X62053696Y22815181D01*
X62196553Y22815181D01*
X62200766Y22816715D01*
X62205127Y22815673D01*
X62230094Y22823099D01*
X62279783Y22847944D01*
X62281957Y22841972D01*
X62326386Y22816320D01*
X62376910Y22825229D01*
X62409887Y22864529D01*
X62414410Y22890181D01*
X62414410Y23556848D01*
X62409670Y23569872D01*
X62598883Y23569872D01*
X62607792Y23519348D01*
X62647092Y23486371D01*
X62672744Y23481848D01*
X62740601Y23481848D01*
X62740601Y23033039D01*
X62742134Y23028827D01*
X62741092Y23024465D01*
X62748519Y22999498D01*
X62796138Y22904259D01*
X62804291Y22896540D01*
X62808758Y22886235D01*
X62829679Y22870718D01*
X62924917Y22823099D01*
X62929370Y22822587D01*
X62932806Y22819704D01*
X62958458Y22815181D01*
X63053696Y22815181D01*
X63101905Y22832728D01*
X63127557Y22877157D01*
X63118648Y22927681D01*
X63079348Y22960658D01*
X63053696Y22965181D01*
X62976163Y22965181D01*
X62919121Y22993702D01*
X62890601Y23050744D01*
X62890601Y23080658D01*
X63264411Y23080658D01*
X63265944Y23076445D01*
X63264903Y23072084D01*
X63272329Y23047117D01*
X63319948Y22951879D01*
X63321136Y22950754D01*
X63333996Y22932388D01*
X63381615Y22884768D01*
X63383096Y22884078D01*
X63401108Y22870718D01*
X63496346Y22823099D01*
X63500799Y22822587D01*
X63504235Y22819704D01*
X63529887Y22815181D01*
X63720363Y22815181D01*
X63724576Y22816715D01*
X63728937Y22815673D01*
X63753904Y22823099D01*
X63849142Y22870718D01*
X63850266Y22871906D01*
X63868635Y22884768D01*
X63916253Y22932387D01*
X63916943Y22933869D01*
X63930302Y22951879D01*
X63977921Y23047117D01*
X63978433Y23051571D01*
X63981316Y23055006D01*
X63985839Y23080658D01*
X63985839Y23318753D01*
X63984305Y23322967D01*
X63985347Y23327328D01*
X63977921Y23352294D01*
X63930302Y23447532D01*
X63929112Y23448658D01*
X63916253Y23467024D01*
X63868634Y23514643D01*
X63867152Y23515334D01*
X63849142Y23528692D01*
X63753904Y23576311D01*
X63749450Y23576824D01*
X63746015Y23579706D01*
X63720363Y23584229D01*
X63529887Y23584229D01*
X63525673Y23582696D01*
X63521312Y23583737D01*
X63496346Y23576311D01*
X63438116Y23547196D01*
X63456640Y23621293D01*
X63540552Y23747162D01*
X63574314Y23780923D01*
X63642830Y23815181D01*
X63815601Y23815181D01*
X63863810Y23832728D01*
X63889462Y23877157D01*
X63880553Y23927681D01*
X63841253Y23960658D01*
X63815601Y23965181D01*
X63625125Y23965181D01*
X63620911Y23963648D01*
X63616550Y23964689D01*
X63591584Y23957263D01*
X63496346Y23909644D01*
X63495220Y23908455D01*
X63476854Y23895595D01*
X63429235Y23847976D01*
X63427758Y23844811D01*
X63419864Y23836546D01*
X63324626Y23693689D01*
X63324523Y23693268D01*
X63314269Y23670276D01*
X63266650Y23479800D01*
X63267010Y23476352D01*
X63264411Y23461610D01*
X63264411Y23080658D01*
X62890601Y23080658D01*
X62890601Y23481848D01*
X63053696Y23481848D01*
X63101905Y23499395D01*
X63127557Y23543824D01*
X63118648Y23594348D01*
X63079348Y23627325D01*
X63053696Y23631848D01*
X62890601Y23631848D01*
X62890601Y23890181D01*
X62873054Y23938390D01*
X62828625Y23964042D01*
X62778101Y23955133D01*
X62745124Y23915833D01*
X62740601Y23890181D01*
X62740601Y23631848D01*
X62672744Y23631848D01*
X62624535Y23614301D01*
X62598883Y23569872D01*
X62409670Y23569872D01*
X62396863Y23605057D01*
X62352434Y23630709D01*
X62301910Y23621800D01*
X62268933Y23582500D01*
X62264410Y23556848D01*
X62264410Y23016486D01*
X62247363Y22999439D01*
X62178848Y22965181D01*
X62071401Y22965181D01*
X62014359Y22993702D01*
X61985839Y23050744D01*
X61985839Y23556848D01*
X61968292Y23605057D01*
X61923863Y23630709D01*
X61873339Y23621800D01*
X61840362Y23582500D01*
X61835839Y23556848D01*
X61835839Y23033039D01*
X61542310Y23033039D01*
X61549349Y23047117D01*
X61549861Y23051571D01*
X61552744Y23055006D01*
X61557267Y23080658D01*
X61557267Y23366372D01*
X61555733Y23370586D01*
X61556775Y23374947D01*
X61549349Y23399913D01*
X61501730Y23495151D01*
X61500540Y23496277D01*
X61487681Y23514643D01*
X61440062Y23562262D01*
X61438580Y23562953D01*
X61420570Y23576311D01*
X61325332Y23623930D01*
X61320878Y23624443D01*
X61317443Y23627325D01*
X61291791Y23631848D01*
X61148934Y23631848D01*
X61144720Y23630315D01*
X61140359Y23631356D01*
X61115393Y23623930D01*
X61020155Y23576311D01*
X61019029Y23575122D01*
X61000663Y23562262D01*
X60953044Y23514643D01*
X60952353Y23513162D01*
X60938995Y23495151D01*
X60891376Y23399913D01*
X60890863Y23395460D01*
X60887981Y23392024D01*
X60883458Y23366372D01*
X60883458Y23080658D01*
X60740601Y23080658D01*
X60740601Y24108038D01*
X64128696Y24108038D01*
X64128696Y22672324D01*
G37*
G36*
X64580897Y50810277D02*
G01*
X62059648Y50810277D01*
X62059648Y51828134D01*
X62216791Y51828134D01*
X62216798Y51828114D01*
X62221307Y51802503D01*
X62259403Y51697741D01*
X62261326Y51695447D01*
X62269232Y51679259D01*
X62307327Y51626878D01*
X62307863Y51626517D01*
X62325492Y51609188D01*
X62401682Y51556807D01*
X62404743Y51556015D01*
X62419791Y51547684D01*
X62562498Y51498628D01*
X62619653Y51459334D01*
X62643965Y51425905D01*
X62673934Y51343492D01*
X62673934Y51265157D01*
X62643965Y51182744D01*
X62619654Y51149316D01*
X62573259Y51117420D01*
X62422446Y51117420D01*
X62323040Y51162980D01*
X62271903Y51167115D01*
X62230073Y51137414D01*
X62217121Y51087772D01*
X62239108Y51041419D01*
X62260542Y51026620D01*
X62374829Y50974240D01*
X62377992Y50973985D01*
X62380425Y50971943D01*
X62406077Y50967420D01*
X62596553Y50967420D01*
X62605675Y50970741D01*
X62615341Y50969811D01*
X62639042Y50980616D01*
X62715233Y51032996D01*
X62715609Y51033524D01*
X62733399Y51050687D01*
X62771494Y51103068D01*
X62772320Y51105946D01*
X62781324Y51121550D01*
X62819409Y51226290D01*
X62819411Y51226291D01*
X62819411Y51226295D01*
X62819418Y51226312D01*
X62819417Y51226331D01*
X62823934Y51251943D01*
X62823934Y51356705D01*
X62823926Y51356726D01*
X62819418Y51382336D01*
X62781324Y51487098D01*
X62779396Y51489396D01*
X62771494Y51505580D01*
X62765481Y51513848D01*
X62978696Y51513848D01*
X62979851Y51510674D01*
X62979906Y51500431D01*
X63018002Y51290908D01*
X63019654Y51288080D01*
X63021307Y51278693D01*
X63059402Y51173932D01*
X63061327Y51171637D01*
X63069232Y51155449D01*
X63145422Y51050687D01*
X63150677Y51047146D01*
X63153394Y51041419D01*
X63174828Y51026620D01*
X63289115Y50974240D01*
X63292278Y50973985D01*
X63294711Y50971943D01*
X63320363Y50967420D01*
X63396554Y50967420D01*
X63399537Y50968506D01*
X63402599Y50967664D01*
X63427803Y50974240D01*
X63542088Y51026620D01*
X63546597Y51031071D01*
X63552748Y51032601D01*
X63562925Y51042420D01*
X63816792Y51042420D01*
X63834339Y50994211D01*
X63878768Y50968559D01*
X63929292Y50977468D01*
X63962269Y51016768D01*
X63966792Y51042420D01*
X63966792Y51489460D01*
X63997003Y51531001D01*
X64283093Y51006506D01*
X64321582Y50972586D01*
X64372870Y50971341D01*
X64412959Y51003356D01*
X64423090Y51053648D01*
X64414777Y51078334D01*
X64094639Y51665251D01*
X64409590Y52098307D01*
X64423754Y52147616D01*
X64402911Y52194493D01*
X64356810Y52217005D01*
X64307025Y52204618D01*
X64288280Y52186533D01*
X63966792Y51744487D01*
X63966792Y52142420D01*
X63949245Y52190629D01*
X63904816Y52216281D01*
X63854292Y52207372D01*
X63821315Y52168072D01*
X63816792Y52142420D01*
X63816792Y51042420D01*
X63562925Y51042420D01*
X63571494Y51050687D01*
X63609590Y51103067D01*
X63623754Y51152376D01*
X63602911Y51199254D01*
X63556811Y51221766D01*
X63507026Y51209379D01*
X63488280Y51191294D01*
X63461736Y51154798D01*
X63380185Y51117420D01*
X63336732Y51117420D01*
X63255180Y51154797D01*
X63196758Y51235127D01*
X63164445Y51323992D01*
X63128696Y51520611D01*
X63128696Y51664229D01*
X63164445Y51860848D01*
X63196758Y51949713D01*
X63255180Y52030043D01*
X63336732Y52067420D01*
X63380185Y52067420D01*
X63461736Y52030042D01*
X63488280Y51993545D01*
X63530826Y51964878D01*
X63581845Y51970264D01*
X63617466Y52007186D01*
X63621020Y52058366D01*
X63609590Y52081772D01*
X63571494Y52134152D01*
X63566239Y52137693D01*
X63563523Y52143419D01*
X63542088Y52158219D01*
X63427803Y52210600D01*
X63424638Y52210856D01*
X63422206Y52212897D01*
X63396554Y52217420D01*
X63320363Y52217420D01*
X63317379Y52216335D01*
X63314318Y52217176D01*
X63289114Y52210600D01*
X63174828Y52158219D01*
X63170317Y52153768D01*
X63164168Y52152237D01*
X63145422Y52134152D01*
X63069232Y52029390D01*
X63068405Y52026513D01*
X63059402Y52010907D01*
X63021307Y51906146D01*
X63021308Y51902867D01*
X63018002Y51893931D01*
X62979906Y51684408D01*
X62980474Y51681080D01*
X62978696Y51670991D01*
X62978696Y51513848D01*
X62765481Y51513848D01*
X62733399Y51557961D01*
X62732865Y51558321D01*
X62715234Y51575651D01*
X62639042Y51628032D01*
X62635984Y51628824D01*
X62620934Y51637155D01*
X62478231Y51686210D01*
X62421071Y51725507D01*
X62396758Y51758938D01*
X62366791Y51841347D01*
X62366791Y51919684D01*
X62396758Y52002093D01*
X62421071Y52035524D01*
X62467467Y52067420D01*
X62618280Y52067420D01*
X62717684Y52021859D01*
X62768821Y52017724D01*
X62810652Y52047425D01*
X62823604Y52097066D01*
X62801618Y52143419D01*
X62780183Y52158219D01*
X62665898Y52210600D01*
X62662733Y52210856D01*
X62660301Y52212897D01*
X62634649Y52217420D01*
X62444172Y52217420D01*
X62435047Y52214099D01*
X62425383Y52215028D01*
X62401682Y52204223D01*
X62325492Y52151842D01*
X62325115Y52151315D01*
X62307327Y52134152D01*
X62269232Y52081771D01*
X62268404Y52078892D01*
X62259403Y52063289D01*
X62221315Y51958550D01*
X62221314Y51958548D01*
X62221313Y51958545D01*
X62221307Y51958527D01*
X62221307Y51958509D01*
X62216791Y51932896D01*
X62216791Y51828134D01*
X62059648Y51828134D01*
X62059648Y52374563D01*
X64580897Y52374563D01*
X64580897Y50810277D01*
G37*
X54607200Y13466668D02*
X54654819Y13609525D01*
X54654819Y13609525D02*
X54654819Y13847620D01*
X54654819Y13847620D02*
X54607200Y13942858D01*
X54607200Y13942858D02*
X54559580Y13990477D01*
X54559580Y13990477D02*
X54464342Y14038096D01*
X54464342Y14038096D02*
X54369104Y14038096D01*
X54369104Y14038096D02*
X54273866Y13990477D01*
X54273866Y13990477D02*
X54226247Y13942858D01*
X54226247Y13942858D02*
X54178628Y13847620D01*
X54178628Y13847620D02*
X54131009Y13657144D01*
X54131009Y13657144D02*
X54083390Y13561906D01*
X54083390Y13561906D02*
X54035771Y13514287D01*
X54035771Y13514287D02*
X53940533Y13466668D01*
X53940533Y13466668D02*
X53845295Y13466668D01*
X53845295Y13466668D02*
X53750057Y13514287D01*
X53750057Y13514287D02*
X53702438Y13561906D01*
X53702438Y13561906D02*
X53654819Y13657144D01*
X53654819Y13657144D02*
X53654819Y13895239D01*
X53654819Y13895239D02*
X53702438Y14038096D01*
X53654819Y14371430D02*
X54654819Y14609525D01*
X54654819Y14609525D02*
X53940533Y14800001D01*
X53940533Y14800001D02*
X54654819Y14990477D01*
X54654819Y14990477D02*
X53654819Y15228572D01*
X54654819Y16133334D02*
X54654819Y15561906D01*
X54654819Y15847620D02*
X53654819Y15847620D01*
X53654819Y15847620D02*
X53797676Y15752382D01*
X53797676Y15752382D02*
X53892914Y15657144D01*
X53892914Y15657144D02*
X53940533Y15561906D01*
X55454819Y23457143D02*
X54978628Y23123810D01*
X55454819Y22885715D02*
X54454819Y22885715D01*
X54454819Y22885715D02*
X54454819Y23266667D01*
X54454819Y23266667D02*
X54502438Y23361905D01*
X54502438Y23361905D02*
X54550057Y23409524D01*
X54550057Y23409524D02*
X54645295Y23457143D01*
X54645295Y23457143D02*
X54788152Y23457143D01*
X54788152Y23457143D02*
X54883390Y23409524D01*
X54883390Y23409524D02*
X54931009Y23361905D01*
X54931009Y23361905D02*
X54978628Y23266667D01*
X54978628Y23266667D02*
X54978628Y22885715D01*
X55454819Y24409524D02*
X55454819Y23838096D01*
X55454819Y24123810D02*
X54454819Y24123810D01*
X54454819Y24123810D02*
X54597676Y24028572D01*
X54597676Y24028572D02*
X54692914Y23933334D01*
X54692914Y23933334D02*
X54740533Y23838096D01*
X54454819Y25028572D02*
X54454819Y25123810D01*
X54454819Y25123810D02*
X54502438Y25219048D01*
X54502438Y25219048D02*
X54550057Y25266667D01*
X54550057Y25266667D02*
X54645295Y25314286D01*
X54645295Y25314286D02*
X54835771Y25361905D01*
X54835771Y25361905D02*
X55073866Y25361905D01*
X55073866Y25361905D02*
X55264342Y25314286D01*
X55264342Y25314286D02*
X55359580Y25266667D01*
X55359580Y25266667D02*
X55407200Y25219048D01*
X55407200Y25219048D02*
X55454819Y25123810D01*
X55454819Y25123810D02*
X55454819Y25028572D01*
X55454819Y25028572D02*
X55407200Y24933334D01*
X55407200Y24933334D02*
X55359580Y24885715D01*
X55359580Y24885715D02*
X55264342Y24838096D01*
X55264342Y24838096D02*
X55073866Y24790477D01*
X55073866Y24790477D02*
X54835771Y24790477D01*
X54835771Y24790477D02*
X54645295Y24838096D01*
X54645295Y24838096D02*
X54550057Y24885715D01*
X54550057Y24885715D02*
X54502438Y24933334D01*
X54502438Y24933334D02*
X54454819Y25028572D01*
X52554819Y19633334D02*
X52078628Y19300001D01*
X52554819Y19061906D02*
X51554819Y19061906D01*
X51554819Y19061906D02*
X51554819Y19442858D01*
X51554819Y19442858D02*
X51602438Y19538096D01*
X51602438Y19538096D02*
X51650057Y19585715D01*
X51650057Y19585715D02*
X51745295Y19633334D01*
X51745295Y19633334D02*
X51888152Y19633334D01*
X51888152Y19633334D02*
X51983390Y19585715D01*
X51983390Y19585715D02*
X52031009Y19538096D01*
X52031009Y19538096D02*
X52078628Y19442858D01*
X52078628Y19442858D02*
X52078628Y19061906D01*
X52554819Y20109525D02*
X52554819Y20300001D01*
X52554819Y20300001D02*
X52507200Y20395239D01*
X52507200Y20395239D02*
X52459580Y20442858D01*
X52459580Y20442858D02*
X52316723Y20538096D01*
X52316723Y20538096D02*
X52126247Y20585715D01*
X52126247Y20585715D02*
X51745295Y20585715D01*
X51745295Y20585715D02*
X51650057Y20538096D01*
X51650057Y20538096D02*
X51602438Y20490477D01*
X51602438Y20490477D02*
X51554819Y20395239D01*
X51554819Y20395239D02*
X51554819Y20204763D01*
X51554819Y20204763D02*
X51602438Y20109525D01*
X51602438Y20109525D02*
X51650057Y20061906D01*
X51650057Y20061906D02*
X51745295Y20014287D01*
X51745295Y20014287D02*
X51983390Y20014287D01*
X51983390Y20014287D02*
X52078628Y20061906D01*
X52078628Y20061906D02*
X52126247Y20109525D01*
X52126247Y20109525D02*
X52173866Y20204763D01*
X52173866Y20204763D02*
X52173866Y20395239D01*
X52173866Y20395239D02*
X52126247Y20490477D01*
X52126247Y20490477D02*
X52078628Y20538096D01*
X52078628Y20538096D02*
X51983390Y20585715D01*
X57059580Y23533334D02*
X57107200Y23485715D01*
X57107200Y23485715D02*
X57154819Y23342858D01*
X57154819Y23342858D02*
X57154819Y23247620D01*
X57154819Y23247620D02*
X57107200Y23104763D01*
X57107200Y23104763D02*
X57011961Y23009525D01*
X57011961Y23009525D02*
X56916723Y22961906D01*
X56916723Y22961906D02*
X56726247Y22914287D01*
X56726247Y22914287D02*
X56583390Y22914287D01*
X56583390Y22914287D02*
X56392914Y22961906D01*
X56392914Y22961906D02*
X56297676Y23009525D01*
X56297676Y23009525D02*
X56202438Y23104763D01*
X56202438Y23104763D02*
X56154819Y23247620D01*
X56154819Y23247620D02*
X56154819Y23342858D01*
X56154819Y23342858D02*
X56202438Y23485715D01*
X56202438Y23485715D02*
X56250057Y23533334D01*
X56250057Y23914287D02*
X56202438Y23961906D01*
X56202438Y23961906D02*
X56154819Y24057144D01*
X56154819Y24057144D02*
X56154819Y24295239D01*
X56154819Y24295239D02*
X56202438Y24390477D01*
X56202438Y24390477D02*
X56250057Y24438096D01*
X56250057Y24438096D02*
X56345295Y24485715D01*
X56345295Y24485715D02*
X56440533Y24485715D01*
X56440533Y24485715D02*
X56583390Y24438096D01*
X56583390Y24438096D02*
X57154819Y23866668D01*
X57154819Y23866668D02*
X57154819Y24485715D01*
X27942319Y73563334D02*
X27466128Y73230001D01*
X27942319Y72991906D02*
X26942319Y72991906D01*
X26942319Y72991906D02*
X26942319Y73372858D01*
X26942319Y73372858D02*
X26989938Y73468096D01*
X26989938Y73468096D02*
X27037557Y73515715D01*
X27037557Y73515715D02*
X27132795Y73563334D01*
X27132795Y73563334D02*
X27275652Y73563334D01*
X27275652Y73563334D02*
X27370890Y73515715D01*
X27370890Y73515715D02*
X27418509Y73468096D01*
X27418509Y73468096D02*
X27466128Y73372858D01*
X27466128Y73372858D02*
X27466128Y72991906D01*
X27037557Y73944287D02*
X26989938Y73991906D01*
X26989938Y73991906D02*
X26942319Y74087144D01*
X26942319Y74087144D02*
X26942319Y74325239D01*
X26942319Y74325239D02*
X26989938Y74420477D01*
X26989938Y74420477D02*
X27037557Y74468096D01*
X27037557Y74468096D02*
X27132795Y74515715D01*
X27132795Y74515715D02*
X27228033Y74515715D01*
X27228033Y74515715D02*
X27370890Y74468096D01*
X27370890Y74468096D02*
X27942319Y73896668D01*
X27942319Y73896668D02*
X27942319Y74515715D01*
X20238095Y71985181D02*
X20238095Y71175658D01*
X20238095Y71175658D02*
X20285714Y71080420D01*
X20285714Y71080420D02*
X20333333Y71032800D01*
X20333333Y71032800D02*
X20428571Y70985181D01*
X20428571Y70985181D02*
X20619047Y70985181D01*
X20619047Y70985181D02*
X20714285Y71032800D01*
X20714285Y71032800D02*
X20761904Y71080420D01*
X20761904Y71080420D02*
X20809523Y71175658D01*
X20809523Y71175658D02*
X20809523Y71985181D01*
X21809523Y70985181D02*
X21238095Y70985181D01*
X21523809Y70985181D02*
X21523809Y71985181D01*
X21523809Y71985181D02*
X21428571Y71842324D01*
X21428571Y71842324D02*
X21333333Y71747086D01*
X21333333Y71747086D02*
X21238095Y71699467D01*
X25942319Y71563334D02*
X25466128Y71230001D01*
X25942319Y70991906D02*
X24942319Y70991906D01*
X24942319Y70991906D02*
X24942319Y71372858D01*
X24942319Y71372858D02*
X24989938Y71468096D01*
X24989938Y71468096D02*
X25037557Y71515715D01*
X25037557Y71515715D02*
X25132795Y71563334D01*
X25132795Y71563334D02*
X25275652Y71563334D01*
X25275652Y71563334D02*
X25370890Y71515715D01*
X25370890Y71515715D02*
X25418509Y71468096D01*
X25418509Y71468096D02*
X25466128Y71372858D01*
X25466128Y71372858D02*
X25466128Y70991906D01*
X25942319Y72515715D02*
X25942319Y71944287D01*
X25942319Y72230001D02*
X24942319Y72230001D01*
X24942319Y72230001D02*
X25085176Y72134763D01*
X25085176Y72134763D02*
X25180414Y72039525D01*
X25180414Y72039525D02*
X25228033Y71944287D01*
X61154819Y13433334D02*
X60678628Y13100001D01*
X61154819Y12861906D02*
X60154819Y12861906D01*
X60154819Y12861906D02*
X60154819Y13242858D01*
X60154819Y13242858D02*
X60202438Y13338096D01*
X60202438Y13338096D02*
X60250057Y13385715D01*
X60250057Y13385715D02*
X60345295Y13433334D01*
X60345295Y13433334D02*
X60488152Y13433334D01*
X60488152Y13433334D02*
X60583390Y13385715D01*
X60583390Y13385715D02*
X60631009Y13338096D01*
X60631009Y13338096D02*
X60678628Y13242858D01*
X60678628Y13242858D02*
X60678628Y12861906D01*
X60154819Y14338096D02*
X60154819Y13861906D01*
X60154819Y13861906D02*
X60631009Y13814287D01*
X60631009Y13814287D02*
X60583390Y13861906D01*
X60583390Y13861906D02*
X60535771Y13957144D01*
X60535771Y13957144D02*
X60535771Y14195239D01*
X60535771Y14195239D02*
X60583390Y14290477D01*
X60583390Y14290477D02*
X60631009Y14338096D01*
X60631009Y14338096D02*
X60726247Y14385715D01*
X60726247Y14385715D02*
X60964342Y14385715D01*
X60964342Y14385715D02*
X61059580Y14338096D01*
X61059580Y14338096D02*
X61107200Y14290477D01*
X61107200Y14290477D02*
X61154819Y14195239D01*
X61154819Y14195239D02*
X61154819Y13957144D01*
X61154819Y13957144D02*
X61107200Y13861906D01*
X61107200Y13861906D02*
X61059580Y13814287D01*
X61524200Y48490476D02*
X61562295Y48604762D01*
X61562295Y48604762D02*
X61562295Y48795238D01*
X61562295Y48795238D02*
X61524200Y48871429D01*
X61524200Y48871429D02*
X61486104Y48909524D01*
X61486104Y48909524D02*
X61409914Y48947619D01*
X61409914Y48947619D02*
X61333723Y48947619D01*
X61333723Y48947619D02*
X61257533Y48909524D01*
X61257533Y48909524D02*
X61219438Y48871429D01*
X61219438Y48871429D02*
X61181342Y48795238D01*
X61181342Y48795238D02*
X61143247Y48642857D01*
X61143247Y48642857D02*
X61105152Y48566667D01*
X61105152Y48566667D02*
X61067057Y48528572D01*
X61067057Y48528572D02*
X60990866Y48490476D01*
X60990866Y48490476D02*
X60914676Y48490476D01*
X60914676Y48490476D02*
X60838485Y48528572D01*
X60838485Y48528572D02*
X60800390Y48566667D01*
X60800390Y48566667D02*
X60762295Y48642857D01*
X60762295Y48642857D02*
X60762295Y48833334D01*
X60762295Y48833334D02*
X60800390Y48947619D01*
X60762295Y49214286D02*
X61562295Y49404762D01*
X61562295Y49404762D02*
X60990866Y49557143D01*
X60990866Y49557143D02*
X61562295Y49709524D01*
X61562295Y49709524D02*
X60762295Y49900000D01*
X61486104Y50661906D02*
X61524200Y50623810D01*
X61524200Y50623810D02*
X61562295Y50509525D01*
X61562295Y50509525D02*
X61562295Y50433334D01*
X61562295Y50433334D02*
X61524200Y50319048D01*
X61524200Y50319048D02*
X61448009Y50242858D01*
X61448009Y50242858D02*
X61371819Y50204763D01*
X61371819Y50204763D02*
X61219438Y50166667D01*
X61219438Y50166667D02*
X61105152Y50166667D01*
X61105152Y50166667D02*
X60952771Y50204763D01*
X60952771Y50204763D02*
X60876580Y50242858D01*
X60876580Y50242858D02*
X60800390Y50319048D01*
X60800390Y50319048D02*
X60762295Y50433334D01*
X60762295Y50433334D02*
X60762295Y50509525D01*
X60762295Y50509525D02*
X60800390Y50623810D01*
X60800390Y50623810D02*
X60838485Y50661906D01*
X61562295Y51385715D02*
X61562295Y51004763D01*
X61562295Y51004763D02*
X60762295Y51004763D01*
X61562295Y51652382D02*
X60762295Y51652382D01*
X61562295Y52109525D02*
X61105152Y51766667D01*
X60762295Y52109525D02*
X61219438Y51652382D01*
X61524200Y59904762D02*
X61562295Y60019048D01*
X61562295Y60019048D02*
X61562295Y60209524D01*
X61562295Y60209524D02*
X61524200Y60285715D01*
X61524200Y60285715D02*
X61486104Y60323810D01*
X61486104Y60323810D02*
X61409914Y60361905D01*
X61409914Y60361905D02*
X61333723Y60361905D01*
X61333723Y60361905D02*
X61257533Y60323810D01*
X61257533Y60323810D02*
X61219438Y60285715D01*
X61219438Y60285715D02*
X61181342Y60209524D01*
X61181342Y60209524D02*
X61143247Y60057143D01*
X61143247Y60057143D02*
X61105152Y59980953D01*
X61105152Y59980953D02*
X61067057Y59942858D01*
X61067057Y59942858D02*
X60990866Y59904762D01*
X60990866Y59904762D02*
X60914676Y59904762D01*
X60914676Y59904762D02*
X60838485Y59942858D01*
X60838485Y59942858D02*
X60800390Y59980953D01*
X60800390Y59980953D02*
X60762295Y60057143D01*
X60762295Y60057143D02*
X60762295Y60247620D01*
X60762295Y60247620D02*
X60800390Y60361905D01*
X60762295Y60628572D02*
X61562295Y60819048D01*
X61562295Y60819048D02*
X60990866Y60971429D01*
X60990866Y60971429D02*
X61562295Y61123810D01*
X61562295Y61123810D02*
X60762295Y61314286D01*
X61562295Y61619049D02*
X60762295Y61619049D01*
X60762295Y61619049D02*
X60762295Y61809525D01*
X60762295Y61809525D02*
X60800390Y61923811D01*
X60800390Y61923811D02*
X60876580Y62000001D01*
X60876580Y62000001D02*
X60952771Y62038096D01*
X60952771Y62038096D02*
X61105152Y62076192D01*
X61105152Y62076192D02*
X61219438Y62076192D01*
X61219438Y62076192D02*
X61371819Y62038096D01*
X61371819Y62038096D02*
X61448009Y62000001D01*
X61448009Y62000001D02*
X61524200Y61923811D01*
X61524200Y61923811D02*
X61562295Y61809525D01*
X61562295Y61809525D02*
X61562295Y61619049D01*
X61562295Y62419049D02*
X60762295Y62419049D01*
X60762295Y62952382D02*
X60762295Y63104763D01*
X60762295Y63104763D02*
X60800390Y63180953D01*
X60800390Y63180953D02*
X60876580Y63257144D01*
X60876580Y63257144D02*
X61028961Y63295239D01*
X61028961Y63295239D02*
X61295628Y63295239D01*
X61295628Y63295239D02*
X61448009Y63257144D01*
X61448009Y63257144D02*
X61524200Y63180953D01*
X61524200Y63180953D02*
X61562295Y63104763D01*
X61562295Y63104763D02*
X61562295Y62952382D01*
X61562295Y62952382D02*
X61524200Y62876191D01*
X61524200Y62876191D02*
X61448009Y62800001D01*
X61448009Y62800001D02*
X61295628Y62761905D01*
X61295628Y62761905D02*
X61028961Y62761905D01*
X61028961Y62761905D02*
X60876580Y62800001D01*
X60876580Y62800001D02*
X60800390Y62876191D01*
X60800390Y62876191D02*
X60762295Y62952382D01*
X13847080Y71563334D02*
X13894700Y71515715D01*
X13894700Y71515715D02*
X13942319Y71372858D01*
X13942319Y71372858D02*
X13942319Y71277620D01*
X13942319Y71277620D02*
X13894700Y71134763D01*
X13894700Y71134763D02*
X13799461Y71039525D01*
X13799461Y71039525D02*
X13704223Y70991906D01*
X13704223Y70991906D02*
X13513747Y70944287D01*
X13513747Y70944287D02*
X13370890Y70944287D01*
X13370890Y70944287D02*
X13180414Y70991906D01*
X13180414Y70991906D02*
X13085176Y71039525D01*
X13085176Y71039525D02*
X12989938Y71134763D01*
X12989938Y71134763D02*
X12942319Y71277620D01*
X12942319Y71277620D02*
X12942319Y71372858D01*
X12942319Y71372858D02*
X12989938Y71515715D01*
X12989938Y71515715D02*
X13037557Y71563334D01*
X13942319Y72515715D02*
X13942319Y71944287D01*
X13942319Y72230001D02*
X12942319Y72230001D01*
X12942319Y72230001D02*
X13085176Y72134763D01*
X13085176Y72134763D02*
X13180414Y72039525D01*
X13180414Y72039525D02*
X13228033Y71944287D01*
X11942319Y73563334D02*
X11466128Y73230001D01*
X11942319Y72991906D02*
X10942319Y72991906D01*
X10942319Y72991906D02*
X10942319Y73372858D01*
X10942319Y73372858D02*
X10989938Y73468096D01*
X10989938Y73468096D02*
X11037557Y73515715D01*
X11037557Y73515715D02*
X11132795Y73563334D01*
X11132795Y73563334D02*
X11275652Y73563334D01*
X11275652Y73563334D02*
X11370890Y73515715D01*
X11370890Y73515715D02*
X11418509Y73468096D01*
X11418509Y73468096D02*
X11466128Y73372858D01*
X11466128Y73372858D02*
X11466128Y72991906D01*
X10942319Y73896668D02*
X10942319Y74515715D01*
X10942319Y74515715D02*
X11323271Y74182382D01*
X11323271Y74182382D02*
X11323271Y74325239D01*
X11323271Y74325239D02*
X11370890Y74420477D01*
X11370890Y74420477D02*
X11418509Y74468096D01*
X11418509Y74468096D02*
X11513747Y74515715D01*
X11513747Y74515715D02*
X11751842Y74515715D01*
X11751842Y74515715D02*
X11847080Y74468096D01*
X11847080Y74468096D02*
X11894700Y74420477D01*
X11894700Y74420477D02*
X11942319Y74325239D01*
X11942319Y74325239D02*
X11942319Y74039525D01*
X11942319Y74039525D02*
X11894700Y73944287D01*
X11894700Y73944287D02*
X11847080Y73896668D01*
X8884819Y64833334D02*
X8408628Y64500001D01*
X8884819Y64261906D02*
X7884819Y64261906D01*
X7884819Y64261906D02*
X7884819Y64642858D01*
X7884819Y64642858D02*
X7932438Y64738096D01*
X7932438Y64738096D02*
X7980057Y64785715D01*
X7980057Y64785715D02*
X8075295Y64833334D01*
X8075295Y64833334D02*
X8218152Y64833334D01*
X8218152Y64833334D02*
X8313390Y64785715D01*
X8313390Y64785715D02*
X8361009Y64738096D01*
X8361009Y64738096D02*
X8408628Y64642858D01*
X8408628Y64642858D02*
X8408628Y64261906D01*
X8218152Y65690477D02*
X8884819Y65690477D01*
X7837200Y65452382D02*
X8551485Y65214287D01*
X8551485Y65214287D02*
X8551485Y65833334D01*
D14*
G04 #@! TO.C,SW1*
X55050000Y12100000D02*
X55050000Y18300000D01*
X56000000Y12100000D02*
X55050000Y12100000D01*
X58200000Y12100000D02*
X59150000Y12100000D01*
X59150000Y12100000D02*
X59150000Y18300000D01*
X55050000Y18300000D02*
X56000000Y18300000D01*
X59150000Y18300000D02*
X58200000Y18300000D01*
X56000000Y12600000D02*
G75*
G03*
X56000000Y12600000I-100000J0D01*
G01*
D15*
G04 #@! TO.C,R10*
X54477500Y21537258D02*
X54477500Y21062742D01*
X55522500Y21537258D02*
X55522500Y21062742D01*
G04 #@! TO.C,R9*
X52877500Y19937258D02*
X52877500Y19462742D01*
X53922500Y19937258D02*
X53922500Y19462742D01*
G04 #@! TO.C,C2*
X57210000Y21159420D02*
X57210000Y21440580D01*
X56190000Y21159420D02*
X56190000Y21440580D01*
G04 #@! TO.C,R2*
X28395000Y73492742D02*
X28395000Y73967258D01*
X29440000Y73492742D02*
X29440000Y73967258D01*
G04 #@! TO.C,U1*
X23725000Y72275000D02*
X23725000Y72535000D01*
X23725000Y72535000D02*
X25400000Y72535000D01*
X23725000Y77725000D02*
X23725000Y77465000D01*
X21000000Y72275000D02*
X23725000Y72275000D01*
X21000000Y72275000D02*
X18275000Y72275000D01*
X21000000Y77725000D02*
X23725000Y77725000D01*
X21000000Y77725000D02*
X18275000Y77725000D01*
X18275000Y72275000D02*
X18275000Y72535000D01*
X18275000Y77725000D02*
X18275000Y77465000D01*
G04 #@! TO.C,D1*
X53285000Y36340000D02*
X54755000Y36340000D01*
X54755000Y36340000D02*
X54755000Y38800000D01*
X53285000Y38800000D02*
X53285000Y36340000D01*
G04 #@! TO.C,R8*
X58477500Y33762742D02*
X58477500Y34237258D01*
X59522500Y33762742D02*
X59522500Y34237258D01*
G04 #@! TO.C,R6*
X53457500Y33762742D02*
X53457500Y34237258D01*
X54502500Y33762742D02*
X54502500Y34237258D01*
G04 #@! TO.C,R1*
X26395000Y71492742D02*
X26395000Y71967258D01*
X27440000Y71492742D02*
X27440000Y71967258D01*
G04 #@! TO.C,R5*
X62522500Y14412258D02*
X62522500Y13937742D01*
X61477500Y14412258D02*
X61477500Y13937742D01*
G04 #@! TO.C,U2*
X9500000Y45500000D02*
X9800000Y45500000D01*
X9500000Y45500000D02*
X9500000Y66500000D01*
X11900000Y45500000D02*
X12300000Y45500000D01*
X12167000Y45500000D02*
X12167000Y48507000D01*
X14500000Y45500000D02*
X14900000Y45500000D01*
X17000000Y45500000D02*
X17400000Y45500000D01*
X19600000Y45500000D02*
X20000000Y45500000D01*
X22100000Y45500000D02*
X22500000Y45500000D01*
X24600000Y45500000D02*
X25000000Y45500000D01*
X27200000Y45500000D02*
X27600000Y45500000D01*
X29700000Y45500000D02*
X30100000Y45500000D01*
X32300000Y45500000D02*
X32700000Y45500000D01*
X34800000Y45500000D02*
X35200000Y45500000D01*
X37300000Y45500000D02*
X37700000Y45500000D01*
X39900000Y45500000D02*
X40300000Y45500000D01*
X42400000Y45500000D02*
X42800000Y45500000D01*
X45000000Y45500000D02*
X45400000Y45500000D01*
X47500000Y45500000D02*
X47900000Y45500000D01*
X50100000Y45500000D02*
X50500000Y45500000D01*
X52600000Y45500000D02*
X53000000Y45500000D01*
X55100000Y45500000D02*
X55500000Y45500000D01*
X57700000Y45500000D02*
X58100000Y45500000D01*
X12167000Y48507000D02*
X9500000Y48507000D01*
X60500000Y52300000D02*
X60500000Y45500000D01*
X60500000Y54500000D02*
X60500000Y54900000D01*
X60500000Y57100000D02*
X60500000Y57500000D01*
X9500000Y66500000D02*
X9800000Y66500000D01*
X11900000Y66500000D02*
X12300000Y66500000D01*
X14500000Y66500000D02*
X14900000Y66500000D01*
X17000000Y66500000D02*
X17400000Y66500000D01*
X19600000Y66500000D02*
X20000000Y66500000D01*
X22100000Y66500000D02*
X22500000Y66500000D01*
X24600000Y66500000D02*
X25000000Y66500000D01*
X27200000Y66500000D02*
X27600000Y66500000D01*
X29700000Y66500000D02*
X30100000Y66500000D01*
X32300000Y66500000D02*
X32700000Y66500000D01*
X34800000Y66500000D02*
X35200000Y66500000D01*
X37300000Y66500000D02*
X37700000Y66500000D01*
X39900000Y66500000D02*
X40300000Y66500000D01*
X42400000Y66500000D02*
X42800000Y66500000D01*
X45000000Y66500000D02*
X45400000Y66500000D01*
X47500000Y66500000D02*
X47900000Y66500000D01*
X50100000Y66500000D02*
X50500000Y66500000D01*
X52600000Y66500000D02*
X53000000Y66500000D01*
X55100000Y66500000D02*
X55500000Y66500000D01*
X57700000Y66500000D02*
X58100000Y66500000D01*
X60500000Y66500000D02*
X60500000Y59700000D01*
G04 #@! TO.C,R7*
X55967500Y33762742D02*
X55967500Y34237258D01*
X57012500Y33762742D02*
X57012500Y34237258D01*
G04 #@! TO.C,C1*
X14407500Y71589420D02*
X14407500Y71870580D01*
X15427500Y71589420D02*
X15427500Y71870580D01*
G04 #@! TO.C,R3*
X12395000Y73492742D02*
X12395000Y73967258D01*
X13440000Y73492742D02*
X13440000Y73967258D01*
G04 #@! TO.C,J2*
X64420000Y70590000D02*
X65750000Y70590000D01*
X64420000Y69260000D02*
X64420000Y70590000D01*
X64420000Y67990000D02*
X64420000Y9510000D01*
X64420000Y67990000D02*
X67080000Y67990000D01*
X64420000Y9510000D02*
X67080000Y9510000D01*
X67080000Y67990000D02*
X67080000Y9510000D01*
G04 #@! TO.C,D2*
X55875000Y36340000D02*
X57345000Y36340000D01*
X57345000Y36340000D02*
X57345000Y38800000D01*
X55875000Y38800000D02*
X55875000Y36340000D01*
G04 #@! TO.C,D3*
X58465000Y36340000D02*
X59935000Y36340000D01*
X59935000Y36340000D02*
X59935000Y38800000D01*
X58465000Y38800000D02*
X58465000Y36340000D01*
G04 #@! TO.C,R4*
X7522500Y65237258D02*
X7522500Y64762742D01*
X6477500Y65237258D02*
X6477500Y64762742D01*
G04 #@! TD*
M02*
