G04 #@! TF.GenerationSoftware,KiCad,Pcbnew,7.0.9-7.0.9~ubuntu22.04.1*
G04 #@! TF.CreationDate,2023-12-12T21:19:08-05:00*
G04 #@! TF.ProjectId,tt03-tester,74743033-2d74-4657-9374-65722e6b6963,rev?*
G04 #@! TF.SameCoordinates,PX41cdb40PY623a7c0*
G04 #@! TF.FileFunction,Paste,Top*
G04 #@! TF.FilePolarity,Positive*
%FSLAX46Y46*%
G04 Gerber Fmt 4.6, Leading zero omitted, Abs format (unit mm)*
G04 Created by KiCad (PCBNEW 7.0.9-7.0.9~ubuntu22.04.1) date 2023-12-12 21:19:08*
%MOMM*%
%LPD*%
G01*
G04 APERTURE LIST*
G04 Aperture macros list*
%AMRoundRect*
0 Rectangle with rounded corners*
0 $1 Rounding radius*
0 $2 $3 $4 $5 $6 $7 $8 $9 X,Y pos of 4 corners*
0 Add a 4 corners polygon primitive as box body*
4,1,4,$2,$3,$4,$5,$6,$7,$8,$9,$2,$3,0*
0 Add four circle primitives for the rounded corners*
1,1,$1+$1,$2,$3*
1,1,$1+$1,$4,$5*
1,1,$1+$1,$6,$7*
1,1,$1+$1,$8,$9*
0 Add four rect primitives between the rounded corners*
20,1,$1+$1,$2,$3,$4,$5,0*
20,1,$1+$1,$4,$5,$6,$7,0*
20,1,$1+$1,$6,$7,$8,$9,0*
20,1,$1+$1,$8,$9,$2,$3,0*%
G04 Aperture macros list end*
%ADD10R,1.400000X1.500000*%
%ADD11RoundRect,0.200000X-0.275000X0.200000X-0.275000X-0.200000X0.275000X-0.200000X0.275000X0.200000X0*%
%ADD12RoundRect,0.225000X0.250000X-0.225000X0.250000X0.225000X-0.250000X0.225000X-0.250000X-0.225000X0*%
%ADD13RoundRect,0.200000X0.275000X-0.200000X0.275000X0.200000X-0.275000X0.200000X-0.275000X-0.200000X0*%
%ADD14RoundRect,0.150000X0.650000X0.150000X-0.650000X0.150000X-0.650000X-0.150000X0.650000X-0.150000X0*%
%ADD15RoundRect,0.237500X0.237500X-0.287500X0.237500X0.287500X-0.237500X0.287500X-0.237500X-0.287500X0*%
G04 APERTURE END LIST*
D10*
G04 #@! TO.C,SW1*
X57100000Y11950000D03*
X57100000Y18450000D03*
G04 #@! TD*
D11*
G04 #@! TO.C,R10*
X55000000Y22125000D03*
X55000000Y20475000D03*
G04 #@! TD*
G04 #@! TO.C,R9*
X53400000Y20525000D03*
X53400000Y18875000D03*
G04 #@! TD*
D12*
G04 #@! TO.C,C2*
X56700000Y20525000D03*
X56700000Y22075000D03*
G04 #@! TD*
D13*
G04 #@! TO.C,R2*
X28917500Y72905000D03*
X28917500Y74555000D03*
G04 #@! TD*
D14*
G04 #@! TO.C,U1*
X24600000Y73095000D03*
X24600000Y74365000D03*
X24600000Y75635000D03*
X24600000Y76905000D03*
X17400000Y76905000D03*
X17400000Y75635000D03*
X17400000Y74365000D03*
X17400000Y73095000D03*
G04 #@! TD*
D15*
G04 #@! TO.C,D1*
X54020000Y37125000D03*
X54020000Y38875000D03*
G04 #@! TD*
D13*
G04 #@! TO.C,R8*
X59000000Y33175000D03*
X59000000Y34825000D03*
G04 #@! TD*
G04 #@! TO.C,R6*
X53980000Y33175000D03*
X53980000Y34825000D03*
G04 #@! TD*
G04 #@! TO.C,R1*
X26917500Y70905000D03*
X26917500Y72555000D03*
G04 #@! TD*
D11*
G04 #@! TO.C,R5*
X62000000Y15000000D03*
X62000000Y13350000D03*
G04 #@! TD*
D13*
G04 #@! TO.C,R7*
X56490000Y33175000D03*
X56490000Y34825000D03*
G04 #@! TD*
D12*
G04 #@! TO.C,C1*
X14917500Y70955000D03*
X14917500Y72505000D03*
G04 #@! TD*
D13*
G04 #@! TO.C,R3*
X12917500Y72905000D03*
X12917500Y74555000D03*
G04 #@! TD*
D15*
G04 #@! TO.C,D2*
X56610000Y37125000D03*
X56610000Y38875000D03*
G04 #@! TD*
G04 #@! TO.C,D3*
X59200000Y37125000D03*
X59200000Y38875000D03*
G04 #@! TD*
D11*
G04 #@! TO.C,R4*
X7000000Y65825000D03*
X7000000Y64175000D03*
G04 #@! TD*
M02*
