M48
; DRILL file {KiCad 7.0.9-7.0.9~ubuntu22.04.1} date Tue 12 Dec 2023 09:19:18 PM
; FORMAT={-:-/ absolute / metric / decimal}
; #@! TF.CreationDate,2023-12-12T21:19:18-05:00
; #@! TF.GenerationSoftware,Kicad,Pcbnew,7.0.9-7.0.9~ubuntu22.04.1
; #@! TF.FileFunction,Plated,1,2,PTH
FMAT,2
METRIC
; #@! TA.AperFunction,Plated,PTH,ViaDrill
T1C0.400
; #@! TA.AperFunction,Plated,PTH,ComponentDrill
T2C0.400
; #@! TA.AperFunction,Plated,PTH,ComponentDrill
T3C1.000
; #@! TA.AperFunction,Plated,PTH,ComponentDrill
T4C1.020
; #@! TA.AperFunction,Plated,PTH,ComponentDrill
T5C3.200
%
G90
G05
T1
X4.0Y76.0
X4.0Y50.0
X15.0Y55.0
X16.0Y76.0
X16.0Y72.0
X18.0Y50.0
X21.0Y72.0
X21.0Y62.0
X21.0Y57.0
X24.0Y60.0
X26.0Y71.0
X26.0Y69.0
X29.0Y71.0
X31.0Y70.0
X31.3Y41.0
X33.9Y41.175
X34.0Y71.0
X36.1Y43.0
X39.0Y71.7
X39.0Y43.0
X44.0Y53.0
X47.0Y51.0
X49.0Y50.0
X53.0Y53.0
X55.0Y51.0
X56.4Y31.8
X57.6Y20.6
X59.0Y50.0
X59.0Y32.0
X60.9Y20.7
X62.0Y62.0
X62.3Y68.9
X63.0Y70.0
X63.052Y71.052
X63.1Y72.1
T2
X1.7Y77.5
X1.7Y72.5
X1.7Y67.5
X1.7Y62.5
X1.7Y57.5
X1.7Y52.5
X1.7Y47.5
X1.7Y42.5
X5.6Y39.9
X6.7Y77.5
X10.6Y39.9
X11.7Y77.5
X15.6Y39.9
X15.9Y62.8
X16.0Y56.3
X16.7Y51.7
X20.6Y39.9
X21.5Y59.8
X21.7Y77.5
X25.6Y39.9
X26.0Y58.5
X26.0Y56.0
X26.0Y53.1
X26.0Y50.1
X26.7Y77.5
X30.3Y39.8
X31.7Y77.5
X32.5Y42.4
X41.7Y61.0
X41.7Y58.6
X41.7Y56.0
X41.7Y53.2
X45.1Y58.6
X45.1Y56.0
X45.2Y50.6
X47.7Y58.6
X47.7Y56.0
X50.6Y61.0
X52.2Y37.7
X52.2Y32.7
X52.2Y27.7
X52.2Y22.7
X52.2Y17.7
X52.2Y12.7
X52.2Y7.7
X52.2Y2.7
X53.4Y58.6
X53.4Y56.0
X56.4Y53.0
X57.1Y82.0
X59.1Y22.6
X60.1Y15.3
X61.2Y73.3
X61.4Y64.1
X61.9Y44.1
X66.9Y82.0
X66.9Y72.8
T3
X65.75Y69.26
X65.75Y66.72
X65.75Y64.18
X65.75Y61.64
X65.75Y59.1
X65.75Y56.56
X65.75Y54.02
X65.75Y51.48
X65.75Y48.94
X65.75Y46.4
X65.75Y43.86
X65.75Y41.32
X65.75Y38.78
X65.75Y36.24
X65.75Y33.7
X65.75Y31.16
X65.75Y28.62
X65.75Y26.08
X65.75Y23.54
X65.75Y21.0
X65.75Y18.46
X65.75Y15.92
X65.75Y13.38
X65.75Y10.84
T4
X10.87Y64.89
X10.87Y47.11
X13.41Y64.89
X13.41Y47.11
X15.95Y64.89
X15.95Y47.11
X18.49Y64.89
X18.49Y47.11
X21.03Y64.89
X21.03Y47.11
X23.57Y64.89
X23.57Y47.11
X26.11Y64.89
X26.11Y47.11
X28.65Y64.89
X28.65Y47.11
X31.19Y64.89
X31.19Y47.11
X33.73Y64.89
X33.73Y47.11
X36.27Y64.89
X36.27Y47.11
X38.81Y64.89
X38.81Y47.11
X41.35Y64.89
X41.35Y47.11
X43.89Y64.89
X43.89Y47.11
X46.43Y64.89
X46.43Y47.11
X48.97Y64.89
X48.97Y47.11
X51.51Y64.89
X51.51Y47.11
X54.05Y64.89
X54.05Y47.11
X56.59Y64.89
X56.59Y47.11
X58.9Y58.54
X58.9Y56.0
X58.9Y53.46
X59.13Y64.89
X59.13Y47.11
T5
X62.75Y78.25
X62.75Y4.75
T0
M30
