G04 #@! TF.GenerationSoftware,KiCad,Pcbnew,7.0.9-7.0.9~ubuntu22.04.1*
G04 #@! TF.CreationDate,2023-12-12T21:19:08-05:00*
G04 #@! TF.ProjectId,tt03-tester,74743033-2d74-4657-9374-65722e6b6963,rev?*
G04 #@! TF.SameCoordinates,PX41cdb40PY623a7c0*
G04 #@! TF.FileFunction,Copper,L2,Bot*
G04 #@! TF.FilePolarity,Positive*
%FSLAX46Y46*%
G04 Gerber Fmt 4.6, Leading zero omitted, Abs format (unit mm)*
G04 Created by KiCad (PCBNEW 7.0.9-7.0.9~ubuntu22.04.1) date 2023-12-12 21:19:08*
%MOMM*%
%LPD*%
G01*
G04 APERTURE LIST*
G04 #@! TA.AperFunction,ComponentPad*
%ADD10C,0.820000*%
G04 #@! TD*
G04 #@! TA.AperFunction,ComponentPad*
%ADD11O,1.700000X1.700000*%
G04 #@! TD*
G04 #@! TA.AperFunction,ComponentPad*
%ADD12R,1.700000X1.700000*%
G04 #@! TD*
G04 #@! TA.AperFunction,ComponentPad*
%ADD13C,6.400000*%
G04 #@! TD*
G04 #@! TA.AperFunction,ViaPad*
%ADD14C,0.800000*%
G04 #@! TD*
G04 #@! TA.AperFunction,Conductor*
%ADD15C,0.250000*%
G04 #@! TD*
G04 APERTURE END LIST*
D10*
G04 #@! TO.P,STITCH27,1*
G04 #@! TO.N,GND*
X60100000Y15300000D03*
G04 #@! TD*
G04 #@! TO.P,STITCH27,1*
G04 #@! TO.N,GND*
X59100000Y22600000D03*
G04 #@! TD*
G04 #@! TO.P,STITCH18,1*
G04 #@! TO.N,GND*
X6700000Y77500000D03*
G04 #@! TD*
G04 #@! TO.P,STITCH13,1*
G04 #@! TO.N,GND*
X1700000Y62500000D03*
G04 #@! TD*
G04 #@! TO.P,STITCH27,1*
G04 #@! TO.N,GND*
X52200000Y22700000D03*
G04 #@! TD*
G04 #@! TO.P,STITCH12,1*
G04 #@! TO.N,GND*
X1700000Y67500000D03*
G04 #@! TD*
G04 #@! TO.P,STITCH35,1*
G04 #@! TO.N,GND*
X16000000Y56300000D03*
G04 #@! TD*
G04 #@! TO.P,STITCH17,1*
G04 #@! TO.N,GND*
X1700000Y42500000D03*
G04 #@! TD*
G04 #@! TO.P,STITCH25,1*
G04 #@! TO.N,GND*
X52200000Y32700000D03*
G04 #@! TD*
G04 #@! TO.P,STITCH35,1*
G04 #@! TO.N,GND*
X41700000Y56000000D03*
G04 #@! TD*
G04 #@! TO.P,STITCH35,1*
G04 #@! TO.N,GND*
X32500000Y42400000D03*
G04 #@! TD*
G04 #@! TO.P,STITCH20,1*
G04 #@! TO.N,GND*
X52200000Y37700000D03*
G04 #@! TD*
G04 #@! TO.P,STITCH35,1*
G04 #@! TO.N,GND*
X26000000Y58500000D03*
G04 #@! TD*
G04 #@! TO.P,STITCH35,1*
G04 #@! TO.N,GND*
X47700000Y58600000D03*
G04 #@! TD*
G04 #@! TO.P,STITCH10,1*
G04 #@! TO.N,GND*
X1700000Y77500000D03*
G04 #@! TD*
G04 #@! TO.P,STITCH35,1*
G04 #@! TO.N,GND*
X21500000Y59800000D03*
G04 #@! TD*
G04 #@! TO.P,STITCH35,1*
G04 #@! TO.N,GND*
X61900000Y44100000D03*
G04 #@! TD*
G04 #@! TO.P,STITCH35,1*
G04 #@! TO.N,GND*
X53400000Y58600000D03*
G04 #@! TD*
G04 #@! TO.P,STITCH28,1*
G04 #@! TO.N,GND*
X52200000Y17700000D03*
G04 #@! TD*
G04 #@! TO.P,STITCH35,1*
G04 #@! TO.N,GND*
X41700000Y53200000D03*
G04 #@! TD*
G04 #@! TO.P,STITCH35,1*
G04 #@! TO.N,GND*
X41700000Y61000000D03*
G04 #@! TD*
D11*
G04 #@! TO.P,U2,1,GPIO0*
G04 #@! TO.N,unconnected-(U2-GPIO0-Pad1)*
X10870000Y47110000D03*
G04 #@! TO.P,U2,2,GPIO1*
G04 #@! TO.N,mprj_io3_CSB*
X13410000Y47110000D03*
D12*
G04 #@! TO.P,U2,3,GND*
G04 #@! TO.N,GND*
X15950000Y47110000D03*
D11*
G04 #@! TO.P,U2,4,GPIO2*
G04 #@! TO.N,mprj_io4_SCK*
X18490000Y47110000D03*
G04 #@! TO.P,U2,5,GPIO3*
G04 #@! TO.N,mprj_io2_SDI*
X21030000Y47110000D03*
G04 #@! TO.P,U2,6,GPIO4*
G04 #@! TO.N,mprj_io1_SDO*
X23570000Y47110000D03*
G04 #@! TO.P,U2,7,GPIO5*
G04 #@! TO.N,/~{TST_CS}*
X26110000Y47110000D03*
D12*
G04 #@! TO.P,U2,8,GND*
G04 #@! TO.N,GND*
X28650000Y47110000D03*
D11*
G04 #@! TO.P,U2,9,GPIO6*
G04 #@! TO.N,out3*
X31190000Y47110000D03*
G04 #@! TO.P,U2,10,GPIO7*
G04 #@! TO.N,out2*
X33730000Y47110000D03*
G04 #@! TO.P,U2,11,GPIO8*
G04 #@! TO.N,out1*
X36270000Y47110000D03*
G04 #@! TO.P,U2,12,GPIO9*
G04 #@! TO.N,out0*
X38810000Y47110000D03*
D12*
G04 #@! TO.P,U2,13,GND*
G04 #@! TO.N,GND*
X41350000Y47110000D03*
D11*
G04 #@! TO.P,U2,14,GPIO10*
G04 #@! TO.N,unconnected-(U2-GPIO10-Pad14)*
X43890000Y47110000D03*
G04 #@! TO.P,U2,15,GPIO11*
G04 #@! TO.N,unconnected-(U2-GPIO11-Pad15)*
X46430000Y47110000D03*
G04 #@! TO.P,U2,16,GPIO12*
G04 #@! TO.N,unconnected-(U2-GPIO12-Pad16)*
X48970000Y47110000D03*
G04 #@! TO.P,U2,17,GPIO13*
G04 #@! TO.N,unconnected-(U2-GPIO13-Pad17)*
X51510000Y47110000D03*
D12*
G04 #@! TO.P,U2,18,GND*
G04 #@! TO.N,GND*
X54050000Y47110000D03*
D11*
G04 #@! TO.P,U2,19,GPIO14*
G04 #@! TO.N,in0*
X56590000Y47110000D03*
G04 #@! TO.P,U2,20,GPIO15*
G04 #@! TO.N,in1*
X59130000Y47110000D03*
G04 #@! TO.P,U2,21,GPIO16*
G04 #@! TO.N,in2*
X59130000Y64890000D03*
G04 #@! TO.P,U2,22,GPIO17*
G04 #@! TO.N,in3*
X56590000Y64890000D03*
D12*
G04 #@! TO.P,U2,23,GND*
G04 #@! TO.N,GND*
X54050000Y64890000D03*
D11*
G04 #@! TO.P,U2,24,GPIO18*
G04 #@! TO.N,in4*
X51510000Y64890000D03*
G04 #@! TO.P,U2,25,GPIO19*
G04 #@! TO.N,in5*
X48970000Y64890000D03*
G04 #@! TO.P,U2,26,GPIO20*
G04 #@! TO.N,in6*
X46430000Y64890000D03*
G04 #@! TO.P,U2,27,GPIO21*
G04 #@! TO.N,in7*
X43890000Y64890000D03*
D12*
G04 #@! TO.P,U2,28,GND*
G04 #@! TO.N,GND*
X41350000Y64890000D03*
D11*
G04 #@! TO.P,U2,29,GPIO22*
G04 #@! TO.N,out4*
X38810000Y64890000D03*
G04 #@! TO.P,U2,30,RUN*
G04 #@! TO.N,unconnected-(U2-RUN-Pad30)*
X36270000Y64890000D03*
G04 #@! TO.P,U2,31,GPIO26_ADC0*
G04 #@! TO.N,out5*
X33730000Y64890000D03*
G04 #@! TO.P,U2,32,GPIO27_ADC1*
G04 #@! TO.N,out6*
X31190000Y64890000D03*
D12*
G04 #@! TO.P,U2,33,AGND*
G04 #@! TO.N,GND*
X28650000Y64890000D03*
D11*
G04 #@! TO.P,U2,34,GPIO28_ADC2*
G04 #@! TO.N,out7*
X26110000Y64890000D03*
G04 #@! TO.P,U2,35,ADC_VREF*
G04 #@! TO.N,unconnected-(U2-ADC_VREF-Pad35)*
X23570000Y64890000D03*
G04 #@! TO.P,U2,36,3V3*
G04 #@! TO.N,VCC*
X21030000Y64890000D03*
G04 #@! TO.P,U2,37,3V3_EN*
G04 #@! TO.N,unconnected-(U2-3V3_EN-Pad37)*
X18490000Y64890000D03*
D12*
G04 #@! TO.P,U2,38,GND*
G04 #@! TO.N,GND*
X15950000Y64890000D03*
D11*
G04 #@! TO.P,U2,39,VSYS*
G04 #@! TO.N,unconnected-(U2-VSYS-Pad39)*
X13410000Y64890000D03*
G04 #@! TO.P,U2,40,VBUS*
G04 #@! TO.N,VBUS*
X10870000Y64890000D03*
G04 #@! TO.P,U2,41,SWCLK*
G04 #@! TO.N,unconnected-(U2-SWCLK-Pad41)*
X58900000Y53460000D03*
D12*
G04 #@! TO.P,U2,42,GND*
G04 #@! TO.N,GND*
X58900000Y56000000D03*
D11*
G04 #@! TO.P,U2,43,SWDIO*
G04 #@! TO.N,unconnected-(U2-SWDIO-Pad43)*
X58900000Y58540000D03*
G04 #@! TD*
D10*
G04 #@! TO.P,STITCH35,1*
G04 #@! TO.N,GND*
X45200000Y50600000D03*
G04 #@! TD*
G04 #@! TO.P,STITCH35,1*
G04 #@! TO.N,GND*
X45100000Y56000000D03*
G04 #@! TD*
G04 #@! TO.P,STITCH15,1*
G04 #@! TO.N,GND*
X1700000Y52500000D03*
G04 #@! TD*
G04 #@! TO.P,STITCH26,1*
G04 #@! TO.N,GND*
X52200000Y27700000D03*
G04 #@! TD*
G04 #@! TO.P,STITCH35,1*
G04 #@! TO.N,GND*
X15900000Y62800000D03*
G04 #@! TD*
G04 #@! TO.P,STITCH21,1*
G04 #@! TO.N,GND*
X21700000Y77500000D03*
G04 #@! TD*
G04 #@! TO.P,STITCH35,1*
G04 #@! TO.N,GND*
X53400000Y56000000D03*
G04 #@! TD*
G04 #@! TO.P,STITCH30,1*
G04 #@! TO.N,GND*
X52200000Y7700000D03*
G04 #@! TD*
D12*
G04 #@! TO.P,J2,1,Pin_1*
G04 #@! TO.N,GND*
X65750000Y69260000D03*
D11*
G04 #@! TO.P,J2,2,Pin_2*
G04 #@! TO.N,ext_clk*
X65750000Y66720000D03*
G04 #@! TO.P,J2,3,Pin_3*
G04 #@! TO.N,ready*
X65750000Y64180000D03*
G04 #@! TO.P,J2,4,Pin_4*
G04 #@! TO.N,mprj_io0*
X65750000Y61640000D03*
G04 #@! TO.P,J2,5,Pin_5*
G04 #@! TO.N,mprj_io1_SDO*
X65750000Y59100000D03*
G04 #@! TO.P,J2,6,Pin_6*
G04 #@! TO.N,mprj_io2_SDI*
X65750000Y56560000D03*
G04 #@! TO.P,J2,7,Pin_7*
G04 #@! TO.N,mprj_io3_CSB*
X65750000Y54020000D03*
G04 #@! TO.P,J2,8,Pin_8*
G04 #@! TO.N,mprj_io4_SCK*
X65750000Y51480000D03*
G04 #@! TO.P,J2,9,Pin_9*
G04 #@! TO.N,mprj_io5_ser_rx*
X65750000Y48940000D03*
G04 #@! TO.P,J2,10,Pin_10*
G04 #@! TO.N,mprj_io6_ser_tx*
X65750000Y46400000D03*
G04 #@! TO.P,J2,11,Pin_11*
G04 #@! TO.N,mprj_io7*
X65750000Y43860000D03*
G04 #@! TO.P,J2,12,Pin_12*
G04 #@! TO.N,GND*
X65750000Y41320000D03*
G04 #@! TO.P,J2,13,Pin_13*
G04 #@! TO.N,out0*
X65750000Y38780000D03*
G04 #@! TO.P,J2,14,Pin_14*
G04 #@! TO.N,out1*
X65750000Y36240000D03*
G04 #@! TO.P,J2,15,Pin_15*
G04 #@! TO.N,out2*
X65750000Y33700000D03*
G04 #@! TO.P,J2,16,Pin_16*
G04 #@! TO.N,out3*
X65750000Y31160000D03*
G04 #@! TO.P,J2,17,Pin_17*
G04 #@! TO.N,out4*
X65750000Y28620000D03*
G04 #@! TO.P,J2,18,Pin_18*
G04 #@! TO.N,out5*
X65750000Y26080000D03*
G04 #@! TO.P,J2,19,Pin_19*
G04 #@! TO.N,out6*
X65750000Y23540000D03*
G04 #@! TO.P,J2,20,Pin_20*
G04 #@! TO.N,out7*
X65750000Y21000000D03*
G04 #@! TO.P,J2,21,Pin_21*
G04 #@! TO.N,GND*
X65750000Y18460000D03*
G04 #@! TO.P,J2,22,Pin_22*
G04 #@! TO.N,+1V8*
X65750000Y15920000D03*
G04 #@! TO.P,J2,23,Pin_23*
G04 #@! TO.N,+3.3V*
X65750000Y13380000D03*
G04 #@! TO.P,J2,24,Pin_24*
G04 #@! TO.N,GND*
X65750000Y10840000D03*
G04 #@! TD*
D10*
G04 #@! TO.P,STITCH35,1*
G04 #@! TO.N,GND*
X57100000Y82000000D03*
G04 #@! TD*
G04 #@! TO.P,STITCH35,1*
G04 #@! TO.N,GND*
X26000000Y50100000D03*
G04 #@! TD*
G04 #@! TO.P,STITCH35,1*
G04 #@! TO.N,GND*
X47700000Y56000000D03*
G04 #@! TD*
G04 #@! TO.P,STITCH31,1*
G04 #@! TO.N,GND*
X52200000Y2700000D03*
G04 #@! TD*
G04 #@! TO.P,STITCH19,1*
G04 #@! TO.N,GND*
X11700000Y77500000D03*
G04 #@! TD*
G04 #@! TO.P,STITCH11,1*
G04 #@! TO.N,GND*
X1700000Y72500000D03*
G04 #@! TD*
G04 #@! TO.P,STITCH35,1*
G04 #@! TO.N,GND*
X30300000Y39800000D03*
G04 #@! TD*
G04 #@! TO.P,STITCH35,1*
G04 #@! TO.N,GND*
X56400000Y53000000D03*
G04 #@! TD*
G04 #@! TO.P,STITCH23,1*
G04 #@! TO.N,GND*
X31700000Y77500000D03*
G04 #@! TD*
G04 #@! TO.P,STITCH22,1*
G04 #@! TO.N,GND*
X26700000Y77500000D03*
G04 #@! TD*
G04 #@! TO.P,STITCH35,1*
G04 #@! TO.N,GND*
X50600000Y61000000D03*
G04 #@! TD*
G04 #@! TO.P,STITCH16,1*
G04 #@! TO.N,GND*
X1700000Y47500000D03*
G04 #@! TD*
G04 #@! TO.P,STITCH35,1*
G04 #@! TO.N,GND*
X25600000Y39900000D03*
G04 #@! TD*
G04 #@! TO.P,STITCH35,1*
G04 #@! TO.N,GND*
X61200000Y73300000D03*
G04 #@! TD*
G04 #@! TO.P,STITCH31,1*
G04 #@! TO.N,GND*
X5600000Y39900000D03*
G04 #@! TD*
D13*
G04 #@! TO.P,MT2,1,1*
G04 #@! TO.N,GND*
X62750000Y4750000D03*
G04 #@! TD*
D10*
G04 #@! TO.P,STITCH35,1*
G04 #@! TO.N,GND*
X26000000Y56000000D03*
G04 #@! TD*
G04 #@! TO.P,STITCH35,1*
G04 #@! TO.N,GND*
X26000000Y53100000D03*
G04 #@! TD*
G04 #@! TO.P,STITCH29,1*
G04 #@! TO.N,GND*
X52200000Y12700000D03*
G04 #@! TD*
D13*
G04 #@! TO.P,MT1,1,1*
G04 #@! TO.N,GND*
X62750000Y78250000D03*
G04 #@! TD*
D10*
G04 #@! TO.P,STITCH35,1*
G04 #@! TO.N,GND*
X66900000Y82000000D03*
G04 #@! TD*
G04 #@! TO.P,STITCH14,1*
G04 #@! TO.N,GND*
X1700000Y57500000D03*
G04 #@! TD*
G04 #@! TO.P,STITCH35,1*
G04 #@! TO.N,GND*
X41700000Y58600000D03*
G04 #@! TD*
G04 #@! TO.P,STITCH35,1*
G04 #@! TO.N,GND*
X45100000Y58600000D03*
G04 #@! TD*
G04 #@! TO.P,STITCH33,1*
G04 #@! TO.N,GND*
X15600000Y39900000D03*
G04 #@! TD*
G04 #@! TO.P,STITCH34,1*
G04 #@! TO.N,GND*
X20600000Y39900000D03*
G04 #@! TD*
G04 #@! TO.P,STITCH35,1*
G04 #@! TO.N,GND*
X61400000Y64100000D03*
G04 #@! TD*
G04 #@! TO.P,STITCH32,1*
G04 #@! TO.N,GND*
X10600000Y39900000D03*
G04 #@! TD*
G04 #@! TO.P,STITCH35,1*
G04 #@! TO.N,GND*
X16700000Y51700000D03*
G04 #@! TD*
G04 #@! TO.P,STITCH35,1*
G04 #@! TO.N,GND*
X66900000Y72800000D03*
G04 #@! TD*
D14*
G04 #@! TO.N,VCC*
X57600000Y20600000D03*
X60900000Y20700000D03*
G04 #@! TO.N,GND*
X56400000Y31800000D03*
X59000000Y32000000D03*
G04 #@! TO.N,in7*
X44000000Y53000000D03*
X53000000Y53000000D03*
G04 #@! TO.N,in6*
X55000000Y51000000D03*
X47000000Y51000000D03*
G04 #@! TO.N,in5*
X59000000Y50000000D03*
X49000000Y50000000D03*
G04 #@! TO.N,mprj_io1_SDO*
X24000000Y60000000D03*
G04 #@! TO.N,mprj_io2_SDI*
X21000000Y57000000D03*
G04 #@! TO.N,mprj_io3_CSB*
X15000000Y55000000D03*
G04 #@! TO.N,mprj_io4_SCK*
X18000000Y50000000D03*
X16000000Y76000000D03*
X4000000Y50000000D03*
X4000000Y76000000D03*
G04 #@! TO.N,out0*
X39000000Y43000000D03*
G04 #@! TO.N,out1*
X36100000Y42999994D03*
G04 #@! TO.N,out2*
X33899999Y41175000D03*
G04 #@! TO.N,out3*
X31300000Y41000000D03*
G04 #@! TO.N,out4*
X39000000Y71700000D03*
X63100000Y72100000D03*
G04 #@! TO.N,out5*
X34000000Y71000000D03*
X63051992Y71051992D03*
G04 #@! TO.N,out6*
X63000000Y70000000D03*
X31000000Y70000000D03*
G04 #@! TO.N,out7*
X62299998Y68899998D03*
X26000000Y69000000D03*
G04 #@! TO.N,VCC*
X29000000Y71000000D03*
X21000000Y62000000D03*
X62000000Y62000000D03*
X16000000Y72000000D03*
X26000000Y71000000D03*
X21000000Y72000000D03*
G04 #@! TD*
D15*
G04 #@! TO.N,out5*
X62925000Y70925000D02*
X63051992Y71051992D01*
G04 #@! TO.N,out4*
X39400000Y72100000D02*
X39000000Y71700000D01*
G04 #@! TO.N,out5*
X34000000Y71000000D02*
X34075000Y70925000D01*
G04 #@! TO.N,out4*
X63100000Y72100000D02*
X39400000Y72100000D01*
G04 #@! TO.N,out5*
X34075000Y70925000D02*
X62925000Y70925000D01*
G04 #@! TO.N,VCC*
X57600000Y20600000D02*
X60800000Y20600000D01*
X60800000Y20600000D02*
X60900000Y20700000D01*
G04 #@! TO.N,in7*
X44000000Y53000000D02*
X53000000Y53000000D01*
G04 #@! TO.N,in6*
X47000000Y51000000D02*
X55000000Y51000000D01*
G04 #@! TO.N,in5*
X49000000Y50000000D02*
X59000000Y50000000D01*
G04 #@! TO.N,mprj_io1_SDO*
X65750000Y59100000D02*
X64850000Y60000000D01*
X64850000Y60000000D02*
X24000000Y60000000D01*
G04 #@! TO.N,mprj_io2_SDI*
X21175000Y57175000D02*
X21000000Y57000000D01*
X65135000Y57175000D02*
X21175000Y57175000D01*
X65750000Y56560000D02*
X65135000Y57175000D01*
G04 #@! TO.N,mprj_io3_CSB*
X64945000Y54825000D02*
X15175000Y54825000D01*
X65750000Y54020000D02*
X64945000Y54825000D01*
X15175000Y54825000D02*
X15000000Y55000000D01*
G04 #@! TO.N,mprj_io4_SCK*
X18000000Y50000000D02*
X4000000Y50000000D01*
X65750000Y51480000D02*
X65455000Y51775000D01*
X65455000Y51775000D02*
X19775000Y51775000D01*
X19775000Y51775000D02*
X18000000Y50000000D01*
X4000000Y76000000D02*
X16000000Y76000000D01*
G04 #@! TO.N,out0*
X39200000Y42800000D02*
X39000000Y43000000D01*
X61730000Y42800000D02*
X39200000Y42800000D01*
X65750000Y38780000D02*
X61730000Y42800000D01*
G04 #@! TO.N,out1*
X65750000Y36240000D02*
X59990000Y42000000D01*
X37099994Y42000000D02*
X36100000Y42999994D01*
X59990000Y42000000D02*
X37099994Y42000000D01*
G04 #@! TO.N,out2*
X65750000Y33700000D02*
X58250000Y41200000D01*
X33924999Y41200000D02*
X33899999Y41175000D01*
X58250000Y41200000D02*
X33924999Y41200000D01*
G04 #@! TO.N,out3*
X56510000Y40400000D02*
X31900000Y40400000D01*
X31900000Y40400000D02*
X31300000Y41000000D01*
X65750000Y31160000D02*
X56510000Y40400000D01*
G04 #@! TO.N,out6*
X63000000Y70000000D02*
X31000000Y70000000D01*
G04 #@! TO.N,out7*
X62000000Y69000000D02*
X62199996Y69000000D01*
X26000000Y69000000D02*
X62000000Y69000000D01*
X62199996Y69000000D02*
X62299998Y68899998D01*
G04 #@! TO.N,VCC*
X21000000Y72000000D02*
X25000000Y72000000D01*
X21000000Y62000000D02*
X62000000Y62000000D01*
X26000000Y71000000D02*
X29000000Y71000000D01*
X21000000Y72000000D02*
X16000000Y72000000D01*
X25000000Y72000000D02*
X26000000Y71000000D01*
G04 #@! TD*
G04 #@! TA.AperFunction,Conductor*
G04 #@! TO.N,GND*
G36*
X64348674Y56529815D02*
G01*
X64394429Y56477011D01*
X64405163Y56436308D01*
X64414936Y56324597D01*
X64414938Y56324587D01*
X64476094Y56096345D01*
X64476096Y56096341D01*
X64476097Y56096337D01*
X64486827Y56073327D01*
X64575965Y55882170D01*
X64575967Y55882166D01*
X64711501Y55688605D01*
X64711506Y55688598D01*
X64737923Y55662181D01*
X64771408Y55600858D01*
X64766424Y55531166D01*
X64724552Y55475233D01*
X64659088Y55450816D01*
X64650242Y55450500D01*
X60374000Y55450500D01*
X60306961Y55470185D01*
X60261206Y55522989D01*
X60250000Y55574500D01*
X60250000Y55750000D01*
X59345572Y55750000D01*
X59368682Y55785960D01*
X59410000Y55926673D01*
X59410000Y56073327D01*
X59368682Y56214040D01*
X59345572Y56250000D01*
X60250000Y56250000D01*
X60250000Y56425500D01*
X60269685Y56492539D01*
X60322489Y56538294D01*
X60374000Y56549500D01*
X64281635Y56549500D01*
X64348674Y56529815D01*
G37*
G04 #@! TD.AperFunction*
G04 #@! TA.AperFunction,Conductor*
G36*
X67002695Y82999265D02*
G01*
X67045519Y82995518D01*
X67171771Y82983082D01*
X67191685Y82979459D01*
X67258349Y82961597D01*
X67351570Y82933318D01*
X67367971Y82927042D01*
X67435411Y82895594D01*
X67438375Y82894112D01*
X67475969Y82874018D01*
X67522327Y82849238D01*
X67528667Y82845343D01*
X67594828Y82799017D01*
X67598600Y82796156D01*
X67670808Y82736897D01*
X67675309Y82732818D01*
X67732815Y82675312D01*
X67736895Y82670810D01*
X67796154Y82598602D01*
X67799015Y82594830D01*
X67845341Y82528669D01*
X67849236Y82522329D01*
X67894101Y82438395D01*
X67895614Y82435369D01*
X67927040Y82367973D01*
X67933319Y82351565D01*
X67961601Y82258331D01*
X67979454Y82191701D01*
X67983082Y82171762D01*
X67995523Y82045446D01*
X67999264Y82002698D01*
X67999500Y81997290D01*
X67999500Y1002711D01*
X67999264Y997303D01*
X67995523Y954555D01*
X67983082Y828240D01*
X67979454Y808301D01*
X67961601Y741670D01*
X67933318Y648437D01*
X67927040Y632029D01*
X67895614Y564633D01*
X67894101Y561607D01*
X67849236Y477673D01*
X67845341Y471333D01*
X67799015Y405172D01*
X67796154Y401400D01*
X67736895Y329192D01*
X67732806Y324680D01*
X67675320Y267194D01*
X67670808Y263105D01*
X67598600Y203846D01*
X67594828Y200985D01*
X67528667Y154659D01*
X67522327Y150764D01*
X67438393Y105899D01*
X67435367Y104386D01*
X67367971Y72960D01*
X67351563Y66682D01*
X67258330Y38399D01*
X67191699Y20546D01*
X67171760Y16918D01*
X67045445Y4477D01*
X67004789Y920D01*
X67002696Y736D01*
X66997290Y500D01*
X52002710Y500D01*
X51997303Y736D01*
X51995015Y937D01*
X51954554Y4477D01*
X51828238Y16918D01*
X51808299Y20546D01*
X51741669Y38399D01*
X51648435Y66681D01*
X51632027Y72960D01*
X51583433Y95619D01*
X51564618Y104393D01*
X51561605Y105899D01*
X51477671Y150764D01*
X51471331Y154659D01*
X51405170Y200985D01*
X51401398Y203846D01*
X51329190Y263105D01*
X51324688Y267185D01*
X51267182Y324691D01*
X51263103Y329192D01*
X51203844Y401400D01*
X51200983Y405172D01*
X51154657Y471333D01*
X51150762Y477673D01*
X51125982Y524031D01*
X51105888Y561625D01*
X51104406Y564589D01*
X51072958Y632029D01*
X51066682Y648430D01*
X51038398Y741670D01*
X51020541Y808315D01*
X51016918Y828229D01*
X51004482Y954481D01*
X51000735Y997305D01*
X51000500Y1002707D01*
X51000500Y4750000D01*
X59044922Y4750000D01*
X59065219Y4362713D01*
X59125886Y3979677D01*
X59125887Y3979670D01*
X59226262Y3605064D01*
X59365244Y3243006D01*
X59541310Y2897457D01*
X59752531Y2572207D01*
X59961095Y2314650D01*
X59961096Y2314650D01*
X61452266Y3805820D01*
X61615130Y3615130D01*
X61805819Y3452267D01*
X60314648Y1961097D01*
X60314649Y1961096D01*
X60572206Y1752532D01*
X60897456Y1541311D01*
X61243005Y1365245D01*
X61605063Y1226263D01*
X61979669Y1125888D01*
X61979676Y1125887D01*
X62362712Y1065220D01*
X62749999Y1044922D01*
X62750001Y1044922D01*
X63137287Y1065220D01*
X63520323Y1125887D01*
X63520330Y1125888D01*
X63894936Y1226263D01*
X64256994Y1365245D01*
X64602543Y1541311D01*
X64927783Y1752524D01*
X64927785Y1752525D01*
X65185349Y1961098D01*
X63694180Y3452267D01*
X63884870Y3615130D01*
X64047733Y3805820D01*
X65538902Y2314651D01*
X65747475Y2572215D01*
X65747476Y2572217D01*
X65958689Y2897457D01*
X66134755Y3243006D01*
X66273737Y3605064D01*
X66374112Y3979670D01*
X66374113Y3979677D01*
X66434780Y4362713D01*
X66455078Y4750000D01*
X66455078Y4750001D01*
X66434780Y5137288D01*
X66374113Y5520324D01*
X66374112Y5520331D01*
X66273737Y5894937D01*
X66134755Y6256995D01*
X65958689Y6602544D01*
X65747468Y6927794D01*
X65538904Y7185351D01*
X65538903Y7185352D01*
X64047732Y5694182D01*
X63884870Y5884870D01*
X63694180Y6047734D01*
X65185350Y7538904D01*
X65185350Y7538905D01*
X64927793Y7747469D01*
X64602543Y7958690D01*
X64256994Y8134756D01*
X63894936Y8273738D01*
X63520330Y8374113D01*
X63520323Y8374114D01*
X63137287Y8434781D01*
X62750001Y8455078D01*
X62749999Y8455078D01*
X62362712Y8434781D01*
X61979676Y8374114D01*
X61979669Y8374113D01*
X61605063Y8273738D01*
X61243005Y8134756D01*
X60897456Y7958690D01*
X60572206Y7747469D01*
X60314648Y7538905D01*
X60314648Y7538904D01*
X61805819Y6047734D01*
X61615130Y5884870D01*
X61452266Y5694182D01*
X59961096Y7185352D01*
X59961095Y7185352D01*
X59752531Y6927794D01*
X59541310Y6602544D01*
X59365244Y6256995D01*
X59226262Y5894937D01*
X59125887Y5520331D01*
X59125886Y5520324D01*
X59065219Y5137288D01*
X59044922Y4750001D01*
X59044922Y4750000D01*
X51000500Y4750000D01*
X51000500Y20600000D01*
X56694540Y20600000D01*
X56714326Y20411744D01*
X56714327Y20411741D01*
X56772818Y20231723D01*
X56772821Y20231716D01*
X56867467Y20067784D01*
X56963164Y19961502D01*
X56994129Y19927112D01*
X57147265Y19815852D01*
X57147270Y19815849D01*
X57320192Y19738858D01*
X57320197Y19738856D01*
X57505354Y19699500D01*
X57505355Y19699500D01*
X57694644Y19699500D01*
X57694646Y19699500D01*
X57879803Y19738856D01*
X58052730Y19815849D01*
X58205871Y19927112D01*
X58208788Y19930353D01*
X58211600Y19933474D01*
X58271087Y19970121D01*
X58303748Y19974500D01*
X60326253Y19974500D01*
X60393292Y19954815D01*
X60399138Y19950818D01*
X60447265Y19915852D01*
X60447270Y19915849D01*
X60620192Y19838858D01*
X60620197Y19838856D01*
X60805354Y19799500D01*
X60805355Y19799500D01*
X60994644Y19799500D01*
X60994646Y19799500D01*
X61179803Y19838856D01*
X61352730Y19915849D01*
X61505871Y20027112D01*
X61632533Y20167784D01*
X61727179Y20331716D01*
X61785674Y20511744D01*
X61805460Y20700000D01*
X61785674Y20888256D01*
X61727179Y21068284D01*
X61632533Y21232216D01*
X61505871Y21372888D01*
X61490369Y21384151D01*
X61352734Y21484149D01*
X61352729Y21484152D01*
X61179807Y21561143D01*
X61179802Y21561145D01*
X61034001Y21592135D01*
X60994646Y21600500D01*
X60805354Y21600500D01*
X60772897Y21593602D01*
X60620197Y21561145D01*
X60620192Y21561143D01*
X60447270Y21484152D01*
X60447265Y21484149D01*
X60294129Y21372889D01*
X60219047Y21289502D01*
X60204089Y21272888D01*
X60198362Y21266528D01*
X60138875Y21229879D01*
X60106212Y21225500D01*
X58303748Y21225500D01*
X58236709Y21245185D01*
X58211600Y21266526D01*
X58205873Y21272886D01*
X58205869Y21272890D01*
X58052734Y21384149D01*
X58052729Y21384152D01*
X57879807Y21461143D01*
X57879802Y21461145D01*
X57734001Y21492135D01*
X57694646Y21500500D01*
X57505354Y21500500D01*
X57472897Y21493602D01*
X57320197Y21461145D01*
X57320192Y21461143D01*
X57147270Y21384152D01*
X57147265Y21384149D01*
X56994129Y21272889D01*
X56867466Y21132215D01*
X56772821Y20968285D01*
X56772818Y20968278D01*
X56714327Y20788260D01*
X56714326Y20788256D01*
X56694540Y20600000D01*
X51000500Y20600000D01*
X51000500Y38087528D01*
X51000500Y38087532D01*
X50970101Y38259938D01*
X50910225Y38424445D01*
X50822692Y38576055D01*
X50822691Y38576057D01*
X50822690Y38576058D01*
X50710163Y38710164D01*
X50576057Y38822691D01*
X50424446Y38910225D01*
X50259937Y38970102D01*
X50087534Y39000500D01*
X50087532Y39000500D01*
X50000099Y39000500D01*
X1002710Y39000500D01*
X997303Y39000736D01*
X995015Y39000937D01*
X954554Y39004477D01*
X828238Y39016918D01*
X808299Y39020546D01*
X741669Y39038399D01*
X648435Y39066681D01*
X632027Y39072960D01*
X583433Y39095619D01*
X564618Y39104393D01*
X561605Y39105899D01*
X477671Y39150764D01*
X471331Y39154659D01*
X405170Y39200985D01*
X401398Y39203846D01*
X329190Y39263105D01*
X324688Y39267185D01*
X267182Y39324691D01*
X263103Y39329192D01*
X203844Y39401400D01*
X200983Y39405172D01*
X154657Y39471333D01*
X150762Y39477673D01*
X125982Y39524031D01*
X105888Y39561625D01*
X104406Y39564589D01*
X72958Y39632029D01*
X66682Y39648430D01*
X38403Y39741651D01*
X20541Y39808315D01*
X16918Y39828229D01*
X4482Y39954481D01*
X735Y39997305D01*
X500Y40002707D01*
X500Y47110000D01*
X9514341Y47110000D01*
X9534936Y46874597D01*
X9534938Y46874587D01*
X9596094Y46646345D01*
X9596096Y46646341D01*
X9596097Y46646337D01*
X9676004Y46474977D01*
X9695965Y46432170D01*
X9695967Y46432166D01*
X9804281Y46277479D01*
X9831505Y46238599D01*
X9998599Y46071505D01*
X10075135Y46017914D01*
X10192165Y45935968D01*
X10192167Y45935967D01*
X10192170Y45935965D01*
X10406337Y45836097D01*
X10634592Y45774937D01*
X10805319Y45760000D01*
X10869999Y45754341D01*
X10870000Y45754341D01*
X10870001Y45754341D01*
X10934681Y45760000D01*
X11105408Y45774937D01*
X11333663Y45836097D01*
X11547830Y45935965D01*
X11741401Y46071505D01*
X11908495Y46238599D01*
X12038425Y46424158D01*
X12093002Y46467783D01*
X12162500Y46474977D01*
X12224855Y46443454D01*
X12241575Y46424158D01*
X12371500Y46238605D01*
X12371505Y46238599D01*
X12538599Y46071505D01*
X12615135Y46017914D01*
X12732165Y45935968D01*
X12732167Y45935967D01*
X12732170Y45935965D01*
X12946337Y45836097D01*
X13174592Y45774937D01*
X13345319Y45760000D01*
X13409999Y45754341D01*
X13410000Y45754341D01*
X13410001Y45754341D01*
X13474681Y45760000D01*
X13645408Y45774937D01*
X13873663Y45836097D01*
X14087830Y45935965D01*
X14281401Y46071505D01*
X14403717Y46193822D01*
X14465036Y46227304D01*
X14534728Y46222320D01*
X14590662Y46180449D01*
X14607577Y46149472D01*
X14656646Y46017912D01*
X14656649Y46017907D01*
X14742809Y45902813D01*
X14742812Y45902810D01*
X14857906Y45816650D01*
X14857913Y45816646D01*
X14992620Y45766404D01*
X14992627Y45766402D01*
X15052155Y45760001D01*
X15052172Y45760000D01*
X15700000Y45760000D01*
X15700000Y46663506D01*
X15804839Y46615627D01*
X15913527Y46600000D01*
X15986473Y46600000D01*
X16095161Y46615627D01*
X16200000Y46663506D01*
X16200000Y45760000D01*
X16847828Y45760000D01*
X16847844Y45760001D01*
X16907372Y45766402D01*
X16907379Y45766404D01*
X17042086Y45816646D01*
X17042093Y45816650D01*
X17157187Y45902810D01*
X17157190Y45902813D01*
X17243350Y46017907D01*
X17243354Y46017914D01*
X17292422Y46149471D01*
X17334293Y46205405D01*
X17399757Y46229822D01*
X17468030Y46214970D01*
X17496285Y46193819D01*
X17618599Y46071505D01*
X17695135Y46017914D01*
X17812165Y45935968D01*
X17812167Y45935967D01*
X17812170Y45935965D01*
X18026337Y45836097D01*
X18254592Y45774937D01*
X18425319Y45760000D01*
X18489999Y45754341D01*
X18490000Y45754341D01*
X18490001Y45754341D01*
X18554681Y45760000D01*
X18725408Y45774937D01*
X18953663Y45836097D01*
X19167830Y45935965D01*
X19361401Y46071505D01*
X19528495Y46238599D01*
X19658425Y46424158D01*
X19713002Y46467783D01*
X19782500Y46474977D01*
X19844855Y46443454D01*
X19861575Y46424158D01*
X19991500Y46238605D01*
X19991505Y46238599D01*
X20158599Y46071505D01*
X20235135Y46017914D01*
X20352165Y45935968D01*
X20352167Y45935967D01*
X20352170Y45935965D01*
X20566337Y45836097D01*
X20794592Y45774937D01*
X20965319Y45760000D01*
X21029999Y45754341D01*
X21030000Y45754341D01*
X21030001Y45754341D01*
X21094681Y45760000D01*
X21265408Y45774937D01*
X21493663Y45836097D01*
X21707830Y45935965D01*
X21901401Y46071505D01*
X22068495Y46238599D01*
X22198425Y46424158D01*
X22253002Y46467783D01*
X22322500Y46474977D01*
X22384855Y46443454D01*
X22401575Y46424158D01*
X22531500Y46238605D01*
X22531505Y46238599D01*
X22698599Y46071505D01*
X22775135Y46017914D01*
X22892165Y45935968D01*
X22892167Y45935967D01*
X22892170Y45935965D01*
X23106337Y45836097D01*
X23334592Y45774937D01*
X23505319Y45760000D01*
X23569999Y45754341D01*
X23570000Y45754341D01*
X23570001Y45754341D01*
X23634681Y45760000D01*
X23805408Y45774937D01*
X24033663Y45836097D01*
X24247830Y45935965D01*
X24441401Y46071505D01*
X24608495Y46238599D01*
X24738425Y46424158D01*
X24793002Y46467783D01*
X24862500Y46474977D01*
X24924855Y46443454D01*
X24941575Y46424158D01*
X25071500Y46238605D01*
X25071505Y46238599D01*
X25238599Y46071505D01*
X25315135Y46017914D01*
X25432165Y45935968D01*
X25432167Y45935967D01*
X25432170Y45935965D01*
X25646337Y45836097D01*
X25874592Y45774937D01*
X26045319Y45760000D01*
X26109999Y45754341D01*
X26110000Y45754341D01*
X26110001Y45754341D01*
X26174681Y45760000D01*
X26345408Y45774937D01*
X26573663Y45836097D01*
X26787830Y45935965D01*
X26981401Y46071505D01*
X27103717Y46193822D01*
X27165036Y46227304D01*
X27234728Y46222320D01*
X27290662Y46180449D01*
X27307577Y46149472D01*
X27356646Y46017912D01*
X27356649Y46017907D01*
X27442809Y45902813D01*
X27442812Y45902810D01*
X27557906Y45816650D01*
X27557913Y45816646D01*
X27692620Y45766404D01*
X27692627Y45766402D01*
X27752155Y45760001D01*
X27752172Y45760000D01*
X28400000Y45760000D01*
X28400000Y46663506D01*
X28504839Y46615627D01*
X28613527Y46600000D01*
X28686473Y46600000D01*
X28795161Y46615627D01*
X28900000Y46663506D01*
X28900000Y45760000D01*
X29547828Y45760000D01*
X29547844Y45760001D01*
X29607372Y45766402D01*
X29607379Y45766404D01*
X29742086Y45816646D01*
X29742093Y45816650D01*
X29857187Y45902810D01*
X29857190Y45902813D01*
X29943350Y46017907D01*
X29943354Y46017914D01*
X29992422Y46149471D01*
X30034293Y46205405D01*
X30099757Y46229822D01*
X30168030Y46214970D01*
X30196285Y46193819D01*
X30318599Y46071505D01*
X30395135Y46017914D01*
X30512165Y45935968D01*
X30512167Y45935967D01*
X30512170Y45935965D01*
X30726337Y45836097D01*
X30954592Y45774937D01*
X31125319Y45760000D01*
X31189999Y45754341D01*
X31190000Y45754341D01*
X31190001Y45754341D01*
X31254681Y45760000D01*
X31425408Y45774937D01*
X31653663Y45836097D01*
X31867830Y45935965D01*
X32061401Y46071505D01*
X32228495Y46238599D01*
X32358425Y46424158D01*
X32413002Y46467783D01*
X32482500Y46474977D01*
X32544855Y46443454D01*
X32561575Y46424158D01*
X32691500Y46238605D01*
X32691505Y46238599D01*
X32858599Y46071505D01*
X32935135Y46017914D01*
X33052165Y45935968D01*
X33052167Y45935967D01*
X33052170Y45935965D01*
X33266337Y45836097D01*
X33494592Y45774937D01*
X33665319Y45760000D01*
X33729999Y45754341D01*
X33730000Y45754341D01*
X33730001Y45754341D01*
X33794681Y45760000D01*
X33965408Y45774937D01*
X34193663Y45836097D01*
X34407830Y45935965D01*
X34601401Y46071505D01*
X34768495Y46238599D01*
X34898425Y46424158D01*
X34953002Y46467783D01*
X35022500Y46474977D01*
X35084855Y46443454D01*
X35101575Y46424158D01*
X35231500Y46238605D01*
X35231505Y46238599D01*
X35398599Y46071505D01*
X35475135Y46017914D01*
X35592165Y45935968D01*
X35592167Y45935967D01*
X35592170Y45935965D01*
X35806337Y45836097D01*
X36034592Y45774937D01*
X36205319Y45760000D01*
X36269999Y45754341D01*
X36270000Y45754341D01*
X36270001Y45754341D01*
X36334681Y45760000D01*
X36505408Y45774937D01*
X36733663Y45836097D01*
X36947830Y45935965D01*
X37141401Y46071505D01*
X37308495Y46238599D01*
X37438425Y46424158D01*
X37493002Y46467783D01*
X37562500Y46474977D01*
X37624855Y46443454D01*
X37641575Y46424158D01*
X37771500Y46238605D01*
X37771505Y46238599D01*
X37938599Y46071505D01*
X38015135Y46017914D01*
X38132165Y45935968D01*
X38132167Y45935967D01*
X38132170Y45935965D01*
X38346337Y45836097D01*
X38574592Y45774937D01*
X38745319Y45760000D01*
X38809999Y45754341D01*
X38810000Y45754341D01*
X38810001Y45754341D01*
X38874681Y45760000D01*
X39045408Y45774937D01*
X39273663Y45836097D01*
X39487830Y45935965D01*
X39681401Y46071505D01*
X39803717Y46193822D01*
X39865036Y46227304D01*
X39934728Y46222320D01*
X39990662Y46180449D01*
X40007577Y46149472D01*
X40056646Y46017912D01*
X40056649Y46017907D01*
X40142809Y45902813D01*
X40142812Y45902810D01*
X40257906Y45816650D01*
X40257913Y45816646D01*
X40392620Y45766404D01*
X40392627Y45766402D01*
X40452155Y45760001D01*
X40452172Y45760000D01*
X41100000Y45760000D01*
X41100000Y46663506D01*
X41204839Y46615627D01*
X41313527Y46600000D01*
X41386473Y46600000D01*
X41495161Y46615627D01*
X41600000Y46663506D01*
X41600000Y45760000D01*
X42247828Y45760000D01*
X42247844Y45760001D01*
X42307372Y45766402D01*
X42307379Y45766404D01*
X42442086Y45816646D01*
X42442093Y45816650D01*
X42557187Y45902810D01*
X42557190Y45902813D01*
X42643350Y46017907D01*
X42643354Y46017914D01*
X42692422Y46149471D01*
X42734293Y46205405D01*
X42799757Y46229822D01*
X42868030Y46214970D01*
X42896285Y46193819D01*
X43018599Y46071505D01*
X43095135Y46017914D01*
X43212165Y45935968D01*
X43212167Y45935967D01*
X43212170Y45935965D01*
X43426337Y45836097D01*
X43654592Y45774937D01*
X43825319Y45760000D01*
X43889999Y45754341D01*
X43890000Y45754341D01*
X43890001Y45754341D01*
X43954681Y45760000D01*
X44125408Y45774937D01*
X44353663Y45836097D01*
X44567830Y45935965D01*
X44761401Y46071505D01*
X44928495Y46238599D01*
X45058425Y46424158D01*
X45113002Y46467783D01*
X45182500Y46474977D01*
X45244855Y46443454D01*
X45261575Y46424158D01*
X45391500Y46238605D01*
X45391505Y46238599D01*
X45558599Y46071505D01*
X45635135Y46017914D01*
X45752165Y45935968D01*
X45752167Y45935967D01*
X45752170Y45935965D01*
X45966337Y45836097D01*
X46194592Y45774937D01*
X46365319Y45760000D01*
X46429999Y45754341D01*
X46430000Y45754341D01*
X46430001Y45754341D01*
X46494681Y45760000D01*
X46665408Y45774937D01*
X46893663Y45836097D01*
X47107830Y45935965D01*
X47301401Y46071505D01*
X47468495Y46238599D01*
X47598425Y46424158D01*
X47653002Y46467783D01*
X47722500Y46474977D01*
X47784855Y46443454D01*
X47801575Y46424158D01*
X47931500Y46238605D01*
X47931505Y46238599D01*
X48098599Y46071505D01*
X48175135Y46017914D01*
X48292165Y45935968D01*
X48292167Y45935967D01*
X48292170Y45935965D01*
X48506337Y45836097D01*
X48734592Y45774937D01*
X48905319Y45760000D01*
X48969999Y45754341D01*
X48970000Y45754341D01*
X48970001Y45754341D01*
X49034681Y45760000D01*
X49205408Y45774937D01*
X49433663Y45836097D01*
X49647830Y45935965D01*
X49841401Y46071505D01*
X50008495Y46238599D01*
X50138425Y46424158D01*
X50193002Y46467783D01*
X50262500Y46474977D01*
X50324855Y46443454D01*
X50341575Y46424158D01*
X50471500Y46238605D01*
X50471505Y46238599D01*
X50638599Y46071505D01*
X50715135Y46017914D01*
X50832165Y45935968D01*
X50832167Y45935967D01*
X50832170Y45935965D01*
X51046337Y45836097D01*
X51274592Y45774937D01*
X51445319Y45760000D01*
X51509999Y45754341D01*
X51510000Y45754341D01*
X51510001Y45754341D01*
X51574681Y45760000D01*
X51745408Y45774937D01*
X51973663Y45836097D01*
X52187830Y45935965D01*
X52381401Y46071505D01*
X52503717Y46193822D01*
X52565036Y46227304D01*
X52634728Y46222320D01*
X52690662Y46180449D01*
X52707577Y46149472D01*
X52756646Y46017912D01*
X52756649Y46017907D01*
X52842809Y45902813D01*
X52842812Y45902810D01*
X52957906Y45816650D01*
X52957913Y45816646D01*
X53092620Y45766404D01*
X53092627Y45766402D01*
X53152155Y45760001D01*
X53152172Y45760000D01*
X53800000Y45760000D01*
X53800000Y46663506D01*
X53904839Y46615627D01*
X54013527Y46600000D01*
X54086473Y46600000D01*
X54195161Y46615627D01*
X54300000Y46663506D01*
X54300000Y45760000D01*
X54947828Y45760000D01*
X54947844Y45760001D01*
X55007372Y45766402D01*
X55007379Y45766404D01*
X55142086Y45816646D01*
X55142093Y45816650D01*
X55257187Y45902810D01*
X55257190Y45902813D01*
X55343350Y46017907D01*
X55343354Y46017914D01*
X55392422Y46149471D01*
X55434293Y46205405D01*
X55499757Y46229822D01*
X55568030Y46214970D01*
X55596285Y46193819D01*
X55718599Y46071505D01*
X55795135Y46017914D01*
X55912165Y45935968D01*
X55912167Y45935967D01*
X55912170Y45935965D01*
X56126337Y45836097D01*
X56354592Y45774937D01*
X56525319Y45760000D01*
X56589999Y45754341D01*
X56590000Y45754341D01*
X56590001Y45754341D01*
X56654681Y45760000D01*
X56825408Y45774937D01*
X57053663Y45836097D01*
X57267830Y45935965D01*
X57461401Y46071505D01*
X57628495Y46238599D01*
X57758425Y46424158D01*
X57813002Y46467783D01*
X57882500Y46474977D01*
X57944855Y46443454D01*
X57961575Y46424158D01*
X58091500Y46238605D01*
X58091505Y46238599D01*
X58258599Y46071505D01*
X58335135Y46017914D01*
X58452165Y45935968D01*
X58452167Y45935967D01*
X58452170Y45935965D01*
X58666337Y45836097D01*
X58894592Y45774937D01*
X59065319Y45760000D01*
X59129999Y45754341D01*
X59130000Y45754341D01*
X59130001Y45754341D01*
X59194681Y45760000D01*
X59365408Y45774937D01*
X59593663Y45836097D01*
X59807830Y45935965D01*
X60001401Y46071505D01*
X60168495Y46238599D01*
X60304035Y46432170D01*
X60403903Y46646337D01*
X60465063Y46874592D01*
X60485659Y47110000D01*
X60465063Y47345408D01*
X60403903Y47573663D01*
X60304035Y47787829D01*
X60298425Y47795842D01*
X60168494Y47981403D01*
X60001402Y48148494D01*
X60001395Y48148499D01*
X59807834Y48284033D01*
X59807830Y48284035D01*
X59736727Y48317191D01*
X59593663Y48383903D01*
X59593659Y48383904D01*
X59593655Y48383906D01*
X59365413Y48445062D01*
X59365403Y48445064D01*
X59130001Y48465659D01*
X59129999Y48465659D01*
X58894596Y48445064D01*
X58894586Y48445062D01*
X58666344Y48383906D01*
X58666335Y48383902D01*
X58452171Y48284036D01*
X58452169Y48284035D01*
X58258597Y48148495D01*
X58091505Y47981403D01*
X57961575Y47795842D01*
X57906998Y47752217D01*
X57837500Y47745023D01*
X57775145Y47776546D01*
X57758425Y47795842D01*
X57628494Y47981403D01*
X57461402Y48148494D01*
X57461395Y48148499D01*
X57267834Y48284033D01*
X57267830Y48284035D01*
X57196727Y48317191D01*
X57053663Y48383903D01*
X57053659Y48383904D01*
X57053655Y48383906D01*
X56825413Y48445062D01*
X56825403Y48445064D01*
X56590001Y48465659D01*
X56589999Y48465659D01*
X56354596Y48445064D01*
X56354586Y48445062D01*
X56126344Y48383906D01*
X56126335Y48383902D01*
X55912171Y48284036D01*
X55912169Y48284035D01*
X55718600Y48148497D01*
X55596284Y48026181D01*
X55534961Y47992697D01*
X55465269Y47997681D01*
X55409336Y48039553D01*
X55392421Y48070530D01*
X55343354Y48202087D01*
X55343350Y48202094D01*
X55257190Y48317188D01*
X55257187Y48317191D01*
X55142093Y48403351D01*
X55142086Y48403355D01*
X55007379Y48453597D01*
X55007372Y48453599D01*
X54947844Y48460000D01*
X54300000Y48460000D01*
X54300000Y47556495D01*
X54195161Y47604373D01*
X54086473Y47620000D01*
X54013527Y47620000D01*
X53904839Y47604373D01*
X53800000Y47556495D01*
X53800000Y48460000D01*
X53152155Y48460000D01*
X53092627Y48453599D01*
X53092620Y48453597D01*
X52957913Y48403355D01*
X52957906Y48403351D01*
X52842812Y48317191D01*
X52842809Y48317188D01*
X52756649Y48202094D01*
X52756645Y48202087D01*
X52707578Y48070530D01*
X52665707Y48014596D01*
X52600242Y47990179D01*
X52531969Y48005031D01*
X52503715Y48026181D01*
X52459366Y48070530D01*
X52381401Y48148495D01*
X52381397Y48148498D01*
X52381396Y48148499D01*
X52187834Y48284033D01*
X52187830Y48284035D01*
X52116727Y48317191D01*
X51973663Y48383903D01*
X51973659Y48383904D01*
X51973655Y48383906D01*
X51745413Y48445062D01*
X51745403Y48445064D01*
X51510001Y48465659D01*
X51509999Y48465659D01*
X51274596Y48445064D01*
X51274586Y48445062D01*
X51046344Y48383906D01*
X51046335Y48383902D01*
X50832171Y48284036D01*
X50832169Y48284035D01*
X50638597Y48148495D01*
X50471505Y47981403D01*
X50341575Y47795842D01*
X50286998Y47752217D01*
X50217500Y47745023D01*
X50155145Y47776546D01*
X50138425Y47795842D01*
X50008494Y47981403D01*
X49841402Y48148494D01*
X49841395Y48148499D01*
X49647834Y48284033D01*
X49647830Y48284035D01*
X49576727Y48317191D01*
X49433663Y48383903D01*
X49433659Y48383904D01*
X49433655Y48383906D01*
X49205413Y48445062D01*
X49205403Y48445064D01*
X48970001Y48465659D01*
X48969999Y48465659D01*
X48734596Y48445064D01*
X48734586Y48445062D01*
X48506344Y48383906D01*
X48506335Y48383902D01*
X48292171Y48284036D01*
X48292169Y48284035D01*
X48098597Y48148495D01*
X47931505Y47981403D01*
X47801575Y47795842D01*
X47746998Y47752217D01*
X47677500Y47745023D01*
X47615145Y47776546D01*
X47598425Y47795842D01*
X47468494Y47981403D01*
X47301402Y48148494D01*
X47301395Y48148499D01*
X47107834Y48284033D01*
X47107830Y48284035D01*
X47036727Y48317191D01*
X46893663Y48383903D01*
X46893659Y48383904D01*
X46893655Y48383906D01*
X46665413Y48445062D01*
X46665403Y48445064D01*
X46430001Y48465659D01*
X46429999Y48465659D01*
X46194596Y48445064D01*
X46194586Y48445062D01*
X45966344Y48383906D01*
X45966335Y48383902D01*
X45752171Y48284036D01*
X45752169Y48284035D01*
X45558597Y48148495D01*
X45391505Y47981403D01*
X45261575Y47795842D01*
X45206998Y47752217D01*
X45137500Y47745023D01*
X45075145Y47776546D01*
X45058425Y47795842D01*
X44928494Y47981403D01*
X44761402Y48148494D01*
X44761395Y48148499D01*
X44567834Y48284033D01*
X44567830Y48284035D01*
X44496727Y48317191D01*
X44353663Y48383903D01*
X44353659Y48383904D01*
X44353655Y48383906D01*
X44125413Y48445062D01*
X44125403Y48445064D01*
X43890001Y48465659D01*
X43889999Y48465659D01*
X43654596Y48445064D01*
X43654586Y48445062D01*
X43426344Y48383906D01*
X43426335Y48383902D01*
X43212171Y48284036D01*
X43212169Y48284035D01*
X43018600Y48148497D01*
X42896284Y48026181D01*
X42834961Y47992697D01*
X42765269Y47997681D01*
X42709336Y48039553D01*
X42692421Y48070530D01*
X42643354Y48202087D01*
X42643350Y48202094D01*
X42557190Y48317188D01*
X42557187Y48317191D01*
X42442093Y48403351D01*
X42442086Y48403355D01*
X42307379Y48453597D01*
X42307372Y48453599D01*
X42247844Y48460000D01*
X41600000Y48460000D01*
X41600000Y47556495D01*
X41495161Y47604373D01*
X41386473Y47620000D01*
X41313527Y47620000D01*
X41204839Y47604373D01*
X41100000Y47556495D01*
X41100000Y48460000D01*
X40452155Y48460000D01*
X40392627Y48453599D01*
X40392620Y48453597D01*
X40257913Y48403355D01*
X40257906Y48403351D01*
X40142812Y48317191D01*
X40142809Y48317188D01*
X40056649Y48202094D01*
X40056645Y48202087D01*
X40007578Y48070530D01*
X39965707Y48014596D01*
X39900242Y47990179D01*
X39831969Y48005031D01*
X39803715Y48026181D01*
X39759366Y48070530D01*
X39681401Y48148495D01*
X39681397Y48148498D01*
X39681396Y48148499D01*
X39487834Y48284033D01*
X39487830Y48284035D01*
X39416727Y48317191D01*
X39273663Y48383903D01*
X39273659Y48383904D01*
X39273655Y48383906D01*
X39045413Y48445062D01*
X39045403Y48445064D01*
X38810001Y48465659D01*
X38809999Y48465659D01*
X38574596Y48445064D01*
X38574586Y48445062D01*
X38346344Y48383906D01*
X38346335Y48383902D01*
X38132171Y48284036D01*
X38132169Y48284035D01*
X37938597Y48148495D01*
X37771505Y47981403D01*
X37641575Y47795842D01*
X37586998Y47752217D01*
X37517500Y47745023D01*
X37455145Y47776546D01*
X37438425Y47795842D01*
X37308494Y47981403D01*
X37141402Y48148494D01*
X37141395Y48148499D01*
X36947834Y48284033D01*
X36947830Y48284035D01*
X36876727Y48317191D01*
X36733663Y48383903D01*
X36733659Y48383904D01*
X36733655Y48383906D01*
X36505413Y48445062D01*
X36505403Y48445064D01*
X36270001Y48465659D01*
X36269999Y48465659D01*
X36034596Y48445064D01*
X36034586Y48445062D01*
X35806344Y48383906D01*
X35806335Y48383902D01*
X35592171Y48284036D01*
X35592169Y48284035D01*
X35398597Y48148495D01*
X35231505Y47981403D01*
X35101575Y47795842D01*
X35046998Y47752217D01*
X34977500Y47745023D01*
X34915145Y47776546D01*
X34898425Y47795842D01*
X34768494Y47981403D01*
X34601402Y48148494D01*
X34601395Y48148499D01*
X34407834Y48284033D01*
X34407830Y48284035D01*
X34336727Y48317191D01*
X34193663Y48383903D01*
X34193659Y48383904D01*
X34193655Y48383906D01*
X33965413Y48445062D01*
X33965403Y48445064D01*
X33730001Y48465659D01*
X33729999Y48465659D01*
X33494596Y48445064D01*
X33494586Y48445062D01*
X33266344Y48383906D01*
X33266335Y48383902D01*
X33052171Y48284036D01*
X33052169Y48284035D01*
X32858597Y48148495D01*
X32691505Y47981403D01*
X32561575Y47795842D01*
X32506998Y47752217D01*
X32437500Y47745023D01*
X32375145Y47776546D01*
X32358425Y47795842D01*
X32228494Y47981403D01*
X32061402Y48148494D01*
X32061395Y48148499D01*
X31867834Y48284033D01*
X31867830Y48284035D01*
X31796727Y48317191D01*
X31653663Y48383903D01*
X31653659Y48383904D01*
X31653655Y48383906D01*
X31425413Y48445062D01*
X31425403Y48445064D01*
X31190001Y48465659D01*
X31189999Y48465659D01*
X30954596Y48445064D01*
X30954586Y48445062D01*
X30726344Y48383906D01*
X30726335Y48383902D01*
X30512171Y48284036D01*
X30512169Y48284035D01*
X30318600Y48148497D01*
X30196284Y48026181D01*
X30134961Y47992697D01*
X30065269Y47997681D01*
X30009336Y48039553D01*
X29992421Y48070530D01*
X29943354Y48202087D01*
X29943350Y48202094D01*
X29857190Y48317188D01*
X29857187Y48317191D01*
X29742093Y48403351D01*
X29742086Y48403355D01*
X29607379Y48453597D01*
X29607372Y48453599D01*
X29547844Y48460000D01*
X28900000Y48460000D01*
X28900000Y47556495D01*
X28795161Y47604373D01*
X28686473Y47620000D01*
X28613527Y47620000D01*
X28504839Y47604373D01*
X28400000Y47556495D01*
X28400000Y48460000D01*
X27752155Y48460000D01*
X27692627Y48453599D01*
X27692620Y48453597D01*
X27557913Y48403355D01*
X27557906Y48403351D01*
X27442812Y48317191D01*
X27442809Y48317188D01*
X27356649Y48202094D01*
X27356645Y48202087D01*
X27307578Y48070530D01*
X27265707Y48014596D01*
X27200242Y47990179D01*
X27131969Y48005031D01*
X27103715Y48026181D01*
X27059366Y48070530D01*
X26981401Y48148495D01*
X26981397Y48148498D01*
X26981396Y48148499D01*
X26787834Y48284033D01*
X26787830Y48284035D01*
X26716727Y48317191D01*
X26573663Y48383903D01*
X26573659Y48383904D01*
X26573655Y48383906D01*
X26345413Y48445062D01*
X26345403Y48445064D01*
X26110001Y48465659D01*
X26109999Y48465659D01*
X25874596Y48445064D01*
X25874586Y48445062D01*
X25646344Y48383906D01*
X25646335Y48383902D01*
X25432171Y48284036D01*
X25432169Y48284035D01*
X25238597Y48148495D01*
X25071505Y47981403D01*
X24941575Y47795842D01*
X24886998Y47752217D01*
X24817500Y47745023D01*
X24755145Y47776546D01*
X24738425Y47795842D01*
X24608494Y47981403D01*
X24441402Y48148494D01*
X24441395Y48148499D01*
X24247834Y48284033D01*
X24247830Y48284035D01*
X24176727Y48317191D01*
X24033663Y48383903D01*
X24033659Y48383904D01*
X24033655Y48383906D01*
X23805413Y48445062D01*
X23805403Y48445064D01*
X23570001Y48465659D01*
X23569999Y48465659D01*
X23334596Y48445064D01*
X23334586Y48445062D01*
X23106344Y48383906D01*
X23106335Y48383902D01*
X22892171Y48284036D01*
X22892169Y48284035D01*
X22698597Y48148495D01*
X22531505Y47981403D01*
X22401575Y47795842D01*
X22346998Y47752217D01*
X22277500Y47745023D01*
X22215145Y47776546D01*
X22198425Y47795842D01*
X22068494Y47981403D01*
X21901402Y48148494D01*
X21901395Y48148499D01*
X21707834Y48284033D01*
X21707830Y48284035D01*
X21636727Y48317191D01*
X21493663Y48383903D01*
X21493659Y48383904D01*
X21493655Y48383906D01*
X21265413Y48445062D01*
X21265403Y48445064D01*
X21030001Y48465659D01*
X21029999Y48465659D01*
X20794596Y48445064D01*
X20794586Y48445062D01*
X20566344Y48383906D01*
X20566335Y48383902D01*
X20352171Y48284036D01*
X20352169Y48284035D01*
X20158597Y48148495D01*
X19991505Y47981403D01*
X19861575Y47795842D01*
X19806998Y47752217D01*
X19737500Y47745023D01*
X19675145Y47776546D01*
X19658425Y47795842D01*
X19528494Y47981403D01*
X19361402Y48148494D01*
X19361395Y48148499D01*
X19167834Y48284033D01*
X19167830Y48284035D01*
X19096727Y48317191D01*
X18953663Y48383903D01*
X18953659Y48383904D01*
X18953655Y48383906D01*
X18725413Y48445062D01*
X18725403Y48445064D01*
X18490001Y48465659D01*
X18489999Y48465659D01*
X18254596Y48445064D01*
X18254586Y48445062D01*
X18026344Y48383906D01*
X18026335Y48383902D01*
X17812171Y48284036D01*
X17812169Y48284035D01*
X17618600Y48148497D01*
X17496284Y48026181D01*
X17434961Y47992697D01*
X17365269Y47997681D01*
X17309336Y48039553D01*
X17292421Y48070530D01*
X17243354Y48202087D01*
X17243350Y48202094D01*
X17157190Y48317188D01*
X17157187Y48317191D01*
X17042093Y48403351D01*
X17042086Y48403355D01*
X16907379Y48453597D01*
X16907372Y48453599D01*
X16847844Y48460000D01*
X16200000Y48460000D01*
X16200000Y47556495D01*
X16095161Y47604373D01*
X15986473Y47620000D01*
X15913527Y47620000D01*
X15804839Y47604373D01*
X15700000Y47556495D01*
X15700000Y48460000D01*
X15052155Y48460000D01*
X14992627Y48453599D01*
X14992620Y48453597D01*
X14857913Y48403355D01*
X14857906Y48403351D01*
X14742812Y48317191D01*
X14742809Y48317188D01*
X14656649Y48202094D01*
X14656645Y48202087D01*
X14607578Y48070530D01*
X14565707Y48014596D01*
X14500242Y47990179D01*
X14431969Y48005031D01*
X14403715Y48026181D01*
X14359366Y48070530D01*
X14281401Y48148495D01*
X14281397Y48148498D01*
X14281396Y48148499D01*
X14087834Y48284033D01*
X14087830Y48284035D01*
X14016727Y48317191D01*
X13873663Y48383903D01*
X13873659Y48383904D01*
X13873655Y48383906D01*
X13645413Y48445062D01*
X13645403Y48445064D01*
X13410001Y48465659D01*
X13409999Y48465659D01*
X13174596Y48445064D01*
X13174586Y48445062D01*
X12946344Y48383906D01*
X12946335Y48383902D01*
X12732171Y48284036D01*
X12732169Y48284035D01*
X12538597Y48148495D01*
X12371505Y47981403D01*
X12241575Y47795842D01*
X12186998Y47752217D01*
X12117500Y47745023D01*
X12055145Y47776546D01*
X12038425Y47795842D01*
X11908494Y47981403D01*
X11741402Y48148494D01*
X11741395Y48148499D01*
X11547834Y48284033D01*
X11547830Y48284035D01*
X11476727Y48317191D01*
X11333663Y48383903D01*
X11333659Y48383904D01*
X11333655Y48383906D01*
X11105413Y48445062D01*
X11105403Y48445064D01*
X10870001Y48465659D01*
X10869999Y48465659D01*
X10634596Y48445064D01*
X10634586Y48445062D01*
X10406344Y48383906D01*
X10406335Y48383902D01*
X10192171Y48284036D01*
X10192169Y48284035D01*
X9998597Y48148495D01*
X9831505Y47981403D01*
X9695965Y47787831D01*
X9695964Y47787829D01*
X9641020Y47670000D01*
X9596271Y47574035D01*
X9596098Y47573665D01*
X9596094Y47573656D01*
X9534938Y47345414D01*
X9534936Y47345404D01*
X9514341Y47110001D01*
X9514341Y47110000D01*
X500Y47110000D01*
X500Y50000000D01*
X3094540Y50000000D01*
X3114326Y49811744D01*
X3114327Y49811741D01*
X3172818Y49631723D01*
X3172821Y49631716D01*
X3267467Y49467784D01*
X3369185Y49354815D01*
X3394129Y49327112D01*
X3547265Y49215852D01*
X3547270Y49215849D01*
X3720192Y49138858D01*
X3720197Y49138856D01*
X3905354Y49099500D01*
X3905355Y49099500D01*
X4094644Y49099500D01*
X4094646Y49099500D01*
X4279803Y49138856D01*
X4452730Y49215849D01*
X4605871Y49327112D01*
X4608788Y49330353D01*
X4611600Y49333474D01*
X4671087Y49370121D01*
X4703748Y49374500D01*
X17296252Y49374500D01*
X17363291Y49354815D01*
X17388400Y49333474D01*
X17394126Y49327115D01*
X17394130Y49327111D01*
X17547265Y49215852D01*
X17547270Y49215849D01*
X17720192Y49138858D01*
X17720197Y49138856D01*
X17905354Y49099500D01*
X17905355Y49099500D01*
X18094644Y49099500D01*
X18094646Y49099500D01*
X18279803Y49138856D01*
X18452730Y49215849D01*
X18605871Y49327112D01*
X18732533Y49467784D01*
X18827179Y49631716D01*
X18885674Y49811744D01*
X18903321Y49979656D01*
X18929904Y50044266D01*
X18938951Y50054362D01*
X19997772Y51113181D01*
X20059095Y51146666D01*
X20085453Y51149500D01*
X45972537Y51149500D01*
X46039576Y51129815D01*
X46085331Y51077011D01*
X46095857Y51012540D01*
X46094540Y51000000D01*
X46114326Y50811744D01*
X46114327Y50811741D01*
X46172818Y50631723D01*
X46172821Y50631716D01*
X46267467Y50467784D01*
X46357063Y50368278D01*
X46394129Y50327112D01*
X46547265Y50215852D01*
X46547270Y50215849D01*
X46720192Y50138858D01*
X46720197Y50138856D01*
X46905354Y50099500D01*
X46905355Y50099500D01*
X47094644Y50099500D01*
X47094646Y50099500D01*
X47279803Y50138856D01*
X47452730Y50215849D01*
X47605871Y50327112D01*
X47608788Y50330353D01*
X47611600Y50333474D01*
X47671087Y50370121D01*
X47703748Y50374500D01*
X48004169Y50374500D01*
X48071208Y50354815D01*
X48116963Y50302011D01*
X48126907Y50232853D01*
X48122099Y50212182D01*
X48114326Y50188256D01*
X48094540Y50000000D01*
X48114326Y49811744D01*
X48114327Y49811741D01*
X48172818Y49631723D01*
X48172821Y49631716D01*
X48267467Y49467784D01*
X48369185Y49354815D01*
X48394129Y49327112D01*
X48547265Y49215852D01*
X48547270Y49215849D01*
X48720192Y49138858D01*
X48720197Y49138856D01*
X48905354Y49099500D01*
X48905355Y49099500D01*
X49094644Y49099500D01*
X49094646Y49099500D01*
X49279803Y49138856D01*
X49452730Y49215849D01*
X49605871Y49327112D01*
X49608788Y49330353D01*
X49611600Y49333474D01*
X49671087Y49370121D01*
X49703748Y49374500D01*
X58296252Y49374500D01*
X58363291Y49354815D01*
X58388400Y49333474D01*
X58394126Y49327115D01*
X58394130Y49327111D01*
X58547265Y49215852D01*
X58547270Y49215849D01*
X58720192Y49138858D01*
X58720197Y49138856D01*
X58905354Y49099500D01*
X58905355Y49099500D01*
X59094644Y49099500D01*
X59094646Y49099500D01*
X59279803Y49138856D01*
X59452730Y49215849D01*
X59605871Y49327112D01*
X59732533Y49467784D01*
X59827179Y49631716D01*
X59885674Y49811744D01*
X59905460Y50000000D01*
X59885674Y50188256D01*
X59827179Y50368284D01*
X59732533Y50532216D01*
X59605871Y50672888D01*
X59605870Y50672889D01*
X59452734Y50784149D01*
X59452729Y50784152D01*
X59279807Y50861143D01*
X59279802Y50861145D01*
X59134001Y50892135D01*
X59094646Y50900500D01*
X58905354Y50900500D01*
X58872897Y50893602D01*
X58720197Y50861145D01*
X58720192Y50861143D01*
X58547270Y50784152D01*
X58547265Y50784149D01*
X58394130Y50672890D01*
X58394126Y50672886D01*
X58388400Y50666526D01*
X58328913Y50629879D01*
X58296252Y50625500D01*
X55995831Y50625500D01*
X55928792Y50645185D01*
X55883037Y50697989D01*
X55873093Y50767147D01*
X55877900Y50787818D01*
X55878436Y50789471D01*
X55885674Y50811744D01*
X55905460Y51000000D01*
X55904142Y51012540D01*
X55916712Y51081269D01*
X55964444Y51132292D01*
X56027463Y51149500D01*
X64345268Y51149500D01*
X64412307Y51129815D01*
X64458062Y51077011D01*
X64465043Y51057591D01*
X64476092Y51016350D01*
X64476096Y51016341D01*
X64476097Y51016337D01*
X64571501Y50811744D01*
X64575965Y50802170D01*
X64575967Y50802166D01*
X64711501Y50608605D01*
X64711506Y50608598D01*
X64878597Y50441507D01*
X64878603Y50441502D01*
X65064158Y50311575D01*
X65107783Y50256998D01*
X65114977Y50187500D01*
X65083454Y50125145D01*
X65064158Y50108425D01*
X64878597Y49978495D01*
X64711505Y49811403D01*
X64575965Y49617831D01*
X64575964Y49617829D01*
X64476098Y49403665D01*
X64476094Y49403656D01*
X64414938Y49175414D01*
X64414936Y49175404D01*
X64394341Y48940001D01*
X64394341Y48940000D01*
X64414936Y48704597D01*
X64414938Y48704587D01*
X64476094Y48476345D01*
X64476096Y48476341D01*
X64476097Y48476337D01*
X64550308Y48317191D01*
X64575965Y48262170D01*
X64575967Y48262166D01*
X64711501Y48068605D01*
X64711506Y48068598D01*
X64878597Y47901507D01*
X64878603Y47901502D01*
X65064158Y47771575D01*
X65107783Y47716998D01*
X65114977Y47647500D01*
X65083454Y47585145D01*
X65064158Y47568425D01*
X64878597Y47438495D01*
X64711505Y47271403D01*
X64575965Y47077831D01*
X64575964Y47077829D01*
X64476098Y46863665D01*
X64476094Y46863656D01*
X64414938Y46635414D01*
X64414936Y46635404D01*
X64394341Y46400001D01*
X64394341Y46400000D01*
X64414936Y46164597D01*
X64414938Y46164587D01*
X64476094Y45936345D01*
X64476096Y45936341D01*
X64476097Y45936337D01*
X64491730Y45902813D01*
X64575965Y45722170D01*
X64575967Y45722166D01*
X64711501Y45528605D01*
X64711506Y45528598D01*
X64878597Y45361507D01*
X64878603Y45361502D01*
X65064158Y45231575D01*
X65107783Y45176998D01*
X65114977Y45107500D01*
X65083454Y45045145D01*
X65064158Y45028425D01*
X64878597Y44898495D01*
X64711505Y44731403D01*
X64575965Y44537831D01*
X64575964Y44537829D01*
X64476098Y44323665D01*
X64476094Y44323656D01*
X64414938Y44095414D01*
X64414936Y44095404D01*
X64394341Y43860001D01*
X64394341Y43860000D01*
X64414936Y43624597D01*
X64414938Y43624587D01*
X64476094Y43396345D01*
X64476096Y43396341D01*
X64476097Y43396337D01*
X64532135Y43276164D01*
X64575965Y43182170D01*
X64575967Y43182166D01*
X64711501Y42988605D01*
X64711506Y42988598D01*
X64878597Y42821507D01*
X64878603Y42821502D01*
X65064594Y42691270D01*
X65108219Y42636693D01*
X65115413Y42567195D01*
X65083890Y42504840D01*
X65064595Y42488120D01*
X64878922Y42358110D01*
X64878920Y42358109D01*
X64711891Y42191080D01*
X64711886Y42191074D01*
X64576400Y41997580D01*
X64576399Y41997578D01*
X64476570Y41783493D01*
X64476567Y41783487D01*
X64419364Y41570001D01*
X64419364Y41570000D01*
X65316314Y41570000D01*
X65290507Y41529844D01*
X65250000Y41391889D01*
X65250000Y41248111D01*
X65290507Y41110156D01*
X65316314Y41070000D01*
X64395953Y41070000D01*
X64328914Y41089685D01*
X64308272Y41106319D01*
X62230803Y43183788D01*
X62220980Y43196050D01*
X62220759Y43195866D01*
X62215786Y43201877D01*
X62165364Y43249227D01*
X62154919Y43259672D01*
X62144475Y43270117D01*
X62138986Y43274375D01*
X62134561Y43278153D01*
X62100582Y43310062D01*
X62100580Y43310064D01*
X62100577Y43310065D01*
X62083029Y43319712D01*
X62066763Y43330396D01*
X62050933Y43342675D01*
X62008168Y43361182D01*
X62002922Y43363752D01*
X61962093Y43386197D01*
X61962092Y43386198D01*
X61942693Y43391178D01*
X61924281Y43397482D01*
X61905898Y43405438D01*
X61905892Y43405440D01*
X61859874Y43412728D01*
X61854152Y43413913D01*
X61809021Y43425500D01*
X61809019Y43425500D01*
X61788984Y43425500D01*
X61769586Y43427027D01*
X61762162Y43428203D01*
X61749805Y43430160D01*
X61749804Y43430160D01*
X61703416Y43425775D01*
X61697578Y43425500D01*
X39865737Y43425500D01*
X39798698Y43445185D01*
X39758350Y43487500D01*
X39747483Y43506321D01*
X39732533Y43532216D01*
X39605871Y43672888D01*
X39605870Y43672889D01*
X39452734Y43784149D01*
X39452729Y43784152D01*
X39279807Y43861143D01*
X39279802Y43861145D01*
X39134001Y43892135D01*
X39094646Y43900500D01*
X38905354Y43900500D01*
X38872897Y43893602D01*
X38720197Y43861145D01*
X38720192Y43861143D01*
X38547270Y43784152D01*
X38547265Y43784149D01*
X38394129Y43672889D01*
X38267466Y43532215D01*
X38172821Y43368285D01*
X38172818Y43368278D01*
X38116020Y43193470D01*
X38114326Y43188256D01*
X38094540Y43000000D01*
X38114326Y42811744D01*
X38114327Y42811741D01*
X38122100Y42787818D01*
X38124095Y42717977D01*
X38088015Y42658144D01*
X38025314Y42627316D01*
X38004169Y42625500D01*
X37410446Y42625500D01*
X37343407Y42645185D01*
X37322765Y42661819D01*
X37038960Y42945625D01*
X37005475Y43006948D01*
X37003323Y43020326D01*
X36985674Y43188250D01*
X36927179Y43368278D01*
X36832533Y43532210D01*
X36705871Y43672882D01*
X36705863Y43672888D01*
X36552734Y43784143D01*
X36552729Y43784146D01*
X36379807Y43861137D01*
X36379802Y43861139D01*
X36234001Y43892129D01*
X36194646Y43900494D01*
X36005354Y43900494D01*
X35972897Y43893596D01*
X35820197Y43861139D01*
X35820192Y43861137D01*
X35647270Y43784146D01*
X35647265Y43784143D01*
X35494129Y43672883D01*
X35367466Y43532209D01*
X35272821Y43368279D01*
X35272818Y43368272D01*
X35216022Y43193470D01*
X35214326Y43188250D01*
X35194540Y42999994D01*
X35214326Y42811738D01*
X35214327Y42811735D01*
X35272818Y42631717D01*
X35272821Y42631710D01*
X35367467Y42467778D01*
X35466213Y42358110D01*
X35494129Y42327106D01*
X35647265Y42215846D01*
X35647270Y42215843D01*
X35820192Y42138852D01*
X35820197Y42138850D01*
X36005354Y42099494D01*
X36064548Y42099494D01*
X36131587Y42079809D01*
X36152229Y42063175D01*
X36178223Y42037181D01*
X36211708Y41975858D01*
X36206724Y41906166D01*
X36164852Y41850233D01*
X36099388Y41825816D01*
X36090542Y41825500D01*
X34576974Y41825500D01*
X34509935Y41845185D01*
X34504089Y41849182D01*
X34352733Y41959149D01*
X34352728Y41959152D01*
X34179806Y42036143D01*
X34179801Y42036145D01*
X34034000Y42067135D01*
X33994645Y42075500D01*
X33805353Y42075500D01*
X33772896Y42068602D01*
X33620196Y42036145D01*
X33620191Y42036143D01*
X33447269Y41959152D01*
X33447264Y41959149D01*
X33294128Y41847889D01*
X33167465Y41707215D01*
X33072820Y41543285D01*
X33072817Y41543278D01*
X33014326Y41363260D01*
X33014325Y41363256D01*
X33011690Y41338181D01*
X32994539Y41175000D01*
X32995857Y41162461D01*
X32983287Y41093731D01*
X32935555Y41042708D01*
X32872536Y41025500D01*
X32314430Y41025500D01*
X32247391Y41045185D01*
X32201636Y41097989D01*
X32191110Y41136535D01*
X32185674Y41188256D01*
X32127179Y41368284D01*
X32032533Y41532216D01*
X31905871Y41672888D01*
X31858624Y41707215D01*
X31752734Y41784149D01*
X31752729Y41784152D01*
X31579807Y41861143D01*
X31579802Y41861145D01*
X31434001Y41892135D01*
X31394646Y41900500D01*
X31205354Y41900500D01*
X31172897Y41893602D01*
X31020197Y41861145D01*
X31020192Y41861143D01*
X30847270Y41784152D01*
X30847265Y41784149D01*
X30694129Y41672889D01*
X30567466Y41532215D01*
X30472821Y41368285D01*
X30472818Y41368278D01*
X30433774Y41248111D01*
X30414326Y41188256D01*
X30394540Y41000000D01*
X30414326Y40811744D01*
X30414327Y40811741D01*
X30472818Y40631723D01*
X30472821Y40631716D01*
X30567467Y40467784D01*
X30606763Y40424142D01*
X30694129Y40327112D01*
X30847265Y40215852D01*
X30847270Y40215849D01*
X31020192Y40138858D01*
X31020197Y40138856D01*
X31205354Y40099500D01*
X31264547Y40099500D01*
X31331586Y40079815D01*
X31352228Y40063181D01*
X31399197Y40016212D01*
X31409022Y40003949D01*
X31409243Y40004131D01*
X31414214Y39998122D01*
X31440217Y39973705D01*
X31464635Y39950774D01*
X31485529Y39929880D01*
X31491011Y39925627D01*
X31495443Y39921843D01*
X31529418Y39889938D01*
X31546976Y39880286D01*
X31563235Y39869605D01*
X31579064Y39857327D01*
X31621838Y39838818D01*
X31627056Y39836262D01*
X31667908Y39813803D01*
X31687316Y39808820D01*
X31705717Y39802520D01*
X31724104Y39794563D01*
X31767488Y39787692D01*
X31770119Y39787275D01*
X31775839Y39786091D01*
X31820981Y39774500D01*
X31841016Y39774500D01*
X31860414Y39772974D01*
X31880194Y39769841D01*
X31880195Y39769840D01*
X31880195Y39769841D01*
X31880196Y39769840D01*
X31926584Y39774225D01*
X31932422Y39774500D01*
X56199548Y39774500D01*
X56266587Y39754815D01*
X56287229Y39738181D01*
X64409761Y31615648D01*
X64443246Y31554325D01*
X64441855Y31495876D01*
X64414937Y31395411D01*
X64414937Y31395410D01*
X64394341Y31160001D01*
X64394341Y31160000D01*
X64414936Y30924597D01*
X64414938Y30924587D01*
X64476094Y30696345D01*
X64476096Y30696341D01*
X64476097Y30696337D01*
X64575965Y30482170D01*
X64575967Y30482166D01*
X64711501Y30288605D01*
X64711506Y30288598D01*
X64878597Y30121507D01*
X64878603Y30121502D01*
X65064158Y29991575D01*
X65107783Y29936998D01*
X65114977Y29867500D01*
X65083454Y29805145D01*
X65064158Y29788425D01*
X64878597Y29658495D01*
X64711505Y29491403D01*
X64575965Y29297831D01*
X64575964Y29297829D01*
X64476098Y29083665D01*
X64476094Y29083656D01*
X64414938Y28855414D01*
X64414936Y28855404D01*
X64394341Y28620001D01*
X64394341Y28620000D01*
X64414936Y28384597D01*
X64414938Y28384587D01*
X64476094Y28156345D01*
X64476096Y28156341D01*
X64476097Y28156337D01*
X64575965Y27942170D01*
X64575967Y27942166D01*
X64711501Y27748605D01*
X64711506Y27748598D01*
X64878597Y27581507D01*
X64878603Y27581502D01*
X65064158Y27451575D01*
X65107783Y27396998D01*
X65114977Y27327500D01*
X65083454Y27265145D01*
X65064158Y27248425D01*
X64878597Y27118495D01*
X64711505Y26951403D01*
X64575965Y26757831D01*
X64575964Y26757829D01*
X64476098Y26543665D01*
X64476094Y26543656D01*
X64414938Y26315414D01*
X64414936Y26315404D01*
X64394341Y26080001D01*
X64394341Y26080000D01*
X64414936Y25844597D01*
X64414938Y25844587D01*
X64476094Y25616345D01*
X64476096Y25616341D01*
X64476097Y25616337D01*
X64575965Y25402170D01*
X64575967Y25402166D01*
X64711501Y25208605D01*
X64711506Y25208598D01*
X64878597Y25041507D01*
X64878603Y25041502D01*
X65064158Y24911575D01*
X65107783Y24856998D01*
X65114977Y24787500D01*
X65083454Y24725145D01*
X65064158Y24708425D01*
X64878597Y24578495D01*
X64711505Y24411403D01*
X64575965Y24217831D01*
X64575964Y24217829D01*
X64476098Y24003665D01*
X64476094Y24003656D01*
X64414938Y23775414D01*
X64414936Y23775404D01*
X64394341Y23540001D01*
X64394341Y23540000D01*
X64414936Y23304597D01*
X64414938Y23304587D01*
X64476094Y23076345D01*
X64476096Y23076341D01*
X64476097Y23076337D01*
X64575965Y22862170D01*
X64575967Y22862166D01*
X64711501Y22668605D01*
X64711506Y22668598D01*
X64878597Y22501507D01*
X64878603Y22501502D01*
X65064158Y22371575D01*
X65107783Y22316998D01*
X65114977Y22247500D01*
X65083454Y22185145D01*
X65064158Y22168425D01*
X64878597Y22038495D01*
X64711505Y21871403D01*
X64575965Y21677831D01*
X64575964Y21677829D01*
X64476098Y21463665D01*
X64476094Y21463656D01*
X64414938Y21235414D01*
X64414936Y21235404D01*
X64394341Y21000001D01*
X64394341Y21000000D01*
X64414936Y20764597D01*
X64414938Y20764587D01*
X64476094Y20536345D01*
X64476096Y20536341D01*
X64476097Y20536337D01*
X64534196Y20411744D01*
X64575965Y20322170D01*
X64575967Y20322166D01*
X64711501Y20128605D01*
X64711506Y20128598D01*
X64878597Y19961507D01*
X64878603Y19961502D01*
X65064594Y19831270D01*
X65108219Y19776693D01*
X65115413Y19707195D01*
X65083890Y19644840D01*
X65064595Y19628120D01*
X64878922Y19498110D01*
X64878920Y19498109D01*
X64711891Y19331080D01*
X64711886Y19331074D01*
X64576400Y19137580D01*
X64576399Y19137578D01*
X64476570Y18923493D01*
X64476567Y18923487D01*
X64419364Y18710001D01*
X64419364Y18710000D01*
X65316314Y18710000D01*
X65290507Y18669844D01*
X65250000Y18531889D01*
X65250000Y18388111D01*
X65290507Y18250156D01*
X65316314Y18210000D01*
X64419364Y18210000D01*
X64476567Y17996514D01*
X64476570Y17996508D01*
X64576399Y17782422D01*
X64711894Y17588918D01*
X64878917Y17421895D01*
X65064595Y17291881D01*
X65108219Y17237304D01*
X65115412Y17167805D01*
X65083890Y17105451D01*
X65064595Y17088731D01*
X64878594Y16958492D01*
X64711505Y16791403D01*
X64575965Y16597831D01*
X64575964Y16597829D01*
X64476098Y16383665D01*
X64476094Y16383656D01*
X64414938Y16155414D01*
X64414936Y16155404D01*
X64394341Y15920001D01*
X64394341Y15920000D01*
X64414936Y15684597D01*
X64414938Y15684587D01*
X64476094Y15456345D01*
X64476096Y15456341D01*
X64476097Y15456337D01*
X64575965Y15242170D01*
X64575967Y15242166D01*
X64711501Y15048605D01*
X64711506Y15048598D01*
X64878597Y14881507D01*
X64878603Y14881502D01*
X65064158Y14751575D01*
X65107783Y14696998D01*
X65114977Y14627500D01*
X65083454Y14565145D01*
X65064158Y14548425D01*
X64878597Y14418495D01*
X64711505Y14251403D01*
X64575965Y14057831D01*
X64575964Y14057829D01*
X64476098Y13843665D01*
X64476094Y13843656D01*
X64414938Y13615414D01*
X64414936Y13615404D01*
X64394341Y13380001D01*
X64394341Y13380000D01*
X64414936Y13144597D01*
X64414938Y13144587D01*
X64476094Y12916345D01*
X64476096Y12916341D01*
X64476097Y12916337D01*
X64575965Y12702170D01*
X64575967Y12702166D01*
X64711501Y12508605D01*
X64711506Y12508598D01*
X64878597Y12341507D01*
X64878603Y12341502D01*
X65064594Y12211270D01*
X65108219Y12156693D01*
X65115413Y12087195D01*
X65083890Y12024840D01*
X65064595Y12008120D01*
X64878922Y11878110D01*
X64878920Y11878109D01*
X64711891Y11711080D01*
X64711886Y11711074D01*
X64576400Y11517580D01*
X64576399Y11517578D01*
X64476570Y11303493D01*
X64476567Y11303487D01*
X64419364Y11090001D01*
X64419364Y11090000D01*
X65316314Y11090000D01*
X65290507Y11049844D01*
X65250000Y10911889D01*
X65250000Y10768111D01*
X65290507Y10630156D01*
X65316314Y10590000D01*
X64419364Y10590000D01*
X64476567Y10376514D01*
X64476570Y10376508D01*
X64576399Y10162422D01*
X64711894Y9968918D01*
X64878917Y9801895D01*
X65072421Y9666400D01*
X65286507Y9566571D01*
X65286516Y9566567D01*
X65500000Y9509366D01*
X65500000Y10404499D01*
X65607685Y10355320D01*
X65714237Y10340000D01*
X65785763Y10340000D01*
X65892315Y10355320D01*
X66000000Y10404499D01*
X66000000Y9509367D01*
X66213483Y9566567D01*
X66213492Y9566571D01*
X66427578Y9666400D01*
X66621082Y9801895D01*
X66788105Y9968918D01*
X66923600Y10162422D01*
X67023429Y10376508D01*
X67023432Y10376514D01*
X67080636Y10590000D01*
X66183686Y10590000D01*
X66209493Y10630156D01*
X66250000Y10768111D01*
X66250000Y10911889D01*
X66209493Y11049844D01*
X66183686Y11090000D01*
X67080636Y11090000D01*
X67080635Y11090001D01*
X67023432Y11303487D01*
X67023429Y11303493D01*
X66923600Y11517578D01*
X66923599Y11517580D01*
X66788113Y11711074D01*
X66788108Y11711080D01*
X66621078Y11878110D01*
X66435405Y12008121D01*
X66391780Y12062698D01*
X66384588Y12132196D01*
X66416110Y12194551D01*
X66435406Y12211270D01*
X66621401Y12341505D01*
X66788495Y12508599D01*
X66924035Y12702170D01*
X67023903Y12916337D01*
X67085063Y13144592D01*
X67105659Y13380000D01*
X67085063Y13615408D01*
X67023903Y13843663D01*
X66924035Y14057829D01*
X66788495Y14251401D01*
X66788494Y14251403D01*
X66621402Y14418494D01*
X66621396Y14418499D01*
X66435842Y14548425D01*
X66392217Y14603002D01*
X66385023Y14672500D01*
X66416546Y14734855D01*
X66435842Y14751575D01*
X66458026Y14767109D01*
X66621401Y14881505D01*
X66788495Y15048599D01*
X66924035Y15242170D01*
X67023903Y15456337D01*
X67085063Y15684592D01*
X67105659Y15920000D01*
X67085063Y16155408D01*
X67023903Y16383663D01*
X66924035Y16597829D01*
X66788495Y16791401D01*
X66788494Y16791403D01*
X66621402Y16958494D01*
X66621401Y16958495D01*
X66435405Y17088731D01*
X66391781Y17143308D01*
X66384588Y17212807D01*
X66416110Y17275161D01*
X66435405Y17291881D01*
X66621082Y17421895D01*
X66788105Y17588918D01*
X66923600Y17782422D01*
X67023429Y17996508D01*
X67023432Y17996514D01*
X67080636Y18210000D01*
X66183686Y18210000D01*
X66209493Y18250156D01*
X66250000Y18388111D01*
X66250000Y18531889D01*
X66209493Y18669844D01*
X66183686Y18710000D01*
X67080636Y18710000D01*
X67080635Y18710001D01*
X67023432Y18923487D01*
X67023429Y18923493D01*
X66923600Y19137578D01*
X66923599Y19137580D01*
X66788113Y19331074D01*
X66788108Y19331080D01*
X66621078Y19498110D01*
X66435405Y19628121D01*
X66391780Y19682698D01*
X66384588Y19752196D01*
X66416110Y19814551D01*
X66435406Y19831270D01*
X66446243Y19838858D01*
X66621401Y19961505D01*
X66788495Y20128599D01*
X66924035Y20322170D01*
X67023903Y20536337D01*
X67085063Y20764592D01*
X67105659Y21000000D01*
X67085063Y21235408D01*
X67023903Y21463663D01*
X66924035Y21677829D01*
X66788495Y21871401D01*
X66788494Y21871403D01*
X66621402Y22038494D01*
X66621396Y22038499D01*
X66435842Y22168425D01*
X66392217Y22223002D01*
X66385023Y22292500D01*
X66416546Y22354855D01*
X66435842Y22371575D01*
X66458026Y22387109D01*
X66621401Y22501505D01*
X66788495Y22668599D01*
X66924035Y22862170D01*
X67023903Y23076337D01*
X67085063Y23304592D01*
X67105659Y23540000D01*
X67085063Y23775408D01*
X67023903Y24003663D01*
X66924035Y24217829D01*
X66788495Y24411401D01*
X66788494Y24411403D01*
X66621402Y24578494D01*
X66621396Y24578499D01*
X66435842Y24708425D01*
X66392217Y24763002D01*
X66385023Y24832500D01*
X66416546Y24894855D01*
X66435842Y24911575D01*
X66458026Y24927109D01*
X66621401Y25041505D01*
X66788495Y25208599D01*
X66924035Y25402170D01*
X67023903Y25616337D01*
X67085063Y25844592D01*
X67105659Y26080000D01*
X67085063Y26315408D01*
X67023903Y26543663D01*
X66924035Y26757829D01*
X66788495Y26951401D01*
X66788494Y26951403D01*
X66621402Y27118494D01*
X66621396Y27118499D01*
X66435842Y27248425D01*
X66392217Y27303002D01*
X66385023Y27372500D01*
X66416546Y27434855D01*
X66435842Y27451575D01*
X66458026Y27467109D01*
X66621401Y27581505D01*
X66788495Y27748599D01*
X66924035Y27942170D01*
X67023903Y28156337D01*
X67085063Y28384592D01*
X67105659Y28620000D01*
X67085063Y28855408D01*
X67023903Y29083663D01*
X66924035Y29297829D01*
X66788495Y29491401D01*
X66788494Y29491403D01*
X66621402Y29658494D01*
X66621396Y29658499D01*
X66435842Y29788425D01*
X66392217Y29843002D01*
X66385023Y29912500D01*
X66416546Y29974855D01*
X66435842Y29991575D01*
X66458026Y30007109D01*
X66621401Y30121505D01*
X66788495Y30288599D01*
X66924035Y30482170D01*
X67023903Y30696337D01*
X67085063Y30924592D01*
X67105659Y31160000D01*
X67085063Y31395408D01*
X67023903Y31623663D01*
X66924035Y31837829D01*
X66788495Y32031401D01*
X66788494Y32031403D01*
X66621402Y32198494D01*
X66621396Y32198499D01*
X66435842Y32328425D01*
X66392217Y32383002D01*
X66385023Y32452500D01*
X66416546Y32514855D01*
X66435842Y32531575D01*
X66458026Y32547109D01*
X66621401Y32661505D01*
X66788495Y32828599D01*
X66924035Y33022170D01*
X67023903Y33236337D01*
X67085063Y33464592D01*
X67105659Y33700000D01*
X67085063Y33935408D01*
X67023903Y34163663D01*
X66924035Y34377829D01*
X66788495Y34571401D01*
X66788494Y34571403D01*
X66621402Y34738494D01*
X66621396Y34738499D01*
X66435842Y34868425D01*
X66392217Y34923002D01*
X66385023Y34992500D01*
X66416546Y35054855D01*
X66435842Y35071575D01*
X66458026Y35087109D01*
X66621401Y35201505D01*
X66788495Y35368599D01*
X66924035Y35562170D01*
X67023903Y35776337D01*
X67085063Y36004592D01*
X67105659Y36240000D01*
X67085063Y36475408D01*
X67023903Y36703663D01*
X66924035Y36917829D01*
X66788495Y37111401D01*
X66788494Y37111403D01*
X66621402Y37278494D01*
X66621396Y37278499D01*
X66435842Y37408425D01*
X66392217Y37463002D01*
X66385023Y37532500D01*
X66416546Y37594855D01*
X66435842Y37611575D01*
X66458026Y37627109D01*
X66621401Y37741505D01*
X66788495Y37908599D01*
X66924035Y38102170D01*
X67023903Y38316337D01*
X67085063Y38544592D01*
X67105659Y38780000D01*
X67085063Y39015408D01*
X67023903Y39243663D01*
X66924035Y39457829D01*
X66914580Y39471333D01*
X66788494Y39651403D01*
X66621402Y39818494D01*
X66621401Y39818495D01*
X66435405Y39948731D01*
X66391781Y40003308D01*
X66384588Y40072807D01*
X66416110Y40135161D01*
X66435405Y40151881D01*
X66621082Y40281895D01*
X66788105Y40448918D01*
X66923600Y40642422D01*
X67023429Y40856508D01*
X67023432Y40856514D01*
X67080636Y41070000D01*
X66183686Y41070000D01*
X66209493Y41110156D01*
X66250000Y41248111D01*
X66250000Y41391889D01*
X66209493Y41529844D01*
X66183686Y41570000D01*
X67080636Y41570000D01*
X67080635Y41570001D01*
X67023432Y41783487D01*
X67023429Y41783493D01*
X66923600Y41997578D01*
X66923599Y41997580D01*
X66788113Y42191074D01*
X66788108Y42191080D01*
X66621078Y42358110D01*
X66435405Y42488121D01*
X66391780Y42542698D01*
X66384588Y42612196D01*
X66416110Y42674551D01*
X66435406Y42691270D01*
X66621401Y42821505D01*
X66788495Y42988599D01*
X66924035Y43182170D01*
X67023903Y43396337D01*
X67085063Y43624592D01*
X67105659Y43860000D01*
X67105559Y43861138D01*
X67085063Y44095404D01*
X67085063Y44095408D01*
X67023903Y44323663D01*
X66924035Y44537829D01*
X66788495Y44731401D01*
X66788494Y44731403D01*
X66621402Y44898494D01*
X66621396Y44898499D01*
X66435842Y45028425D01*
X66392217Y45083002D01*
X66385023Y45152500D01*
X66416546Y45214855D01*
X66435842Y45231575D01*
X66458026Y45247109D01*
X66621401Y45361505D01*
X66788495Y45528599D01*
X66924035Y45722170D01*
X67023903Y45936337D01*
X67085063Y46164592D01*
X67105659Y46400000D01*
X67085063Y46635408D01*
X67023903Y46863663D01*
X66924035Y47077829D01*
X66788495Y47271401D01*
X66788494Y47271403D01*
X66621402Y47438494D01*
X66621396Y47438499D01*
X66435842Y47568425D01*
X66392217Y47623002D01*
X66385023Y47692500D01*
X66416546Y47754855D01*
X66435842Y47771575D01*
X66470499Y47795842D01*
X66621401Y47901505D01*
X66788495Y48068599D01*
X66924035Y48262170D01*
X67023903Y48476337D01*
X67085063Y48704592D01*
X67105659Y48940000D01*
X67085063Y49175408D01*
X67023903Y49403663D01*
X66924035Y49617829D01*
X66914312Y49631716D01*
X66788494Y49811403D01*
X66621402Y49978494D01*
X66621396Y49978499D01*
X66435842Y50108425D01*
X66392217Y50163002D01*
X66385023Y50232500D01*
X66416546Y50294855D01*
X66435842Y50311575D01*
X66516822Y50368278D01*
X66621401Y50441505D01*
X66788495Y50608599D01*
X66924035Y50802170D01*
X67023903Y51016337D01*
X67085063Y51244592D01*
X67105659Y51480000D01*
X67085063Y51715408D01*
X67031639Y51914792D01*
X67023905Y51943656D01*
X67023904Y51943657D01*
X67023903Y51943663D01*
X66924035Y52157829D01*
X66895424Y52198691D01*
X66788494Y52351403D01*
X66621402Y52518494D01*
X66621396Y52518499D01*
X66435842Y52648425D01*
X66392217Y52703002D01*
X66385023Y52772500D01*
X66416546Y52834855D01*
X66435842Y52851575D01*
X66481181Y52883322D01*
X66621401Y52981505D01*
X66788495Y53148599D01*
X66924035Y53342170D01*
X67023903Y53556337D01*
X67085063Y53784592D01*
X67105659Y54020000D01*
X67085063Y54255408D01*
X67026516Y54473911D01*
X67023905Y54483656D01*
X67023904Y54483657D01*
X67023903Y54483663D01*
X66924035Y54697829D01*
X66918958Y54705081D01*
X66788494Y54891403D01*
X66621402Y55058494D01*
X66621396Y55058499D01*
X66435842Y55188425D01*
X66392217Y55243002D01*
X66385023Y55312500D01*
X66416546Y55374855D01*
X66435842Y55391575D01*
X66519995Y55450500D01*
X66621401Y55521505D01*
X66788495Y55688599D01*
X66924035Y55882170D01*
X67023903Y56096337D01*
X67085063Y56324592D01*
X67105659Y56560000D01*
X67085063Y56795408D01*
X67023903Y57023663D01*
X66924035Y57237829D01*
X66918717Y57245425D01*
X66788494Y57431403D01*
X66621402Y57598494D01*
X66621396Y57598499D01*
X66435842Y57728425D01*
X66392217Y57783002D01*
X66385023Y57852500D01*
X66416546Y57914855D01*
X66435842Y57931575D01*
X66492858Y57971498D01*
X66621401Y58061505D01*
X66788495Y58228599D01*
X66924035Y58422170D01*
X67023903Y58636337D01*
X67085063Y58864592D01*
X67105659Y59100000D01*
X67085063Y59335408D01*
X67024672Y59560792D01*
X67023905Y59563656D01*
X67023904Y59563657D01*
X67023903Y59563663D01*
X66924035Y59777829D01*
X66895503Y59818578D01*
X66788494Y59971403D01*
X66621402Y60138494D01*
X66621396Y60138499D01*
X66435842Y60268425D01*
X66392217Y60323002D01*
X66385023Y60392500D01*
X66416546Y60454855D01*
X66435842Y60471575D01*
X66458026Y60487109D01*
X66621401Y60601505D01*
X66788495Y60768599D01*
X66924035Y60962170D01*
X67023903Y61176337D01*
X67085063Y61404592D01*
X67105659Y61640000D01*
X67085063Y61875408D01*
X67023903Y62103663D01*
X66924035Y62317829D01*
X66888711Y62368278D01*
X66788494Y62511403D01*
X66621402Y62678494D01*
X66621396Y62678499D01*
X66435842Y62808425D01*
X66392217Y62863002D01*
X66385023Y62932500D01*
X66416546Y62994855D01*
X66435842Y63011575D01*
X66458026Y63027109D01*
X66621401Y63141505D01*
X66788495Y63308599D01*
X66924035Y63502170D01*
X67023903Y63716337D01*
X67085063Y63944592D01*
X67105659Y64180000D01*
X67085063Y64415408D01*
X67023903Y64643663D01*
X66924035Y64857829D01*
X66788495Y65051401D01*
X66788494Y65051403D01*
X66621402Y65218494D01*
X66621396Y65218499D01*
X66435842Y65348425D01*
X66392217Y65403002D01*
X66385023Y65472500D01*
X66416546Y65534855D01*
X66435842Y65551575D01*
X66470499Y65575842D01*
X66621401Y65681505D01*
X66788495Y65848599D01*
X66924035Y66042170D01*
X67023903Y66256337D01*
X67085063Y66484592D01*
X67105659Y66720000D01*
X67085063Y66955408D01*
X67023903Y67183663D01*
X66924035Y67397829D01*
X66788495Y67591401D01*
X66666179Y67713717D01*
X66632696Y67775037D01*
X66637680Y67844729D01*
X66679551Y67900663D01*
X66710529Y67917578D01*
X66842086Y67966646D01*
X66842093Y67966650D01*
X66957187Y68052810D01*
X66957190Y68052813D01*
X67043350Y68167907D01*
X67043354Y68167914D01*
X67093596Y68302621D01*
X67093598Y68302628D01*
X67099999Y68362156D01*
X67100000Y68362173D01*
X67100000Y69010000D01*
X66183686Y69010000D01*
X66209493Y69050156D01*
X66250000Y69188111D01*
X66250000Y69331889D01*
X66209493Y69469844D01*
X66183686Y69510000D01*
X67100000Y69510000D01*
X67100000Y70157828D01*
X67099999Y70157845D01*
X67093598Y70217373D01*
X67093596Y70217380D01*
X67043354Y70352087D01*
X67043350Y70352094D01*
X66957190Y70467188D01*
X66957187Y70467191D01*
X66842093Y70553351D01*
X66842086Y70553355D01*
X66707379Y70603597D01*
X66707372Y70603599D01*
X66647844Y70610000D01*
X66000000Y70610000D01*
X66000000Y69695502D01*
X65892315Y69744680D01*
X65785763Y69760000D01*
X65714237Y69760000D01*
X65607685Y69744680D01*
X65500000Y69695502D01*
X65500000Y70610000D01*
X64852155Y70610000D01*
X64792627Y70603599D01*
X64792620Y70603597D01*
X64657913Y70553355D01*
X64657906Y70553351D01*
X64542812Y70467191D01*
X64542809Y70467188D01*
X64456649Y70352094D01*
X64456645Y70352087D01*
X64406403Y70217380D01*
X64406401Y70217373D01*
X64400000Y70157845D01*
X64400000Y69510000D01*
X65316314Y69510000D01*
X65290507Y69469844D01*
X65250000Y69331889D01*
X65250000Y69188111D01*
X65290507Y69050156D01*
X65316314Y69010000D01*
X64400000Y69010000D01*
X64400000Y68362156D01*
X64406401Y68302628D01*
X64406403Y68302621D01*
X64456645Y68167914D01*
X64456649Y68167907D01*
X64542809Y68052813D01*
X64542812Y68052810D01*
X64657906Y67966650D01*
X64657913Y67966646D01*
X64789470Y67917579D01*
X64845403Y67875708D01*
X64869821Y67810244D01*
X64854970Y67741971D01*
X64833819Y67713716D01*
X64711503Y67591400D01*
X64575965Y67397831D01*
X64575964Y67397829D01*
X64476098Y67183665D01*
X64476094Y67183656D01*
X64414938Y66955414D01*
X64414936Y66955404D01*
X64394341Y66720001D01*
X64394341Y66720000D01*
X64414936Y66484597D01*
X64414938Y66484587D01*
X64476094Y66256345D01*
X64476096Y66256341D01*
X64476097Y66256337D01*
X64550308Y66097191D01*
X64575965Y66042170D01*
X64575967Y66042166D01*
X64711501Y65848605D01*
X64711506Y65848598D01*
X64878597Y65681507D01*
X64878603Y65681502D01*
X65064158Y65551575D01*
X65107783Y65496998D01*
X65114977Y65427500D01*
X65083454Y65365145D01*
X65064158Y65348425D01*
X64878597Y65218495D01*
X64711505Y65051403D01*
X64575965Y64857831D01*
X64575964Y64857829D01*
X64476098Y64643665D01*
X64476094Y64643656D01*
X64414938Y64415414D01*
X64414936Y64415404D01*
X64394341Y64180001D01*
X64394341Y64180000D01*
X64414936Y63944597D01*
X64414938Y63944587D01*
X64476094Y63716345D01*
X64476096Y63716341D01*
X64476097Y63716337D01*
X64491730Y63682813D01*
X64575965Y63502170D01*
X64575967Y63502166D01*
X64711501Y63308605D01*
X64711506Y63308598D01*
X64878597Y63141507D01*
X64878603Y63141502D01*
X65064158Y63011575D01*
X65107783Y62956998D01*
X65114977Y62887500D01*
X65083454Y62825145D01*
X65064158Y62808425D01*
X64878597Y62678495D01*
X64711505Y62511403D01*
X64575965Y62317831D01*
X64575964Y62317829D01*
X64476098Y62103665D01*
X64476094Y62103656D01*
X64414938Y61875414D01*
X64414936Y61875404D01*
X64394341Y61640001D01*
X64394341Y61640000D01*
X64414936Y61404597D01*
X64414938Y61404587D01*
X64476094Y61176345D01*
X64476096Y61176341D01*
X64476097Y61176337D01*
X64493574Y61138858D01*
X64575965Y60962170D01*
X64575967Y60962166D01*
X64675077Y60820623D01*
X64697404Y60754417D01*
X64680394Y60686650D01*
X64629446Y60638837D01*
X64573502Y60625500D01*
X24703748Y60625500D01*
X24636709Y60645185D01*
X24611600Y60666526D01*
X24605873Y60672886D01*
X24605869Y60672890D01*
X24452734Y60784149D01*
X24452729Y60784152D01*
X24279807Y60861143D01*
X24279802Y60861145D01*
X24134001Y60892135D01*
X24094646Y60900500D01*
X23905354Y60900500D01*
X23872897Y60893602D01*
X23720197Y60861145D01*
X23720192Y60861143D01*
X23547270Y60784152D01*
X23547265Y60784149D01*
X23394129Y60672889D01*
X23267466Y60532215D01*
X23172821Y60368285D01*
X23172818Y60368278D01*
X23114327Y60188260D01*
X23114326Y60188256D01*
X23094540Y60000000D01*
X23114326Y59811744D01*
X23114327Y59811741D01*
X23172818Y59631723D01*
X23172821Y59631716D01*
X23267467Y59467784D01*
X23369185Y59354815D01*
X23394129Y59327112D01*
X23547265Y59215852D01*
X23547270Y59215849D01*
X23720192Y59138858D01*
X23720197Y59138856D01*
X23905354Y59099500D01*
X23905355Y59099500D01*
X24094644Y59099500D01*
X24094646Y59099500D01*
X24279803Y59138856D01*
X24452730Y59215849D01*
X24605871Y59327112D01*
X24609332Y59330956D01*
X24611600Y59333474D01*
X24671087Y59370121D01*
X24703748Y59374500D01*
X57604381Y59374500D01*
X57671420Y59354815D01*
X57717175Y59302011D01*
X57727119Y59232853D01*
X57716763Y59198097D01*
X57708931Y59181300D01*
X57626097Y59003665D01*
X57626094Y59003656D01*
X57564938Y58775414D01*
X57564936Y58775404D01*
X57544341Y58540001D01*
X57544341Y58540000D01*
X57564936Y58304597D01*
X57564938Y58304587D01*
X57626094Y58076345D01*
X57626096Y58076341D01*
X57626097Y58076337D01*
X57650738Y58023495D01*
X57672463Y57976905D01*
X57682955Y57907827D01*
X57654435Y57844043D01*
X57595959Y57805804D01*
X57560081Y57800500D01*
X21442367Y57800500D01*
X21391931Y57811221D01*
X21279807Y57861143D01*
X21279802Y57861145D01*
X21134001Y57892135D01*
X21094646Y57900500D01*
X20905354Y57900500D01*
X20872897Y57893602D01*
X20720197Y57861145D01*
X20720192Y57861143D01*
X20547270Y57784152D01*
X20547265Y57784149D01*
X20394129Y57672889D01*
X20267466Y57532215D01*
X20172821Y57368285D01*
X20172818Y57368278D01*
X20114501Y57188794D01*
X20114326Y57188256D01*
X20094540Y57000000D01*
X20114326Y56811744D01*
X20114327Y56811741D01*
X20172818Y56631723D01*
X20172821Y56631716D01*
X20267467Y56467784D01*
X20298381Y56433451D01*
X20394129Y56327112D01*
X20547265Y56215852D01*
X20547270Y56215849D01*
X20720192Y56138858D01*
X20720197Y56138856D01*
X20905354Y56099500D01*
X20905355Y56099500D01*
X21094644Y56099500D01*
X21094646Y56099500D01*
X21279803Y56138856D01*
X21452730Y56215849D01*
X21605871Y56327112D01*
X21732533Y56467784D01*
X21743916Y56487501D01*
X21794482Y56535715D01*
X21851303Y56549500D01*
X57426000Y56549500D01*
X57493039Y56529815D01*
X57538794Y56477011D01*
X57550000Y56425500D01*
X57550000Y56250000D01*
X58454428Y56250000D01*
X58431318Y56214040D01*
X58390000Y56073327D01*
X58390000Y55926673D01*
X58431318Y55785960D01*
X58454428Y55750000D01*
X57550000Y55750000D01*
X57550000Y55574500D01*
X57530315Y55507461D01*
X57477511Y55461706D01*
X57426000Y55450500D01*
X15851303Y55450500D01*
X15784264Y55470185D01*
X15743916Y55512500D01*
X15732533Y55532216D01*
X15605871Y55672888D01*
X15584247Y55688599D01*
X15452734Y55784149D01*
X15452729Y55784152D01*
X15279807Y55861143D01*
X15279802Y55861145D01*
X15134001Y55892135D01*
X15094646Y55900500D01*
X14905354Y55900500D01*
X14872897Y55893602D01*
X14720197Y55861145D01*
X14720192Y55861143D01*
X14547270Y55784152D01*
X14547265Y55784149D01*
X14394129Y55672889D01*
X14267466Y55532215D01*
X14172821Y55368285D01*
X14172818Y55368278D01*
X14114381Y55188425D01*
X14114326Y55188256D01*
X14100688Y55058495D01*
X14094540Y55000000D01*
X14098438Y54962910D01*
X14085868Y54894180D01*
X14038135Y54843157D01*
X13985930Y54826422D01*
X13977053Y54825645D01*
X13973862Y54825501D01*
X13973851Y54825500D01*
X13973845Y54825500D01*
X13927671Y54821345D01*
X13919826Y54820639D01*
X13812020Y54811207D01*
X13811468Y54811109D01*
X13806275Y54810419D01*
X13805812Y54810378D01*
X13805809Y54810377D01*
X13702002Y54781727D01*
X13600659Y54754572D01*
X13593739Y54752054D01*
X13589050Y54750556D01*
X13588849Y54750501D01*
X13588832Y54750495D01*
X13494528Y54705081D01*
X13402358Y54662101D01*
X13397670Y54659394D01*
X13397598Y54659519D01*
X13386871Y54653236D01*
X13386030Y54652832D01*
X13303831Y54593111D01*
X13223123Y54536599D01*
X13222241Y54535716D01*
X13207461Y54523094D01*
X13203928Y54520528D01*
X13203916Y54520517D01*
X13168683Y54483665D01*
X13135868Y54449344D01*
X13113379Y54426856D01*
X13068403Y54381880D01*
X13068402Y54381879D01*
X13065711Y54378035D01*
X13053773Y54363479D01*
X13048368Y54357826D01*
X13027476Y54326178D01*
X12995828Y54278232D01*
X12943587Y54203622D01*
X12942898Y54202638D01*
X12942891Y54202626D01*
X12939457Y54195262D01*
X12930572Y54179372D01*
X12924362Y54169965D01*
X12924362Y54169964D01*
X12897129Y54106248D01*
X12888108Y54085142D01*
X12880331Y54068464D01*
X12850425Y54004331D01*
X12850424Y54004329D01*
X12847425Y53993140D01*
X12841681Y53976525D01*
X12835899Y53962995D01*
X12835896Y53962984D01*
X12816063Y53876093D01*
X12793793Y53792978D01*
X12793793Y53792977D01*
X12792112Y53773774D01*
X12790793Y53765381D01*
X12789492Y53759677D01*
X12785809Y53743541D01*
X12785809Y53743536D01*
X12781949Y53657603D01*
X12774723Y53575004D01*
X12774723Y53574997D01*
X12776688Y53552530D01*
X12776862Y53544340D01*
X12775709Y53518676D01*
X12775710Y53518672D01*
X12786641Y53437969D01*
X12786966Y53435051D01*
X12793792Y53357028D01*
X12793795Y53357013D01*
X12800482Y53332059D01*
X12802034Y53324330D01*
X12805924Y53295619D01*
X12805926Y53295608D01*
X12830075Y53221287D01*
X12830997Y53218175D01*
X12850423Y53145676D01*
X12850427Y53145664D01*
X12862736Y53119268D01*
X12865512Y53112221D01*
X12875483Y53081536D01*
X12910970Y53015589D01*
X12912558Y53012424D01*
X12942898Y52947361D01*
X12961490Y52920809D01*
X12965303Y52914622D01*
X12982146Y52883322D01*
X12982152Y52883313D01*
X13026792Y52827337D01*
X13029106Y52824242D01*
X13052854Y52790328D01*
X13068402Y52768123D01*
X13068405Y52768120D01*
X13093646Y52742879D01*
X13098283Y52737691D01*
X13122492Y52707334D01*
X13173959Y52662368D01*
X13177008Y52659517D01*
X13223116Y52613408D01*
X13223122Y52613403D01*
X13223123Y52613402D01*
X13233479Y52606151D01*
X13255055Y52591043D01*
X13260290Y52586943D01*
X13292004Y52559235D01*
X13292013Y52559229D01*
X13347849Y52525869D01*
X13351613Y52523432D01*
X13402359Y52487899D01*
X13402364Y52487896D01*
X13424917Y52477380D01*
X13440677Y52470031D01*
X13446271Y52467065D01*
X13483349Y52444912D01*
X13485236Y52443785D01*
X13497437Y52439206D01*
X13543083Y52422075D01*
X13547503Y52420218D01*
X13600670Y52395425D01*
X13600674Y52395423D01*
X13627728Y52388175D01*
X13644677Y52383634D01*
X13650413Y52381793D01*
X13657581Y52379103D01*
X13695976Y52364693D01*
X13753545Y52354246D01*
X13758511Y52353132D01*
X13812023Y52338793D01*
X13860689Y52334536D01*
X13866306Y52333782D01*
X13917453Y52324500D01*
X13972691Y52324500D01*
X13978092Y52324265D01*
X14006548Y52321775D01*
X14029998Y52319723D01*
X14030000Y52319723D01*
X14082992Y52324360D01*
X14086121Y52324500D01*
X14086155Y52324500D01*
X14140172Y52329362D01*
X14247977Y52338793D01*
X14248000Y52338800D01*
X14248475Y52338883D01*
X14253713Y52339581D01*
X14254188Y52339623D01*
X14357997Y52368274D01*
X14459330Y52395425D01*
X14459337Y52395429D01*
X14466254Y52397947D01*
X14470948Y52399446D01*
X14471170Y52399507D01*
X14471181Y52399513D01*
X14471183Y52399513D01*
X14565454Y52444912D01*
X14601349Y52461650D01*
X14657639Y52487898D01*
X14657644Y52487903D01*
X14662327Y52490605D01*
X14662400Y52490478D01*
X14673164Y52496782D01*
X14673973Y52497171D01*
X14756156Y52556882D01*
X14836877Y52613402D01*
X14837747Y52614273D01*
X14852550Y52626916D01*
X14856078Y52629478D01*
X14858225Y52631723D01*
X14924131Y52700657D01*
X14991592Y52768117D01*
X14991592Y52768118D01*
X14991598Y52768123D01*
X14994285Y52771961D01*
X15006239Y52786535D01*
X15011629Y52792172D01*
X15011628Y52792172D01*
X15011632Y52792175D01*
X15064164Y52871759D01*
X15117102Y52947361D01*
X15120543Y52954741D01*
X15129432Y52970636D01*
X15135635Y52980032D01*
X15171889Y53064854D01*
X15209575Y53145670D01*
X15212570Y53156852D01*
X15218325Y53173495D01*
X15224103Y53187012D01*
X15243936Y53273908D01*
X15266207Y53357023D01*
X15267887Y53376234D01*
X15269206Y53384623D01*
X15269445Y53385675D01*
X15274191Y53406463D01*
X15278050Y53492398D01*
X15285277Y53575000D01*
X15283310Y53597472D01*
X15283137Y53605666D01*
X15284290Y53631330D01*
X15273353Y53712061D01*
X15273034Y53714933D01*
X15266207Y53792977D01*
X15259515Y53817947D01*
X15257963Y53825678D01*
X15254076Y53854382D01*
X15254075Y53854384D01*
X15254075Y53854387D01*
X15231817Y53922888D01*
X15229921Y53928724D01*
X15229003Y53931820D01*
X15212266Y53994287D01*
X15213929Y54064137D01*
X15253093Y54121999D01*
X15281605Y54139658D01*
X15391931Y54188779D01*
X15442367Y54199500D01*
X57560081Y54199500D01*
X57627120Y54179815D01*
X57672875Y54127011D01*
X57682819Y54057853D01*
X57672463Y54023095D01*
X57626098Y53923665D01*
X57626094Y53923656D01*
X57564938Y53695414D01*
X57564936Y53695404D01*
X57544341Y53460001D01*
X57544341Y53460000D01*
X57564936Y53224597D01*
X57564938Y53224587D01*
X57626094Y52996345D01*
X57626096Y52996341D01*
X57626097Y52996337D01*
X57708930Y52818701D01*
X57725965Y52782170D01*
X57725967Y52782166D01*
X57856586Y52595623D01*
X57878913Y52529417D01*
X57861903Y52461650D01*
X57810955Y52413837D01*
X57755011Y52400500D01*
X53908460Y52400500D01*
X53841421Y52420185D01*
X53795666Y52472989D01*
X53785722Y52542147D01*
X53801072Y52586498D01*
X53827179Y52631716D01*
X53885674Y52811744D01*
X53905460Y53000000D01*
X53885674Y53188256D01*
X53827179Y53368284D01*
X53732533Y53532216D01*
X53605871Y53672888D01*
X53605870Y53672889D01*
X53452734Y53784149D01*
X53452729Y53784152D01*
X53279807Y53861143D01*
X53279802Y53861145D01*
X53134001Y53892135D01*
X53094646Y53900500D01*
X52905354Y53900500D01*
X52872897Y53893602D01*
X52720197Y53861145D01*
X52720192Y53861143D01*
X52547270Y53784152D01*
X52547265Y53784149D01*
X52394130Y53672890D01*
X52394126Y53672886D01*
X52388400Y53666526D01*
X52328913Y53629879D01*
X52296252Y53625500D01*
X44703748Y53625500D01*
X44636709Y53645185D01*
X44611600Y53666526D01*
X44605873Y53672886D01*
X44605869Y53672890D01*
X44452734Y53784149D01*
X44452729Y53784152D01*
X44279807Y53861143D01*
X44279802Y53861145D01*
X44134001Y53892135D01*
X44094646Y53900500D01*
X43905354Y53900500D01*
X43872897Y53893602D01*
X43720197Y53861145D01*
X43720192Y53861143D01*
X43547270Y53784152D01*
X43547265Y53784149D01*
X43394129Y53672889D01*
X43267466Y53532215D01*
X43172821Y53368285D01*
X43172818Y53368278D01*
X43124047Y53218175D01*
X43114326Y53188256D01*
X43094540Y53000000D01*
X43114326Y52811744D01*
X43114327Y52811741D01*
X43172818Y52631723D01*
X43172821Y52631716D01*
X43198927Y52586499D01*
X43215400Y52518600D01*
X43192548Y52452573D01*
X43137626Y52409383D01*
X43091540Y52400500D01*
X19857738Y52400500D01*
X19842121Y52402224D01*
X19842094Y52401938D01*
X19834332Y52402673D01*
X19765204Y52400500D01*
X19735650Y52400500D01*
X19734929Y52400410D01*
X19728757Y52399631D01*
X19722945Y52399174D01*
X19676373Y52397710D01*
X19676372Y52397710D01*
X19657129Y52392119D01*
X19638079Y52388175D01*
X19618211Y52385666D01*
X19574884Y52368512D01*
X19569358Y52366621D01*
X19524614Y52353621D01*
X19524610Y52353619D01*
X19507366Y52343421D01*
X19489905Y52334867D01*
X19471274Y52327490D01*
X19471262Y52327483D01*
X19433570Y52300098D01*
X19428687Y52296891D01*
X19388580Y52273171D01*
X19374414Y52259005D01*
X19359624Y52246373D01*
X19343414Y52234596D01*
X19343411Y52234593D01*
X19313710Y52198691D01*
X19309777Y52194369D01*
X18052228Y50936819D01*
X17990905Y50903334D01*
X17964547Y50900500D01*
X17905354Y50900500D01*
X17872897Y50893602D01*
X17720197Y50861145D01*
X17720192Y50861143D01*
X17547270Y50784152D01*
X17547265Y50784149D01*
X17394130Y50672890D01*
X17394126Y50672886D01*
X17388400Y50666526D01*
X17328913Y50629879D01*
X17296252Y50625500D01*
X4703748Y50625500D01*
X4636709Y50645185D01*
X4611600Y50666526D01*
X4605873Y50672886D01*
X4605869Y50672890D01*
X4452734Y50784149D01*
X4452729Y50784152D01*
X4279807Y50861143D01*
X4279802Y50861145D01*
X4134001Y50892135D01*
X4094646Y50900500D01*
X3905354Y50900500D01*
X3872897Y50893602D01*
X3720197Y50861145D01*
X3720192Y50861143D01*
X3547270Y50784152D01*
X3547265Y50784149D01*
X3394129Y50672889D01*
X3267466Y50532215D01*
X3172821Y50368285D01*
X3172818Y50368278D01*
X3122100Y50212182D01*
X3114326Y50188256D01*
X3094540Y50000000D01*
X500Y50000000D01*
X500Y53275000D01*
X9594700Y53275000D01*
X9597359Y53242903D01*
X9601955Y53187433D01*
X9605819Y53096477D01*
X9605820Y53096466D01*
X9610939Y53072716D01*
X9612120Y53064767D01*
X9613865Y53043699D01*
X9613865Y53043696D01*
X9613866Y53043695D01*
X9636205Y52955480D01*
X9643677Y52920809D01*
X9656046Y52863418D01*
X9663883Y52843916D01*
X9666458Y52836013D01*
X9670844Y52818697D01*
X9708655Y52732496D01*
X9744934Y52642213D01*
X9744935Y52642212D01*
X9754232Y52627112D01*
X9758218Y52619505D01*
X9764076Y52606150D01*
X9817275Y52524723D01*
X9869930Y52439206D01*
X9876543Y52431692D01*
X9887263Y52417598D01*
X9889721Y52413837D01*
X9891021Y52411847D01*
X9959027Y52337972D01*
X10027436Y52260245D01*
X10032564Y52256105D01*
X10045882Y52243623D01*
X10048216Y52241087D01*
X10129933Y52177485D01*
X10212920Y52110477D01*
X10212922Y52110476D01*
X10215678Y52108936D01*
X10231360Y52098540D01*
X10231367Y52098535D01*
X10231371Y52098533D01*
X10231374Y52098530D01*
X10324885Y52047925D01*
X10325162Y52047775D01*
X10421046Y51994210D01*
X10423849Y51992942D01*
X10430695Y51989903D01*
X10430794Y51990127D01*
X10435490Y51988068D01*
X10435497Y51988064D01*
X10539276Y51952437D01*
X10645829Y51914789D01*
X10646398Y51914692D01*
X10651129Y51913688D01*
X10655007Y51912706D01*
X10655019Y51912702D01*
X10766324Y51894129D01*
X10880791Y51874501D01*
X10880800Y51874500D01*
X11116044Y51874500D01*
X11116049Y51874500D01*
X11149073Y51880012D01*
X11172469Y51883915D01*
X11177407Y51884537D01*
X11237541Y51889654D01*
X11289615Y51903214D01*
X11295017Y51904366D01*
X11344981Y51912702D01*
X11402186Y51932342D01*
X11406663Y51933691D01*
X11468249Y51949725D01*
X11474249Y51952437D01*
X11479262Y51954704D01*
X11514297Y51970541D01*
X11519681Y51972678D01*
X11564503Y51988064D01*
X11620554Y52018399D01*
X11624527Y52020368D01*
X11633156Y52024270D01*
X11685486Y52047923D01*
X11724647Y52074392D01*
X11729820Y52077531D01*
X11768626Y52098530D01*
X11821532Y52139710D01*
X11824850Y52142119D01*
X11883003Y52181421D01*
X11914770Y52211869D01*
X11919548Y52215998D01*
X11951784Y52241087D01*
X11954109Y52243612D01*
X11969420Y52260245D01*
X11999389Y52292802D01*
X12002101Y52295568D01*
X12055118Y52346379D01*
X12079329Y52379117D01*
X12083540Y52384215D01*
X12108979Y52411847D01*
X12149206Y52473422D01*
X12151241Y52476348D01*
X12196879Y52538053D01*
X12213733Y52571483D01*
X12217170Y52577448D01*
X12235924Y52606151D01*
X12266805Y52676555D01*
X12268174Y52679462D01*
X12304207Y52750926D01*
X12314208Y52783587D01*
X12316701Y52790306D01*
X12329157Y52818700D01*
X12348827Y52896379D01*
X12349635Y52899268D01*
X12374016Y52978877D01*
X12377936Y53009492D01*
X12379330Y53016830D01*
X12386134Y53043695D01*
X12393132Y53128155D01*
X12404298Y53215346D01*
X12403126Y53242921D01*
X12403281Y53250645D01*
X12405300Y53275000D01*
X12403592Y53295608D01*
X12398044Y53362568D01*
X12394180Y53453526D01*
X12394180Y53453532D01*
X12389059Y53477291D01*
X12387879Y53485238D01*
X12387286Y53492398D01*
X12386134Y53506305D01*
X12386133Y53506308D01*
X12386133Y53506312D01*
X12368738Y53575000D01*
X12363794Y53594521D01*
X12343954Y53686581D01*
X12336115Y53706088D01*
X12333541Y53713985D01*
X12329157Y53731300D01*
X12291344Y53817505D01*
X12255064Y53907790D01*
X12245768Y53922888D01*
X12241779Y53930500D01*
X12235924Y53943849D01*
X12182724Y54025279D01*
X12130071Y54110792D01*
X12130070Y54110793D01*
X12130069Y54110795D01*
X12123451Y54118314D01*
X12112727Y54132416D01*
X12108978Y54138155D01*
X12040972Y54212029D01*
X11972565Y54289754D01*
X11967439Y54293893D01*
X11954117Y54306379D01*
X11951785Y54308912D01*
X11951783Y54308914D01*
X11870066Y54372516D01*
X11787080Y54439523D01*
X11787073Y54439528D01*
X11784311Y54441071D01*
X11768643Y54451458D01*
X11768634Y54451465D01*
X11768628Y54451468D01*
X11768626Y54451470D01*
X11674837Y54502226D01*
X11578954Y54555790D01*
X11578953Y54555791D01*
X11578952Y54555791D01*
X11576381Y54556953D01*
X11569284Y54560102D01*
X11569188Y54559881D01*
X11564506Y54561935D01*
X11460723Y54597564D01*
X11354168Y54635212D01*
X11354160Y54635214D01*
X11353612Y54635308D01*
X11348889Y54636309D01*
X11344989Y54637297D01*
X11233675Y54655872D01*
X11119209Y54675500D01*
X11119200Y54675500D01*
X11116049Y54675500D01*
X10883951Y54675500D01*
X10883950Y54675500D01*
X10827533Y54666087D01*
X10822587Y54665465D01*
X10820099Y54665253D01*
X10762469Y54660348D01*
X10762461Y54660347D01*
X10710397Y54646792D01*
X10704981Y54645637D01*
X10655013Y54637297D01*
X10597840Y54617669D01*
X10593330Y54616310D01*
X10531749Y54600275D01*
X10531744Y54600273D01*
X10485711Y54579465D01*
X10480304Y54577320D01*
X10435503Y54561940D01*
X10435498Y54561937D01*
X10379448Y54531605D01*
X10375478Y54529637D01*
X10314514Y54502078D01*
X10275359Y54475615D01*
X10270149Y54472456D01*
X10231379Y54451474D01*
X10231367Y54451467D01*
X10178487Y54410308D01*
X10175124Y54407867D01*
X10117001Y54368583D01*
X10116994Y54368578D01*
X10085248Y54338153D01*
X10080430Y54333989D01*
X10048218Y54308915D01*
X10048209Y54308907D01*
X10000613Y54257205D01*
X9997900Y54254436D01*
X9944882Y54203622D01*
X9944880Y54203620D01*
X9920681Y54170902D01*
X9916448Y54165777D01*
X9891022Y54138155D01*
X9850797Y54076588D01*
X9848741Y54073633D01*
X9803124Y54011953D01*
X9803120Y54011946D01*
X9786268Y53978525D01*
X9782811Y53972528D01*
X9764076Y53943851D01*
X9733219Y53873504D01*
X9731803Y53870497D01*
X9695790Y53799069D01*
X9685792Y53766427D01*
X9683288Y53759677D01*
X9670845Y53731309D01*
X9670845Y53731308D01*
X9651178Y53653653D01*
X9650358Y53650721D01*
X9625984Y53571124D01*
X9625983Y53571121D01*
X9622063Y53540515D01*
X9620668Y53533170D01*
X9613867Y53506312D01*
X9613864Y53506295D01*
X9606867Y53421846D01*
X9595702Y53334656D01*
X9595701Y53334656D01*
X9596872Y53307100D01*
X9596716Y53299345D01*
X9594700Y53275005D01*
X9594700Y53275000D01*
X500Y53275000D01*
X500Y58725000D01*
X9594700Y58725000D01*
X9599642Y58665347D01*
X9601955Y58637433D01*
X9605819Y58546477D01*
X9605820Y58546466D01*
X9610939Y58522716D01*
X9612120Y58514767D01*
X9613865Y58493699D01*
X9636205Y58405481D01*
X9656046Y58313418D01*
X9663883Y58293916D01*
X9666458Y58286013D01*
X9670844Y58268697D01*
X9708655Y58182496D01*
X9744934Y58092213D01*
X9744935Y58092212D01*
X9754232Y58077112D01*
X9758218Y58069505D01*
X9764076Y58056150D01*
X9817275Y57974723D01*
X9869930Y57889206D01*
X9876543Y57881692D01*
X9887263Y57867598D01*
X9888576Y57865589D01*
X9891021Y57861847D01*
X9959027Y57787972D01*
X10027436Y57710245D01*
X10032564Y57706105D01*
X10045882Y57693623D01*
X10048216Y57691087D01*
X10129933Y57627485D01*
X10212920Y57560477D01*
X10212922Y57560476D01*
X10215678Y57558936D01*
X10231360Y57548540D01*
X10231367Y57548535D01*
X10231371Y57548533D01*
X10231374Y57548530D01*
X10324885Y57497925D01*
X10325162Y57497775D01*
X10421046Y57444210D01*
X10423849Y57442942D01*
X10430695Y57439903D01*
X10430794Y57440127D01*
X10435490Y57438068D01*
X10435497Y57438064D01*
X10539276Y57402437D01*
X10645829Y57364789D01*
X10646398Y57364692D01*
X10651129Y57363688D01*
X10655007Y57362706D01*
X10655019Y57362702D01*
X10766324Y57344129D01*
X10880791Y57324501D01*
X10880800Y57324500D01*
X11116044Y57324500D01*
X11116049Y57324500D01*
X11149073Y57330012D01*
X11172469Y57333915D01*
X11177407Y57334537D01*
X11237541Y57339654D01*
X11289615Y57353214D01*
X11295017Y57354366D01*
X11344981Y57362702D01*
X11402186Y57382342D01*
X11406663Y57383691D01*
X11468249Y57399725D01*
X11474249Y57402437D01*
X11484082Y57406882D01*
X11514297Y57420541D01*
X11519681Y57422678D01*
X11564503Y57438064D01*
X11620554Y57468399D01*
X11624527Y57470368D01*
X11633156Y57474270D01*
X11685486Y57497923D01*
X11724647Y57524392D01*
X11729820Y57527531D01*
X11768626Y57548530D01*
X11821532Y57589710D01*
X11824850Y57592119D01*
X11883003Y57631421D01*
X11914770Y57661869D01*
X11919548Y57665998D01*
X11951784Y57691087D01*
X11954109Y57693612D01*
X11969420Y57710245D01*
X11999389Y57742802D01*
X12002101Y57745568D01*
X12055118Y57796379D01*
X12079329Y57829117D01*
X12083540Y57834215D01*
X12108979Y57861847D01*
X12109348Y57862411D01*
X12149205Y57923419D01*
X12151241Y57926348D01*
X12196879Y57988053D01*
X12213733Y58021483D01*
X12217170Y58027448D01*
X12235924Y58056151D01*
X12266805Y58126555D01*
X12268174Y58129462D01*
X12304207Y58200926D01*
X12314208Y58233587D01*
X12316701Y58240306D01*
X12329157Y58268700D01*
X12348827Y58346379D01*
X12349635Y58349268D01*
X12372828Y58424997D01*
X12774723Y58424997D01*
X12776688Y58402530D01*
X12776862Y58394340D01*
X12775709Y58368676D01*
X12775710Y58368672D01*
X12786641Y58287969D01*
X12786966Y58285051D01*
X12793792Y58207028D01*
X12793795Y58207013D01*
X12800482Y58182059D01*
X12802034Y58174330D01*
X12805924Y58145619D01*
X12805926Y58145608D01*
X12830075Y58071287D01*
X12830997Y58068175D01*
X12850423Y57995676D01*
X12850427Y57995664D01*
X12862736Y57969268D01*
X12865512Y57962221D01*
X12875483Y57931536D01*
X12910970Y57865589D01*
X12912558Y57862424D01*
X12942898Y57797361D01*
X12961490Y57770809D01*
X12965303Y57764622D01*
X12982146Y57733322D01*
X12982152Y57733313D01*
X13026792Y57677337D01*
X13029106Y57674242D01*
X13060296Y57629699D01*
X13068402Y57618123D01*
X13068405Y57618120D01*
X13093646Y57592879D01*
X13098283Y57587691D01*
X13122492Y57557334D01*
X13173959Y57512368D01*
X13177008Y57509517D01*
X13223116Y57463408D01*
X13223122Y57463403D01*
X13223123Y57463402D01*
X13234802Y57455225D01*
X13255055Y57441043D01*
X13260290Y57436943D01*
X13292004Y57409235D01*
X13292013Y57409229D01*
X13347849Y57375869D01*
X13351613Y57373432D01*
X13402359Y57337899D01*
X13402364Y57337896D01*
X13410902Y57333915D01*
X13440677Y57320031D01*
X13446271Y57317065D01*
X13483349Y57294912D01*
X13485236Y57293785D01*
X13503828Y57286808D01*
X13543083Y57272075D01*
X13547503Y57270218D01*
X13600670Y57245425D01*
X13600674Y57245423D01*
X13629012Y57237831D01*
X13644677Y57233634D01*
X13650413Y57231793D01*
X13667264Y57225469D01*
X13695976Y57214693D01*
X13753545Y57204246D01*
X13758511Y57203132D01*
X13812023Y57188793D01*
X13860689Y57184536D01*
X13866306Y57183782D01*
X13917453Y57174500D01*
X13972691Y57174500D01*
X13978092Y57174265D01*
X14006548Y57171775D01*
X14029998Y57169723D01*
X14030000Y57169723D01*
X14082992Y57174360D01*
X14086121Y57174500D01*
X14086155Y57174500D01*
X14140172Y57179362D01*
X14247977Y57188793D01*
X14248000Y57188800D01*
X14248475Y57188883D01*
X14253713Y57189581D01*
X14254188Y57189623D01*
X14357997Y57218274D01*
X14459330Y57245425D01*
X14459337Y57245429D01*
X14466254Y57247947D01*
X14470948Y57249446D01*
X14471170Y57249507D01*
X14471181Y57249513D01*
X14471183Y57249513D01*
X14565454Y57294912D01*
X14657639Y57337898D01*
X14657644Y57337903D01*
X14662327Y57340605D01*
X14662400Y57340478D01*
X14673164Y57346782D01*
X14673973Y57347171D01*
X14756156Y57406882D01*
X14836877Y57463402D01*
X14837747Y57464273D01*
X14852550Y57476916D01*
X14856078Y57479478D01*
X14873572Y57497775D01*
X14924131Y57550657D01*
X14991592Y57618117D01*
X14991592Y57618118D01*
X14991598Y57618123D01*
X14994285Y57621961D01*
X15006239Y57636535D01*
X15011629Y57642172D01*
X15011628Y57642172D01*
X15011632Y57642175D01*
X15064164Y57721759D01*
X15117102Y57797361D01*
X15120543Y57804741D01*
X15129432Y57820636D01*
X15135635Y57830032D01*
X15171889Y57914854D01*
X15209575Y57995670D01*
X15212570Y58006852D01*
X15218325Y58023495D01*
X15220024Y58027469D01*
X15224103Y58037012D01*
X15243936Y58123908D01*
X15266207Y58207023D01*
X15267887Y58226234D01*
X15269206Y58234623D01*
X15270508Y58240328D01*
X15274191Y58256463D01*
X15278050Y58342398D01*
X15285277Y58425000D01*
X15283310Y58447472D01*
X15283137Y58455666D01*
X15284290Y58481330D01*
X15273353Y58562061D01*
X15273034Y58564933D01*
X15266207Y58642977D01*
X15259515Y58667947D01*
X15257963Y58675678D01*
X15254076Y58704382D01*
X15254075Y58704384D01*
X15254075Y58704387D01*
X15236947Y58757100D01*
X15229921Y58778724D01*
X15228998Y58781839D01*
X15209576Y58854327D01*
X15209574Y58854331D01*
X15197266Y58880726D01*
X15194488Y58887778D01*
X15184519Y58918459D01*
X15184517Y58918463D01*
X15184517Y58918464D01*
X15171988Y58941747D01*
X15149027Y58984417D01*
X15147432Y58987595D01*
X15132338Y59019964D01*
X15117102Y59052638D01*
X15098512Y59079187D01*
X15094698Y59085375D01*
X15086828Y59100000D01*
X15077852Y59116681D01*
X15033192Y59172682D01*
X15030896Y59175753D01*
X14991598Y59231877D01*
X14966353Y59257122D01*
X14961715Y59262311D01*
X14937508Y59292666D01*
X14929866Y59299343D01*
X14886039Y59337634D01*
X14882990Y59340485D01*
X14836878Y59386598D01*
X14804940Y59408961D01*
X14799705Y59413061D01*
X14785542Y59425435D01*
X14767996Y59440765D01*
X14767994Y59440767D01*
X14767992Y59440768D01*
X14712149Y59474132D01*
X14708386Y59476569D01*
X14657641Y59512101D01*
X14632911Y59523633D01*
X14619332Y59529966D01*
X14613735Y59532933D01*
X14574769Y59556213D01*
X14574767Y59556214D01*
X14516928Y59577921D01*
X14512515Y59579774D01*
X14459330Y59604575D01*
X14415321Y59616368D01*
X14409581Y59618210D01*
X14364025Y59635308D01*
X14306456Y59645755D01*
X14301480Y59646872D01*
X14247977Y59661207D01*
X14199327Y59665464D01*
X14193659Y59666225D01*
X14142551Y59675500D01*
X14142547Y59675500D01*
X14087309Y59675500D01*
X14081907Y59675736D01*
X14053451Y59678226D01*
X14030002Y59680277D01*
X14029997Y59680277D01*
X13977050Y59675645D01*
X13973862Y59675501D01*
X13973851Y59675500D01*
X13973845Y59675500D01*
X13927671Y59671345D01*
X13919826Y59670639D01*
X13812020Y59661207D01*
X13811468Y59661109D01*
X13806275Y59660419D01*
X13805812Y59660378D01*
X13805809Y59660377D01*
X13702002Y59631727D01*
X13600659Y59604572D01*
X13593739Y59602054D01*
X13589050Y59600556D01*
X13588849Y59600501D01*
X13588832Y59600495D01*
X13494528Y59555081D01*
X13402358Y59512101D01*
X13397670Y59509394D01*
X13397598Y59509519D01*
X13386871Y59503236D01*
X13386030Y59502832D01*
X13303831Y59443111D01*
X13223123Y59386599D01*
X13222241Y59385716D01*
X13207461Y59373094D01*
X13203928Y59370528D01*
X13203916Y59370517D01*
X13172477Y59337634D01*
X13135868Y59299344D01*
X13113379Y59276856D01*
X13068403Y59231880D01*
X13068402Y59231879D01*
X13065711Y59228035D01*
X13053773Y59213479D01*
X13048368Y59207826D01*
X13030864Y59181308D01*
X12995828Y59128232D01*
X12942898Y59052638D01*
X12942891Y59052626D01*
X12939457Y59045262D01*
X12930572Y59029372D01*
X12924362Y59019965D01*
X12924362Y59019964D01*
X12897157Y58956312D01*
X12888108Y58935142D01*
X12884445Y58927286D01*
X12850425Y58854331D01*
X12850424Y58854329D01*
X12847425Y58843140D01*
X12841681Y58826525D01*
X12835899Y58812995D01*
X12835896Y58812984D01*
X12816063Y58726093D01*
X12793793Y58642978D01*
X12793793Y58642977D01*
X12792112Y58623774D01*
X12790793Y58615375D01*
X12785809Y58593541D01*
X12785809Y58593536D01*
X12781949Y58507603D01*
X12774723Y58425004D01*
X12774723Y58424997D01*
X12372828Y58424997D01*
X12374016Y58428877D01*
X12377936Y58459492D01*
X12379330Y58466830D01*
X12386134Y58493695D01*
X12393132Y58578155D01*
X12404298Y58665346D01*
X12403126Y58692921D01*
X12403281Y58700645D01*
X12405300Y58725000D01*
X12405209Y58726093D01*
X12398044Y58812568D01*
X12394180Y58903526D01*
X12394180Y58903532D01*
X12389059Y58927291D01*
X12387879Y58935238D01*
X12386134Y58956305D01*
X12386133Y58956308D01*
X12386133Y58956312D01*
X12363794Y59044520D01*
X12362045Y59052637D01*
X12343954Y59136581D01*
X12336115Y59156088D01*
X12333541Y59163985D01*
X12329157Y59181300D01*
X12291344Y59267505D01*
X12255064Y59357790D01*
X12248041Y59369196D01*
X12245768Y59372888D01*
X12241779Y59380500D01*
X12235924Y59393849D01*
X12182724Y59475279D01*
X12130071Y59560792D01*
X12130070Y59560793D01*
X12130069Y59560795D01*
X12123451Y59568314D01*
X12112727Y59582416D01*
X12108978Y59588155D01*
X12040972Y59662029D01*
X11972565Y59739754D01*
X11967439Y59743893D01*
X11954117Y59756379D01*
X11951785Y59758912D01*
X11951783Y59758914D01*
X11870066Y59822516D01*
X11787080Y59889523D01*
X11787073Y59889528D01*
X11784311Y59891071D01*
X11768643Y59901458D01*
X11768634Y59901465D01*
X11768628Y59901468D01*
X11768626Y59901470D01*
X11674837Y59952226D01*
X11578954Y60005790D01*
X11578953Y60005791D01*
X11578952Y60005791D01*
X11576381Y60006953D01*
X11569284Y60010102D01*
X11569188Y60009881D01*
X11564506Y60011935D01*
X11460723Y60047564D01*
X11354168Y60085212D01*
X11354160Y60085214D01*
X11353612Y60085308D01*
X11348889Y60086309D01*
X11344989Y60087297D01*
X11233675Y60105872D01*
X11119209Y60125500D01*
X11119200Y60125500D01*
X11116049Y60125500D01*
X10883951Y60125500D01*
X10883950Y60125500D01*
X10827533Y60116087D01*
X10822587Y60115465D01*
X10820099Y60115253D01*
X10762469Y60110348D01*
X10762461Y60110347D01*
X10710397Y60096792D01*
X10704981Y60095637D01*
X10655013Y60087297D01*
X10597840Y60067669D01*
X10593330Y60066310D01*
X10531749Y60050275D01*
X10531744Y60050273D01*
X10485711Y60029465D01*
X10480304Y60027320D01*
X10435503Y60011940D01*
X10435498Y60011937D01*
X10379448Y59981605D01*
X10375478Y59979637D01*
X10314514Y59952078D01*
X10275359Y59925615D01*
X10270149Y59922456D01*
X10231379Y59901474D01*
X10231367Y59901467D01*
X10178487Y59860308D01*
X10175124Y59857867D01*
X10117001Y59818583D01*
X10116994Y59818578D01*
X10085248Y59788153D01*
X10080430Y59783989D01*
X10048218Y59758915D01*
X10048209Y59758907D01*
X10000613Y59707205D01*
X9997900Y59704436D01*
X9944882Y59653622D01*
X9944880Y59653620D01*
X9920681Y59620902D01*
X9916448Y59615777D01*
X9891022Y59588155D01*
X9850797Y59526588D01*
X9848741Y59523633D01*
X9803124Y59461953D01*
X9803120Y59461946D01*
X9786268Y59428525D01*
X9782811Y59422528D01*
X9764076Y59393851D01*
X9733219Y59323504D01*
X9731803Y59320497D01*
X9695790Y59249069D01*
X9685792Y59216427D01*
X9683288Y59209677D01*
X9670845Y59181309D01*
X9670845Y59181308D01*
X9651178Y59103653D01*
X9650358Y59100721D01*
X9625984Y59021124D01*
X9625983Y59021121D01*
X9622063Y58990515D01*
X9620668Y58983170D01*
X9613867Y58956312D01*
X9613864Y58956295D01*
X9606867Y58871846D01*
X9595702Y58784656D01*
X9595701Y58784656D01*
X9596872Y58757100D01*
X9596716Y58749345D01*
X9594700Y58725005D01*
X9594700Y58725000D01*
X500Y58725000D01*
X500Y62000000D01*
X20094540Y62000000D01*
X20114326Y61811744D01*
X20114327Y61811741D01*
X20172818Y61631723D01*
X20172821Y61631716D01*
X20267467Y61467784D01*
X20369185Y61354815D01*
X20394129Y61327112D01*
X20547265Y61215852D01*
X20547270Y61215849D01*
X20720192Y61138858D01*
X20720197Y61138856D01*
X20905354Y61099500D01*
X20905355Y61099500D01*
X21094644Y61099500D01*
X21094646Y61099500D01*
X21279803Y61138856D01*
X21452730Y61215849D01*
X21605871Y61327112D01*
X21608788Y61330353D01*
X21611600Y61333474D01*
X21671087Y61370121D01*
X21703748Y61374500D01*
X61296252Y61374500D01*
X61363291Y61354815D01*
X61388400Y61333474D01*
X61394126Y61327115D01*
X61394130Y61327111D01*
X61547265Y61215852D01*
X61547270Y61215849D01*
X61720192Y61138858D01*
X61720197Y61138856D01*
X61905354Y61099500D01*
X61905355Y61099500D01*
X62094644Y61099500D01*
X62094646Y61099500D01*
X62279803Y61138856D01*
X62452730Y61215849D01*
X62605871Y61327112D01*
X62732533Y61467784D01*
X62827179Y61631716D01*
X62885674Y61811744D01*
X62905460Y62000000D01*
X62885674Y62188256D01*
X62827179Y62368284D01*
X62732533Y62532216D01*
X62605871Y62672888D01*
X62605870Y62672889D01*
X62452734Y62784149D01*
X62452729Y62784152D01*
X62279807Y62861143D01*
X62279802Y62861145D01*
X62134001Y62892135D01*
X62094646Y62900500D01*
X61905354Y62900500D01*
X61872897Y62893602D01*
X61720197Y62861145D01*
X61720192Y62861143D01*
X61547270Y62784152D01*
X61547265Y62784149D01*
X61394130Y62672890D01*
X61394126Y62672886D01*
X61388400Y62666526D01*
X61328913Y62629879D01*
X61296252Y62625500D01*
X21703748Y62625500D01*
X21636709Y62645185D01*
X21611600Y62666526D01*
X21605873Y62672886D01*
X21605869Y62672890D01*
X21452734Y62784149D01*
X21452729Y62784152D01*
X21279807Y62861143D01*
X21279802Y62861145D01*
X21134001Y62892135D01*
X21094646Y62900500D01*
X20905354Y62900500D01*
X20872897Y62893602D01*
X20720197Y62861145D01*
X20720192Y62861143D01*
X20547270Y62784152D01*
X20547265Y62784149D01*
X20394129Y62672889D01*
X20267466Y62532215D01*
X20172821Y62368285D01*
X20172818Y62368278D01*
X20114327Y62188260D01*
X20114326Y62188256D01*
X20094540Y62000000D01*
X500Y62000000D01*
X500Y64890000D01*
X9514341Y64890000D01*
X9534936Y64654597D01*
X9534938Y64654587D01*
X9596094Y64426345D01*
X9596096Y64426341D01*
X9596097Y64426337D01*
X9676004Y64254977D01*
X9695965Y64212170D01*
X9695967Y64212166D01*
X9804281Y64057479D01*
X9831505Y64018599D01*
X9998599Y63851505D01*
X10075135Y63797914D01*
X10192165Y63715968D01*
X10192167Y63715967D01*
X10192170Y63715965D01*
X10406337Y63616097D01*
X10634592Y63554937D01*
X10805319Y63540000D01*
X10869999Y63534341D01*
X10870000Y63534341D01*
X10870001Y63534341D01*
X10934681Y63540000D01*
X11105408Y63554937D01*
X11333663Y63616097D01*
X11547830Y63715965D01*
X11741401Y63851505D01*
X11908495Y64018599D01*
X12038425Y64204158D01*
X12093002Y64247783D01*
X12162500Y64254977D01*
X12224855Y64223454D01*
X12241575Y64204158D01*
X12371500Y64018605D01*
X12371505Y64018599D01*
X12538599Y63851505D01*
X12615135Y63797914D01*
X12732165Y63715968D01*
X12732167Y63715967D01*
X12732170Y63715965D01*
X12946337Y63616097D01*
X13174592Y63554937D01*
X13345319Y63540000D01*
X13409999Y63534341D01*
X13410000Y63534341D01*
X13410001Y63534341D01*
X13474681Y63540000D01*
X13645408Y63554937D01*
X13873663Y63616097D01*
X14087830Y63715965D01*
X14281401Y63851505D01*
X14403717Y63973822D01*
X14465036Y64007304D01*
X14534728Y64002320D01*
X14590662Y63960449D01*
X14607577Y63929472D01*
X14656646Y63797912D01*
X14656649Y63797907D01*
X14742809Y63682813D01*
X14742812Y63682810D01*
X14857906Y63596650D01*
X14857913Y63596646D01*
X14992620Y63546404D01*
X14992627Y63546402D01*
X15052155Y63540001D01*
X15052172Y63540000D01*
X15700000Y63540000D01*
X15700000Y64443506D01*
X15804839Y64395627D01*
X15913527Y64380000D01*
X15986473Y64380000D01*
X16095161Y64395627D01*
X16200000Y64443506D01*
X16200000Y63540000D01*
X16847828Y63540000D01*
X16847844Y63540001D01*
X16907372Y63546402D01*
X16907379Y63546404D01*
X17042086Y63596646D01*
X17042093Y63596650D01*
X17157187Y63682810D01*
X17157190Y63682813D01*
X17243350Y63797907D01*
X17243354Y63797914D01*
X17292422Y63929471D01*
X17334293Y63985405D01*
X17399757Y64009822D01*
X17468030Y63994970D01*
X17496285Y63973819D01*
X17618599Y63851505D01*
X17695135Y63797914D01*
X17812165Y63715968D01*
X17812167Y63715967D01*
X17812170Y63715965D01*
X18026337Y63616097D01*
X18254592Y63554937D01*
X18425319Y63540000D01*
X18489999Y63534341D01*
X18490000Y63534341D01*
X18490001Y63534341D01*
X18554681Y63540000D01*
X18725408Y63554937D01*
X18953663Y63616097D01*
X19167830Y63715965D01*
X19361401Y63851505D01*
X19528495Y64018599D01*
X19658425Y64204158D01*
X19713002Y64247783D01*
X19782500Y64254977D01*
X19844855Y64223454D01*
X19861575Y64204158D01*
X19991500Y64018605D01*
X19991505Y64018599D01*
X20158599Y63851505D01*
X20235135Y63797914D01*
X20352165Y63715968D01*
X20352167Y63715967D01*
X20352170Y63715965D01*
X20566337Y63616097D01*
X20794592Y63554937D01*
X20965319Y63540000D01*
X21029999Y63534341D01*
X21030000Y63534341D01*
X21030001Y63534341D01*
X21094681Y63540000D01*
X21265408Y63554937D01*
X21493663Y63616097D01*
X21707830Y63715965D01*
X21901401Y63851505D01*
X22068495Y64018599D01*
X22198425Y64204158D01*
X22253002Y64247783D01*
X22322500Y64254977D01*
X22384855Y64223454D01*
X22401575Y64204158D01*
X22531500Y64018605D01*
X22531505Y64018599D01*
X22698599Y63851505D01*
X22775135Y63797914D01*
X22892165Y63715968D01*
X22892167Y63715967D01*
X22892170Y63715965D01*
X23106337Y63616097D01*
X23334592Y63554937D01*
X23505319Y63540000D01*
X23569999Y63534341D01*
X23570000Y63534341D01*
X23570001Y63534341D01*
X23634681Y63540000D01*
X23805408Y63554937D01*
X24033663Y63616097D01*
X24247830Y63715965D01*
X24441401Y63851505D01*
X24608495Y64018599D01*
X24738425Y64204158D01*
X24793002Y64247783D01*
X24862500Y64254977D01*
X24924855Y64223454D01*
X24941575Y64204158D01*
X25071500Y64018605D01*
X25071505Y64018599D01*
X25238599Y63851505D01*
X25315135Y63797914D01*
X25432165Y63715968D01*
X25432167Y63715967D01*
X25432170Y63715965D01*
X25646337Y63616097D01*
X25874592Y63554937D01*
X26045319Y63540000D01*
X26109999Y63534341D01*
X26110000Y63534341D01*
X26110001Y63534341D01*
X26174681Y63540000D01*
X26345408Y63554937D01*
X26573663Y63616097D01*
X26787830Y63715965D01*
X26981401Y63851505D01*
X27103717Y63973822D01*
X27165036Y64007304D01*
X27234728Y64002320D01*
X27290662Y63960449D01*
X27307577Y63929472D01*
X27356646Y63797912D01*
X27356649Y63797907D01*
X27442809Y63682813D01*
X27442812Y63682810D01*
X27557906Y63596650D01*
X27557913Y63596646D01*
X27692620Y63546404D01*
X27692627Y63546402D01*
X27752155Y63540001D01*
X27752172Y63540000D01*
X28400000Y63540000D01*
X28400000Y64443506D01*
X28504839Y64395627D01*
X28613527Y64380000D01*
X28686473Y64380000D01*
X28795161Y64395627D01*
X28900000Y64443506D01*
X28900000Y63540000D01*
X29547828Y63540000D01*
X29547844Y63540001D01*
X29607372Y63546402D01*
X29607379Y63546404D01*
X29742086Y63596646D01*
X29742093Y63596650D01*
X29857187Y63682810D01*
X29857190Y63682813D01*
X29943350Y63797907D01*
X29943354Y63797914D01*
X29992422Y63929471D01*
X30034293Y63985405D01*
X30099757Y64009822D01*
X30168030Y63994970D01*
X30196285Y63973819D01*
X30318599Y63851505D01*
X30395135Y63797914D01*
X30512165Y63715968D01*
X30512167Y63715967D01*
X30512170Y63715965D01*
X30726337Y63616097D01*
X30954592Y63554937D01*
X31125319Y63540000D01*
X31189999Y63534341D01*
X31190000Y63534341D01*
X31190001Y63534341D01*
X31254681Y63540000D01*
X31425408Y63554937D01*
X31653663Y63616097D01*
X31867830Y63715965D01*
X32061401Y63851505D01*
X32228495Y64018599D01*
X32358425Y64204158D01*
X32413002Y64247783D01*
X32482500Y64254977D01*
X32544855Y64223454D01*
X32561575Y64204158D01*
X32691500Y64018605D01*
X32691505Y64018599D01*
X32858599Y63851505D01*
X32935135Y63797914D01*
X33052165Y63715968D01*
X33052167Y63715967D01*
X33052170Y63715965D01*
X33266337Y63616097D01*
X33494592Y63554937D01*
X33665319Y63540000D01*
X33729999Y63534341D01*
X33730000Y63534341D01*
X33730001Y63534341D01*
X33794681Y63540000D01*
X33965408Y63554937D01*
X34193663Y63616097D01*
X34407830Y63715965D01*
X34601401Y63851505D01*
X34768495Y64018599D01*
X34898425Y64204158D01*
X34953002Y64247783D01*
X35022500Y64254977D01*
X35084855Y64223454D01*
X35101575Y64204158D01*
X35231500Y64018605D01*
X35231505Y64018599D01*
X35398599Y63851505D01*
X35475135Y63797914D01*
X35592165Y63715968D01*
X35592167Y63715967D01*
X35592170Y63715965D01*
X35806337Y63616097D01*
X36034592Y63554937D01*
X36205319Y63540000D01*
X36269999Y63534341D01*
X36270000Y63534341D01*
X36270001Y63534341D01*
X36334681Y63540000D01*
X36505408Y63554937D01*
X36733663Y63616097D01*
X36947830Y63715965D01*
X37141401Y63851505D01*
X37308495Y64018599D01*
X37438425Y64204158D01*
X37493002Y64247783D01*
X37562500Y64254977D01*
X37624855Y64223454D01*
X37641575Y64204158D01*
X37771500Y64018605D01*
X37771505Y64018599D01*
X37938599Y63851505D01*
X38015135Y63797914D01*
X38132165Y63715968D01*
X38132167Y63715967D01*
X38132170Y63715965D01*
X38346337Y63616097D01*
X38574592Y63554937D01*
X38745319Y63540000D01*
X38809999Y63534341D01*
X38810000Y63534341D01*
X38810001Y63534341D01*
X38874681Y63540000D01*
X39045408Y63554937D01*
X39273663Y63616097D01*
X39487830Y63715965D01*
X39681401Y63851505D01*
X39803717Y63973822D01*
X39865036Y64007304D01*
X39934728Y64002320D01*
X39990662Y63960449D01*
X40007577Y63929472D01*
X40056646Y63797912D01*
X40056649Y63797907D01*
X40142809Y63682813D01*
X40142812Y63682810D01*
X40257906Y63596650D01*
X40257913Y63596646D01*
X40392620Y63546404D01*
X40392627Y63546402D01*
X40452155Y63540001D01*
X40452172Y63540000D01*
X41100000Y63540000D01*
X41100000Y64443506D01*
X41204839Y64395627D01*
X41313527Y64380000D01*
X41386473Y64380000D01*
X41495161Y64395627D01*
X41600000Y64443506D01*
X41600000Y63540000D01*
X42247828Y63540000D01*
X42247844Y63540001D01*
X42307372Y63546402D01*
X42307379Y63546404D01*
X42442086Y63596646D01*
X42442093Y63596650D01*
X42557187Y63682810D01*
X42557190Y63682813D01*
X42643350Y63797907D01*
X42643354Y63797914D01*
X42692422Y63929471D01*
X42734293Y63985405D01*
X42799757Y64009822D01*
X42868030Y63994970D01*
X42896285Y63973819D01*
X43018599Y63851505D01*
X43095135Y63797914D01*
X43212165Y63715968D01*
X43212167Y63715967D01*
X43212170Y63715965D01*
X43426337Y63616097D01*
X43654592Y63554937D01*
X43825319Y63540000D01*
X43889999Y63534341D01*
X43890000Y63534341D01*
X43890001Y63534341D01*
X43954681Y63540000D01*
X44125408Y63554937D01*
X44353663Y63616097D01*
X44567830Y63715965D01*
X44761401Y63851505D01*
X44928495Y64018599D01*
X45058425Y64204158D01*
X45113002Y64247783D01*
X45182500Y64254977D01*
X45244855Y64223454D01*
X45261575Y64204158D01*
X45391500Y64018605D01*
X45391505Y64018599D01*
X45558599Y63851505D01*
X45635135Y63797914D01*
X45752165Y63715968D01*
X45752167Y63715967D01*
X45752170Y63715965D01*
X45966337Y63616097D01*
X46194592Y63554937D01*
X46365319Y63540000D01*
X46429999Y63534341D01*
X46430000Y63534341D01*
X46430001Y63534341D01*
X46494681Y63540000D01*
X46665408Y63554937D01*
X46893663Y63616097D01*
X47107830Y63715965D01*
X47301401Y63851505D01*
X47468495Y64018599D01*
X47598425Y64204158D01*
X47653002Y64247783D01*
X47722500Y64254977D01*
X47784855Y64223454D01*
X47801575Y64204158D01*
X47931500Y64018605D01*
X47931505Y64018599D01*
X48098599Y63851505D01*
X48175135Y63797914D01*
X48292165Y63715968D01*
X48292167Y63715967D01*
X48292170Y63715965D01*
X48506337Y63616097D01*
X48734592Y63554937D01*
X48905319Y63540000D01*
X48969999Y63534341D01*
X48970000Y63534341D01*
X48970001Y63534341D01*
X49034681Y63540000D01*
X49205408Y63554937D01*
X49433663Y63616097D01*
X49647830Y63715965D01*
X49841401Y63851505D01*
X50008495Y64018599D01*
X50138425Y64204158D01*
X50193002Y64247783D01*
X50262500Y64254977D01*
X50324855Y64223454D01*
X50341575Y64204158D01*
X50471500Y64018605D01*
X50471505Y64018599D01*
X50638599Y63851505D01*
X50715135Y63797914D01*
X50832165Y63715968D01*
X50832167Y63715967D01*
X50832170Y63715965D01*
X51046337Y63616097D01*
X51274592Y63554937D01*
X51445319Y63540000D01*
X51509999Y63534341D01*
X51510000Y63534341D01*
X51510001Y63534341D01*
X51574681Y63540000D01*
X51745408Y63554937D01*
X51973663Y63616097D01*
X52187830Y63715965D01*
X52381401Y63851505D01*
X52503717Y63973822D01*
X52565036Y64007304D01*
X52634728Y64002320D01*
X52690662Y63960449D01*
X52707577Y63929472D01*
X52756646Y63797912D01*
X52756649Y63797907D01*
X52842809Y63682813D01*
X52842812Y63682810D01*
X52957906Y63596650D01*
X52957913Y63596646D01*
X53092620Y63546404D01*
X53092627Y63546402D01*
X53152155Y63540001D01*
X53152172Y63540000D01*
X53800000Y63540000D01*
X53800000Y64443506D01*
X53904839Y64395627D01*
X54013527Y64380000D01*
X54086473Y64380000D01*
X54195161Y64395627D01*
X54300000Y64443506D01*
X54300000Y63540000D01*
X54947828Y63540000D01*
X54947844Y63540001D01*
X55007372Y63546402D01*
X55007379Y63546404D01*
X55142086Y63596646D01*
X55142093Y63596650D01*
X55257187Y63682810D01*
X55257190Y63682813D01*
X55343350Y63797907D01*
X55343354Y63797914D01*
X55392422Y63929471D01*
X55434293Y63985405D01*
X55499757Y64009822D01*
X55568030Y63994970D01*
X55596285Y63973819D01*
X55718599Y63851505D01*
X55795135Y63797914D01*
X55912165Y63715968D01*
X55912167Y63715967D01*
X55912170Y63715965D01*
X56126337Y63616097D01*
X56354592Y63554937D01*
X56525319Y63540000D01*
X56589999Y63534341D01*
X56590000Y63534341D01*
X56590001Y63534341D01*
X56654681Y63540000D01*
X56825408Y63554937D01*
X57053663Y63616097D01*
X57267830Y63715965D01*
X57461401Y63851505D01*
X57628495Y64018599D01*
X57758425Y64204158D01*
X57813002Y64247783D01*
X57882500Y64254977D01*
X57944855Y64223454D01*
X57961575Y64204158D01*
X58091500Y64018605D01*
X58091505Y64018599D01*
X58258599Y63851505D01*
X58335135Y63797914D01*
X58452165Y63715968D01*
X58452167Y63715967D01*
X58452170Y63715965D01*
X58666337Y63616097D01*
X58894592Y63554937D01*
X59065319Y63540000D01*
X59129999Y63534341D01*
X59130000Y63534341D01*
X59130001Y63534341D01*
X59194681Y63540000D01*
X59365408Y63554937D01*
X59593663Y63616097D01*
X59807830Y63715965D01*
X60001401Y63851505D01*
X60168495Y64018599D01*
X60304035Y64212170D01*
X60403903Y64426337D01*
X60465063Y64654592D01*
X60485659Y64890000D01*
X60465063Y65125408D01*
X60403903Y65353663D01*
X60304035Y65567829D01*
X60298425Y65575842D01*
X60168494Y65761403D01*
X60001402Y65928494D01*
X60001395Y65928499D01*
X59807834Y66064033D01*
X59807830Y66064035D01*
X59736727Y66097191D01*
X59593663Y66163903D01*
X59593659Y66163904D01*
X59593655Y66163906D01*
X59365413Y66225062D01*
X59365403Y66225064D01*
X59130001Y66245659D01*
X59129999Y66245659D01*
X58894596Y66225064D01*
X58894586Y66225062D01*
X58666344Y66163906D01*
X58666335Y66163902D01*
X58452171Y66064036D01*
X58452169Y66064035D01*
X58258597Y65928495D01*
X58091505Y65761403D01*
X57961575Y65575842D01*
X57906998Y65532217D01*
X57837500Y65525023D01*
X57775145Y65556546D01*
X57758425Y65575842D01*
X57628494Y65761403D01*
X57461402Y65928494D01*
X57461395Y65928499D01*
X57267834Y66064033D01*
X57267830Y66064035D01*
X57196727Y66097191D01*
X57053663Y66163903D01*
X57053659Y66163904D01*
X57053655Y66163906D01*
X56825413Y66225062D01*
X56825403Y66225064D01*
X56590001Y66245659D01*
X56589999Y66245659D01*
X56354596Y66225064D01*
X56354586Y66225062D01*
X56126344Y66163906D01*
X56126335Y66163902D01*
X55912171Y66064036D01*
X55912169Y66064035D01*
X55718600Y65928497D01*
X55596284Y65806181D01*
X55534961Y65772697D01*
X55465269Y65777681D01*
X55409336Y65819553D01*
X55392421Y65850530D01*
X55343354Y65982087D01*
X55343350Y65982094D01*
X55257190Y66097188D01*
X55257187Y66097191D01*
X55142093Y66183351D01*
X55142086Y66183355D01*
X55007379Y66233597D01*
X55007372Y66233599D01*
X54947844Y66240000D01*
X54300000Y66240000D01*
X54300000Y65336495D01*
X54195161Y65384373D01*
X54086473Y65400000D01*
X54013527Y65400000D01*
X53904839Y65384373D01*
X53800000Y65336495D01*
X53800000Y66240000D01*
X53152155Y66240000D01*
X53092627Y66233599D01*
X53092620Y66233597D01*
X52957913Y66183355D01*
X52957906Y66183351D01*
X52842812Y66097191D01*
X52842809Y66097188D01*
X52756649Y65982094D01*
X52756645Y65982087D01*
X52707578Y65850530D01*
X52665707Y65794596D01*
X52600242Y65770179D01*
X52531969Y65785031D01*
X52503715Y65806181D01*
X52459366Y65850530D01*
X52381401Y65928495D01*
X52381397Y65928498D01*
X52381396Y65928499D01*
X52187834Y66064033D01*
X52187830Y66064035D01*
X52116727Y66097191D01*
X51973663Y66163903D01*
X51973659Y66163904D01*
X51973655Y66163906D01*
X51745413Y66225062D01*
X51745403Y66225064D01*
X51510001Y66245659D01*
X51509999Y66245659D01*
X51274596Y66225064D01*
X51274586Y66225062D01*
X51046344Y66163906D01*
X51046335Y66163902D01*
X50832171Y66064036D01*
X50832169Y66064035D01*
X50638597Y65928495D01*
X50471505Y65761403D01*
X50341575Y65575842D01*
X50286998Y65532217D01*
X50217500Y65525023D01*
X50155145Y65556546D01*
X50138425Y65575842D01*
X50008494Y65761403D01*
X49841402Y65928494D01*
X49841395Y65928499D01*
X49647834Y66064033D01*
X49647830Y66064035D01*
X49576727Y66097191D01*
X49433663Y66163903D01*
X49433659Y66163904D01*
X49433655Y66163906D01*
X49205413Y66225062D01*
X49205403Y66225064D01*
X48970001Y66245659D01*
X48969999Y66245659D01*
X48734596Y66225064D01*
X48734586Y66225062D01*
X48506344Y66163906D01*
X48506335Y66163902D01*
X48292171Y66064036D01*
X48292169Y66064035D01*
X48098597Y65928495D01*
X47931505Y65761403D01*
X47801575Y65575842D01*
X47746998Y65532217D01*
X47677500Y65525023D01*
X47615145Y65556546D01*
X47598425Y65575842D01*
X47468494Y65761403D01*
X47301402Y65928494D01*
X47301395Y65928499D01*
X47107834Y66064033D01*
X47107830Y66064035D01*
X47036727Y66097191D01*
X46893663Y66163903D01*
X46893659Y66163904D01*
X46893655Y66163906D01*
X46665413Y66225062D01*
X46665403Y66225064D01*
X46430001Y66245659D01*
X46429999Y66245659D01*
X46194596Y66225064D01*
X46194586Y66225062D01*
X45966344Y66163906D01*
X45966335Y66163902D01*
X45752171Y66064036D01*
X45752169Y66064035D01*
X45558597Y65928495D01*
X45391505Y65761403D01*
X45261575Y65575842D01*
X45206998Y65532217D01*
X45137500Y65525023D01*
X45075145Y65556546D01*
X45058425Y65575842D01*
X44928494Y65761403D01*
X44761402Y65928494D01*
X44761395Y65928499D01*
X44567834Y66064033D01*
X44567830Y66064035D01*
X44496727Y66097191D01*
X44353663Y66163903D01*
X44353659Y66163904D01*
X44353655Y66163906D01*
X44125413Y66225062D01*
X44125403Y66225064D01*
X43890001Y66245659D01*
X43889999Y66245659D01*
X43654596Y66225064D01*
X43654586Y66225062D01*
X43426344Y66163906D01*
X43426335Y66163902D01*
X43212171Y66064036D01*
X43212169Y66064035D01*
X43018600Y65928497D01*
X42896284Y65806181D01*
X42834961Y65772697D01*
X42765269Y65777681D01*
X42709336Y65819553D01*
X42692421Y65850530D01*
X42643354Y65982087D01*
X42643350Y65982094D01*
X42557190Y66097188D01*
X42557187Y66097191D01*
X42442093Y66183351D01*
X42442086Y66183355D01*
X42307379Y66233597D01*
X42307372Y66233599D01*
X42247844Y66240000D01*
X41600000Y66240000D01*
X41600000Y65336495D01*
X41495161Y65384373D01*
X41386473Y65400000D01*
X41313527Y65400000D01*
X41204839Y65384373D01*
X41100000Y65336495D01*
X41100000Y66240000D01*
X40452155Y66240000D01*
X40392627Y66233599D01*
X40392620Y66233597D01*
X40257913Y66183355D01*
X40257906Y66183351D01*
X40142812Y66097191D01*
X40142809Y66097188D01*
X40056649Y65982094D01*
X40056645Y65982087D01*
X40007578Y65850530D01*
X39965707Y65794596D01*
X39900242Y65770179D01*
X39831969Y65785031D01*
X39803715Y65806181D01*
X39759366Y65850530D01*
X39681401Y65928495D01*
X39681397Y65928498D01*
X39681396Y65928499D01*
X39487834Y66064033D01*
X39487830Y66064035D01*
X39416727Y66097191D01*
X39273663Y66163903D01*
X39273659Y66163904D01*
X39273655Y66163906D01*
X39045413Y66225062D01*
X39045403Y66225064D01*
X38810001Y66245659D01*
X38809999Y66245659D01*
X38574596Y66225064D01*
X38574586Y66225062D01*
X38346344Y66163906D01*
X38346335Y66163902D01*
X38132171Y66064036D01*
X38132169Y66064035D01*
X37938597Y65928495D01*
X37771505Y65761403D01*
X37641575Y65575842D01*
X37586998Y65532217D01*
X37517500Y65525023D01*
X37455145Y65556546D01*
X37438425Y65575842D01*
X37308494Y65761403D01*
X37141402Y65928494D01*
X37141395Y65928499D01*
X36947834Y66064033D01*
X36947830Y66064035D01*
X36876727Y66097191D01*
X36733663Y66163903D01*
X36733659Y66163904D01*
X36733655Y66163906D01*
X36505413Y66225062D01*
X36505403Y66225064D01*
X36270001Y66245659D01*
X36269999Y66245659D01*
X36034596Y66225064D01*
X36034586Y66225062D01*
X35806344Y66163906D01*
X35806335Y66163902D01*
X35592171Y66064036D01*
X35592169Y66064035D01*
X35398597Y65928495D01*
X35231505Y65761403D01*
X35101575Y65575842D01*
X35046998Y65532217D01*
X34977500Y65525023D01*
X34915145Y65556546D01*
X34898425Y65575842D01*
X34768494Y65761403D01*
X34601402Y65928494D01*
X34601395Y65928499D01*
X34407834Y66064033D01*
X34407830Y66064035D01*
X34336727Y66097191D01*
X34193663Y66163903D01*
X34193659Y66163904D01*
X34193655Y66163906D01*
X33965413Y66225062D01*
X33965403Y66225064D01*
X33730001Y66245659D01*
X33729999Y66245659D01*
X33494596Y66225064D01*
X33494586Y66225062D01*
X33266344Y66163906D01*
X33266335Y66163902D01*
X33052171Y66064036D01*
X33052169Y66064035D01*
X32858597Y65928495D01*
X32691505Y65761403D01*
X32561575Y65575842D01*
X32506998Y65532217D01*
X32437500Y65525023D01*
X32375145Y65556546D01*
X32358425Y65575842D01*
X32228494Y65761403D01*
X32061402Y65928494D01*
X32061395Y65928499D01*
X31867834Y66064033D01*
X31867830Y66064035D01*
X31796727Y66097191D01*
X31653663Y66163903D01*
X31653659Y66163904D01*
X31653655Y66163906D01*
X31425413Y66225062D01*
X31425403Y66225064D01*
X31190001Y66245659D01*
X31189999Y66245659D01*
X30954596Y66225064D01*
X30954586Y66225062D01*
X30726344Y66163906D01*
X30726335Y66163902D01*
X30512171Y66064036D01*
X30512169Y66064035D01*
X30318600Y65928497D01*
X30196284Y65806181D01*
X30134961Y65772697D01*
X30065269Y65777681D01*
X30009336Y65819553D01*
X29992421Y65850530D01*
X29943354Y65982087D01*
X29943350Y65982094D01*
X29857190Y66097188D01*
X29857187Y66097191D01*
X29742093Y66183351D01*
X29742086Y66183355D01*
X29607379Y66233597D01*
X29607372Y66233599D01*
X29547844Y66240000D01*
X28900000Y66240000D01*
X28900000Y65336495D01*
X28795161Y65384373D01*
X28686473Y65400000D01*
X28613527Y65400000D01*
X28504839Y65384373D01*
X28400000Y65336495D01*
X28400000Y66240000D01*
X27752155Y66240000D01*
X27692627Y66233599D01*
X27692620Y66233597D01*
X27557913Y66183355D01*
X27557906Y66183351D01*
X27442812Y66097191D01*
X27442809Y66097188D01*
X27356649Y65982094D01*
X27356645Y65982087D01*
X27307578Y65850530D01*
X27265707Y65794596D01*
X27200242Y65770179D01*
X27131969Y65785031D01*
X27103715Y65806181D01*
X27059366Y65850530D01*
X26981401Y65928495D01*
X26981397Y65928498D01*
X26981396Y65928499D01*
X26787834Y66064033D01*
X26787830Y66064035D01*
X26716727Y66097191D01*
X26573663Y66163903D01*
X26573659Y66163904D01*
X26573655Y66163906D01*
X26345413Y66225062D01*
X26345403Y66225064D01*
X26110001Y66245659D01*
X26109999Y66245659D01*
X25874596Y66225064D01*
X25874586Y66225062D01*
X25646344Y66163906D01*
X25646335Y66163902D01*
X25432171Y66064036D01*
X25432169Y66064035D01*
X25238597Y65928495D01*
X25071505Y65761403D01*
X24941575Y65575842D01*
X24886998Y65532217D01*
X24817500Y65525023D01*
X24755145Y65556546D01*
X24738425Y65575842D01*
X24608494Y65761403D01*
X24441402Y65928494D01*
X24441395Y65928499D01*
X24247834Y66064033D01*
X24247830Y66064035D01*
X24176727Y66097191D01*
X24033663Y66163903D01*
X24033659Y66163904D01*
X24033655Y66163906D01*
X23805413Y66225062D01*
X23805403Y66225064D01*
X23570001Y66245659D01*
X23569999Y66245659D01*
X23334596Y66225064D01*
X23334586Y66225062D01*
X23106344Y66163906D01*
X23106335Y66163902D01*
X22892171Y66064036D01*
X22892169Y66064035D01*
X22698597Y65928495D01*
X22531505Y65761403D01*
X22401575Y65575842D01*
X22346998Y65532217D01*
X22277500Y65525023D01*
X22215145Y65556546D01*
X22198425Y65575842D01*
X22068494Y65761403D01*
X21901402Y65928494D01*
X21901395Y65928499D01*
X21707834Y66064033D01*
X21707830Y66064035D01*
X21636727Y66097191D01*
X21493663Y66163903D01*
X21493659Y66163904D01*
X21493655Y66163906D01*
X21265413Y66225062D01*
X21265403Y66225064D01*
X21030001Y66245659D01*
X21029999Y66245659D01*
X20794596Y66225064D01*
X20794586Y66225062D01*
X20566344Y66163906D01*
X20566335Y66163902D01*
X20352171Y66064036D01*
X20352169Y66064035D01*
X20158597Y65928495D01*
X19991505Y65761403D01*
X19861575Y65575842D01*
X19806998Y65532217D01*
X19737500Y65525023D01*
X19675145Y65556546D01*
X19658425Y65575842D01*
X19528494Y65761403D01*
X19361402Y65928494D01*
X19361395Y65928499D01*
X19167834Y66064033D01*
X19167830Y66064035D01*
X19096727Y66097191D01*
X18953663Y66163903D01*
X18953659Y66163904D01*
X18953655Y66163906D01*
X18725413Y66225062D01*
X18725403Y66225064D01*
X18490001Y66245659D01*
X18489999Y66245659D01*
X18254596Y66225064D01*
X18254586Y66225062D01*
X18026344Y66163906D01*
X18026335Y66163902D01*
X17812171Y66064036D01*
X17812169Y66064035D01*
X17618600Y65928497D01*
X17496284Y65806181D01*
X17434961Y65772697D01*
X17365269Y65777681D01*
X17309336Y65819553D01*
X17292421Y65850530D01*
X17243354Y65982087D01*
X17243350Y65982094D01*
X17157190Y66097188D01*
X17157187Y66097191D01*
X17042093Y66183351D01*
X17042086Y66183355D01*
X16907379Y66233597D01*
X16907372Y66233599D01*
X16847844Y66240000D01*
X16200000Y66240000D01*
X16200000Y65336495D01*
X16095161Y65384373D01*
X15986473Y65400000D01*
X15913527Y65400000D01*
X15804839Y65384373D01*
X15700000Y65336495D01*
X15700000Y66240000D01*
X15052155Y66240000D01*
X14992627Y66233599D01*
X14992620Y66233597D01*
X14857913Y66183355D01*
X14857906Y66183351D01*
X14742812Y66097191D01*
X14742809Y66097188D01*
X14656649Y65982094D01*
X14656645Y65982087D01*
X14607578Y65850530D01*
X14565707Y65794596D01*
X14500242Y65770179D01*
X14431969Y65785031D01*
X14403715Y65806181D01*
X14359366Y65850530D01*
X14281401Y65928495D01*
X14281397Y65928498D01*
X14281396Y65928499D01*
X14087834Y66064033D01*
X14087830Y66064035D01*
X14016727Y66097191D01*
X13873663Y66163903D01*
X13873659Y66163904D01*
X13873655Y66163906D01*
X13645413Y66225062D01*
X13645403Y66225064D01*
X13410001Y66245659D01*
X13409999Y66245659D01*
X13174596Y66225064D01*
X13174586Y66225062D01*
X12946344Y66163906D01*
X12946335Y66163902D01*
X12732171Y66064036D01*
X12732169Y66064035D01*
X12538597Y65928495D01*
X12371505Y65761403D01*
X12241575Y65575842D01*
X12186998Y65532217D01*
X12117500Y65525023D01*
X12055145Y65556546D01*
X12038425Y65575842D01*
X11908494Y65761403D01*
X11741402Y65928494D01*
X11741395Y65928499D01*
X11547834Y66064033D01*
X11547830Y66064035D01*
X11476727Y66097191D01*
X11333663Y66163903D01*
X11333659Y66163904D01*
X11333655Y66163906D01*
X11105413Y66225062D01*
X11105403Y66225064D01*
X10870001Y66245659D01*
X10869999Y66245659D01*
X10634596Y66225064D01*
X10634586Y66225062D01*
X10406344Y66163906D01*
X10406335Y66163902D01*
X10192171Y66064036D01*
X10192169Y66064035D01*
X9998597Y65928495D01*
X9831505Y65761403D01*
X9695965Y65567831D01*
X9695964Y65567829D01*
X9641020Y65450000D01*
X9596271Y65354035D01*
X9596098Y65353665D01*
X9596094Y65353656D01*
X9534938Y65125414D01*
X9534936Y65125404D01*
X9514341Y64890001D01*
X9514341Y64890000D01*
X500Y64890000D01*
X500Y72000000D01*
X15094540Y72000000D01*
X15114326Y71811744D01*
X15114327Y71811741D01*
X15172818Y71631723D01*
X15172821Y71631716D01*
X15267467Y71467784D01*
X15357063Y71368278D01*
X15394129Y71327112D01*
X15547265Y71215852D01*
X15547270Y71215849D01*
X15720192Y71138858D01*
X15720197Y71138856D01*
X15905354Y71099500D01*
X15905355Y71099500D01*
X16094644Y71099500D01*
X16094646Y71099500D01*
X16279803Y71138856D01*
X16452730Y71215849D01*
X16605871Y71327112D01*
X16608788Y71330353D01*
X16611600Y71333474D01*
X16671087Y71370121D01*
X16703748Y71374500D01*
X20296252Y71374500D01*
X20363291Y71354815D01*
X20388400Y71333474D01*
X20394126Y71327115D01*
X20394130Y71327111D01*
X20547265Y71215852D01*
X20547270Y71215849D01*
X20720192Y71138858D01*
X20720197Y71138856D01*
X20905354Y71099500D01*
X20905355Y71099500D01*
X21094644Y71099500D01*
X21094646Y71099500D01*
X21279803Y71138856D01*
X21452730Y71215849D01*
X21605871Y71327112D01*
X21608788Y71330353D01*
X21611600Y71333474D01*
X21671087Y71370121D01*
X21703748Y71374500D01*
X24689548Y71374500D01*
X24756587Y71354815D01*
X24777229Y71338181D01*
X25061038Y71054372D01*
X25094523Y70993049D01*
X25096678Y70979653D01*
X25104139Y70908662D01*
X25114326Y70811744D01*
X25114327Y70811741D01*
X25172818Y70631723D01*
X25172821Y70631716D01*
X25267467Y70467784D01*
X25357063Y70368278D01*
X25394129Y70327112D01*
X25547265Y70215852D01*
X25547270Y70215849D01*
X25720192Y70138858D01*
X25720197Y70138856D01*
X25802839Y70121290D01*
X25864321Y70088098D01*
X25898097Y70026935D01*
X25893445Y69957220D01*
X25851840Y69901088D01*
X25802839Y69878710D01*
X25720197Y69861145D01*
X25720192Y69861143D01*
X25547270Y69784152D01*
X25547265Y69784149D01*
X25394129Y69672889D01*
X25267466Y69532215D01*
X25172821Y69368285D01*
X25172818Y69368278D01*
X25114327Y69188260D01*
X25114326Y69188256D01*
X25094540Y69000000D01*
X25114326Y68811744D01*
X25114327Y68811741D01*
X25172818Y68631723D01*
X25172821Y68631716D01*
X25267467Y68467784D01*
X25362560Y68362173D01*
X25394129Y68327112D01*
X25547265Y68215852D01*
X25547270Y68215849D01*
X25720192Y68138858D01*
X25720197Y68138856D01*
X25905354Y68099500D01*
X25905355Y68099500D01*
X26094644Y68099500D01*
X26094646Y68099500D01*
X26279803Y68138856D01*
X26452730Y68215849D01*
X26605871Y68327112D01*
X26611598Y68333472D01*
X26611600Y68333474D01*
X26671087Y68370121D01*
X26703748Y68374500D01*
X61506208Y68374500D01*
X61573247Y68354815D01*
X61598358Y68333472D01*
X61694127Y68227110D01*
X61847263Y68115850D01*
X61847268Y68115847D01*
X62020190Y68038856D01*
X62020195Y68038854D01*
X62205352Y67999498D01*
X62205353Y67999498D01*
X62394642Y67999498D01*
X62394644Y67999498D01*
X62579801Y68038854D01*
X62752728Y68115847D01*
X62905869Y68227110D01*
X63032531Y68367782D01*
X63127177Y68531714D01*
X63185672Y68711742D01*
X63205458Y68899998D01*
X63194132Y69007752D01*
X63206701Y69076477D01*
X63254433Y69127501D01*
X63279156Y69138647D01*
X63279790Y69138854D01*
X63279803Y69138856D01*
X63279815Y69138862D01*
X63279817Y69138862D01*
X63390430Y69188111D01*
X63452730Y69215849D01*
X63605871Y69327112D01*
X63732533Y69467784D01*
X63827179Y69631716D01*
X63885674Y69811744D01*
X63905460Y70000000D01*
X63885674Y70188256D01*
X63827179Y70368284D01*
X63827178Y70368286D01*
X63797916Y70418970D01*
X63781443Y70486870D01*
X63797916Y70542970D01*
X63832920Y70603599D01*
X63879171Y70683708D01*
X63937666Y70863736D01*
X63957452Y71051992D01*
X63937666Y71240248D01*
X63879171Y71420276D01*
X63849064Y71472423D01*
X63832592Y71540320D01*
X63849063Y71596417D01*
X63927179Y71731716D01*
X63985674Y71911744D01*
X64005460Y72100000D01*
X63985674Y72288256D01*
X63927179Y72468284D01*
X63832533Y72632216D01*
X63705871Y72772888D01*
X63705870Y72772889D01*
X63552734Y72884149D01*
X63552729Y72884152D01*
X63379807Y72961143D01*
X63379802Y72961145D01*
X63234001Y72992135D01*
X63194646Y73000500D01*
X63005354Y73000500D01*
X62972897Y72993602D01*
X62820197Y72961145D01*
X62820192Y72961143D01*
X62647270Y72884152D01*
X62647265Y72884149D01*
X62494130Y72772890D01*
X62494126Y72772886D01*
X62488400Y72766526D01*
X62428913Y72729879D01*
X62396252Y72725500D01*
X39482737Y72725500D01*
X39467120Y72727224D01*
X39467093Y72726938D01*
X39459331Y72727673D01*
X39390203Y72725500D01*
X39360650Y72725500D01*
X39359929Y72725410D01*
X39353757Y72724631D01*
X39347945Y72724174D01*
X39301372Y72722710D01*
X39301369Y72722709D01*
X39282126Y72717119D01*
X39263083Y72713175D01*
X39243204Y72710664D01*
X39243203Y72710663D01*
X39199878Y72693510D01*
X39194352Y72691618D01*
X39149608Y72678617D01*
X39149604Y72678615D01*
X39132365Y72668420D01*
X39114898Y72659863D01*
X39096269Y72652488D01*
X39096267Y72652486D01*
X39058571Y72625100D01*
X39053696Y72621897D01*
X39046732Y72617778D01*
X38983595Y72600500D01*
X38905354Y72600500D01*
X38872915Y72593605D01*
X38720197Y72561145D01*
X38720192Y72561143D01*
X38547270Y72484152D01*
X38547265Y72484149D01*
X38394129Y72372889D01*
X38267466Y72232215D01*
X38172821Y72068285D01*
X38172818Y72068278D01*
X38118304Y71900500D01*
X38114326Y71888256D01*
X38103384Y71784149D01*
X38094540Y71700000D01*
X38095858Y71687461D01*
X38083288Y71618731D01*
X38035556Y71567708D01*
X37972537Y71550500D01*
X34771278Y71550500D01*
X34704239Y71570185D01*
X34679128Y71591528D01*
X34644596Y71629879D01*
X34605871Y71672888D01*
X34605870Y71672889D01*
X34452734Y71784149D01*
X34452729Y71784152D01*
X34279807Y71861143D01*
X34279802Y71861145D01*
X34134001Y71892135D01*
X34094646Y71900500D01*
X33905354Y71900500D01*
X33872897Y71893602D01*
X33720197Y71861145D01*
X33720192Y71861143D01*
X33547270Y71784152D01*
X33547265Y71784149D01*
X33394129Y71672889D01*
X33267466Y71532215D01*
X33172821Y71368285D01*
X33172818Y71368278D01*
X33114327Y71188260D01*
X33114326Y71188256D01*
X33094540Y71000000D01*
X33114326Y70811744D01*
X33114327Y70811741D01*
X33122100Y70787818D01*
X33124095Y70717977D01*
X33088015Y70658144D01*
X33025314Y70627316D01*
X33004169Y70625500D01*
X31703748Y70625500D01*
X31636709Y70645185D01*
X31611600Y70666526D01*
X31605873Y70672886D01*
X31605869Y70672890D01*
X31452734Y70784149D01*
X31452729Y70784152D01*
X31279807Y70861143D01*
X31279802Y70861145D01*
X31134001Y70892135D01*
X31094646Y70900500D01*
X30905354Y70900500D01*
X30872897Y70893602D01*
X30720197Y70861145D01*
X30720192Y70861143D01*
X30547270Y70784152D01*
X30547265Y70784149D01*
X30394129Y70672889D01*
X30267466Y70532215D01*
X30172821Y70368285D01*
X30172818Y70368278D01*
X30114327Y70188260D01*
X30114326Y70188256D01*
X30094540Y70000000D01*
X30114326Y69811744D01*
X30114327Y69811741D01*
X30122100Y69787818D01*
X30124095Y69717977D01*
X30088015Y69658144D01*
X30025314Y69627316D01*
X30004169Y69625500D01*
X26703748Y69625500D01*
X26636709Y69645185D01*
X26611600Y69666526D01*
X26605873Y69672886D01*
X26605869Y69672890D01*
X26452734Y69784149D01*
X26452729Y69784152D01*
X26279807Y69861143D01*
X26279800Y69861145D01*
X26197161Y69878710D01*
X26135679Y69911902D01*
X26101902Y69973065D01*
X26106554Y70042779D01*
X26148158Y70098912D01*
X26197161Y70121290D01*
X26203201Y70122574D01*
X26279803Y70138856D01*
X26452730Y70215849D01*
X26605871Y70327112D01*
X26608788Y70330353D01*
X26611600Y70333474D01*
X26671087Y70370121D01*
X26703748Y70374500D01*
X28296252Y70374500D01*
X28363291Y70354815D01*
X28388400Y70333474D01*
X28394126Y70327115D01*
X28394130Y70327111D01*
X28547265Y70215852D01*
X28547270Y70215849D01*
X28720192Y70138858D01*
X28720197Y70138856D01*
X28905354Y70099500D01*
X28905355Y70099500D01*
X29094644Y70099500D01*
X29094646Y70099500D01*
X29279803Y70138856D01*
X29452730Y70215849D01*
X29605871Y70327112D01*
X29732533Y70467784D01*
X29827179Y70631716D01*
X29885674Y70811744D01*
X29905460Y71000000D01*
X29885674Y71188256D01*
X29827179Y71368284D01*
X29732533Y71532216D01*
X29605871Y71672888D01*
X29605870Y71672889D01*
X29452734Y71784149D01*
X29452729Y71784152D01*
X29279807Y71861143D01*
X29279802Y71861145D01*
X29134001Y71892135D01*
X29094646Y71900500D01*
X28905354Y71900500D01*
X28872897Y71893602D01*
X28720197Y71861145D01*
X28720192Y71861143D01*
X28547270Y71784152D01*
X28547265Y71784149D01*
X28394130Y71672890D01*
X28394126Y71672886D01*
X28388400Y71666526D01*
X28328913Y71629879D01*
X28296252Y71625500D01*
X26703748Y71625500D01*
X26636709Y71645185D01*
X26611600Y71666526D01*
X26605873Y71672886D01*
X26605869Y71672890D01*
X26452734Y71784149D01*
X26452729Y71784152D01*
X26279807Y71861143D01*
X26279802Y71861145D01*
X26134001Y71892135D01*
X26094646Y71900500D01*
X26094645Y71900500D01*
X26035452Y71900500D01*
X25968413Y71920185D01*
X25947771Y71936819D01*
X25500803Y72383788D01*
X25490980Y72396050D01*
X25490759Y72395866D01*
X25485786Y72401877D01*
X25435364Y72449227D01*
X25424919Y72459672D01*
X25414475Y72470117D01*
X25408986Y72474375D01*
X25404561Y72478153D01*
X25370582Y72510062D01*
X25370580Y72510064D01*
X25370577Y72510065D01*
X25353029Y72519712D01*
X25336763Y72530396D01*
X25320933Y72542675D01*
X25278168Y72561182D01*
X25272922Y72563752D01*
X25232093Y72586197D01*
X25232092Y72586198D01*
X25212693Y72591178D01*
X25194281Y72597482D01*
X25175898Y72605438D01*
X25175892Y72605440D01*
X25129874Y72612728D01*
X25124152Y72613913D01*
X25079021Y72625500D01*
X25079019Y72625500D01*
X25058984Y72625500D01*
X25039586Y72627027D01*
X25032162Y72628203D01*
X25019805Y72630160D01*
X25019804Y72630160D01*
X24973416Y72625775D01*
X24967578Y72625500D01*
X21703748Y72625500D01*
X21636709Y72645185D01*
X21611600Y72666526D01*
X21605873Y72672886D01*
X21605869Y72672890D01*
X21452734Y72784149D01*
X21452729Y72784152D01*
X21279807Y72861143D01*
X21279802Y72861145D01*
X21134001Y72892135D01*
X21094646Y72900500D01*
X20905354Y72900500D01*
X20872897Y72893602D01*
X20720197Y72861145D01*
X20720192Y72861143D01*
X20547270Y72784152D01*
X20547265Y72784149D01*
X20394130Y72672890D01*
X20394126Y72672886D01*
X20388400Y72666526D01*
X20328913Y72629879D01*
X20296252Y72625500D01*
X16703748Y72625500D01*
X16636709Y72645185D01*
X16611600Y72666526D01*
X16605873Y72672886D01*
X16605869Y72672890D01*
X16452734Y72784149D01*
X16452729Y72784152D01*
X16279807Y72861143D01*
X16279802Y72861145D01*
X16134001Y72892135D01*
X16094646Y72900500D01*
X15905354Y72900500D01*
X15872897Y72893602D01*
X15720197Y72861145D01*
X15720192Y72861143D01*
X15547270Y72784152D01*
X15547265Y72784149D01*
X15394129Y72672889D01*
X15267466Y72532215D01*
X15172821Y72368285D01*
X15172818Y72368278D01*
X15128609Y72232215D01*
X15114326Y72188256D01*
X15094540Y72000000D01*
X500Y72000000D01*
X500Y76000000D01*
X3094540Y76000000D01*
X3114326Y75811744D01*
X3114327Y75811741D01*
X3172818Y75631723D01*
X3172821Y75631716D01*
X3267467Y75467784D01*
X3369185Y75354815D01*
X3394129Y75327112D01*
X3547265Y75215852D01*
X3547270Y75215849D01*
X3720192Y75138858D01*
X3720197Y75138856D01*
X3905354Y75099500D01*
X3905355Y75099500D01*
X4094644Y75099500D01*
X4094646Y75099500D01*
X4279803Y75138856D01*
X4452730Y75215849D01*
X4605871Y75327112D01*
X4608788Y75330353D01*
X4611600Y75333474D01*
X4671087Y75370121D01*
X4703748Y75374500D01*
X15296252Y75374500D01*
X15363291Y75354815D01*
X15388400Y75333474D01*
X15394126Y75327115D01*
X15394130Y75327111D01*
X15547265Y75215852D01*
X15547270Y75215849D01*
X15720192Y75138858D01*
X15720197Y75138856D01*
X15905354Y75099500D01*
X15905355Y75099500D01*
X16094644Y75099500D01*
X16094646Y75099500D01*
X16279803Y75138856D01*
X16452730Y75215849D01*
X16605871Y75327112D01*
X16732533Y75467784D01*
X16827179Y75631716D01*
X16885674Y75811744D01*
X16905460Y76000000D01*
X16885674Y76188256D01*
X16827179Y76368284D01*
X16732533Y76532216D01*
X16605871Y76672888D01*
X16605870Y76672889D01*
X16452734Y76784149D01*
X16452729Y76784152D01*
X16279807Y76861143D01*
X16279802Y76861145D01*
X16134001Y76892135D01*
X16094646Y76900500D01*
X15905354Y76900500D01*
X15872897Y76893602D01*
X15720197Y76861145D01*
X15720192Y76861143D01*
X15547270Y76784152D01*
X15547265Y76784149D01*
X15394130Y76672890D01*
X15394126Y76672886D01*
X15388400Y76666526D01*
X15328913Y76629879D01*
X15296252Y76625500D01*
X4703748Y76625500D01*
X4636709Y76645185D01*
X4611600Y76666526D01*
X4605873Y76672886D01*
X4605869Y76672890D01*
X4452734Y76784149D01*
X4452729Y76784152D01*
X4279807Y76861143D01*
X4279802Y76861145D01*
X4134001Y76892135D01*
X4094646Y76900500D01*
X3905354Y76900500D01*
X3872897Y76893602D01*
X3720197Y76861145D01*
X3720192Y76861143D01*
X3547270Y76784152D01*
X3547265Y76784149D01*
X3394129Y76672889D01*
X3267466Y76532215D01*
X3172821Y76368285D01*
X3172818Y76368278D01*
X3114327Y76188260D01*
X3114326Y76188256D01*
X3094540Y76000000D01*
X500Y76000000D01*
X500Y77997295D01*
X736Y78002701D01*
X4476Y78045446D01*
X16918Y78171777D01*
X20542Y78191691D01*
X38402Y78258347D01*
X66683Y78351576D01*
X72953Y78367963D01*
X104420Y78435442D01*
X105872Y78438347D01*
X150764Y78522334D01*
X154657Y78528669D01*
X187837Y78576055D01*
X200994Y78594845D01*
X203827Y78598580D01*
X263122Y78670832D01*
X267162Y78675290D01*
X324710Y78732838D01*
X329168Y78736878D01*
X401420Y78796173D01*
X405155Y78799006D01*
X471334Y78845346D01*
X477666Y78849236D01*
X561653Y78894128D01*
X564558Y78895580D01*
X632037Y78927047D01*
X648424Y78933317D01*
X741653Y78961598D01*
X808309Y78979458D01*
X828223Y78983082D01*
X954542Y78995523D01*
X997305Y78999265D01*
X1002706Y78999500D01*
X34997293Y78999500D01*
X35002695Y78999265D01*
X35045519Y78995518D01*
X35171771Y78983082D01*
X35191685Y78979459D01*
X35258349Y78961597D01*
X35351570Y78933318D01*
X35367971Y78927042D01*
X35435411Y78895594D01*
X35438375Y78894112D01*
X35475969Y78874018D01*
X35522327Y78849238D01*
X35528667Y78845343D01*
X35594828Y78799017D01*
X35598600Y78796156D01*
X35670808Y78736897D01*
X35675309Y78732818D01*
X35732815Y78675312D01*
X35736895Y78670810D01*
X35796154Y78598602D01*
X35799015Y78594830D01*
X35845341Y78528669D01*
X35849236Y78522329D01*
X35894101Y78438395D01*
X35895614Y78435369D01*
X35927040Y78367973D01*
X35933319Y78351565D01*
X35961601Y78258331D01*
X35979454Y78191701D01*
X35983082Y78171762D01*
X35995523Y78045446D01*
X35999264Y78002698D01*
X35999500Y77997290D01*
X35999500Y73912466D01*
X36029898Y73740063D01*
X36089775Y73575554D01*
X36177309Y73423943D01*
X36289836Y73289837D01*
X36423942Y73177310D01*
X36423943Y73177309D01*
X36423945Y73177308D01*
X36575555Y73089775D01*
X36740062Y73029899D01*
X36912468Y72999500D01*
X36912472Y72999500D01*
X53087528Y72999500D01*
X53087532Y72999500D01*
X53259938Y73029899D01*
X53424445Y73089775D01*
X53576055Y73177308D01*
X53710163Y73289837D01*
X53822692Y73423945D01*
X53910225Y73575555D01*
X53970101Y73740062D01*
X54000500Y73912468D01*
X54000500Y74000000D01*
X54000500Y74000500D01*
X54000500Y78250000D01*
X59044922Y78250000D01*
X59065219Y77862713D01*
X59125886Y77479677D01*
X59125887Y77479670D01*
X59226262Y77105064D01*
X59365244Y76743006D01*
X59541310Y76397457D01*
X59752531Y76072207D01*
X59961095Y75814650D01*
X59961096Y75814650D01*
X61452266Y77305820D01*
X61615130Y77115130D01*
X61805819Y76952267D01*
X60314648Y75461097D01*
X60314649Y75461096D01*
X60572206Y75252532D01*
X60897456Y75041311D01*
X61243005Y74865245D01*
X61605063Y74726263D01*
X61979669Y74625888D01*
X61979676Y74625887D01*
X62362712Y74565220D01*
X62749999Y74544922D01*
X62750001Y74544922D01*
X63137287Y74565220D01*
X63520323Y74625887D01*
X63520330Y74625888D01*
X63894936Y74726263D01*
X64256994Y74865245D01*
X64602543Y75041311D01*
X64927783Y75252524D01*
X64927785Y75252525D01*
X65185349Y75461098D01*
X63694180Y76952267D01*
X63884870Y77115130D01*
X64047733Y77305820D01*
X65538902Y75814651D01*
X65747475Y76072215D01*
X65747476Y76072217D01*
X65958689Y76397457D01*
X66134755Y76743006D01*
X66273737Y77105064D01*
X66374112Y77479670D01*
X66374113Y77479677D01*
X66434780Y77862713D01*
X66455078Y78250000D01*
X66455078Y78250001D01*
X66434780Y78637288D01*
X66374113Y79020324D01*
X66374112Y79020331D01*
X66273737Y79394937D01*
X66134755Y79756995D01*
X65958689Y80102544D01*
X65747468Y80427794D01*
X65538904Y80685351D01*
X65538903Y80685352D01*
X64047732Y79194182D01*
X63884870Y79384870D01*
X63694180Y79547734D01*
X65185350Y81038904D01*
X65185350Y81038905D01*
X64927793Y81247469D01*
X64602543Y81458690D01*
X64256994Y81634756D01*
X63894936Y81773738D01*
X63520330Y81874113D01*
X63520323Y81874114D01*
X63137287Y81934781D01*
X62750001Y81955078D01*
X62749999Y81955078D01*
X62362712Y81934781D01*
X61979676Y81874114D01*
X61979669Y81874113D01*
X61605063Y81773738D01*
X61243005Y81634756D01*
X60897456Y81458690D01*
X60572206Y81247469D01*
X60314648Y81038905D01*
X60314648Y81038904D01*
X61805819Y79547734D01*
X61615130Y79384870D01*
X61452266Y79194182D01*
X59961096Y80685352D01*
X59961095Y80685352D01*
X59752531Y80427794D01*
X59541310Y80102544D01*
X59365244Y79756995D01*
X59226262Y79394937D01*
X59125887Y79020331D01*
X59125886Y79020324D01*
X59065219Y78637288D01*
X59044922Y78250001D01*
X59044922Y78250000D01*
X54000500Y78250000D01*
X54000500Y81997295D01*
X54000736Y82002701D01*
X54004476Y82045446D01*
X54016918Y82171777D01*
X54020542Y82191691D01*
X54038402Y82258347D01*
X54066683Y82351576D01*
X54072953Y82367963D01*
X54104420Y82435442D01*
X54105872Y82438347D01*
X54150764Y82522334D01*
X54154657Y82528669D01*
X54187837Y82576055D01*
X54200994Y82594845D01*
X54203827Y82598580D01*
X54263122Y82670832D01*
X54267162Y82675290D01*
X54324710Y82732838D01*
X54329168Y82736878D01*
X54401420Y82796173D01*
X54405155Y82799006D01*
X54471334Y82845346D01*
X54477666Y82849236D01*
X54561653Y82894128D01*
X54564558Y82895580D01*
X54632037Y82927047D01*
X54648424Y82933317D01*
X54741653Y82961598D01*
X54808309Y82979458D01*
X54828223Y82983082D01*
X54954542Y82995523D01*
X54997305Y82999265D01*
X55002706Y82999500D01*
X66997293Y82999500D01*
X67002695Y82999265D01*
G37*
G04 #@! TD.AperFunction*
G04 #@! TD*
M02*
